<svg xmlns="http://www.w3.org/2000/svg" viewBox="0 0 42.08 42.08"><defs><style>.cls-1{fill:#e5616c;}</style></defs><title>cart</title><g id="Layer_2" data-name="Layer 2"><g id="ELEMENTS"><path class="cls-1" d="M7,37.4a4.67,4.67,0,1,0,4.67-4.67A4.68,4.68,0,0,0,7,37.4Zm23.37,0a4.68,4.68,0,1,0,4.68-4.67A4.68,4.68,0,0,0,30.39,37.4ZM15.31,26.35,41.18,19a1.31,1.31,0,0,0,.9-1.19V4.91h-33v-4A.94.94,0,0,0,8.18,0H.94A.94.94,0,0,0,0,.93V4.67H4.54l4.6,21.17L9.59,28v3.51a.94.94,0,0,0,.93.93H41.14a.94.94,0,0,0,.93-.93V28H15.79C13.1,28,13,27,15.31,26.35Z"/></g></g></svg>