<svg xmlns="http://www.w3.org/2000/svg" viewBox="0 0 650.99 392.84"><defs><style>.cls-1{fill:#fff;}</style></defs><title>everyday</title><g id="Layer_2" data-name="Layer 2"><g id="Layer_1-2" data-name="Layer 1"><g id="_Group_" data-name="&lt;Group&gt;"><path id="_Compound_Path_" data-name="&lt;Compound Path&gt;" class="cls-1" d="M26.75,91.19c-3.49.65-8.84,1.31-12.34,1.84-.52.08-1,.29-1.54.36-1,1.47-.35,3,.12,4.37,1.66,4,2,8.33,2.92,12.45.61,3.23,1.34,6.31,1.8,9.43.3,2.88-.08,2.14.2,4.89a47.46,47.46,0,0,0,1.89,9.15,18.45,18.45,0,0,0,3.77-.56c1.78-.53,4.79-.85,6.59-1.25,2-.57,4-.06,4.66,1.83.06.39.69,1.09-1.29,2.05-2.7,1.46-6.69,2.32-9.6,3.29l-3.32.89c-.5,2.87,1.22,10.84,1.47,13.46s.66,5.35,1.05,7.95.77,5.2,1.2,8.06a21.34,21.34,0,0,0,5-.6c1.24-.58,3.73-.82,5-1.28a7.72,7.72,0,0,1,5.56.77,3,3,0,0,1,1.7,2.54A1.81,1.81,0,0,1,40,172.23c-2.17.59-15.89,3-18.37,4.2a9.93,9.93,0,0,1-6.7.47c-.84-.27-1.38-.33-1.88-1a9,9,0,0,1-1.38-3.91c-1.42-10.42-3.4-24.6-4.82-35-1-6.5-1-9.41-2.1-15.89-1-6.76-2.27-13.48-3.41-20.21C.95,99,.66,97.06.26,95.26A16.69,16.69,0,0,1,0,92.64c0-2,.74-3,2.78-3.6a51.05,51.05,0,0,1,6.16-1.45c4.4-.79,10.64-1.72,15-2.5a12.18,12.18,0,0,1,4.87.6c1.23.22,1.79,1.33,2.23,2.46C30.22,90.4,28.42,90.81,26.75,91.19Z"/><path id="_Compound_Path_2" data-name="&lt;Compound Path&gt;" class="cls-1" d="M40.19,83.34c2.77-.15,4.7-.57,6.27,2s2.22,5.11,3.15,7.77c1.27,4.06,2.43,8.27,3.7,12.33,2.25,7.1,6.5,18.69,8.76,25.79s5.13,15.71,7.49,22.66c.17.24.47.46.51.72.8,0,.85-.52.92-.93.67-6.21.94-14.22,1.07-20.48,0-2.66.4-5.37.4-8,0-6.91-.06-13.8,0-20.72,0-4.12.25-8.14.3-12.26a4.83,4.83,0,0,1,.78-2.77,2.6,2.6,0,0,1,3.34-.76,1.87,1.87,0,0,1,1.09,2c-.06,2.27,0,4.52.08,6.76q-.18,12.18-.36,24.36c0,2-.22,3.88-.34,5.76-.35,9.22-.55,20.4-1,29.64-.12,1.88-.5,3.79-.75,5.69-.46,3.12-2.35,4.73-5.34,5.18l-2.08.31c-3.9.58-6.49-.76-8.33-4.21a43.52,43.52,0,0,1-2.37-5.23c-2.21-5.91-4.84-13.76-6.79-19.71-2.59-7.58-4.81-15.36-7.53-22.92-2.53-7.19-5.89-19-8.29-26.26a19.05,19.05,0,0,1-1.24-4.73C34.24,82.63,38.07,83.39,40.19,83.34Z"/><path id="_Compound_Path_3" data-name="&lt;Compound Path&gt;" class="cls-1" d="M110.95,78.65c-3.49.65-8.84,1.32-12.34,1.84-.52.08-1,.29-1.54.36-1,1.47-.35,3,.12,4.37,1.66,4,2,8.33,2.92,12.45.61,3.23,1.34,6.31,1.8,9.43.3,2.88-.08,2.14.2,4.89a47.47,47.47,0,0,0,1.89,9.15,18.47,18.47,0,0,0,3.77-.56c1.78-.53,4.79-.85,6.59-1.25,2-.57,4-.06,4.66,1.83.06.39.69,1.09-1.29,2.05-2.7,1.47-6.69,2.33-9.6,3.29l-3.32.89c-.5,2.86,1.22,10.84,1.47,13.46s.66,5.35,1.05,7.95.77,5.2,1.2,8.06a21.34,21.34,0,0,0,5-.6c1.24-.58,3.73-.82,5-1.28a7.72,7.72,0,0,1,5.56.77,3,3,0,0,1,1.71,2.54,1.81,1.81,0,0,1-1.52,1.42c-2.17.59-15.89,3-18.37,4.2a9.93,9.93,0,0,1-6.7.47c-.84-.27-1.38-.33-1.88-1a9,9,0,0,1-1.38-3.91c-1.42-10.42-3.4-24.6-4.82-35-1-6.5-1-9.41-2.1-15.89-1-6.76-2.27-13.48-3.41-20.21-.4-1.8-.69-3.75-1.09-5.55a16.81,16.81,0,0,1-.26-2.62c0-2,.74-3,2.78-3.6a51,51,0,0,1,6.16-1.45c4.4-.79,10.64-1.72,15-2.5a12.16,12.16,0,0,1,4.87.6c1.23.22,1.79,1.33,2.23,2.46C114.42,77.86,112.62,78.27,110.95,78.65Z"/><path id="_Compound_Path_4" data-name="&lt;Compound Path&gt;" class="cls-1" d="M126.72,68.6c5.52-.42,12.2,2.56,17.76,6a89.78,89.78,0,0,1,8.06,6c4.71,3.95,6.2,7.71,7.87,13.57.26.89,2.34,12.14.63,18.5-1.75,6.1-7.44,10.67-12.16,14.69a39.8,39.8,0,0,0,3.85,4.47,187.86,187.86,0,0,1,12.87,15.09c1,1.18,1.8,2.26,2.64,3.46a3.17,3.17,0,0,1-.41,2.59c-1.27,2.18-3.42,2.9-5.36,1.46a12,12,0,0,1-2.86-3.16,126.76,126.76,0,0,0-8.36-11.51c-2.64-3.46-5.87-5.5-9.08-8.34a9.34,9.34,0,0,0,.16,2c1,6.5,1.87,11.68,2.82,18a27.27,27.27,0,0,1,.48,3.25,3.67,3.67,0,0,1-2.58,4.1,14.53,14.53,0,0,1-2.3.61,5.13,5.13,0,0,1-5.89-3,16.51,16.51,0,0,1-1-3.43c-1.87-10.75-3.8-20.15-5.29-31.09s-2.83-19-4.58-29.87c-.67-3.62-1.6-7.2-2.28-10.82l-1.37-9.23C120,69.6,125.14,68.7,126.72,68.6Zm7,10.12c1,4.36,3.34,18,3.85,22.27.76,6,1.56,9.6,2.58,15.55.41,2.73,1,5.57,1.54,8.54a12.41,12.41,0,0,0,5.09-3.28c1.9-1.48,4.22-2.89,5.34-5.18.63-1.16,1.85-1.87,2.82-6.93.76-3.83.58-5,0-8.77-.86-4.92-.48-2.32-1.73-7.18-1-4.64-3.78-7.54-7.22-11a24.21,24.21,0,0,0-2.09-1.55c-4-3-10.72-6-10.56-4.94A15.38,15.38,0,0,0,133.67,78.72Z"/><path id="_Compound_Path_5" data-name="&lt;Compound Path&gt;" class="cls-1" d="M204.83,66c-.38,1.92-.63,3.81-1,5.73-1.45,6.32-2.28,13.22-4.14,19.48-1.44,4.6-2.34,11.91-3.36,15.78-.69,2.49-.29.71.09,5,.28,2.75.44,5.65.87,8.5.59,4.83.84,3.86,1.69,8.65.81,5.46,1.48,9.08,2.43,14.51a16,16,0,0,1,.24,2.49c0,2.53-1.3,3.78-3.93,3.91-.39.06-.8,0-1.19,0-4.52,0-6.48-1.56-7.35-5.68a4.31,4.31,0,0,1-.27-1.82c-.59-5.76-1.71-9.71-2.58-15.55-1-6.09-2.18-17.34-2.62-18.47-.27-.89-5.61-9.13-7.55-13.22-2.92-6.21-6-10.67-9-16.85-1.17-2.48-3-4.74-4.13-7.22a11.54,11.54,0,0,1-.57-2c-.14-.91-.14-1.84.86-2.25a2.59,2.59,0,0,1,2.88-.3c2.16,1.14,3,2.88,4.3,4.81a21.75,21.75,0,0,1,2.16,3.8c2.67,5.45,6.12,10.78,8.55,16.39,1,2.37,1.92,4.89,4.11,7.09.48-1.27,1-2.4,1.34-3.52,1.44-4.6,3.6-23.11,4.7-28.19a22.54,22.54,0,0,1,2.45-6.74c1.62-2.5,3.25-3.14,6.41-2.42a2.83,2.83,0,0,1,.71.29C205.78,60.81,206.21,61,204.83,66Z"/><path id="_Compound_Path_6" data-name="&lt;Compound Path&gt;" class="cls-1" d="M256.67,104.63a46,46,0,0,1,.2,12.06c-.87,12.88-8.36,21.44-11.44,23.09-1.59.9-3.78,2.29-5.52,3.08a29.06,29.06,0,0,1-5.06,1.68,6.62,6.62,0,0,1-9.23,4,7.27,7.27,0,0,1-5-6.57c-1.11-8.34-2.48-16.63-4-24.91-2-11.4-4.06-22.77-5.11-34.31a149,149,0,0,0-5.08-26.07,1.66,1.66,0,0,1,0-.8,9,9,0,0,1,6.58-2.18c1.88.12,3.81-.3,5.34,1.07a3.08,3.08,0,0,0,1.6,0c6.28-.67,12.48,1.73,18.23,3.79,6.94,4.68,8.83,7.58,11.28,12.4a32.7,32.7,0,0,1,3.18,9.75C254.14,89.47,255.37,95.93,256.67,104.63ZM246.51,86.35c-.54-2.71-.95-2.78-1.2-5.4a16.68,16.68,0,0,0-1.76-5.58c-.94-1.85-1.77-3.85-2.84-5.69a27.23,27.23,0,0,0-3.82-5.14c-4.22-3.36-8.49-5.25-13.67-5.27-.54-.05-1,.29-1.91.55A39.29,39.29,0,0,0,222.46,64c1,4.23,2.3,8.29,3.2,12.54.54,2.71.55,5.5.83,8.24.85,5.72,1.68,11.31,2.39,16.91.58,3.9,1.18,7.93,1.63,11.85,1,6.89,2.07,13.9,3,20.81.27,1.82.54,3.64.68,5.48.56.18,2.06-.44,2.93-.83a20.59,20.59,0,0,0,3.18-1.8c1.68-1.18,6-2.49,9-12.5.33-1.38,1.64-5,1.48-7-.44-5.65-.88-11.29-1.59-16.9C248.59,95.87,247.48,91.12,246.51,86.35Z"/><path id="_Compound_Path_7" data-name="&lt;Compound Path&gt;" class="cls-1" d="M275.85,110.41s-.7,4.22-.86,5.84c-.58,5-1.19,8.94-1.78,13.95a9.92,9.92,0,0,1-1.24,3.24,2.17,2.17,0,0,1-2.59,1.32,3,3,0,0,1-2.39-2.7q0-1.39,0-2.79c.35-3.9.85-7.7,1.21-11.47.87-9.3,1.88-18.61,2.75-27.9,1-9.05,2.09-18.11,3-27.14.37-3.77.46-7.64,1.21-11.47.54-2.6,3-4.83,5.57-4.55A11.2,11.2,0,0,1,285,47.81a6.15,6.15,0,0,1,2.9,3.42c.34,1.41.82,2.8,1.16,4.21,1.75,7.31,3.39,14.77,5.28,22.06,1.07,4.49,2.65,8.9,4,13.48,1.06,3.56,2.12,7.12,3.05,10.7,1.68,6.79,3.5,13.69,5.2,20.61.49,1.52,1.13,3.15,1.63,4.67a10.82,10.82,0,0,1,.78,3.47,4.36,4.36,0,0,1-3.37,5c-4.25.9-8.33-1.55-9.94-6.09-1.23-3.8-2.74-7.69-4-11.5-1-2.91-1.67-5.86-2.49-8.66-.25-.76-.49-1.52-.91-2.52C283.87,108,279.92,109.14,275.85,110.41Zm11.39-12.72c-.82-2.8-1.5-5.62-2.32-8.42a138.4,138.4,0,0,1-3-14.57c0-.26-1.77-7.44-2.11-7.92-.87,1.32-1.13,9.33-1.35,10.56-.62,5.67-1.21,11.47-1.83,17.14-.15,2.55-.3,5.09-.48,7.51a17.23,17.23,0,0,0,0,2.4c3.43-1,7.9-2.24,11.57-3.45Z"/><path id="_Compound_Path_8" data-name="&lt;Compound Path&gt;" class="cls-1" d="M344,45.27c-.38,1.92-.63,3.81-1,5.73-1.45,6.32-2.28,13.22-4.14,19.48-1.44,4.6-2.34,11.91-3.36,15.78-.69,2.49-.29.71.09,5,.28,2.75.44,5.65.87,8.5.59,4.83.84,3.86,1.69,8.65.81,5.46,1.48,9.08,2.43,14.51a16,16,0,0,1,.24,2.49c0,2.53-1.3,3.78-3.93,3.91-.39.06-.8,0-1.19,0-4.52,0-6.48-1.56-7.35-5.68a4.33,4.33,0,0,1-.27-1.82c-.59-5.76-1.71-9.71-2.58-15.55-1-6.09-2.18-17.34-2.62-18.47-.27-.89-5.61-9.13-7.55-13.22-2.92-6.21-6-10.67-9-16.85-1.17-2.48-3-4.74-4.13-7.22a11.54,11.54,0,0,1-.57-2c-.14-.91-.14-1.84.86-2.25a2.59,2.59,0,0,1,2.88-.3c2.16,1.14,3,2.88,4.3,4.81a21.75,21.75,0,0,1,2.16,3.8c2.67,5.45,6.12,10.78,8.55,16.39,1,2.37,1.92,4.89,4.11,7.09.48-1.27,1-2.4,1.34-3.52,1.44-4.6,3.6-23.11,4.7-28.19a22.57,22.57,0,0,1,2.45-6.74c1.62-2.5,3.25-3.14,6.41-2.41a2.81,2.81,0,0,1,.71.29C344.94,40.08,345.37,40.29,344,45.27Z"/><path id="_Compound_Path_9" data-name="&lt;Compound Path&gt;" class="cls-1" d="M407.1,33a5.35,5.35,0,0,1-3,1.5c-1.8.4-3.75.69-5.55,1.09a15.66,15.66,0,0,0-2.54.78,70.73,70.73,0,0,1,1.81,7.7c.83,5.59,2.07,11.25,3.17,16.8.5,2.45.87,4.92,1.23,7.39,1.18,7.93,2.36,15.85,3.65,23.63.77,4.27,1.93,8.48,2.68,12.62a84.53,84.53,0,0,1,1.6,9.86,5.36,5.36,0,0,1-5.61,6,10.22,10.22,0,0,1-5.6-2,4.67,4.67,0,0,1-2.06-3.15c-.34-1.41-.7-2.95-.92-4.38-1.07-5.42-2.13-10.71-3.2-16.13S390.86,83.59,390,77.87c-1.63-10.92-3-22-4.66-33a37.52,37.52,0,0,0-1-5.57,23.89,23.89,0,0,0-5.29,1.05,6.28,6.28,0,0,1-4.12,0,2.91,2.91,0,0,1-2-2.89,2.52,2.52,0,0,1,1.88-2.54,48,48,0,0,1,5.84-1.8l13.85-2.46c2.06-.44,4.1-1,6.29-1.47,1.17-.17,2.49-.24,3.79-.43a5,5,0,0,1,1.81.53A2.27,2.27,0,0,1,407.1,33Z"/><path id="_Compound_Path_10" data-name="&lt;Compound Path&gt;" class="cls-1" d="M460.05,114.72a10.27,10.27,0,0,1-6.6-1.54,5.24,5.24,0,0,1-1.8-2.26,24.21,24.21,0,0,1-1.55-5.08c-1.54-9.47-3.23-19-4.78-28.51a27.22,27.22,0,0,0-.48-3.25,22.19,22.19,0,0,0-3,.57c-3.88.71-7.83,1.83-12,2.71.45,3.92,1,7.3,1.33,10.69.29,1.95,3.74,23.35,3.37,23.54a6.55,6.55,0,0,1-7.22,1.47,5.81,5.81,0,0,1-1.64-3.87c-1.3-6-1.95-12.2-2.75-18.45-.43-3.79-1-7.69-1.59-11.58-1.32.06-3.71,1-4.1-1.65-.19-3,.15-2.55,3.14-3.92a13.47,13.47,0,0,0-.22-2.36c-.62-4.16-1.13-8.47-2-12.71-1.52-5.75-2.13-11.64-3.28-17.58A48.29,48.29,0,0,0,413,33.66a7.29,7.29,0,0,1,.63-6.47,2.84,2.84,0,0,1,2.88-.3c1.16.62,2.29,1.12,2.77,2.51s1.34,2.72,1.81,4.11q1.56,5.15,2.74,10.35c1.67,8.52,3.22,17.19,4.76,25.72a5.68,5.68,0,0,0,.44,2.06c4.73-1.24,10.13-2.44,15-3.69,0-.67-.34-1.41-.33-2.21-1-7.82-2-15.5-3.46-23.26-1.19-6.2-1.44-10.55-2.24-16.8a7.54,7.54,0,0,1-.28-3.68c.63-1.16,5.08-1.56,7.74-.62,2.94,1,5.05,2.7,5.55,6.08.43,2.86,1,5.7,1.41,8.56,1,4.64,1.89,9.15,2.59,13.83,1.1,6.48,2.06,13,3,19.47,1.2,8.06,2.4,16.11,3.73,24.15.88,5,1.77,10.1,2.67,15.28A4.72,4.72,0,0,1,460.05,114.72Z"/><path id="_Compound_Path_11" data-name="&lt;Compound Path&gt;" class="cls-1" d="M485,92.15q.87,5.85,1.35,11.75c.26,2.62-.63,3.81-3.23,4.2s-5.13.36-7.05-1.87a4.71,4.71,0,0,1-1.63-2.94,7,7,0,0,0-.1-1.58c-1.12-6.61-2.1-13.23-3.22-19.84-.33-2.21-.53-4.44-.86-6.65-.13,0-2.43-15.44-3.59-23.24s-3.1-19.06-4.51-26.69l-.39-2.6a3.5,3.5,0,0,1,3.47-3.44,19.27,19.27,0,0,1,4.05.46A5.28,5.28,0,0,1,473,23.4c.67,2.69,1.76,9.17,2.3,11.88.71,3.88,1.55,7.74,2.24,11.49Q480.17,60.33,482,74C482.77,80,484.07,86,485,92.15Z"/><path id="_Compound_Path_12" data-name="&lt;Compound Path&gt;" class="cls-1" d="M489.5,14.57c5.52-.42,12.2,2.56,17.76,6a89.78,89.78,0,0,1,8.06,6c4.71,3.95,6.2,7.71,7.87,13.57.26.89,2.34,12.14.63,18.5-1.75,6.1-7.44,10.67-12.16,14.69a39.8,39.8,0,0,0,3.85,4.47,187.86,187.86,0,0,1,12.87,15.09c1,1.18,1.8,2.26,2.64,3.46a3.17,3.17,0,0,1-.41,2.59c-1.27,2.18-3.42,2.9-5.36,1.46a12,12,0,0,1-2.86-3.16A127.13,127.13,0,0,0,514,85.7c-2.64-3.46-5.87-5.5-9.08-8.34a9.28,9.28,0,0,0,.16,2c1,6.5,1.87,11.68,2.82,18a27.47,27.47,0,0,1,.48,3.25,3.67,3.67,0,0,1-2.58,4.1,14.54,14.54,0,0,1-2.3.61,5.13,5.13,0,0,1-5.89-3,16.51,16.51,0,0,1-1-3.43c-1.87-10.75-3.8-20.15-5.29-31.09s-2.83-19-4.58-29.87c-.67-3.62-1.6-7.2-2.28-10.82l-1.37-9.23C482.74,15.58,487.92,14.68,489.5,14.57Zm7,10.12c1,4.36,3.34,18,3.85,22.27.76,6,1.56,9.6,2.58,15.55.41,2.73,1,5.57,1.54,8.54a12.4,12.4,0,0,0,5.09-3.28c1.91-1.48,4.22-2.89,5.34-5.18.63-1.16,1.85-1.87,2.82-6.93.76-3.83.58-5,0-8.77-.87-4.92-.48-2.32-1.73-7.18-1-4.64-3.78-7.54-7.22-11a24.51,24.51,0,0,0-2.09-1.55c-4-3-10.72-6-10.56-4.94A15.49,15.49,0,0,0,496.45,24.69Z"/><path id="_Compound_Path_13" data-name="&lt;Compound Path&gt;" class="cls-1" d="M569.6,76.23c.14.91.51,1.65.65,2.56A42.56,42.56,0,0,1,570,90.38a4.53,4.53,0,0,1-.68,1.69c-.44.6-3.92,4-6.72,4.85a17.52,17.52,0,0,1-3.58.93,76.09,76.09,0,0,1-9.41,1c-5,.35-8.45-2.33-10.78-6.36a25.35,25.35,0,0,1-2.93-9,12.85,12.85,0,0,1,.84-6c.07-.41.55-.75.88-1.19a2.17,2.17,0,0,1,2.47-.37c.71.29,2.68,1.06,3,2.21a10.81,10.81,0,0,1-.32,5.89,10.09,10.09,0,0,0,1.75,7.31,5.67,5.67,0,0,0,4.83,3,5.39,5.39,0,0,0,6-5.4,26.56,26.56,0,0,0-1.91-8.35c-4.4-12.63-4.45-11.16-10.47-23L539,50.23a13.73,13.73,0,0,0-1.09-2c-5.05-6.29-6.57-13.77-7.71-21.43a19.16,19.16,0,0,1,3.5-13.94c.64-1,1.55-2.09,2.21-3,1.09-1.62,4.91-2.72,5.17-2.76C544.46,5.46,548,6,551.5,5.47c1-.15,1.79.4,2.9.76,4.58,1.31,6.08,7.86,7.54,11.36.87,2.26,2.2,5,1.36,7.37-1.18,1-3.76,1.49-4.79.85a5.07,5.07,0,0,1-1.45-2.57c-.45-1.26-.54-2.71-.86-4-.42-1.93-1.92-7.55-3.67-8.62a2.44,2.44,0,0,0-2.51.11c-4.13,2.61-5.76,6.83-7.11,11.15a5.91,5.91,0,0,0-.07,3.07,29.69,29.69,0,0,0,3,10.44c1.15,2.35,2.55,4.67,3.83,7,3.5,6.52,4,5.51,7.52,12.16,2.22,4.19,6.65,9.9,7.61,11.88C566.37,69.67,568.54,72.67,569.6,76.23Z"/><path id="_Compound_Path_14" data-name="&lt;Compound Path&gt;" class="cls-1" d="M599.67,4.28a5.35,5.35,0,0,1-3,1.5c-1.8.4-3.75.69-5.55,1.09a15.66,15.66,0,0,0-2.54.78,70.73,70.73,0,0,1,1.81,7.7c.83,5.59,2.07,11.25,3.17,16.8.5,2.45.86,4.92,1.23,7.39,1.18,7.93,2.36,15.85,3.65,23.63.77,4.27,1.93,8.48,2.68,12.62a84.73,84.73,0,0,1,1.6,9.86,5.36,5.36,0,0,1-5.61,6,10.22,10.22,0,0,1-5.6-2,4.67,4.67,0,0,1-2.06-3.15c-.34-1.41-.7-2.95-.92-4.38-1.07-5.42-2.13-10.71-3.2-16.13s-1.92-11.14-2.78-16.85c-1.63-10.92-3-22-4.66-33a37.54,37.54,0,0,0-1-5.57,23.89,23.89,0,0,0-5.29,1.05,6.28,6.28,0,0,1-4.12,0,2.91,2.91,0,0,1-2-2.89,2.52,2.52,0,0,1,1.88-2.54,48,48,0,0,1,5.84-1.8L587.09,1.9c2.06-.44,4.1-1,6.29-1.47,1.17-.17,2.49-.24,3.79-.43A5,5,0,0,1,599,.53,2.27,2.27,0,0,1,599.67,4.28Z"/><path id="_Compound_Path_15" data-name="&lt;Compound Path&gt;" class="cls-1" d="M103.88,363.83c.05,2.2-.41,2.82-.66,6.72-.94,4.83-6.49,12-6.49,12-2.84,3.18-6.42,5.1-13,6.91-6.4,1.5-8.71,2.68-15.23,3.37-5.06-.63-17.56.68-27.12-17.21-5-9.73-8.19-14.23-9.84-25.3-1.15-5.9-3.39-11.64-4.81-17.49-1.51-6.4-3.05-13.07-4-19.28-1.42-11.38-2.53-22.53-3.41-34-1.72-17.13-.75-34.66,1.12-51.77.51-5.87,4-10.52,7.44-14.9,2.8-3.45,5.59-6.9,10.45-7.63,9-6,18.93-4.47,28.7-3.72,6.18.73,16.46,8.59,20.61,19.83a24.34,24.34,0,0,1,1.69,5.82c1.1,3.7.11,6.33-2.73,7.58-3.16,1-8.91,1.33-10.51-2-.31-.23-1.56-8.6-1.6-8.87-2.5-5.7-7-15.24-16.68-13.8-3.32-.06-7.78,3.37-8.41,6.5-1.88,7.73-4.5,16.12-3.87,24,0,1.66.52,3.51.53,5.44-.5,13.32,1.47,26.55,3.48,40,1.61,10.8,3,21.91,5.13,32.62,2.19,11,4.11,22,6.87,33.19,1.46,6.13,5.63,11.85,7.59,17.63.9,2.35,1.84,5,3.51,6.93,3.46,4.73,14.14,2.31,16-1.56,1.49-3,3.39-6.85,3.18-10.13a8.71,8.71,0,0,1,.25-3.9c.48-4.21.38-6.68,5.59-6.9C101.94,356.39,104.32,359.35,103.88,363.83Z"/><path id="_Compound_Path_16" data-name="&lt;Compound Path&gt;" class="cls-1" d="M110.62,192.3c11.46-.88,25.35,5.33,36.9,12.44,5.77,3.56,13,9.38,16.75,12.41,9.78,8.2,12.87,16,16.34,28.2.55,1.85,4.86,25.22,1.31,38.44-3.63,12.68-15.46,22.17-25.26,30.53,2.68,3.19,4.82,6.46,8,9.29,4.46,4,21.88,24.61,26.74,31.34,2,2.46,3.73,4.69,5.48,7.18.74,1.27,0,3.86-.86,5.37-2.64,4.53-7.11,6-11.14,3A24.85,24.85,0,0,1,179,364c-5.15-8.62-11.52-16.22-17.36-23.91-5.49-7.19-12.19-11.43-18.86-17.33a19.28,19.28,0,0,0,.33,4.09c2,13.5,3.89,24.26,5.86,37.48a56.78,56.78,0,0,1,1,6.75c.56,3.78-1.43,7.11-5.35,8.52a30,30,0,0,1-4.78,1.26c-5.36,1.07-9.85-1.29-12.23-6.18a34.34,34.34,0,0,1-2.17-7.13c-3.88-22.33-7.89-41.87-11-64.59-2.84-22.76-5.87-39.41-9.52-62-1.4-7.52-3.33-15-4.73-22.47l-2.85-19.17C96.58,194.39,107.34,192.51,110.62,192.3Zm14.44,21c2.18,9.06,6.94,37.32,8,46.27,1.58,12.46,3.24,19.94,5.36,32.32.84,5.67,2,11.57,3.19,17.74,4.24-1.18,7.43-3.86,10.57-6.82,4-3.07,8.76-6,11.09-10.76,1.3-2.4,3.84-3.88,5.86-14.39,1.57-8,1.21-10.39,0-18.22-1.8-10.22-1-4.82-3.6-14.92-2-9.64-7.85-15.66-15-22.88a50.66,50.66,0,0,0-4.34-3.22C137.87,212.25,124,206,124.3,208.2,124.7,210.9,124.55,211.75,125.06,213.33Z"/><path id="_Compound_Path_17" data-name="&lt;Compound Path&gt;" class="cls-1" d="M214.61,186.47a5.93,5.93,0,0,1,3.65,4.15,93.31,93.31,0,0,1,2.89,12c1,4.82,1.76,9.95,2.48,14.81,2.36,14,5.5,35.05,7.59,49.09,1.07,5.36,1.3,10.57,1.79,15.74l.56,3.78c2.59,13.69,4.91,27.42,7.77,41.06a47.94,47.94,0,0,0,3.19,10.29c1.8,4.7,4.57,8.43,9.06,10.79,5.15,3.1,10.05,2.64,13.5-2,1.34-2.13,3-4,3.48-6.31,2.18-9.43,4.59-19.17,3.65-29.24-.61-6-.11-11.85-.18-17.91-.64-17.29-3.08-37.34-5.57-54.08-.7-6.52-1.58-12.46-2.23-18.71a125,125,0,0,0-3.38-17.16c-1-2.89-2.52-7.63-2.46-10.95a5.9,5.9,0,0,1,3.37-5.19,67.2,67.2,0,0,1,6.94-1.58c1.58-.51,3.84,3.57,4.51,6.23,2.26,9.6,3.7,19.31,5.69,29a100.66,100.66,0,0,1,1.89,12.69c.28,1.89.25,3.55.49,5.17,1,16.13,2.8,35.45,3.78,51.31.79,9,1.57,18,1.78,26.78.1,9.92-1,19.46-4.58,28.55-4,10-9.7,10.83-15.75,12.83-15,3.33-20.14,1.89-29.38-.87C231,354.28,223,348.57,219,342c-3.27-5.31-5.32-11.63-6.82-18-2.74-12.84-5.79-25.9-8.26-38.78-2-11.57-4.27-30.54-5.73-42.19l-3.5-23.49c-1.41-9.45-3.08-18.86-4.26-28.61-.24-1.62-1.26-4.78.28-5.56C198.3,182.55,208.46,184.08,214.61,186.47Z"/><path id="_Compound_Path_18" data-name="&lt;Compound Path&gt;" class="cls-1" d="M376.39,305.59c.28,1.89,1.06,3.43,1.34,5.32.63,7.91,1,16.13-.55,24.09a9.42,9.42,0,0,1-1.41,3.52c-.92,1.24-8.13,8.39-14,10.08a36.37,36.37,0,0,1-7.44,1.94,157.82,157.82,0,0,1-19.56,2.08c-10.38.72-17.55-4.84-22.39-13.22a52.64,52.64,0,0,1-6.09-18.68c-.64-4.32.41-8.34,1.74-12.4.15-.85,1.15-1.55,1.84-2.48a4.51,4.51,0,0,1,5.13-.76c1.47.61,5.57,2.2,6.2,4.59,1.3,5,.21,8.8-.66,12.24-.36,5-.17,10,3.64,15.19,2.18,3.54,5.32,6.11,10,6.23,7,.34,12.33-4.32,12.4-11.23-.07-6.06-2-11.84-4-17.35-9.15-26.23-9.25-23.18-21.74-47.81l-8.08-15.35a28.5,28.5,0,0,0-2.26-4.08c-10.5-13.06-13.64-28.6-16-44.52-1.53-10.26,1.15-20,7.28-29,1.34-2.13,3.22-4.34,4.59-6.2,2.26-3.37,10.2-5.66,10.73-5.74,6.93-3.51,14.27-2.4,21.56-3.49,2.16-.32,3.71.83,6,1.59,9.51,2.72,12.64,16.33,15.66,23.61,1.8,4.7,4.58,10.36,2.83,15.31-2.46,2-7.82,3.1-9.95,1.76-1.55-1.15-2.45-3.5-3-5.35-.94-2.62-1.11-5.63-1.79-8.29-.87-4-4-15.69-7.63-17.9a5.06,5.06,0,0,0-5.21.22c-8.58,5.42-12,14.2-14.76,23.17-.8,2.05-.48,4.21-.15,6.37a61.71,61.71,0,0,0,6.27,21.69c2.38,4.89,5.31,9.69,8,14.54,7.26,13.54,8.33,11.45,15.63,25.27,4.61,8.7,13.82,20.57,15.82,24.69C369.67,292,374.18,298.19,376.39,305.59Z"/><path id="_Compound_Path_19" data-name="&lt;Compound Path&gt;" class="cls-1" d="M472.72,337.33c-4.86.72-9.5-.79-13.72-3.2a10.88,10.88,0,0,1-3.73-4.69A50.28,50.28,0,0,1,452,318.89c-3.2-19.67-6.72-39.56-9.92-59.23a56.89,56.89,0,0,0-1-6.75c-2.2.05-4.28.91-6.17,1.2-8.06,1.48-16.27,3.8-24.82,5.63.94,8.14,2,15.16,2.76,22.22.6,4,7.78,48.51,7,48.9-4.34,4.23-9.47,5-15,3.06-2.56-2.38-3-5.08-3.41-8-2.7-12.57-4-25.34-5.71-38.33-.9-7.87-2.1-16-3.31-24.06-2.74.13-7.71,2-8.51-3.42-.38-6.29.32-5.29,6.51-8.14A28.08,28.08,0,0,0,390,247c-1.29-8.64-2.34-17.59-4.21-26.42-3.16-11.95-4.43-24.18-6.82-36.51a100.4,100.4,0,0,0-3.91-15.15c-1.53-4.74-1.37-9.18,1.31-13.44a5.9,5.9,0,0,1,6-.62c2.4,1.3,4.76,2.33,5.74,5.21,1.25,2.85,2.77,5.66,3.76,8.55q3.25,10.69,5.69,21.51c3.46,17.7,6.7,35.7,9.89,53.44.2,1.35.17,3,.91,4.28,9.83-2.57,21-5.06,31.14-7.67.07-1.39-.71-2.93-.68-4.59-2.14-16.24-4.24-32.2-7.2-48.32-2.47-12.88-3-21.91-4.65-34.9-.2-1.35-1.41-3.93-.59-7.64,1.3-2.4,10.56-3.23,16.09-1.29C448.58,145.56,453,149,454,156.06c.88,5.94,2,11.84,2.92,17.78,2,9.64,3.93,19,5.38,28.72,2.28,13.46,4.29,27,6.3,40.45,2.49,16.74,5,33.47,7.75,50.17,1.84,10.49,3.68,21,5.55,31.73C483.19,331.63,479.51,336.59,472.72,337.33Z"/><path id="_Compound_Path_20" data-name="&lt;Compound Path&gt;" class="cls-1" d="M531.65,145.61c-7.25,1.36-18.36,2.73-25.65,3.82-1.08.16-2.12.59-3.2.75-2,3.06-.73,6.18.25,9.07,3.45,8.32,4.23,17.31,6.06,25.86,1.28,6.71,2.78,13.11,3.75,19.59.61,6-.17,4.44.41,10.15.69,6.52,2.6,15.62,3.93,19,2.43-.36,5.21-.22,7.83-1.17,3.7-1.1,9.95-1.76,13.69-2.59,4.24-1.18,8.26-.13,9.67,3.8.12.81,1.44,2.27-2.68,4.26-5.62,3-13.91,4.83-20,6.83-2.39.63-4.51,1.22-6.9,1.86-1,6,2.53,22.53,3.06,28,.57,5.71,1.38,11.11,2.18,16.51.53,5.44,1.61,10.8,2.49,16.74,1.66,0,9-.52,10.3-1.26,2.58-1.21,7.75-1.71,10.37-2.65,4.24-1.18,8-.09,11.55,1.59,2.09,1.07,3.84,3.57,3.54,5.27a3.76,3.76,0,0,1-3.15,3c-4.51,1.22-33,6.3-38.16,8.72a20.62,20.62,0,0,1-13.93,1c-1.74-.57-2.86-.68-3.91-2.18a18.72,18.72,0,0,1-2.87-8.13c-2.95-21.64-7.06-51.1-10-72.74-2-13.5-2.08-19.56-4.37-33-2.09-14-4.72-28-7.08-42-.83-3.74-1.44-7.79-2.27-11.53a34.7,34.7,0,0,1-.53-5.44c-.06-4.13,1.55-6.3,5.78-7.48a105.78,105.78,0,0,1,12.8-3c9.14-1.64,22.1-3.57,31.23-5.2,3.51-.52,6.68.38,10.12,1.25,2.55.45,3.72,2.76,4.62,5.11C538.85,144,535.11,144.82,531.65,145.61Z"/><path id="_Compound_Path_21" data-name="&lt;Compound Path&gt;" class="cls-1" d="M564.41,124.72c11.46-.88,25.35,5.33,36.9,12.44,5.77,3.56,13,9.38,16.75,12.41,9.78,8.2,12.87,16,16.34,28.2.55,1.85,4.86,25.21,1.31,38.44-3.63,12.68-15.46,22.17-25.26,30.53,2.68,3.19,4.82,6.46,8,9.29,4.46,4,21.88,24.61,26.74,31.34,2,2.46,3.73,4.69,5.48,7.19.74,1.27,0,3.86-.86,5.37-2.64,4.53-7.1,6-11.14,3a24.85,24.85,0,0,1-5.94-6.57c-5.15-8.62-11.52-16.22-17.36-23.91-5.48-7.19-12.19-11.43-18.86-17.33a19.35,19.35,0,0,0,.33,4.09c2,13.5,3.89,24.26,5.86,37.48a56.78,56.78,0,0,1,1,6.75c.56,3.78-1.42,7.11-5.35,8.52a30.14,30.14,0,0,1-4.78,1.26c-5.36,1.07-9.85-1.29-12.23-6.18a34.4,34.4,0,0,1-2.17-7.13c-3.88-22.33-7.89-41.87-11-64.59-2.84-22.76-5.87-39.41-9.52-62-1.4-7.52-3.33-15-4.73-22.47l-2.85-19.17C550.37,126.81,561.13,124.94,564.41,124.72Zm14.44,21c2.18,9.06,6.94,37.32,8,46.27,1.58,12.46,3.24,19.94,5.36,32.31.84,5.67,2,11.57,3.19,17.74,4.24-1.18,7.43-3.87,10.57-6.82,4-3.07,8.76-6,11.09-10.76,1.3-2.4,3.84-3.88,5.86-14.39,1.57-8,1.21-10.39,0-18.22-1.8-10.22-1-4.82-3.6-14.92-2-9.64-7.85-15.66-15-22.88a51.08,51.08,0,0,0-4.34-3.22c-8.37-6.2-22.27-12.41-21.95-10.25C578.49,143.32,578.34,144.17,578.85,145.75Z"/></g></g></g></svg>