<svg xmlns="http://www.w3.org/2000/svg" viewBox="0 0 529.57 355.3"><defs><style>.cls-1{fill:#fff;}</style></defs><title>immerse</title><g id="Layer_2" data-name="Layer 2"><g id="Layer_1-2" data-name="Layer 1"><g id="_Group_" data-name="&lt;Group&gt;"><path id="_Compound_Path_" data-name="&lt;Compound Path&gt;" class="cls-1" d="M19.37,120.09q.55,5.89.7,11.81c.11,2.63-.84,3.77-3.45,4s-5.14.08-6.94-2.26a4.71,4.71,0,0,1-1.47-3,7,7,0,0,0,0-1.58c-.75-6.66-1.37-13.33-2.12-20-.21-2.23-.28-4.46-.49-6.69C5.45,102.38,4,86.81,3.27,79S1.22,59.75.24,52.05C.16,51.14.07,50.22,0,49.44a3.5,3.5,0,0,1,3.66-3.24,19.27,19.27,0,0,1,4,.68,5.28,5.28,0,0,1,3.53,3.9c.52,2.72,1.26,9.25,1.64,12,.5,3.91,1.12,7.81,1.61,11.6Q16.33,88,17.41,101.8C17.84,107.83,18.8,113.94,19.37,120.09Z"/><path id="_Compound_Path_2" data-name="&lt;Compound Path&gt;" class="cls-1" d="M31.66,45c1.63.51,1.88,1.8,2.88,4S36,51.63,37.1,53.9c1.37,2,2.71,6.48,3.33,8.8a15.62,15.62,0,0,0,1.24,3.45c1.83,4.05,3.78,8,5.47,12,1.21,3.06,2.3,6.25,3.37,9.32.72,2,1.32,4.23,2,6.28.16.25.44.49.6.74.78-.07.74-.6.83-1,1.69-8.74,3.38-17.6,5.2-26.35.75-3.24,1.5-6.61,2.38-9.86s1.81-6.11,2.72-9.1c.73-2,1.35-4,3.37-4.93,2.53.29,5.2.57,6,3.14,2.21,3.88,2,5.75,2.83,9.11,1.4,5.15,1.63,11.86,2.26,17.21,1.3,11.1,2.71,22.05,4,33.15.87,6.52,1.6,12.92,2.45,19.3a3.58,3.58,0,0,1-.44,2.42c-.58.85-5.85,2.39-7.79,1.38-3.48-1.92-4-5.17-4.5-8.69-.67-5.74-1.46-11.48-2-17.1C69,90.27,67.66,77.33,66.19,64.4c-.09-.92-.49-2.46-.55-3.12a6,6,0,0,0-.89,1.8c-.73,3.5-1.62,6.75-2.36,10.12-1,5.77-2.09,11.54-3.27,17.33-.89,4.57-2.06,9-3.11,13.36-.37.3-.49.44-.75.47-3.62.86-4.22,1.45-6.11-3.26-2.71-6.48-4.77-13-7.24-19.65-.73-2.18-1.72-4.33-2.57-6.36,0-.26-.42-.22-.7-.46,0,3.16,0,6.2.33,9.21,1.08,11.65,2.55,26,3.78,37.79.18,2,.25,4.07.44,6.16a3.85,3.85,0,0,1-1.38,3.56,3.54,3.54,0,0,1-1.9.84c-1.18.11-2.39-.17-3.57-.06a4,4,0,0,1-3.78-2.29A19.2,19.2,0,0,1,30,122.27c-.72-7.72-1.81-18-2.65-25.62l-.28-3L26,82.39c-.31-4.72-.6-9.31-1-14-.62-5.22-1.37-10.43-2.11-15.64a8.55,8.55,0,0,0-.17-1.83c-.52-2.72.35-4.78,3.66-6A12.11,12.11,0,0,1,31.66,45Z"/><path id="_Compound_Path_3" data-name="&lt;Compound Path&gt;" class="cls-1" d="M95.9,39.06c1.63.51,1.88,1.8,2.88,4s1.43,2.64,2.57,4.91c1.37,2,2.71,6.48,3.33,8.8a15.68,15.68,0,0,0,1.24,3.45c1.83,4.05,3.78,8,5.47,12,1.21,3.06,2.3,6.25,3.37,9.32.72,2,1.32,4.23,2,6.28.16.25.44.49.6.74.79-.07.74-.6.83-1,1.69-8.74,3.38-17.6,5.2-26.35.75-3.24,1.5-6.61,2.38-9.86s1.81-6.11,2.72-9.1c.73-2,1.35-4,3.37-4.93,2.53.29,5.2.57,6,3.14,2.21,3.88,2,5.75,2.83,9.11,1.4,5.15,1.63,11.86,2.26,17.21,1.3,11.1,2.71,22.05,4,33.15.87,6.52,1.6,12.92,2.46,19.3a3.58,3.58,0,0,1-.44,2.42c-.58.85-5.85,2.39-7.79,1.38-3.48-1.92-4-5.17-4.5-8.69-.67-5.74-1.46-11.48-2-17.1-1.47-12.93-2.8-25.87-4.27-38.8-.09-.92-.49-2.46-.55-3.12a6,6,0,0,0-.89,1.8c-.73,3.5-1.62,6.75-2.36,10.12-1,5.77-2.09,11.54-3.27,17.33-.89,4.57-2.06,9-3.11,13.36-.37.3-.49.44-.75.47-3.62.86-4.22,1.45-6.11-3.26-2.71-6.48-4.77-13-7.24-19.65-.73-2.18-1.72-4.33-2.57-6.36,0-.26-.42-.22-.7-.46,0,3.16,0,6.2.33,9.21,1.08,11.65,2.55,26,3.78,37.79.18,2,.25,4.07.44,6.16a3.85,3.85,0,0,1-1.38,3.56,3.54,3.54,0,0,1-1.9.84c-1.18.11-2.39-.17-3.57-.06a4,4,0,0,1-3.78-2.29,19.2,19.2,0,0,1-2.55-7.55c-.72-7.72-1.81-18-2.65-25.62l-.28-3-1-11.25c-.31-4.72-.6-9.31-1-14-.62-5.22-1.37-10.43-2.11-15.64a8.55,8.55,0,0,0-.17-1.83c-.52-2.72.35-4.78,3.66-6A12.11,12.11,0,0,1,95.9,39.06Z"/><path id="_Compound_Path_4" data-name="&lt;Compound Path&gt;" class="cls-1" d="M177.5,36.62c-3.52.46-8.9.83-12.43,1.16-.52,0-1,.23-1.56.28-1.06,1.42-.52,3-.12,4.37,1.44,4.09,1.58,8.43,2.23,12.59.44,3.26,1,6.38,1.28,9.51.14,2.89-.2,2.13-.07,4.89a47.54,47.54,0,0,0,1.39,9.24,18.47,18.47,0,0,0,3.79-.35c1.81-.43,4.83-.58,6.65-.88,2.07-.46,4,.16,4.55,2.08,0,.39.63,1.13-1.4,2-2.78,1.31-6.81,2-9.77,2.76l-3.37.71c-.66,2.83.62,10.9.73,13.53s.37,5.38.61,8,.49,5.23.75,8.11a21.34,21.34,0,0,0,5-.33c1.27-.51,3.77-.62,5.05-1a7.72,7.72,0,0,1,5.51,1.07,3,3,0,0,1,1.56,2.63,1.81,1.81,0,0,1-1.59,1.34c-2.2.47-16,2.15-18.58,3.18a9.93,9.93,0,0,1-6.72.1c-.82-.32-1.36-.4-1.82-1.15a9,9,0,0,1-1.16-4c-.84-10.48-2-24.75-2.88-35.23-.61-6.54-.48-9.46-1.22-16-.63-6.8-1.53-13.58-2.29-20.38-.3-1.82-.48-3.78-.78-5.6a16.7,16.7,0,0,1-.11-2.63c.08-2,.91-3,3-3.44a51,51,0,0,1,6.23-1.11c4.44-.55,10.72-1.13,15.15-1.67a12.16,12.16,0,0,1,4.83.87c1.21.28,1.72,1.42,2.09,2.58C181,36,179.19,36.34,177.5,36.62Z"/><path id="_Compound_Path_5" data-name="&lt;Compound Path&gt;" class="cls-1" d="M193.8,27.45c5.53-.12,12,3.23,17.41,7a89.8,89.8,0,0,1,7.72,6.41c4.48,4.2,5.76,8,7.11,14,.22.9,1.67,12.25-.39,18.51-2.08,6-8,10.25-13,14A39.81,39.81,0,0,0,216.3,92a187.9,187.9,0,0,1,12,15.77c.91,1.23,1.67,2.35,2.45,3.6a3.17,3.17,0,0,1-.55,2.56c-1.39,2.11-3.58,2.71-5.44,1.17a12,12,0,0,1-2.68-3.31,127.17,127.17,0,0,0-7.71-12c-2.45-3.6-5.56-5.82-8.61-8.83a9.28,9.28,0,0,0,.05,2c.61,6.54,1.23,11.76,1.82,18.18a27.47,27.47,0,0,1,.3,3.27,3.67,3.67,0,0,1-2.8,4,14.64,14.64,0,0,1-2.33.48,5.13,5.13,0,0,1-5.72-3.3,16.52,16.52,0,0,1-.85-3.48c-1.27-10.84-2.68-20.34-3.57-31.34s-1.78-19.1-2.93-30.08c-.47-3.65-1.2-7.28-1.68-10.93l-.86-9.29C187,28.09,192.22,27.47,193.8,27.45Zm6.39,10.49c.81,4.41,2.35,18.13,2.62,22.46.43,6,1,9.67,1.72,15.68.26,2.75.65,5.61,1.06,8.61a12.4,12.4,0,0,0,5.26-3c2-1.37,4.37-2.65,5.62-4.88.69-1.12,1.95-1.77,3.2-6.76,1-3.79.86-5,.51-8.76-.59-5-.35-2.34-1.34-7.27-.7-4.69-3.36-7.74-6.6-11.4a24.37,24.37,0,0,0-2-1.66c-3.86-3.2-10.38-6.56-10.28-5.51A15.5,15.5,0,0,0,200.19,37.95Z"/><path id="_Compound_Path_6" data-name="&lt;Compound Path&gt;" class="cls-1" d="M270.41,93.44c.09.92.42,1.68.5,2.59a42.57,42.57,0,0,1-.9,11.57,4.53,4.53,0,0,1-.77,1.66c-.47.57-4.13,3.82-7,4.48a17.52,17.52,0,0,1-3.63.73,76.1,76.1,0,0,1-9.46.48c-5,.07-8.31-2.79-10.41-7a25.36,25.36,0,0,1-2.43-9.14,12.85,12.85,0,0,1,1.17-5.92c.09-.4.59-.72.95-1.14a2.17,2.17,0,0,1,2.49-.23c.69.33,2.62,1.21,2.86,2.37a10.82,10.82,0,0,1-.64,5.87,10.1,10.1,0,0,0,1.35,7.4,5.67,5.67,0,0,0,4.66,3.26,5.4,5.4,0,0,0,6.26-5.07A26.56,26.56,0,0,0,254,97c-3.7-12.85-3.83-11.39-9.19-23.56l-3.48-7.6a13.74,13.74,0,0,0-1-2c-4.7-6.56-5.8-14.11-6.52-21.83a19.16,19.16,0,0,1,4.27-13.73c.7-1,1.66-2,2.37-2.86,1.17-1.56,5.05-2.45,5.31-2.47,3.42-1.51,6.92-.78,10.46-1.1,1-.1,1.76.5,2.86.92,4.5,1.56,5.64,8.18,6.9,11.76.74,2.31,1.93,5.1,1,7.43-1.24.91-3.84,1.28-4.83.58a5.07,5.07,0,0,1-1.3-2.65c-.38-1.29-.39-2.74-.64-4-.31-2-1.5-7.65-3.19-8.81a2.44,2.44,0,0,0-2.51,0c-4.27,2.38-6.13,6.51-7.71,10.75a5.91,5.91,0,0,0-.24,3.06,29.7,29.7,0,0,0,2.44,10.6c1,2.41,2.29,4.8,3.44,7.2,3.13,6.7,3.7,5.73,6.84,12.56,2,4.3,6.1,10.25,6.95,12.29C267.54,86.72,269.55,89.83,270.41,93.44Z"/><path id="_Compound_Path_7" data-name="&lt;Compound Path&gt;" class="cls-1" d="M299.57,25.27c-3.52.46-8.9.83-12.43,1.16-.52,0-1,.23-1.56.28-1.06,1.42-.52,3-.12,4.37,1.44,4.09,1.58,8.43,2.23,12.59.44,3.26,1,6.38,1.28,9.51.14,2.89-.2,2.13-.07,4.89a47.48,47.48,0,0,0,1.39,9.24,18.47,18.47,0,0,0,3.79-.35c1.81-.43,4.83-.58,6.65-.88,2.07-.46,4,.16,4.55,2.08,0,.39.63,1.13-1.4,2-2.78,1.31-6.81,2-9.77,2.76l-3.37.71c-.66,2.83.62,10.9.73,13.53s.37,5.38.61,8,.49,5.23.75,8.11a21.35,21.35,0,0,0,5-.33c1.27-.51,3.77-.62,5.05-1a7.72,7.72,0,0,1,5.51,1.07,3,3,0,0,1,1.56,2.63,1.81,1.81,0,0,1-1.59,1.34c-2.2.47-16,2.15-18.58,3.18a9.93,9.93,0,0,1-6.72.1c-.82-.32-1.36-.4-1.82-1.15a9,9,0,0,1-1.16-4c-.84-10.48-2-24.75-2.88-35.23-.61-6.54-.48-9.46-1.22-16-.63-6.8-1.53-13.58-2.29-20.38-.3-1.82-.48-3.78-.79-5.6a16.7,16.7,0,0,1-.11-2.63c.08-2,.91-3,3-3.44A51,51,0,0,1,282,20.7c4.44-.55,10.72-1.13,15.15-1.67a12.16,12.16,0,0,1,4.83.87c1.21.28,1.72,1.42,2.09,2.58C303.08,24.68,301.26,25,299.57,25.27Z"/><path id="_Compound_Path_8" data-name="&lt;Compound Path&gt;" class="cls-1" d="M378.59,19.24c-.48,1.89-.84,3.77-1.32,5.67-1.79,6.24-3,13.08-5.21,19.22-1.69,4.51-3,11.76-4.23,15.57-.83,2.45-.33.69-.19,5,.13,2.76.13,5.66.4,8.54.32,4.85.63,3.9,1.21,8.73.51,5.5,1,9.15,1.62,14.63a16,16,0,0,1,.1,2.5c-.16,2.52-1.5,3.7-4.14,3.69-.39,0-.8-.06-1.19,0-4.51-.24-6.38-1.92-7-6.08a4.32,4.32,0,0,1-.17-1.83c-.27-5.78-1.17-9.79-1.72-15.68-.7-6.14-1.23-17.44-1.6-18.59-.22-.9-5.1-9.42-6.81-13.62-2.57-6.36-5.38-11-8.08-17.33-1-2.54-2.7-4.9-3.73-7.44a11.55,11.55,0,0,1-.46-2.07c-.09-.92,0-1.84,1-2.2a2.59,2.59,0,0,1,2.89-.14c2.1,1.26,2.79,3,4,5a21.75,21.75,0,0,1,1.95,3.91c2.37,5.59,5.52,11.1,7.64,16.84.89,2.43,1.65,5,3.71,7.31.54-1.24,1.1-2.35,1.53-3.44,1.69-4.51,4.87-22.89,6.25-27.9a22.58,22.58,0,0,1,2.82-6.6c1.76-2.41,3.42-3,6.54-2.06a2.83,2.83,0,0,1,.69.33C379.82,14.11,380.24,14.34,378.59,19.24Z"/><path id="_Compound_Path_9" data-name="&lt;Compound Path&gt;" class="cls-1" d="M430.15,71.33c-.26,4.25-.8,8.39-1.34,12.53q-.6,4.21-1.59,8.46A5.64,5.64,0,0,1,422.76,97a20.1,20.1,0,0,1-6,1.88c-4,.9-4.76,1.37-8,1-.13,0-.27-.11-.54-.08-7.5-1.15-12.15-5.73-15.55-12.54a68.71,68.71,0,0,1-6.94-23.51A186.84,186.84,0,0,1,384.84,34c.1-1.72.08-3.44.19-5,.54-5.59,2.2-10.37,7.18-13.6,1.85-1.36,3.55-3,5.4-4.33a14.84,14.84,0,0,1,13.92-2.22c3.82,1.36,7,3,9.54,6.11a17.88,17.88,0,0,1,2.7,4.9c2,7.73,4.86,15.38,5.83,24.4C431.44,52.6,430.73,62,430.15,71.33Zm-6-26.5c-1-4.92-1.85-10-3.09-14.76-.88-3.74-2.8-7.39-4.06-11a4.17,4.17,0,0,0-3.05-3c-1.08-.3-2.18-.72-3.26-1-2-.47-4.34.14-5.37,1.82-2.66,4.07-5.16,8.4-5.09,13.41-.08,6.21-.7,12.34-.39,18.51.27,7.1.53,14.2,2,21.07a55.28,55.28,0,0,0,6.72,18.38c.61.87,1.09,1.75,1.68,2.48,1.65,2.09,3.61,3.36,6.45,2.7a7.37,7.37,0,0,0,5.34-5,65.83,65.83,0,0,0,1.2-7c.5-4.53.74-9,1.24-13.58C425,60.19,425.49,52.49,424.12,44.83Z"/><path id="_Compound_Path_10" data-name="&lt;Compound Path&gt;" class="cls-1" d="M446.48,8.57a2.86,2.86,0,0,1,1.65,2.09,44.91,44.91,0,0,1,1.07,5.84c.35,2.34.58,4.83.8,7.18.76,6.79,1.71,17,2.35,23.8a72.62,72.62,0,0,1,.44,7.61l.17,1.83c.88,6.65,1.63,13.31,2.65,19.95a23.11,23.11,0,0,0,1.26,5,9.28,9.28,0,0,0,4.07,5.43c2.39,1.62,4.76,1.54,6.54-.61a10.28,10.28,0,0,0,1.84-2.94c1.3-4.48,2.72-9.1,2.53-14-.14-2.89.26-5.7.39-8.61A250.39,250.39,0,0,0,471,35.07c-.16-3.15-.43-6-.58-9.05a60.07,60.07,0,0,0-1.17-8.34,18.33,18.33,0,0,1-.89-5.33,2.84,2.84,0,0,1,1.76-2.41,32.29,32.29,0,0,1,3.38-.58c.77-.2,1.75,1.82,2,3.11.83,4.67,1.27,9.39,2,14.07A48.58,48.58,0,0,1,478,32.7c.09.92,0,1.71.1,2.5.06,7.78.4,17.12.46,24.77.14,4.34.28,8.68.15,12.92a35.7,35.7,0,0,1-3,13.6c-2.2,4.69-5,4.95-7.91,5.75-7.28,1.21-9.73.38-14.1-1.2a17.71,17.71,0,0,1-9.28-7.58,29.42,29.42,0,0,1-2.8-8.85c-1-6.24-2.1-12.61-2.94-18.86-.65-5.61-1.24-14.8-1.64-20.44L436,23.93c-.43-4.58-1-9.15-1.29-13.87-.07-.78-.48-2.33.28-2.66C438.74,6.26,443.59,7.26,446.48,8.57Z"/><path id="_Compound_Path_11" data-name="&lt;Compound Path&gt;" class="cls-1" d="M489,0c5.53-.12,12,3.23,17.41,7a89.8,89.8,0,0,1,7.72,6.41c4.48,4.2,5.76,8,7.11,14,.22.9,1.67,12.25-.39,18.51-2.08,6-8,10.25-13,14a39.81,39.81,0,0,0,3.6,4.68,187.9,187.9,0,0,1,12,15.77c.91,1.23,1.67,2.35,2.45,3.6a3.17,3.17,0,0,1-.55,2.56C524,88.6,521.81,89.2,520,87.66a12,12,0,0,1-2.68-3.31,127.17,127.17,0,0,0-7.71-12c-2.45-3.6-5.56-5.82-8.61-8.83a9.28,9.28,0,0,0,.05,2c.61,6.54,1.23,11.76,1.82,18.18a27.47,27.47,0,0,1,.3,3.27,3.67,3.67,0,0,1-2.8,4,14.55,14.55,0,0,1-2.33.48,5.13,5.13,0,0,1-5.72-3.3,16.52,16.52,0,0,1-.85-3.48c-1.27-10.84-2.68-20.34-3.57-31.34s-1.78-19.1-2.93-30.08c-.47-3.65-1.2-7.28-1.68-10.93L482.39,3C482.17.64,487.39,0,489,0Zm6.39,10.49c.81,4.41,2.35,18.13,2.62,22.46.43,6,1,9.67,1.72,15.68.26,2.75.65,5.61,1.06,8.61a12.4,12.4,0,0,0,5.26-3c2-1.37,4.37-2.65,5.62-4.88.69-1.12,1.95-1.77,3.2-6.76,1-3.79.86-5,.51-8.76-.59-5-.35-2.34-1.34-7.27-.7-4.69-3.36-7.74-6.6-11.4a24.51,24.51,0,0,0-2-1.66C501.54,10.32,495,7,495.13,8A15.5,15.5,0,0,0,495.36,10.49Z"/><path id="_Compound_Path_12" data-name="&lt;Compound Path&gt;" class="cls-1" d="M104.33,164.95a11.68,11.68,0,0,1-6.65,2.92c-4,.66-8.26,1.06-12.24,1.71-2.57.24-1.4.42-5.64,1.39a154.65,154.65,0,0,1,3,17C84,200.28,86,212.77,87.72,225c.79,5.4,1.3,10.83,1.8,16.26,1.62,17.43,3.24,34.86,5.12,52,1.16,9.4,3.18,18.73,4.32,27.85a185.15,185.15,0,0,1,2.31,21.69c.66,7.14-5.69,13.21-13,12.45a22.32,22.32,0,0,1-12-4.94,10.2,10.2,0,0,1-4.12-7.11c-.58-3.12-1.18-6.52-1.48-9.66-1.69-11.95-3.35-23.61-5-35.56-1.43-12.26-2.86-24.52-4-37.1-2.23-24-3.92-48.35-6.18-72.64A81.92,81.92,0,0,0,54,176a52.24,52.24,0,0,0-11.66,1.66c-3.12.58-6,.84-9-.6a6.35,6.35,0,0,1-4.07-6.54c.33-2.62,1.57-4.76,4.41-5.31a105.07,105.07,0,0,1,13-3.22l30.5-3.7c4.55-.71,9.07-1.71,13.9-2.45,2.57-.24,5.46-.22,8.31-.48a10.86,10.86,0,0,1,3.87,1.37C106.58,158.11,107,162.4,104.33,164.95Z"/><path id="_Compound_Path_13" data-name="&lt;Compound Path&gt;" class="cls-1" d="M210,349.69c-5.14.48-9.93-1.38-14.22-4.15a11.45,11.45,0,0,1-3.65-5.14,52.8,52.8,0,0,1-2.78-11.27c-2.23-20.83-4.76-41.93-7-62.76a59.59,59.59,0,0,0-.66-7.15c-2.31-.07-4.54.71-6.55.9-8.55,1.08-17.3,3.05-26.39,4.47.51,8.6,1.2,16,1.61,23.49.4,4.29,5.36,51.38,4.53,51.75-4.8,4.19-10.23,4.7-15.92,2.34-2.55-2.64-2.82-5.5-3.11-8.65-2.11-13.35-2.78-26.84-3.77-40.58-.48-8.31-1.28-16.89-2.08-25.46-2.88,0-8.21,1.63-8.74-4.09,0-6.63.64-5.54,7.31-8.17a29.58,29.58,0,0,0-.19-5.17c-.85-9.14-1.44-18.6-2.89-28-2.62-12.73-3.25-25.64-5-38.73a105.56,105.56,0,0,0-3.23-16.13c-1.34-5.06-.9-9.72,2.15-14a6.2,6.2,0,0,1,6.31-.3c2.45,1.5,4.87,2.72,5.73,5.81,1.15,3.07,2.58,6.1,3.45,9.19q2.79,11.41,4.72,22.91c2.61,18.78,5,37.87,7.29,56.68.13,1.43,0,3.17.71,4.54,10.47-2.13,22.39-4.1,33.14-6.25.15-1.46-.58-3.12-.45-4.86-1.31-17.17-2.59-34.06-4.76-51.15-1.85-13.66-1.87-23.17-2.86-36.92-.13-1.43-1.26-4.21-.17-8.06,1.5-2.45,11.27-2.78,17-.42,6.29,2.59,10.69,6.5,11.38,13.93.58,6.29,1.46,12.55,2,18.83,1.53,10.24,3,20.18,4,30.47,1.61,14.26,2.94,28.55,4.27,42.84,1.65,17.72,3.3,35.44,5.23,53.13,1.32,11.12,2.64,22.24,4,33.64C221.32,344.31,217.17,349.31,210,349.69Z"/><path id="_Compound_Path_14" data-name="&lt;Compound Path&gt;" class="cls-1" d="M267.09,303.45q1.2,12.86,1.53,25.8c.25,5.74-1.83,8.24-7.54,8.77s-11.22.18-15.16-4.93a10.29,10.29,0,0,1-3.21-6.62,15.24,15.24,0,0,0,0-3.46c-1.64-14.55-3-29.12-4.64-43.67-.45-4.86-.62-9.74-1.07-14.6-.29,0-3.45-34-5-51.13-1.57-16.86-4.48-42-6.62-58.76l-.53-5.72c.2-4.05,4.19-7.6,8-7.08a42.31,42.31,0,0,1,8.79,1.49,11.54,11.54,0,0,1,7.71,8.51c1.13,5.95,2.74,20.21,3.59,26.18,1.08,8.55,2.45,17.07,3.51,25.33q4.08,29.88,6.44,59.93C263.74,276.66,265.84,290,267.09,303.45Z"/><path id="_Compound_Path_15" data-name="&lt;Compound Path&gt;" class="cls-1" d="M286.28,134.77c12.08-.26,26.31,7.07,38,15.2,5.85,4.07,13.09,10.6,16.87,14,9.79,9.18,12.59,17.57,15.52,30.55.47,2,3.64,26.75-.85,40.43-4.55,13.1-17.52,22.38-28.29,30.59,2.63,3.5,4.69,7.06,7.87,10.22,4.45,4.49,21.54,27.11,26.26,34.45,2,2.7,3.65,5.14,5.34,7.86.71,1.38-.2,4.05-1.21,5.59-3,4.61-7.81,5.91-11.87,2.55a26.11,26.11,0,0,1-5.86-7.24c-4.9-9.34-11.16-17.7-16.84-26.11-5.34-7.86-12.14-12.71-18.8-19.29a20.39,20.39,0,0,0,.11,4.31c1.33,14.29,2.68,25.69,4,39.69a60,60,0,0,1,.66,7.15c.37,4-1.91,7.38-6.12,8.64a31.57,31.57,0,0,1-5.09,1c-5.69.82-10.27-1.93-12.49-7.2a36.11,36.11,0,0,1-1.86-7.61c-2.78-23.67-5.86-44.42-7.81-68.45-1.66-24.06-3.88-41.72-6.4-65.7-1-8-2.63-15.9-3.66-23.87l-1.89-20.29C271.42,136.15,282.82,134.8,286.28,134.77Zm13.95,22.92c1.76,9.64,5.12,39.59,5.71,49,.94,13.17,2.25,21.12,3.76,34.24.56,6,1.43,12.26,2.33,18.81,4.52-1,8-3.63,11.5-6.55,4.33-3,9.55-5.79,12.27-10.65,1.5-2.45,4.25-3.85,7-14.77,2.11-8.27,1.87-10.84,1.1-19.13-1.3-10.83-.76-5.12-2.92-15.87-1.53-10.23-7.34-16.9-14.42-24.89a52.81,52.81,0,0,0-4.37-3.63c-8.43-7-22.66-14.32-22.45-12C300,155.11,299.78,156,300.23,157.69Z"/><path id="_Compound_Path_16" data-name="&lt;Compound Path&gt;" class="cls-1" d="M453.6,278.89c.19,2,.92,3.66,1.1,5.66.2,8.34.14,17-2,25.26a9.92,9.92,0,0,1-1.68,3.61c-1,1.25-9,8.33-15.23,9.78a38.13,38.13,0,0,1-7.92,1.6,165.85,165.85,0,0,1-20.66,1.06c-10.94.15-18.15-6.09-22.74-15.18a55.37,55.37,0,0,1-5.32-20c-.42-4.57.92-8.73,2.55-12.92.21-.88,1.3-1.56,2.07-2.5a4.75,4.75,0,0,1,5.43-.51c1.51.72,5.72,2.64,6.25,5.19,1.08,5.38-.29,9.25-1.4,12.81-.66,5.25-.76,10.45,2.94,16.16,2.09,3.84,5.24,6.72,10.17,7.12,7.28.76,13.19-3.82,13.67-11.07.27-6.37-1.45-12.55-3.16-18.44-8.09-28.07-8.37-24.88-20.06-51.46l-7.6-16.59a29.89,29.89,0,0,0-2.14-4.41c-10.27-14.32-12.67-30.82-14.23-47.68-1-10.86,2.37-21,9.32-30,1.53-2.16,3.63-4.37,5.18-6.25,2.57-3.41,11-5.35,11.6-5.4,7.48-3.29,15.12-1.69,22.83-2.41,2.29-.21,3.85,1.08,6.24,2,9.83,3.41,12.33,17.88,15.07,25.69,1.62,5,4.21,11.14,2.09,16.24-2.7,2-8.39,2.8-10.55,1.27-1.56-1.3-2.37-3.81-2.84-5.79-.84-2.8-.84-6-1.4-8.81-.68-4.26-3.28-16.7-7-19.24a5.32,5.32,0,0,0-5.48-.07c-9.32,5.19-13.38,14.22-16.84,23.47-1,2.11-.74,4.39-.53,6.68A64.9,64.9,0,0,0,406.72,187c2.22,5.27,5,10.49,7.52,15.73,6.84,14.64,8.08,12.51,14.95,27.43,4.33,9.4,13.32,22.4,15.18,26.84C447.34,264.2,451.72,271,453.6,278.89Z"/><path id="_Compound_Path_17" data-name="&lt;Compound Path&gt;" class="cls-1" d="M527.83,125.56a11.68,11.68,0,0,1-6.65,2.92c-4,.66-8.26,1.06-12.24,1.71-2.57.24-1.4.42-5.64,1.39a154.27,154.27,0,0,1,3,17c1.14,12.29,3.17,24.78,4.88,37,.79,5.4,1.3,10.83,1.8,16.26,1.62,17.43,3.24,34.86,5.12,52,1.16,9.4,3.18,18.73,4.32,27.85a185.15,185.15,0,0,1,2.31,21.69c.66,7.14-5.69,13.21-13,12.45a22.32,22.32,0,0,1-12-4.94,10.2,10.2,0,0,1-4.12-7.11c-.58-3.12-1.18-6.52-1.48-9.66-1.69-11.95-3.35-23.61-5-35.56-1.43-12.26-2.86-24.52-4-37.1-2.23-24-3.92-48.35-6.18-72.64a81.94,81.94,0,0,0-1.43-12.26,52.22,52.22,0,0,0-11.66,1.66c-3.12.58-6,.84-9-.6a6.35,6.35,0,0,1-4.07-6.54c.33-2.62,1.57-4.76,4.41-5.31a105.07,105.07,0,0,1,13-3.22l30.5-3.7c4.55-.71,9.07-1.71,13.9-2.45,2.57-.24,5.46-.22,8.31-.48a10.85,10.85,0,0,1,3.87,1.37C530.08,118.73,530.48,123,527.83,125.56Z"/></g></g></g></svg>