<?xml version="1.0" encoding="utf-8"?>
<!-- Generator: Adobe Illustrator 19.0.0, SVG Export Plug-In . SVG Version: 6.00 Build 0)  -->
<svg version="1.1" id="Layer_1" xmlns="http://www.w3.org/2000/svg" xmlns:xlink="http://www.w3.org/1999/xlink" x="0px" y="0px"
	 viewBox="0 0 103.375 84.188" style="enable-background:new 0 0 103.375 84.188;" xml:space="preserve">
<style type="text/css">
	.st0{fill:#E2DC1C;}
	.st1{fill:#FFFFFF;}
</style>
<path id="XMLID_109_" class="st0" d="M83.382,16.643c1.942-0.401,2.995-1.43,2.995-3.089c0-2.29-2.718-3.204-6.32-3.204
	c-4.21,0-8.481,0.398-8.926,5.549h-16.63C55.663,2.225,68.36,0.393,78.171,0.393c12.639,0,24.504,2.289,24.504,13.39
	c0,7.552-7.538,10.585-13.082,11.673l-13.914,2.688c-3.327,0.629-5.099,1.545-6.045,3.034h32.209v9.954H53.168
	c0.281-15.277,9.645-19.911,18.85-21.97L83.382,16.643z"/>
<polygon id="XMLID_108_" class="st0" points="35.374,0.465 35.374,14.714 17.798,14.714 17.798,0.465 2.165,0.465 2.165,41.245 
	17.788,41.276 17.798,25.013 35.374,25.013 35.374,41.25 51.002,41.25 51.008,0.465 "/>
<polygon id="XMLID_107_" class="st1" points="19.726,43.217 14.287,60.122 8.897,43.217 4.586,43.217 0.56,67.453 4.875,67.453 
	7.428,52.148 12.322,67.453 16.224,67.453 21.164,52.148 23.655,67.453 27.935,67.453 24.035,43.217 "/>
<polygon id="XMLID_106_" class="st1" points="29.579,43.217 42.271,43.217 42.271,47.731 33.972,47.731 33.972,52.114 
	42.271,52.114 42.271,56.546 33.972,56.546 33.972,62.922 42.271,62.922 42.271,67.453 29.579,67.453 "/>
<polygon id="XMLID_105_" class="st1" points="44.501,43.217 48.926,43.217 48.926,63.055 55.375,63.055 55.375,67.453 
	44.501,67.453 "/>
<polygon id="XMLID_104_" class="st1" points="83.211,42.359 87.456,42.359 97.404,58.308 97.404,42.359 101.829,42.359 
	101.829,66.595 97.572,66.595 87.636,50.697 87.636,66.595 83.211,66.595 "/>
<path id="XMLID_101_" class="st1" d="M73.218,61.226c-1.476,1.58-3.265,2.372-5.364,2.372c-1.857,0-3.501-0.61-4.937-1.828
	c-1.845-1.561-2.768-3.681-2.768-6.361c0-0.335,0.018-0.66,0.047-0.978c1.115,2.933,4.144,5.041,7.715,5.041
	c3.36,0,6.245-1.864,7.504-4.531c0.006,0.145,0.018,0.288,0.018,0.436C75.433,57.694,74.695,59.643,73.218,61.226 M76.308,46.331
	c-2.367-2.482-5.196-3.723-8.484-3.723c-2.174,0-4.2,0.567-6.083,1.704c-1.881,1.138-3.361,2.677-4.436,4.622
	c-1.076,1.945-1.613,4.076-1.613,6.393c0,3.46,1.155,6.449,3.464,8.962c2.308,2.516,5.208,3.773,8.698,3.773
	c3.332,0,6.166-1.224,8.501-3.673c2.335-2.45,3.503-5.443,3.503-8.98C79.858,51.84,78.675,48.813,76.308,46.331"/>
<path id="XMLID_93_" class="st1" d="M0.384,69.328h2.178l2.142,10.328h0.037l2.646-10.328h1.497l2.636,10.328h0.038l2.151-10.328
	h2.177l-3.402,14.528h-1.731L8.154,73.379H8.116L5.509,83.857H3.788L0.384,69.328z M34.797,78.656l-1.974-6.355h-0.036l-1.973,6.355
	H34.797z M35.386,80.607h-5.172l-1.046,3.25H26.98l4.955-14.528h1.73l4.956,14.528h-2.179L35.386,80.607z M52.379,71.281h-3.737
	v-1.952h9.539v1.952h-3.738v12.576h-2.064V71.281z M71.019,69.328h8.71v2.072h-6.645v4.157h5.672v1.951h-5.672v4.276h6.645v2.072
	h-8.71V69.328z M95.151,75.698h3.132c0.775-0.014,1.356-0.255,1.743-0.721c0.381-0.433,0.572-0.965,0.572-1.598
	c-0.013-0.76-0.24-1.309-0.684-1.648c-0.351-0.3-0.856-0.45-1.519-0.45h-3.244V75.698z M93.087,69.328h5.327
	c1.135,0,2.063,0.319,2.78,0.957c0.865,0.724,1.316,1.757,1.352,3.099c-0.024,1.972-0.902,3.314-2.632,4.024l3.156,6.448h-2.454
	l-2.821-6.209h-2.644v6.209h-2.064V69.328z"/>
</svg>
