<svg xmlns="http://www.w3.org/2000/svg" viewBox="0 0 104.25 83.46"><defs><style>.cls-1{fill:#b6bd00;}.cls-2{fill:#fff;}</style></defs><title>logo-full-col</title><g id="Layer_2" data-name="Layer 2"><g id="ELEMENTS"><path class="cls-1" d="M83,16.25c1.94-.4,3-1.43,3-3.09,0-2.29-2.72-3.2-6.32-3.2-4.21,0-8.48.4-8.93,5.55H54.12C55.28,1.83,68,0,77.79,0c12.64,0,24.5,2.29,24.5,13.39,0,7.55-7.54,10.58-13.08,11.67L75.29,27.75c-3.33.63-5.1,1.55-6,3h32.21v10H52.78c.28-15.28,9.65-19.91,18.85-22Z"/><polygon class="cls-1" points="34.99 0.07 34.99 14.32 17.41 14.32 17.41 0.07 1.78 0.07 1.78 40.85 17.4 40.88 17.41 24.62 34.99 24.62 34.99 40.86 50.62 40.86 50.62 0.07 34.99 0.07"/><polygon class="cls-2" points="19.34 42.82 13.9 59.73 8.51 42.82 4.2 42.82 0.17 67.06 4.49 67.06 7.04 51.75 11.94 67.06 15.84 67.06 20.78 51.75 23.27 67.06 27.55 67.06 23.65 42.82 19.34 42.82"/><polygon class="cls-2" points="29.2 42.82 41.89 42.82 41.89 47.34 33.59 47.34 33.59 51.72 41.89 51.72 41.89 56.15 33.59 56.15 33.59 62.53 41.89 62.53 41.89 67.06 29.2 67.06 29.2 42.82"/><polygon class="cls-2" points="44.12 42.82 48.54 42.82 48.54 62.66 54.99 62.66 54.99 67.06 44.12 67.06 44.12 42.82"/><polygon class="cls-2" points="85.63 41.97 89.87 41.97 99.82 57.91 99.82 41.97 104.25 41.97 104.25 66.2 99.99 66.2 90.05 50.3 90.05 66.2 85.63 66.2 85.63 41.97"/><path class="cls-2" d="M72.83,60.83a7.07,7.07,0,0,1-5.36,2.37,7.41,7.41,0,0,1-4.94-1.83A7.9,7.9,0,0,1,59.77,55c0-.33,0-.66,0-1A8.45,8.45,0,0,0,75,54.55c0,.15,0,.29,0,.44a8.25,8.25,0,0,1-2.22,5.85m3.09-14.9a11.32,11.32,0,0,0-8.48-3.72,11.56,11.56,0,0,0-6.08,1.7,12.21,12.21,0,0,0-4.44,4.62,13,13,0,0,0-1.61,6.39,12.8,12.8,0,0,0,3.46,9A11.79,11.79,0,0,0,76,64a12.53,12.53,0,0,0,3.5-9,12.67,12.67,0,0,0-3.55-9.08"/><path class="cls-2" d="M0,68.93H2.18L4.32,79.26h0L7,68.93H8.5l2.64,10.33h0l2.15-10.33H15.5L12.1,83.46H10.37L7.77,73h0L5.12,83.46H3.4Zm34.41,9.33-2-6.35h0l-2,6.35Zm.59,2H29.83l-1,3.25H26.6l5-14.53h1.73l5,14.53H36.06Zm17-9.33H48.26v-2H57.8v2H54.06V83.46H52Zm18.64-2h8.71V71H72.7v4.16h5.67v2H72.7v4.28h6.65v2.07H70.64ZM94.77,75.3H97.9a2.19,2.19,0,0,0,1.74-.72,2.33,2.33,0,0,0,.57-1.6,2,2,0,0,0-.68-1.65A2.28,2.28,0,0,0,98,70.89H94.77ZM92.7,68.93H98a4,4,0,0,1,2.78,1,4,4,0,0,1,1.35,3.1,4,4,0,0,1-2.63,4l3.16,6.45h-2.45l-2.82-6.21H94.77v6.21H92.7Z"/></g></g></svg>