<svg xmlns="http://www.w3.org/2000/svg" viewBox="0 0 135.86 136.51"><defs><style>.cls-1{fill:#fff;}</style></defs><title>smile</title><g id="Layer_2" data-name="Layer 2"><g id="ELEMENTS"><path class="cls-1" d="M93.49,103.92A40.6,40.6,0,0,1,61.82,112a42.79,42.79,0,0,1-26-13.8q-13.52-14.7-10.32-36c.27-1.77.62-3.48,1-5.14,3.87,16.47,19,30.17,38.85,33.14,18.67,2.8,36.17-4.68,45.28-17.75-.08.77-.13,1.54-.25,2.32q-2.76,18.42-17,29.15m29-76.34Q105.73,4.9,78.32.78a67.28,67.28,0,0,0-35.13,4A67.35,67.35,0,0,0,.84,58.07Q-3.29,85.56,13,108.43t45.31,27.24Q86,139.83,108.4,123.29T135,78.63q4.26-28.37-12.51-51.05"/></g></g></svg>