<svg xmlns="http://www.w3.org/2000/svg" viewBox="0 0 154.09 117.66"><defs><style>.cls-1{fill:#fff;}</style></defs><title>type-juicy</title><g id="Layer_2" data-name="Layer 2"><g id="ELEMENTS"><path class="cls-1" d="M18.09,29.91c.94,1.86,3.64,6.57,6.42,6a10.41,10.41,0,0,0,2.4-.61c6.41-2.62,2.25-13.49-5-11a.21.21,0,0,1,0,0c-2.41.11-4.68,1.83-4.06,4.4a1.1,1.1,0,0,0,0,.19l.15.69a.29.29,0,0,0,.05.31Zm6.51-4.66a3.35,3.35,0,0,1,3.54,2.36,12.51,12.51,0,0,0-3.58-2.31v0l.06,0Zm.87,4.54.05-.52a1.49,1.49,0,0,1,1.11,2,1.15,1.15,0,0,1-.66.08,2.64,2.64,0,0,1-.5-1.57ZM22.3,27.71c.1-.3.22-.72.48-.77h0l-.54.92,0-.14Zm-3,1.3A4.33,4.33,0,0,1,20,26.89l.1,0a1.92,1.92,0,0,0,.3-.55,2.39,2.39,0,0,1,.56-.21l.05.15.64-.13-.35.24c-.12.14.19-.55-.13.07h0a5.62,5.62,0,0,0-.3,4.59,19.65,19.65,0,0,1-1.54-2Z"/><path class="cls-1" d="M12.59,84.62c.84.48,1.28,1.48,2.28,1.91a4.31,4.31,0,0,0,4.84,3.23A5.24,5.24,0,0,0,22.86,88a3.28,3.28,0,0,0,4.2.87,2.75,2.75,0,0,0,1.69-1c2.19,3.5,6.81,1.1,7.17-2.39,2-1.56,3.48-6.32,1.73-8.51a6.24,6.24,0,0,0-.87-6.11,5,5,0,0,0,.39-5.5,3.7,3.7,0,0,0-1.92-3.87,7.11,7.11,0,0,0-1-4l0-.57c1.85-2.32.37-5.43-1.34-7.35C38.65,39.08,20.63,37.94,22.75,48a4.34,4.34,0,0,0,1.47,2.66c.7,3,.46,6.2,2,8.91.16.94.36,2,.62,3.08a.14.14,0,0,0-.07.08c0,.09.06.29.14.34l.44.57a6.56,6.56,0,0,0,2,6.62c.07.31.11.94.16,1.2l.24,1.16a2,2,0,0,0,.16.39A5.88,5.88,0,0,0,29,76.81a5.53,5.53,0,0,0-.5,1.73c-1.21,0-3,0-4,.72,0,0-.6-.42-.52-.44h0L24,79c-.39-.12-.89-.23-1.28-.32l-.12.05c-.61-.16-1.14-.07-1.94-.23l-.42-2a3.76,3.76,0,0,0-.59-1,5,5,0,0,0,.28-3.93,11.16,11.16,0,0,0,1.44-6s.08,0,.07-.06c-.24-3.61-4-5.51-7.32-5.27-.65.14-1.61,2.44-1.73,3.18l-.07,0c0,.07-.09.16-.08.23a8.77,8.77,0,0,0,.34,1.57,3.27,3.27,0,0,0-2.66,3.74c-1.78.83-1.84,3.76-1.25,5.29-1.37,1.73-.48,5.1,1.13,6.33a4.69,4.69,0,0,0,2.77,4.12ZM34,74.09l-.21.2-.53.09a2.1,2.1,0,0,1-.56-.67,2.52,2.52,0,0,1,1.37.28l-.07.11ZM30.62,54.86a7,7,0,0,1-1.34.18,2.71,2.71,0,0,1,1.49-1.93.87.87,0,0,1,.88.65,2.9,2.9,0,0,1-1,1.09Zm.92,3.45-.21.06-.21-.06.33,0,.08,0Zm.1,4.18a4,4,0,0,1,1,.14,3.69,3.69,0,0,1-1.75.6,1,1,0,0,1-.63-.28,8.65,8.65,0,0,1,1.37-.45Zm2.78,3.63a2.06,2.06,0,0,1-2.29-.24l.18-.19a2.5,2.5,0,0,1,2.29.26l-.19.18ZM35.58,68a.7.7,0,0,1,0,.43,2.07,2.07,0,0,0-.34-.27,1.07,1.07,0,0,0,.34-.16ZM27.32,46.69a2.44,2.44,0,0,1,3.49.46l-.35.64a5.41,5.41,0,0,0-3.23-.63.29.29,0,0,1-.09-.19l.19-.28Zm2.36,13.07a2.12,2.12,0,0,0,.88.46l-.43.11a1.51,1.51,0,0,1-.52-.15l.08-.41Zm1.6,8.15.13.08-.14.11v-.2ZM27.16,52.52l0,0,0,.08,0-.11Zm5.06,27.07a3.61,3.61,0,0,1,3.19,2.25l-.13,0-.14,0-.31-.38a9.05,9.05,0,0,0-2.62-1.81v-.06Zm1,4.39v0l.46.12v.19a1,1,0,0,1-.55-.07,1.15,1.15,0,0,0,.09-.2Zm-2-1.34h0l0,0,0,0Zm-.2,4c.27-.24.58-.47.83-.73a4.87,4.87,0,0,0,1.68.41,4.69,4.69,0,0,1-.7.93,1.62,1.62,0,0,1-2.17-.41,1.07,1.07,0,0,0,.36-.2Zm-1.13-2.31a2.35,2.35,0,0,0,.21.24l-.15.13-.07-.38Zm-3.2.6A3.45,3.45,0,0,0,27,83.22a1.9,1.9,0,0,1,.61,1,3.09,3.09,0,0,1,.09,1.21,1.79,1.79,0,0,1-1.16-.28,1.06,1.06,0,0,0,.07-.15Zm-1.81,2a1.47,1.47,0,0,0,.3-.22,2.72,2.72,0,0,0,.73.39A1.05,1.05,0,0,1,24.73,87l.1-.06ZM15.54,72.38a2.2,2.2,0,0,1-1.77-.31,5.82,5.82,0,0,0,1.78.29v0Zm.8,3.11.24,0a11.7,11.7,0,0,1-1.74.43,2.54,2.54,0,0,0,.91-.67l.59.2ZM14.7,76h0Zm1.94,8.57.93-.5c0,.11,0,.23.06.34a4,4,0,0,1-1,.18v0Zm3.39,3a2.26,2.26,0,0,1-2.84-.9,4.63,4.63,0,0,0,1.38-.3,4.49,4.49,0,0,0,1.5,1.17l0,0Zm1.49-4.16a3.8,3.8,0,0,0,.2-1.84.38.38,0,0,1,.32.16c.32.45.19.68.12,1.13v.08a9.35,9.35,0,0,0-.26,3.28l-.1,0a3.81,3.81,0,0,1-1.43-1,5.91,5.91,0,0,0,1.16-1.83ZM18.35,69s0,.08-.12.14l-.1-.45.15,0,.07.34Zm-3.22-4.67h0S15.12,64.3,15.13,64.29Zm0,0c.07.07.18.14.17.25.45.39.79.32,1.14-.24l0-.21c.39.41,1.51.77,2.2,1.33a9.14,9.14,0,0,0-3.79-.61l-.18-.69a.57.57,0,0,0,.5.17Zm-2.71,3.34c0-.26.12-.4.2-.88h0a2.07,2.07,0,0,0,1.15.5A5,5,0,0,0,16,68.58l.15.27a12.61,12.61,0,0,0-3.57-.64l-.1-.57Zm2.09,13.61a2,2,0,0,0,.67-.17,4.88,4.88,0,0,0-.54,1.79l-.23,0a3.64,3.64,0,0,1-.11-1.62l.21,0Zm-3.38-8.9.29.34-.31,0v-.39Zm1.08,6.77.37-.43a5.67,5.67,0,0,1,.91-.21,6.36,6.36,0,0,0-.75,1,.75.75,0,0,1-.67,0l.13-.35Zm-1.73-1.2-.34-2a4.21,4.21,0,0,0,1.05,1.14c-.24.27-.48.55-.71.83Z"/><path class="cls-1" d="M41.86,64.7A4.67,4.67,0,0,0,43,66.35c.07,2.42,1.23,4.71,1.68,6.84a5,5,0,0,0,.7,1.63h.06a.12.12,0,0,0,.06.13c.32,2.46.68,4.68,3,6,1,2.65,4,4.85,6.7,3.59.46-.1-.23.76.81,0,.1.06.21,0,.32-.1a3,3,0,0,0,2.5-.08c.6-.13,1.63-1.35,2.11-1.75.77-.13,1.52-.33,2.28-.49,4.21.58,7.56-5.29,6.81-8.82l-.22,0L69.8,73c0-.07.17-.16.26-.19a6.1,6.1,0,0,0-.36-4.74,5.19,5.19,0,0,0-.13-2.95c.9-2.49,1.26-5.43-.16-7.8a6.17,6.17,0,0,0-.18-3.25c.29-.09.18-.17.15-.28a6.67,6.67,0,0,0-1.51-3.1l-.1-.47c-.22-1.07.57-1.86.13-3.28.06,0,.09-.08.08-.13l-.22-1A10.7,10.7,0,0,0,66.68,44a1.45,1.45,0,0,0,0-1.47c0-.16-.56-.71-.64-1a4,4,0,0,0-1.2-3.71c-.62-1.92-4-2.79-5.47-1.71a5.24,5.24,0,0,0-.66-.09c-1.54-.13-1.51,3.63-1.36,4.81a6.35,6.35,0,0,0,1.13,6.85,4.7,4.7,0,0,0,1.37,3,7.12,7.12,0,0,0,.17,3.72A3.86,3.86,0,0,0,59.59,58,4.57,4.57,0,0,0,62,60.8v.08c-1.66,1.32-1.33,3.23-.73,5.06a6.38,6.38,0,0,0,0,3.56,4.59,4.59,0,0,0-.2,3.63,1.2,1.2,0,0,0-.4.69,2.2,2.2,0,0,0-.92.81A3,3,0,0,0,56,77a11.52,11.52,0,0,0-1.47-.79c-.26-1.89-.23-5-2.05-6.18l-.1-.88a.81.81,0,0,1,.19-.1.15.15,0,0,0-.13-.13,3.35,3.35,0,0,0-1.34-2.36,5.28,5.28,0,0,0-.56-3.18A4.23,4.23,0,0,0,49.59,60a2.88,2.88,0,0,0,.46-1.61,5.66,5.66,0,0,0-.93-4.4,3.72,3.72,0,0,0-.9-4.46,3.35,3.35,0,0,0-.49-1.41,1.64,1.64,0,0,0-.55-1c3.32-3.71-1.28-8.91-5.51-7.15-4.83.73-1.63,10.77-.75,13.23.06.28-.08.34.23.64a13.5,13.5,0,0,0,.42,5c0,.16,0,.15.11.27l0,.18h0a8.92,8.92,0,0,0,.21,5.44Zm24-17.43,0,.22-.13-.08a1.07,1.07,0,0,0,.1-.14Zm1.42,7.8a3.27,3.27,0,0,0,0,.56l-.24-.16.2-.4Zm-.55,21.67,0,.27a3.48,3.48,0,0,1-.79.69,7.35,7.35,0,0,0,.17-1.25l.51-.12.09.43ZM67.7,73l-.29.36a6,6,0,0,0-2.48-1.09,3.46,3.46,0,0,0,2.24-.38l0,0a2.54,2.54,0,0,1,.66.83L67.7,73ZM68,61.4c-.08.33-.18.69-.28,1a13.16,13.16,0,0,0-2.14-1.27,3.09,3.09,0,0,0,2-1l.23.24.2,1Zm-2.65-4.27.1-.08.16.09h-.26S65.39,57.13,65.37,57.13Zm-.91-11.91a2.55,2.55,0,0,1-.54,1L63.55,46a5.19,5.19,0,0,0,.91-.74ZM61,38.4a4.18,4.18,0,0,1,2,.75l0,.06a5.6,5.6,0,0,0-1.78-.27.43.43,0,0,0-.17-.36.24.24,0,0,0,0-.18Zm-1.06,3.14a5,5,0,0,1,2,.82l-.18.21c-.89.33-1.52-.07-1.85-1Zm1.94,10.59v0a6,6,0,0,0,4.08,0,5.27,5.27,0,0,1-.76,2.36c-.62-.26-2.37-1.24-3-1.1l0,.07-.24-1.26Zm4.24,11.75-.84.14-.26-.1a2.11,2.11,0,0,1-.5-1.07q.71.39,1.4.83h0l.23.19ZM61.54,56.8l0-.5c.19.22.78.8,1,.74V57a.25.25,0,0,0,.18,0,3.67,3.67,0,0,0,1.14.43,4,4,0,0,0-1.17,1.26,2.45,2.45,0,0,1-1.22-1.91ZM63.2,67.6a8,8,0,0,0,1.66.56.4.4,0,0,1,0-.09l1.64-.34a3.47,3.47,0,0,1,.89.73,3.82,3.82,0,0,1-.43.85,5.47,5.47,0,0,0-3.63-.81l-.12-.91ZM63,71.68a13.68,13.68,0,0,0,1.7.56,2.8,2.8,0,0,0-1.59,0L63,71.68Zm-.12,4.15a3.41,3.41,0,0,0,1.18.63,3.32,3.32,0,0,1-.35,1.3l-.36-.24a7.79,7.79,0,0,1-.58-1.81l.11.12ZM58,77.52a.9.9,0,0,1,.35-.79l.6-.06a2.83,2.83,0,0,1-.23.69l.52,1.83c.06.3.71.86.88,1l0,0A2.71,2.71,0,0,1,58,77.52Zm-.23,4.62.13-.68a3.62,3.62,0,0,0,.72.38,1.06,1.06,0,0,1-.88.4s0-.06,0-.1Zm-3.62-3.29,0-.16a.6.6,0,0,1,.49,0,3,3,0,0,1,.23,2.54,5,5,0,0,1-.76-2.37Zm-7.59-33.6c.5-.57.27-1.9.06-2.49l.09.11a3.49,3.49,0,0,1-.23,2.74l0-.05.11-.3ZM51.8,72.57l0,0,0,.09h-.07l0,0Zm-6.07-6.5a.93.93,0,0,1-.6-.3l.09-.52.21.07c.05,0,.24.31.26.31l.85-.18a5.78,5.78,0,0,0,1.72-1.34l.07,0a3.06,3.06,0,0,1-2.59,1.94Zm2.2,8.81-.17-.19a.88.88,0,0,0,.22,0l0,.16Zm-.45-6.66A3.07,3.07,0,0,1,48.63,68,1.87,1.87,0,0,1,47,69.18l.52-1Zm.67,4.54-.44-.24a2.07,2.07,0,0,1,.63-1.43,3.91,3.91,0,0,1,1.92.17,2.1,2.1,0,0,1-2.11,1.5Zm1.53,3c.22-1.17.91-1.58,2-1.13a2.35,2.35,0,0,1-2,1.13Zm.51-6.6c-.15.2.11-.17.1-.18l.06.21-.16,0ZM52.27,78a8.49,8.49,0,0,1-1,1.65h0a1.3,1.3,0,0,1,.45-1.39,2.27,2.27,0,0,1,.62-.26Zm.09,4.35-1-1.18,0-.26a2,2,0,0,0,1.17-.45,3.54,3.54,0,0,0,1.1,2.16l-1.18-.26ZM48.08,55.63a8.94,8.94,0,0,1,.3,1.94,4,4,0,0,0-1.94-1,2.7,2.7,0,0,0,1.64-1Zm-4.5-10c-.25,0-.24.22-.32.23h-.06c-.18,0-.35-.4-.38-.63l1.59.58-.83-.19ZM45,48.72h-.07l.07,0Zm.1,2.9a6.36,6.36,0,0,0,.83-1,1,1,0,0,1,.36.06,3,3,0,0,1-.77,1.18l-.94.25a5.92,5.92,0,0,1,.51-.45ZM42,43.41c-.05-.26.42-.69.45-1a2.43,2.43,0,0,1,1.39-.64c0,.18,1.3,2.29,1.42,1.37.09-.3-.34-1-.47-1.16H45l.21.24a9.37,9.37,0,0,1,.25,2.32A5.79,5.79,0,0,0,42,43.43Zm1.09,4a1.39,1.39,0,0,1,1,.1,1.66,1.66,0,0,1-1.1,0l.14-.12Zm-.38,1.48.87.09s.27-.1.35-.11c-.62.13-1.29,1.08-1.61,1.63a6.87,6.87,0,0,1,.11-1.71,1.22,1.22,0,0,0,.28.1ZM41.1,45.56l.12-.38a.65.65,0,0,1,.52-.25,2.13,2.13,0,0,0,.32.94,4.31,4.31,0,0,0-.6.66.75.75,0,0,1-.36-1Zm2.65,13.36a.62.62,0,0,1,.37-.41,3.22,3.22,0,0,1,3,.45,5.89,5.89,0,0,0-.84-.07l-.87.18c-.36.08-1,.74-1.13.94h0a1.47,1.47,0,0,1-.51-1.08Z"/><path class="cls-1" d="M65.22,24.93c1.24,1.85,4.3,1.2,6,.41,4.89-.1,4.7-5.21,2.27-7.75-5.56-7.15-14.53,1.63-8.24,7.34ZM66,17.31a5.84,5.84,0,0,1,3.51.3l-.21.18a5.68,5.68,0,0,0-3-.15c0,.07,0,.26,0,.27l-.55.12.34-.72Zm-.66,3.32.31-.34A5.34,5.34,0,0,1,67.88,20a5.26,5.26,0,0,0,0,1.82c.1.48,1.25,1.17,1.64,1.3a1.44,1.44,0,0,1-.17.49l-.52-.07c0-.88-2-1.28-2.56-1.33a3.12,3.12,0,0,1-1-1.57Z"/><path class="cls-1" d="M78.67,37.25c-1.11-5.27-7.45-6.21-8.82-1a7.41,7.41,0,0,0,.54,2.25s0,0,0,0a1.28,1.28,0,0,1,.07.33c.51,2.94,1.14,5.43,3.22,7.72l.15,1.4c-.29.82-1,2.67-.86,3.44l.49,2.32c.21,1,1.41,2.43,1.62,3.7a7.41,7.41,0,0,0-.45,3.28l0,0a5.33,5.33,0,0,0,.22,1.39,6.83,6.83,0,0,0,.86,1.32,7.16,7.16,0,0,0,1.54,4.34A5.34,5.34,0,0,0,77,72.39c0,.12-.16,0,0,.28A5.49,5.49,0,0,0,82.65,76s.06,0,.07-.06a3.05,3.05,0,0,0,2.16.81l.59-.13s0-.12,0-.12c1.28,0,2-1.76,2.13-2.73A2,2,0,0,0,87.89,72c-.16-.75-1.29-1.58-2-1.93,0-.57-.11-1.15-.17-1.73,0,0,.13-.06.12-.08l-.2-1.75c0-.06-.16-.1-.18-.16h-.07l.19-.15a4.24,4.24,0,0,0-1.3-2.82,22.83,22.83,0,0,0-1.45-7.21c.13-1.29-.09-3.49-1.22-4.38.25-1.11.82-3.13.61-4.13a3.13,3.13,0,0,0-.31-1.06,5.39,5.39,0,0,0-1.32-1.43A6.2,6.2,0,0,1,80.41,44a37.51,37.51,0,0,0-1.74-6.73Zm-.91,5.27a2.8,2.8,0,0,1-.8,1.92l-1.2.31a4.09,4.09,0,0,1,.49-1.55,2.1,2.1,0,0,0,1.52-.69Zm-3-1.19-.13-.09.48.13,0,0-.32-.07Zm1.16-3.1-.11.39a11.58,11.58,0,0,1-1.65.49h0a2.62,2.62,0,0,1,1.75-.88Zm-2.64-.89a2.71,2.71,0,0,1,.77-1.13l1.09-.06.13.15-.53.11a2.17,2.17,0,0,0-1.46,1v-.12Zm2.93,15,.11-.52.2.13-.31.48v-.1Zm4.13,17.84,0,0-.12-.13.16,0v0Zm-1.51-7.79a2.84,2.84,0,0,0-.76.73.9.9,0,0,1-.2-.24A2.53,2.53,0,0,1,78.1,62c.23.09.55.25.78.36l0,0ZM76,48.3l0-.07.1,0-.08,0Zm2.12,5.11,1.33-.3a2.88,2.88,0,0,1-.89,1.24,3.16,3.16,0,0,1-1.15.18l.71-1.12Zm0,3.67a3.47,3.47,0,0,1,2.35-.15,2,2,0,0,1-2.35.15Zm3.72,7.37-1.39.22-.57-.25a.51.51,0,0,1,.27-.26l1-.17.78.32-.07.13Zm-.48-4.19a2.32,2.32,0,0,1-2-.06,2.34,2.34,0,0,1,2,0l0,0Zm-1.73-9.33-.74.16a4,4,0,0,1-1.52-1,2.67,2.67,0,0,1,1.29-.33,3.4,3.4,0,0,1,.65.43,3.43,3.43,0,0,1,.33.76Zm.47-3v.1a3,3,0,0,0-.52-.26,1.77,1.77,0,0,0,.34-.47.77.77,0,0,1,.18.64Z"/><polygon class="cls-1" points="92.37 59.04 92.31 59.01 92.33 59.05 92.37 59.04 92.37 59.04"/><path class="cls-1" d="M88.37,58.89a3.07,3.07,0,0,0,.34.53c-.28,3.73,1.31,7.77,4.68,9.64a6.88,6.88,0,0,0,6,4,4.54,4.54,0,0,0,4.79-1.67,4.14,4.14,0,0,0,5.14-4.43,4.7,4.7,0,0,0,1.14-2.65c2.36-2.31,3.08-9.46.24-11.27-.93-2.51-6.79-3.38-5.69-1.48a3.59,3.59,0,0,1,.87.92,2.08,2.08,0,0,0-.39.53c-1.87.72-1.77,2.21-1.36,4.13-1.28.7-1.12,3.29-.77,4.48,0,0,.09,0,.1.07-1.23.82-.49,3.39.14,4.26a4.1,4.1,0,0,0-2.35-.94L101,65a1.74,1.74,0,0,0-.84,1l-1.43-.6a4.51,4.51,0,0,0-1.46-4.66,6.06,6.06,0,0,0-.55-1.93v0a1.31,1.31,0,0,0-.31-.39h0c.07,0,.15,0,.2,0s-.56-2.55-1-2.46h0s-.09-.13-.13-.18l0,0a.35.35,0,0,0-.13-.11,4.51,4.51,0,0,0-1.38-4c.63-1.24,1.23-3.42.28-4.65a3.72,3.72,0,0,0,1.38-4.52,4.67,4.67,0,0,0,0-3.35c.75-.86,1.33-1.16,1.65-2.27A4.64,4.64,0,0,0,99.1,38.3l.28,1.54a4.13,4.13,0,0,0,.62,1.05c1.24,2.35,4.68,4.95,6.53,1.94,1.48-.7,1.62-1.94.65-3.44a5.49,5.49,0,0,0-1.1-3.28C106,32,99,27.41,95,28c0,0,0,.12,0,.12a5.34,5.34,0,0,0-2.83,1.17c-.08.09,0-.15-.15.15h0l-.07.13A4.28,4.28,0,0,0,87.3,34l-.11,0c0,1.22,0,2.49-.08,3.73a4.94,4.94,0,0,0-.66,3.39,5.25,5.25,0,0,0-.73,4.57s0,0,0,.06a7.75,7.75,0,0,0,.89,2.56,9.51,9.51,0,0,0,1,1.46c.46,2.61-.47,5.15,0,7.74a11.58,11.58,0,0,0,.77,1.31Zm20-.62a.82.82,0,0,0,.32-.06l.11.08.13.58h-.07a3.22,3.22,0,0,0-.65-.59l.17,0Zm-.31,4.79h0l0,0,.05,0Zm-3,1.21c.08.4,1,.55,1.62.72a1.66,1.66,0,0,1,.23.85,1.43,1.43,0,0,1-1-.41,3,3,0,0,0-.81-1l0-.11ZM105,69.2c-.08-.61-.13-1.24-.22-1.85a3.47,3.47,0,0,0,2,.76,6,6,0,0,1-.59.9,5.1,5.1,0,0,1-1.23.2Zm-.32-26.54a.57.57,0,0,1-.43.07,2.11,2.11,0,0,1,.43-.07Zm-1.35-3.76.24.07-.05.07a1,1,0,0,1-1.16-.12,2.2,2.2,0,0,1,1,0Zm-2.05-4.79-.17-1.4a1.81,1.81,0,0,1,.88,1.51l-.67.13a1,1,0,0,0,0-.24ZM97.5,32.25a2.13,2.13,0,0,1-.14-1.1,1.23,1.23,0,0,1,.73.09,4.13,4.13,0,0,0,0,2.9l-.33-.4a11.27,11.27,0,0,0-.26-1.49Zm-4.09-.69a2.42,2.42,0,0,1,.55.12l.06.59-.55-.11-.06-.59Zm1,3a1.4,1.4,0,0,1,.55.38l.09.55-.51,0L94,35l-.15-.64.57.16ZM92.48,62.91l-.32-.49a1.66,1.66,0,0,0,.45.1l-.13.39Zm2.87-.52a2.63,2.63,0,0,1-.79,2.14A4.45,4.45,0,0,1,95,62.28a.76.76,0,0,1,.35,0l0,.15ZM97.8,68a1.5,1.5,0,0,0,.27-.47,5.15,5.15,0,0,1,2.13,1.14l.21.75a2.19,2.19,0,0,1-.47,1.08,3.62,3.62,0,0,1-.9.19,6.11,6.11,0,0,1-2.17-1.76A3.57,3.57,0,0,0,97.8,68ZM93,42.7l-.17,0c-.07,0-1.39-.87-1.4-.93a3.48,3.48,0,0,0-.68-.34,3.63,3.63,0,0,1,2.53.93L93,42.7Zm0-2.92-.06,0a1.71,1.71,0,0,0,.59-.1l0,0,.12.43L93,39.79Zm-3-7.57a1.15,1.15,0,0,1,.89-.42v0l.5-.08.05.47c-.52.16-1,.3-1.55.41l0-.07.14-.27Zm-.52,3a3.73,3.73,0,0,1,1-1.09,2.14,2.14,0,0,1,1.28,0,3.78,3.78,0,0,0,1.59,3A6.58,6.58,0,0,0,91,36.31l-.64.16a1.84,1.84,0,0,1-.86-1.28Zm-.21,3.59.52-.08a5.44,5.44,0,0,0,1.24.68,1.71,1.71,0,0,0-.46,0s0,.11,0,.11a1.08,1.08,0,0,1-1.17.14l-.13-.86Zm.59,5.56A4.17,4.17,0,0,0,92,45l0,.38c-1-.25-1.48-.17-2.18-1l0,0Zm.2,3.25.09-.14a2.45,2.45,0,0,1,1.72.1,3.83,3.83,0,0,1-.72,1.27.11.11,0,0,1-.1,0l-1-1.17,0-.06Zm0,4.92h0l.08,0a2.11,2.11,0,0,0,1.85.33l.8.49a3.86,3.86,0,0,1,.26,1,2.9,2.9,0,0,0-2.44.19,5.47,5.47,0,0,1-.56-2Zm2.78,4.07,0,.05a4.54,4.54,0,0,0-1-.09l-.07-.05,0-.15,0,0a1.58,1.58,0,0,1,1,.26Zm-1.5,2,0-.18h0a1.41,1.41,0,0,1,.56.65v0a2.31,2.31,0,0,1,2,.35,1.26,1.26,0,0,1-1.34,1,2.36,2.36,0,0,1-1.08-.72l-.15-1.07Z"/><path class="cls-1" d="M151.66,59.5a2.92,2.92,0,0,0-.82-1.33,6.47,6.47,0,0,0-.56-2.45c.13-1.5-.17-5.33-2.2-5.53a2.47,2.47,0,0,0-.8-1.29l-.79-1.53c1.77-1.58,1.13-4.74-.24-6.28-.1-.52-.1-1.46-.25-1.93a4,4,0,0,0-.38-1.21,3.83,3.83,0,0,0-.6-.73l-.22-1.64a.15.15,0,0,0-.12,0,6.62,6.62,0,0,0-.23-1.11h0a1.12,1.12,0,0,0-.06-.16,5.07,5.07,0,0,0,.1-2.76.17.17,0,0,1-.14-.1c-.1-.32,0-.83-.16-1.1a3.58,3.58,0,0,0-1-1.37,5.56,5.56,0,0,0-6.55-6.81,3.69,3.69,0,0,0-2.29.91,5.22,5.22,0,0,0-.69,4.63h0a5.23,5.23,0,0,0,.94,2.54c-.12,2,1,5.45,3.61,5.29l.07.07a4.17,4.17,0,0,0-.47,4.12c-2.27,1.45-1.13,5.29.4,6.8a6.05,6.05,0,0,0,.25,2.34,2.36,2.36,0,0,0-.82.1s0,0,0,0c-2.1.48-.86,3.66.12,4.62a4.58,4.58,0,0,0,1.47,5l-.26,0c-1.58-1.51-5.48-2.32-5.19.79a4.2,4.2,0,0,0-1.85.16,4.5,4.5,0,0,0-2-.88l-.13-.2a7.37,7.37,0,0,0,.27-3.19,4.49,4.49,0,0,0-2.5-3.23,4.62,4.62,0,0,0,.05-1.11,13.75,13.75,0,0,0-.93-3.06,6,6,0,0,0-1.57-6.18,3.55,3.55,0,0,0-.25-1.18,5.44,5.44,0,0,0,0-1.88c.1-.44-.11-.61-.24-.89a2.86,2.86,0,0,1-.32-.26c0-.11-.1,0-.11-.14-.2-.55-.16-1.43-.36-1.92-.26-.78-.84-1.12-1.48-1.68,1.82-3.67-.8-9.34-5.26-8.59l-1.24.27c-1.86.29-2.89,2.2-3.12,4.14a.29.29,0,0,1-.07.07h-.06a24.38,24.38,0,0,0,.67,2.95A23.78,23.78,0,0,1,114,35a7,7,0,0,0,2.33,7,5.18,5.18,0,0,0,.64,1.77,5.37,5.37,0,0,0,0,2,.78.78,0,0,1,.23.59.67.67,0,0,0-.2.09c-1.29,2.37,0,5.5,1.88,7.24.32,4.86,11,19.43,16.56,11.92a8.24,8.24,0,0,0,5.19-.77,2.63,2.63,0,0,0,3.32-1.44,3.81,3.81,0,0,0,.5,1.4A5.54,5.54,0,0,0,145,67c-.63,1.21-.83,3.37.18,4.47a3,3,0,0,0-.6,1.82l-.27.11a1.13,1.13,0,0,0-.68,1.28,5.57,5.57,0,0,0,1.67,3.19A2.91,2.91,0,0,0,144.15,80l0-.09.08,1.22a3.27,3.27,0,0,0-1.74,1.93,2.65,2.65,0,0,0-1.88,2.2,14.28,14.28,0,0,0-2.14,0,9.7,9.7,0,0,0-1.78-.81,3.48,3.48,0,0,0-.47-1.59c.29-2.23-.78-4.44-3.08-4.93a4.74,4.74,0,0,0-1.35-1.1h0c-1.94-1.44-7.73.26-7.11,3.21a12.13,12.13,0,0,0,.13,1.81,2,2,0,0,0,.51,1.21,7.13,7.13,0,0,0,2.33,2.3,7.72,7.72,0,0,0,2.18,2.91l-.1,0,.25.28c1.44,2.39,4.63,7,8.2,6.35a1.1,1.1,0,0,1,.09.22L139,95c.71-.15,1.83-1.52,2.27-2.12,1.08-.21,2.33-.5,3.53-.81,1-.18,2.28-1.52,2.91-2.36,1.93-.31,2.61-3.54,2.35-5-.12-.55,2.59-4.09,2.3-5.95,1-1.15,1.95-2.64,1.62-4.18a3.64,3.64,0,0,0-1-2.53,6.64,6.64,0,0,0-.13-2.47c-.06-1.14-1-2-.88-3a4,4,0,0,0-.11-2.05c0-.32-.22-.72-.3-1a6.87,6.87,0,0,0,0-4C151.64,59.43,151.66,59.5,151.66,59.5ZM115.39,32.22l-.09.09a2,2,0,0,1-.06-.78,3.38,3.38,0,0,0,.18.66l0,0Zm5.14-.69a.94.94,0,0,0-.09-.42,3.14,3.14,0,0,0,.38-1.53,7.57,7.57,0,0,1,.12,2.52l-.06.24-.24-.19-.12-.62Zm1.77,11.61L123,43a5.92,5.92,0,0,0-.35,2.1,1.13,1.13,0,0,0-.57-.06l-.38.15.18-.75h0c.12-.33.23-.88.41-1.32Zm1.3,7.25,0,0-.88.17-.14-.23a2,2,0,0,0,1.06,0ZM119,28.54a7.86,7.86,0,0,1,.15.82l-.26-.2.11-.62Zm-.43,10.8a.93.93,0,0,0,.42,0l.24.27-.25.21a.94.94,0,0,1-.48-.17l.07-.36ZM120,43.71a10.87,10.87,0,0,0-.23,1.19l-.67-1.4a1.33,1.33,0,0,1,.18-.57l1-.24-.32,1Zm-1-7.85q-.14-.28-.27-.56c.48-.08.94-.18,1.42-.3l.18.16.08.46a5.25,5.25,0,0,0-1.41.24Zm8.13,20.94a4.56,4.56,0,0,0-2.87.28l-.52-1L124,56a3.6,3.6,0,0,0,2.48-1.62,4.11,4.11,0,0,1,.62,2.4ZM124.93,46l-.25-.18a2.16,2.16,0,0,0,.15-.43l.11.62Zm6,17.56-.1.1-.49.11-.43-.15a1.77,1.77,0,0,0,.24-.41,2.18,2.18,0,0,0,.79-1.09c.06.26.12.52.18.78l-.21.65Zm6.39-3.28a.66.66,0,0,0,0,.24,2.86,2.86,0,0,1-1.07-.85,4.61,4.61,0,0,1,1.08.59v0Zm.84,3.19,0,0h0Zm2.07-2a.87.87,0,0,1-.57,0,1.42,1.42,0,0,0,.22-.66.73.73,0,0,1,.29.24l.05.43ZM127.52,80a1.16,1.16,0,0,0-.08-.25l.25,0-.17.3Zm2.8,2.61c-.13.27-.28.59-.39.87l-.73.09-.07,0a6.29,6.29,0,0,1-.2-.94,2.4,2.4,0,0,0,1.4,0l0,0Zm.73-1.51,0,.06a5.79,5.79,0,0,1-1.7.3l-.3-.18a2,2,0,0,1,1.24-1.14,1,1,0,0,1,.8,1Zm2.64-.77.38.41.05.29a1.1,1.1,0,0,0-.33-.1l-.11-.6Zm-.36,3.47a2.58,2.58,0,0,0,.26-.88,1.21,1.21,0,0,1,.59.46l-.11.41-.8.14.06-.13Zm1.19,2.93.38-.09a1.52,1.52,0,0,1-.58.86l-.32.08.53-.86Zm2,2.24s0,0,0,0l.11.52c.06.26-.19.56-.39.81a2.07,2.07,0,0,1-2.07,0,1.78,1.78,0,0,1-.28-.85c.34-.08.77-.13,1.07-.19h0a2.56,2.56,0,0,0,1.44-1.46l.06,1.07s0,.07,0,.11Zm2.4,3.66a1.76,1.76,0,0,1-.9.34,8.35,8.35,0,0,0,.68-.75l.39.18-.17.23Zm1.69-3.92-.14-.69h.13l.18.81-.17-.12Zm2.65,1-.4-.05.08-.49c.16.14.46.42.66.38h0l.13.06-.47.1Zm2.42-4.09-.85-.4a2,2,0,0,1,1,.39l-.19,0Zm-2.39-44.15a.75.75,0,0,1,.23.15h0a.55.55,0,0,0-.22.4l-.27-.26.27-.28Zm4.73,21.44,1.07.53a.61.61,0,0,1-.2.35l-1.4-1,.53.08Zm-6.51-28.45a2.54,2.54,0,0,1-.82.1l.46-.42.36.32Zm3.79,24.72,0-.23a3,3,0,0,0,.53.33l-.2.57a.82.82,0,0,1-.38-.66Zm-3.2-14.86-.1-.44h0l.25.24a1.07,1.07,0,0,0-.16.2Zm-5-18.33c.5-.22.35-.37.37-.61a.64.64,0,0,0,.46.19,5.12,5.12,0,0,1,2,1.76,13.61,13.61,0,0,0-2.53-.47,1.59,1.59,0,0,1-.29-.86Zm2.14,6.85-.22.2a.84.84,0,0,1-.16-.42l.37.23Zm.47,5.51a6.36,6.36,0,0,1,.28-1.42l.08,0c.33-.07.73.22,1.08.4a1.49,1.49,0,0,0,0,1.37s-.09,0-.08,0l.15.7c0,.13-.13.46,0,.81h.08a2.31,2.31,0,0,1-1.62-1.9Zm-.94,3.73.16-.28,1.22.58s0,.07-.06.07h0a2.55,2.55,0,0,0-.12,2,1.13,1.13,0,0,1-.31.13.24.24,0,0,0-.31-.09l-.25-.26-.32-2.18ZM139,51.5a.46.46,0,0,1-.14-.27l.35.1c-.07.06-.15.11-.22.17Zm2.56,7.83-.08-.06h.06l0,.07Zm.77-3.58a1.89,1.89,0,0,1-.59,1.28l-.7.06a5.38,5.38,0,0,1-1-.82l-.14-1a6.42,6.42,0,0,0,2.39.42v.06ZM149,81.51l-.31.88a10.69,10.69,0,0,0-2-1A4.23,4.23,0,0,1,146.6,80c.72.17,1.34.36,2.15.55l.21,1Zm-.5-4.36-.64-.35a3.56,3.56,0,0,1,.68.37l0,0ZM142.23,49a3.49,3.49,0,0,1-.85.22,1.87,1.87,0,0,1-.84-1.53,6.4,6.4,0,0,0,1.33-.2,5.31,5.31,0,0,0,.87.56,6,6,0,0,1-.52,1Zm5.36,21.5a.87.87,0,0,1,.68,0l-.76.16.09-.14Zm1.17,3-.18,0-.42-.35a3.26,3.26,0,0,1,2.19,0,2.52,2.52,0,0,1-1.6.4Zm3.14,1.95a4.33,4.33,0,0,1-.64,1.08l-.53-.45a5.12,5.12,0,0,0,1.18-.87v.23Zm-3.5-15.71-.43.58-.13,0a5.39,5.39,0,0,0,.34-1.14,2.14,2.14,0,0,0,.39-.1h0l-.18.62Z"/><path class="cls-1" d="M43.77,93.51a4.76,4.76,0,0,0,.18,2l-.55.46-.54.07c1.27-5.92-7.18-1-1.63,1.11a3.62,3.62,0,0,1-3.39,1.5,3.59,3.59,0,0,0,.86-2.58l-.19-.88s.2,0,.2-.06c-.28-.87-1.15-.73-1.62-.62l-.88.19c-.06,0-.13-.11-.16-.17a14,14,0,0,1-3.48.83.51.51,0,0,0-.37.46,3.08,3.08,0,0,0,.36,2.92,2.44,2.44,0,0,1-1.57.08c1.45-3.7-2.73-2.88-2.7-2.36-.22.07-.27.23-.1.44l-.73-.35-.62.13a.41.41,0,0,0-.3.47c0,.05-.12.12-.13.19h0a2.2,2.2,0,0,0,1.54,2.5l-.24.27a7.84,7.84,0,0,1-2.33.39c.26-.48.89-1.53.79-2l-.05-.9a2.23,2.23,0,0,0-3.41-.1s-.07,0-.05,0c-1.21-.54-2.09-.25-2.32,1a3.69,3.69,0,0,0-1-.32,2.32,2.32,0,0,0-1.69,3,1.74,1.74,0,0,1-.66-.88q.29-.09.14-.49a.24.24,0,0,1-.06-.16c-.08-.17-.28-.35-.47-.31l-.18,0c0,.46-.23.47-.19.63l.07.33c-.44.11-.11.07-.13.12a4.36,4.36,0,0,0,2.27,2.35s0,0,0-.05a.39.39,0,0,0,.14,0s0,0,0,0c.23.13,1.24.86,1.47.81l.48-.1s0-.1,0-.15l.51-.16c.38-.1.82-.7,1-1l.94,0a1.49,1.49,0,0,0,1.24-.16c.11,0,.49-.62.52-.66,2.08-.76.09.08.5.15a.27.27,0,0,1,.21.09l1.4-.15a2.89,2.89,0,0,0,1.25-.24c.37-.08.81-.88,1-1.12.3,0,1.08-.07,1.3-.35a4,4,0,0,0,3.21-.18,1.19,1.19,0,0,0,.74.12,1.89,1.89,0,0,0,1,.27.41.41,0,0,1,0-.14c.24-.05,1.17-.08,1.23-.1l.56-.24s0,0,0,0l.64.24v0a4.51,4.51,0,0,0,1.7-.12,4.46,4.46,0,0,1,.86-.26q.09.1.23-.06h0a5.72,5.72,0,0,0,1.87-2.07,2.54,2.54,0,0,0,2.11-.79c.73.44,2.47.76,3.09-.14a1.54,1.54,0,0,1,1,.73l.88,0a6.56,6.56,0,0,0,2.84-.67,3.59,3.59,0,0,0,.57-.05,5.66,5.66,0,0,1,1.42-.46.48.48,0,0,0,.46-.24,3.45,3.45,0,0,0,4.63-.45,4.75,4.75,0,0,0,5.81-1.25,2.22,2.22,0,0,0,.68-.15,2.62,2.62,0,0,0,2.91.09.26.26,0,0,0,.16.14l.73-.22c.57,0,1.28-1.14,1.59-1.65L71.6,92a3.85,3.85,0,0,0,3.18.1,3.57,3.57,0,0,1,.84-.2,3.46,3.46,0,0,0,2-1.32A3.07,3.07,0,0,0,79,89.92a5,5,0,0,0,5-.44,3,3,0,0,0,1,.1,1.1,1.1,0,0,0,.06-.12l1.17-.25c1-.22,2.57.3,3.85-.41a2.93,2.93,0,0,0,3.57-1A3.58,3.58,0,0,0,96,87a.83.83,0,0,0,.76.21,12.38,12.38,0,0,0,2.16-.32,3.66,3.66,0,0,0,1.9-1.16,3.51,3.51,0,0,0,3.34.1,3.56,3.56,0,0,0,2.08-.05,3.74,3.74,0,0,0,3.41-.34c2.14.81,3.45-1,5.15-1.36a2.9,2.9,0,0,0,1.54-1.36c1.68.61,2.1-2.19,1.92-3.22-.07,0-.16,0-.18-.11L118,79c-.58-.56-1-.67-.64-.42a1.17,1.17,0,0,0-.54.25c-.85-1.07-1.83-.36-2.08.6-1.71-.88-3.39-.56-3.87,1.27a4.28,4.28,0,0,0-2.28-.11,3.71,3.71,0,0,0-3.5-.12c-.67-.3-2.1-.57-2.61.09-.31-.57-1.18-.37-1.45-.32l-.46.1s-.09,0-.14-.07l-.31.13h0c-.13.06.06.13-.2.19a2.75,2.75,0,0,0-.62,2.55c-.06.06-.23.13-.22.15l.15.72s.14,0,.2,0a2,2,0,0,0,.41.89,3.54,3.54,0,0,1-3,1.12h0a2.88,2.88,0,0,0,.56-3.2h0c-.17-.79-1.09-.92-1.67-.79a1.82,1.82,0,0,0-1.37.67c.41-.42-3.07-.1-2.86-.18a1.29,1.29,0,0,0-.64.58c.09,0-1-.51-.88-.53l-.81.17c-1.8.38-.79,4.17-.34,5a3.61,3.61,0,0,1-1.13.25,14.32,14.32,0,0,0,.48-1.77L88,85.66c0-.2-.37-.16-.45-.66a6,6,0,0,0-2.32-1.43l-.65.14a3.21,3.21,0,0,0-.5.93,3.71,3.71,0,0,0-2.41-.26c-.93-2.37-4.42.34-4.54,1.93a5,5,0,0,0-2.2-.44,1.94,1.94,0,0,0-2,1.64,3.28,3.28,0,0,0-3.14.45,1.47,1.47,0,0,0-1.82.59c-.78-1.61-3.11.22-3.46,1.08a4.38,4.38,0,0,0-3.07,0,.55.55,0,0,0-.41.47L61,90.7a3.85,3.85,0,0,0-2.86,0,.53.53,0,0,0-.39.51v.06c-.5,0-1.55.17-1.65.74-.88-1.49-1.94-1.45-2.83.05-1.51-1.48-3.61-1.12-3.94,1l-.09-.41a5.36,5.36,0,0,0-1.48-1.14h0s0,.14,0,.14a3.63,3.63,0,0,0-1.12.22c-.2-.29-.92-.3-1.13-.33,0,0-.63.28-.67.3-.45.13-.92,1.34-1,1.68Zm-23.4,7.14-.37.68a4.08,4.08,0,0,0-1,.32l-.11.15A1.93,1.93,0,0,1,19,99.72l.38-.08a1,1,0,0,1,.39,0V99.6c.55.09.72.45.63,1Zm.53,1.1.14-.26,0,.07-.19.19ZM22,98.5a3.76,3.76,0,0,1-.23,2,6.24,6.24,0,0,1-.35-2.2l.3,0,.26.1,0,.1Zm.87,2.56h-.18l.31-.87a2.18,2.18,0,0,0,.67.67l-.8.19Zm1.76-1.41-.28.43a2.29,2.29,0,0,1-.73-2l.14-.17.86-.09.28.15a2.62,2.62,0,0,1-.28,1.7ZM28.4,99a1.94,1.94,0,0,1-1-.56c0-.21-.08-.45-.07-.45l.18,0,.42-.2v0c0,.09.19.12.35.12l0,.08a1.88,1.88,0,0,1,.06,1Zm1.84-1-.18.34a2,2,0,0,1-.57-.46,4.07,4.07,0,0,1-.21-.91l.38-.07a1.42,1.42,0,0,0,.51.22,2.56,2.56,0,0,1,.07.88ZM33,96.71A.61.61,0,0,0,33,97l0-.21,0-.06s0,0,0,0S33,96.71,33,96.71Zm.14-.38a.47.47,0,0,0,0-.09h0l-.06.1Zm1.1.7a1,1,0,0,0,0,.4l-.17.2,0-.78.29-.48,0,.17a1.28,1.28,0,0,0-.12.48Zm1.16,1.29-.73.2a4.68,4.68,0,0,0,.54-.65l.3.33-.1.11Zm.82-1.27,0,.24,0-.18-.08-.38c0-.22.11-.54.13-.84v0l.17.74-.13.4Zm.79,1.1-.06.07-.14-.08c.25-.38.72-1.18.6-1.63l-.23-1h.22c-.07,0,.17-.07.18-.07h.18l0,.07A3.43,3.43,0,0,1,37,98.16Zm4.89-2.64-.24.68a1.67,1.67,0,0,1-1.14-.65,1.84,1.84,0,0,1,.06-1.33l.59-.11a1.22,1.22,0,0,0,.51.28l.22,1.13Zm70.2-14.9.08-.22a3.09,3.09,0,0,1,2.27.39,3.06,3.06,0,0,1,.21,1A3.72,3.72,0,0,1,114,83l-.79.18a2.3,2.3,0,0,1-1.1-2.58Zm-1,3.2a2.4,2.4,0,0,0,.24-.4,2,2,0,0,0,.73.68l-1.43.26.46-.55Zm-2-2a.48.48,0,0,1,0-.07,2.15,2.15,0,0,1,1.11.17L110,82l.09.42c.1.46-.36,1-.76,1.4l-.05-.17-.3-1.42.14-.39Zm-.91,2.38a.72.72,0,0,0,.19.26l-.41.1a1,1,0,0,0,.21-.38v0Zm-2.32-.09c.73-.93,1-1.75.45-2.73a2.89,2.89,0,0,1,1.26.06l.1.9a3.85,3.85,0,0,1-1.46,2l-.38-.22,0-.05Zm-.71-2,0-.09.18.19v.13l-.13.25-.09-.48Zm-1.9-.1.16-.48a2.86,2.86,0,0,1,.7-.07,3.9,3.9,0,0,0,.17,2.49l-.27.29a1.18,1.18,0,0,1-.5-.48l-.25-1.75Zm-1,1.49a1.61,1.61,0,0,0,.51,1.26,1.28,1.28,0,0,1-1.19-.07l.68-1.19ZM100.57,82l.07-.34.11-.11.31-.07.21.07h0a.64.64,0,0,0,.22,0,3.64,3.64,0,0,1-.68,2,11.69,11.69,0,0,1-.25-1.64Zm-5.11,2.25,0-.65.27-.06a4.31,4.31,0,0,1,.62.07,1.84,1.84,0,0,1-.56,1.84l-.16-.14-.2-1.06ZM94.77,86l.18.19a.48.48,0,0,1-.41.18l.23-.37Zm-2.34-.71a2.1,2.1,0,0,0,0-.41l-.1-.49s.08-.05.07-.07a3.2,3.2,0,0,0-.49-.62l1-.16.63.22a5.06,5.06,0,0,1,.19,1.51A10.26,10.26,0,0,0,93,86.61a1.77,1.77,0,0,1-.94-.5l.33-.81Zm-1.12,2.13a1.1,1.1,0,0,0,.24-.31l.41.34-.87.2.22-.23Zm-2-2.79.11-.25,0,.06a1.21,1.21,0,0,1,.9,0,5.61,5.61,0,0,0,.3,1.76,5.29,5.29,0,0,1-.85,1L89.7,87a6.63,6.63,0,0,1-.35-2.38Zm-4,1h.05l.29,0s0-.12,0-.12a1.54,1.54,0,0,0,.5,0l.2.23a4.86,4.86,0,0,1,.1,1.11c-.07.29.19.79-.1,1.13-.82-.59-1.29-2-1-2.31Zm-.33,2.55,0,0h0l0,0ZM82,86a.48.48,0,0,0,0-.41A3.16,3.16,0,0,1,84,86a1.83,1.83,0,0,1-.34,2.18,4.43,4.43,0,0,1-2-1.55L82,86Zm-.41,2.29a4.72,4.72,0,0,0,1,.69,4.29,4.29,0,0,1-2.65.13A16.16,16.16,0,0,0,81,87.73l.52.53Zm-3.26-1.78q.27-.46.51-.94A2.54,2.54,0,0,0,80,84.81l.41.17c-.12.45-.3.62-.19,1.09.05,0,.08,0,.09,0l.1.49c-.63.64-1,1.2-1.51,1.79L78.5,88l-.21-1.53ZM74.11,87.7c0-.22.17-.12.24-.6L75,87l.53.21,0,.06a1.9,1.9,0,0,0,.77,0l.74.41L77.26,89l-.35.55a2.71,2.71,0,0,1-2.5-.58,5.36,5.36,0,0,1-.3-1.23Zm-.66,2.89c.14-.22.29-.43.42-.66a4.69,4.69,0,0,0,1.77.8,6,6,0,0,1-2.77.51l.58-.65Zm-1.2-2.12.44.29a1.17,1.17,0,0,1-.2,1.17l0,.11-.72,1h0c-.08-.44,0-.32.06-.45l.07-.09-.31-1.24c0-.15-.74-.71-.69-.67l1.3-.1Zm-3.32.69L69,89l.31-.11.29.1,0,0c0,.05-.16.12-.15.14l.24,1.14c0,.14.63.59.72.71a3.32,3.32,0,0,1-1.22-.7,4.27,4.27,0,0,1-.19-1.21ZM67.7,91.79a4.64,4.64,0,0,0,.47-.92c.2.59,1.17,1,1.76,1.2l-.58.64-.67.1s0-.1,0-.1A7.29,7.29,0,0,1,66.9,93l-.16-.09a13.35,13.35,0,0,0,1-1.11ZM65.59,90a1.27,1.27,0,0,0,0-.52,1.93,1.93,0,0,1,.87-.33,3.16,3.16,0,0,0,.66.16A2.78,2.78,0,0,1,66.28,92L66,90.88a4.88,4.88,0,0,0-.54-.48l.08-.37Zm-3.41,1.11v-.53c1.53-.43,2.39.2,2.58,1.72a.69.69,0,0,1,.13.19v.05l-.23.27c-1.48.43-2.35-.17-2.48-1.7Zm-.57,2a3.53,3.53,0,0,0,1.72.92,6,6,0,0,1-2.66.38l.94-1.3ZM59,91.55a2.48,2.48,0,0,1,1.6.24l.06.81-.68.93a2,2,0,0,0-1-2l.07,0Zm-1.91.94a1.08,1.08,0,0,1,.57-.13,2.24,2.24,0,0,0,.67,1.76l-.47,0-.64-.36a2.06,2.06,0,0,1-.13-1.3Zm-1.51,2.2a2.33,2.33,0,0,0,.45-1,1.66,1.66,0,0,0,1.25,1.43,1.88,1.88,0,0,1-1.72-.36v0Zm-1.3-1.84a3.88,3.88,0,0,1,.07-.85.83.83,0,0,1,.59,0l.19,1a8.89,8.89,0,0,1-.42,1.09,2,2,0,0,1-.42-1.22Zm-.72,1.64a.3.3,0,0,1,0-.11,1.47,1.47,0,0,0,.39.48l-.62.16.21-.54Zm-3.42-1,.09-.91.23-.23.83-.2a3.62,3.62,0,0,1,1.25.49,2.8,2.8,0,0,1-.72,2.5c-.47-.31-1-.77-1.59-1.18l-.1-.47Zm-1.49,1.08A6.61,6.61,0,0,0,49.35,93l0,.52.09.06a2.3,2.3,0,0,0,1.34,2,3.22,3.22,0,0,1-2.57-.33l.42-.67Zm-2-1.15.08-.5a3.17,3.17,0,0,1,.85-.11,1.45,1.45,0,0,0,.46.27,14.07,14.07,0,0,1-.7,1.44,2.39,2.39,0,0,1-.69-1.11Zm-.56,1,.67,1a2.79,2.79,0,0,1-1.35.2l-.07-.06a5.44,5.44,0,0,0,.75-1.12Zm-1.34-.74a2.87,2.87,0,0,1,.48-.87l.45-.14a5.16,5.16,0,0,1-.84,1.78l-.09-.78Z"/><path class="cls-1" d="M90.42,103.35a8,8,0,0,0,3-.46,8.51,8.51,0,0,0,6.54-.9,6.55,6.55,0,0,0,7-1l1.17-.26a5.19,5.19,0,0,0,2.16.71c.06.06.06-.1.15.35l2.6-.55c1.19-.25,2.92-1.73,3.94-2.39.9.35,2.54.44,3.27-.35a3,3,0,0,0,2.32.5c.62-.13,1.18-1.3,1.35-1.87a1.8,1.8,0,0,0,2.32-.1l0,.18.1,0c-.1,0,.89-1.19.68-.82.63-.75-.4-2.16-1.24-2l-.39.08c.07,0-.37.41-.45.44a3.82,3.82,0,0,0-.38-.19.82.82,0,0,0-.44-.68h0l-.4-1.89s0,0,0,0c-.28-1.11-2-1.78-2.23-.21,0,.05-1.51-1.25-1.44-.93l0-.12a2.47,2.47,0,0,0-1.22-1.4c-1.52-1.05-3.32.95-3.78,2.18-1.82-1.16-4.26-1.5-6,0a3,3,0,0,0-3,1.72c-1.13-.56-4.16-1.45-4.79.12a3.94,3.94,0,0,0-1.76.13,3.28,3.28,0,0,0-1-.22,16.16,16.16,0,0,0-3.25.88,6.33,6.33,0,0,0-3-.44s-.12-.18-.16-.17h0s0,.21,0,.22c-2.5,1.93-7.38-1.44-8.12,2.73-.44,0-1.8.14-2.18.65-1.66-.75-3.83-1.06-5.08.46a1.37,1.37,0,0,0-.79-.18.52.52,0,0,1,0,.25c-.13,0-1.94.17-2.08.18a.93.93,0,0,0-.82.69h0c-1-.63-3.27-1.28-4.37-.35a6.48,6.48,0,0,0-5.73,2.21,5.2,5.2,0,0,0-1.38-.08c-.1.07-.13.15-.12.15h-.06l-1.47.34a1.66,1.66,0,0,0-.87,1,5.85,5.85,0,0,0-3.4,0s-.06-.06-.08-.06,0-.07,0-.07l-.91.19a.84.84,0,0,0-.5.35,23,23,0,0,0-3.21.62h-.06a2.58,2.58,0,0,0-1.08,1,4,4,0,0,0-1.24.09c-2.92-1.88-8.13-2.2-8.93,2a1.37,1.37,0,0,0-.2-.09h0a7.44,7.44,0,0,0-4-.25s-.06-.07-.07-.06l-.91.24a.86.86,0,0,0-.52.36,4.27,4.27,0,0,0-4.34,2.54c-2.25-1.77-5.76-2.75-7.85-.25-7,3.14-.73,12.12,5.49,7.89.41,0,.89,0,1.31,0a5,5,0,0,0,2.81-1l.16,0s0,.1,0,.11a7.15,7.15,0,0,0,4.2.69l1.37-.29a.85.85,0,0,1,.16-.28c.25-.11.51-.3.75-.43a6.69,6.69,0,0,0,6-2.15c2.74.71,4.91.78,7.4-.93a8,8,0,0,0,6.9.11c-.15,0,.36-.37.29-.33a11.58,11.58,0,0,0,3.49-2.58,16,16,0,0,0,1.53-.54,6.77,6.77,0,0,0,6.7-1.49,4.67,4.67,0,0,0,3.53.18.31.31,0,0,1,.07-.14,8.6,8.6,0,0,0,4.47-2.69c2.18.55,3.17,1.08,5.59.09,0,0,0,.05,0,0l0-.05c1.15-.3,2.35-.58,3.56-.81a4.67,4.67,0,0,0,1.56-1,10.16,10.16,0,0,0,1.44.27Zm31.27-6.93a4.42,4.42,0,0,0,.26-.66,2.94,2.94,0,0,1-.24.95h-.17l.15-.28Zm-2.9.36h0l.11-.15v0l-.09.11Zm-2-4a1.8,1.8,0,0,1,1-1.29,3.6,3.6,0,0,1-.46,3.68,3.39,3.39,0,0,0-.57-2l0-.38Zm-5.4,5c.78-1.29,1.29-3.78.1-5.05a5.58,5.58,0,0,1,3.11,1.13,5.45,5.45,0,0,0,.4,2.79,5,5,0,0,1-.87,1.14,3,3,0,0,1-2.75,0v0Zm-3.26-4h.09a1.47,1.47,0,0,0,0,.89,1.05,1.05,0,0,0-.37-.43l.3-.44Zm.5,4.11a3.68,3.68,0,0,0,.05-.42l.07.38-.14.14,0-.1Zm-4.2.84a4.05,4.05,0,0,0-.27-3.85,3.7,3.7,0,0,1,1.31.44c.16.75.11,1.51.31,2.27,0,0,0,0,0,0s.34,1,.35,1l0,0s0,.06,0,.08a1.72,1.72,0,0,1-.34.42,3.15,3.15,0,0,1-1.48-.24,1,1,0,0,0,.09-.18ZM103,100.53h0l0,0-.11,0,.06-.05Zm-4.26-3.34a2.39,2.39,0,0,1,.37-1l.65-.41a1.23,1.23,0,0,1,.74.42,7.49,7.49,0,0,0,.31,1.85,4.29,4.29,0,0,1-1,1.55,2.84,2.84,0,0,1-1.07-2.37Zm-2.68-.39.07-.13a.4.4,0,0,1,.32.17,1.89,1.89,0,0,1-.16,1.45l-.22-1.49Zm-4.28,2a3.16,3.16,0,0,0-.09-1.31l-.08-.06a1.33,1.33,0,0,1,0-1.21A3.85,3.85,0,0,1,94.22,96l-.11.17c.25,1.17-.06,2.82.68,3.92a3.09,3.09,0,0,1-1.37.7,3.92,3.92,0,0,1-1.75-1.59l.12-.41Zm-71.18,12,.42-.34c0,.15.07.39.09.47a1.36,1.36,0,0,0-.68.11l.17-.24Zm.55,3.57,0-.08c.27.14,1-.14.42-.51a1.65,1.65,0,0,0-.51-.34h-.36a1.92,1.92,0,0,1,.28-1.34.91.91,0,0,0,.43.22,2.6,2.6,0,0,0,.91,1.56l0,.68a.48.48,0,0,1-.38.16l-.79-.35Zm2.5,2.29a4.77,4.77,0,0,1-1.54-.34,3.45,3.45,0,0,0,2-.66,4.19,4.19,0,0,0,1.24.57l-1.7.44Zm.15-6.45-.45,1.38s.39,1,.4,1.21a1.17,1.17,0,0,0,.31.9.38.38,0,0,0-.08.1c-.42-.67-.82-1.26-1.28-1.88a3.45,3.45,0,0,1-.13-2.18l1.07-.15.38.25a.81.81,0,0,0-.23.36Zm.54-1.57a3.44,3.44,0,0,1,2.48.44,9.44,9.44,0,0,0-1.51.33,1.94,1.94,0,0,0-1-.77Zm3.7,5.12a.92.92,0,0,1-.34.46,4.47,4.47,0,0,1-2.2-1.25,3.68,3.68,0,0,0,.06-2,6.16,6.16,0,0,1,3.32-.11,4.87,4.87,0,0,1-.84,2.85Zm1.38.7-.18,0c0-.09.26-.47.31-.55l.35.48-.48.1Zm2-1a3.17,3.17,0,0,1-.75-2.15l1,.43.19.73-.42,1Zm2-.16a.48.48,0,0,1-.19.09,4.16,4.16,0,0,1,.28-.62l.29.32-.38.22Zm-.65-5.09a3.92,3.92,0,0,0,0,2.2,13.79,13.79,0,0,0-1.69-.74A2.79,2.79,0,0,1,32.74,108l0,.2Zm2.41,6.14-.29,0,.23-.13.1.07Zm1-3.31a5.55,5.55,0,0,1-.87,1,4,4,0,0,1-.51-3.8,2.17,2.17,0,0,1,2.18,1.45,4,4,0,0,1-.8,1.36Zm2.42,1.68-.9.75a2.35,2.35,0,0,1-1-.35,10.06,10.06,0,0,0,1-1.16,5.05,5.05,0,0,0,1,.67l-.08.09Zm1.18-1.59a3.83,3.83,0,0,1-.93-.61L38.41,109l.2-.39,1.12-.17a6.23,6.23,0,0,0,.41,1.49,5,5,0,0,1-.46,1.16Zm.7,2.16.13-.14a2,2,0,0,0,.59,0l-.72.18ZM43,110.41a3.67,3.67,0,0,1-.79-.83,1,1,0,0,0,.06-.44,1.36,1.36,0,0,1,.74,1.27Zm1.78-.1c-.15-.32-.05-.93-.15-1.16a4.31,4.31,0,0,0-3.24-2.4c.41-2,2.28-2.54,4.15-1.76a4,4,0,0,0,.27,4.63,5.61,5.61,0,0,1-1,.69Zm1.77,1.62-.67-.08A7.11,7.11,0,0,0,47.1,111a5,5,0,0,0,1.27.63l-1.86.34Zm1.42-5.52a2.43,2.43,0,0,1-.77,1.85,3.1,3.1,0,0,1-.22-2l.94-.14.06.28Zm.53,3.19.35-.52a2,2,0,0,0,.22.79l-.57-.27ZM52,108.13l-.76,1.71a4.57,4.57,0,0,1-.69-3.71l1.13.44a7.63,7.63,0,0,1,.33,1.56Zm2.8-2.82a1.13,1.13,0,0,1,.16-.85,5.9,5.9,0,0,1,1.74.79,2,2,0,0,1-.4,2.1l-1.21-.74a5.94,5.94,0,0,1-.3-1.31Zm-2.54-.78c.21,0,.47,0,.68,0a2.33,2.33,0,0,0,0,.52c-.26-.2-.6,0-1-.42l.3-.06Zm1.57,4.15a1.05,1.05,0,0,0,.07-.61l1,.61-1.51.91.44-.91Zm3.79,1.83a16.9,16.9,0,0,1-3.22.64c.85-.47,1.68-1,2.48-1.55a5.52,5.52,0,0,0,1.84.27l-1.09.64Zm3-2.77a6.52,6.52,0,0,1-2.43.23,2.86,2.86,0,0,0,.42-2.5l0,0a1.9,1.9,0,0,0-.94-1.77A3.17,3.17,0,0,1,59,104a4.41,4.41,0,0,0,1.81,3.24l-.18.46Zm1.29-4.51s0,.08,0,.12a6.8,6.8,0,0,0-1.14-.65v0a7.05,7.05,0,0,1,1.3-.25l-.15.8ZM63,106.65v-.07l.16.16-.16-.09Zm2.58-2.54a2.9,2.9,0,0,1-.81,1.57,3,3,0,0,1-.89-2.94,4.89,4.89,0,0,1,1.59.65l.11.73Zm1.85,2.14h-.68a4.55,4.55,0,0,0,.53-1l.15-.62a10.08,10.08,0,0,0,.25,1,.67.67,0,0,0,.26-.06,2.23,2.23,0,0,0,.23.56l-.75.16Zm-.17-6A3.32,3.32,0,0,0,67,102.2a3.94,3.94,0,0,0-1.94-1.08l.64-.55,1.55-.31Zm3.56,2.06a5.92,5.92,0,0,1-1.05,2.72,4.88,4.88,0,0,1-.45-4.59l.88.27a2.08,2.08,0,0,1,.62,1.61Zm1.75-1.54a3.28,3.28,0,0,1,.11,1,4.56,4.56,0,0,0-.25-1.18l.15.15Zm2.83,3.88a4.32,4.32,0,0,1-2.18.87s0-.05,0,0l-1,.22A8.31,8.31,0,0,0,74.39,103,6,6,0,0,0,76.17,104l-.74.65Zm.61-3.83c-.05.42-.3.52,0,1.12a2.7,2.7,0,0,1-1.36-2.28l1.24-.18.28.11L76,100.84Zm4.4-1.74a4.36,4.36,0,0,0,.5,3.7,6.2,6.2,0,0,1-1.52.23,5.75,5.75,0,0,0,.29-3,1.66,1.66,0,0,0-.79-1.21l-.11,0a6.23,6.23,0,0,1,1.67.15l0,.11ZM84,101.22a2.64,2.64,0,0,1-.93.88,4.62,4.62,0,0,1-.64-.57,2.48,2.48,0,0,1,0-1.91,3.73,3.73,0,0,1,1.54.87l.06.73Zm6.69,0,.06-.05.13.13a.51.51,0,0,1-.28,0l.1-.1Zm-4.11-2.13-.34-.37,0-.07a.41.41,0,0,1,.32.14l0,.31Zm2,1.55-.28-.21c.73-1.94-.1-3.6-2.23-3.86l.05-.12a4.32,4.32,0,0,1,3.28.4,4.91,4.91,0,0,0,.22,2.33,4.4,4.4,0,0,1-1.05,1.47Z"/><path class="cls-1" d="M95,20.15c1.22-1.88-1.78-2.62-2.86-2.43a2.29,2.29,0,0,0-3.78,1.19,1.71,1.71,0,0,0-1.25-.45c0,.05,0,0-.06,0l-.33.07a.58.58,0,0,0-.33.25c-1.49-.71-4.77.2-4.28,2.51.22,1.84,2,4.1,4.08,3.7a3.26,3.26,0,0,0,2.7-1.38,7,7,0,0,0,2.42-.39,2.92,2.92,0,0,0,2.93-1,7.64,7.64,0,0,1,1.2.35l.7-.15c.13,0,1.06-.83,1.37-1h0a1.93,1.93,0,0,0,.43-.52,3.47,3.47,0,0,0,3.38.44v0c.24-.3.62-.65.91-1a3.25,3.25,0,0,0,4.59,0c0-.09,0-.27.13-.29l.28-.06a3.09,3.09,0,0,0,3.19,1.19c0-.06.09.12,0-.17l.77-.16a2.12,2.12,0,0,0,1.36-.52,4.69,4.69,0,0,0,3.74-1.92l1.43-.32a6.64,6.64,0,0,0,3.58-.46c1.41,1.35,2.78,1.34,3.74-.31.13.05.67.3.69.29a2.74,2.74,0,0,0,1.38-.3L128,17a2.41,2.41,0,0,0,.68-.5,3,3,0,0,0,1.64.29,13.46,13.46,0,0,0,2.22-.32l.38-.27a3.23,3.23,0,0,0,4.17-1.11c.59.42,2.78,1,2.92-.19v-.09a2,2,0,0,0,.5-2,.6.6,0,0,0,.28-.42c.42-1.18-1.57-1.51-1.9-.49l-.32-.11q-.62.08-.18.53l.61.21a1.38,1.38,0,0,1,.21,1.22,1.8,1.8,0,0,0-.42.5l-.54.05-.46-.26c.46-1.47,0-2.49-1.5-2.68-.81-1.46-6.22-1.67-6.42.07a1.09,1.09,0,0,0-.43,0c-.59-.85-3.28-.9-3.57.25-.53-.33-2.37.1-2.39.9-.88-1.5-2.71-1-3.49,0a2.78,2.78,0,0,0-1.77.31c-.74-.19-2.78-.29-3.28.53.12,0-.53-.13-.34-.15l-1.55.08a1.71,1.71,0,0,0-.91,1.2,6.22,6.22,0,0,0-2.88.15c-.27.06-.54.45-.63.68a3.84,3.84,0,0,0-2.11.48c-.84-.72-3.38-1.73-4.23-.41a3.14,3.14,0,0,0-1.09.32,3.52,3.52,0,0,0-3.07.43c-2.93-.67-2.45,2.26-1,3.77a3,3,0,0,1-2.34,1l0-.32.27-.47Zm-8.13,2.61c0,.14-.22.58-.27.72l-.74.24a1,1,0,0,0-.67-.16l-.32-.37c.1-.22.22-.94-.16-1l-.09,0a1.12,1.12,0,0,1-.23-.47q-.42-.76-.93-.15a1.94,1.94,0,0,1,.84-1.73l.87-.13.86.34a3.54,3.54,0,0,0,.83,2.73v.07Zm1.68-1.09a1,1,0,0,1-.17.57l-.34-.17c0-.1,0-.19,0-.29a.15.15,0,0,0,.12-.2l-.24-1.14c0-.08-.34-.44-.38-.64a1.81,1.81,0,0,1,.73.5l.28,1.38Zm1,.74,0-.22.17.18-.22,0Zm1.9-1.75a1.84,1.84,0,0,0,0,.55,1.61,1.61,0,0,0-.4.57,3.84,3.84,0,0,1-1.28-1.13l-.24-1.53.3-.58a3.26,3.26,0,0,1,.89-.2l.15.08a2.77,2.77,0,0,0,.56,2.2s0,0,0,0Zm1.34,1.21-.36.06a.93.93,0,0,0,.19-.26l.26.16-.09,0Zm.74-1.64a.85.85,0,0,0-.06.47,1.88,1.88,0,0,1-.67-.53,2.73,2.73,0,0,0-.16-1.22,3.77,3.77,0,0,0,1,.26l.15.56-.25.47Zm42.34-5.77a1.71,1.71,0,0,0,.3-.42l.07.08-.68.89-.81.18a2.34,2.34,0,0,0,1.11-.74Zm-1.53-2.9a1.76,1.76,0,0,0,.83.55l.22.83a2.87,2.87,0,0,1-.8,1c0-.15-.07-.22-.09-.31a6.46,6.46,0,0,0-.24-1.31h0a4,4,0,0,0-.54-.75l.61,0Zm-2.27,1a2.67,2.67,0,0,1,.25-.66,2.23,2.23,0,0,1,1.08,1.73,1.17,1.17,0,0,1-.3.55l-.46,0a3.84,3.84,0,0,1-.57-1.65Zm-2,2.45a.92.92,0,0,0,.15-.55l0-.12c.22.26,1,.68,1,1h0s.28,0,.33.1a3.88,3.88,0,0,1-1.93.08l.45-.5Zm-3-2.45,0-.28.9-.15.43.19a.85.85,0,0,0,.94.4l.12,0,.13.6a1.76,1.76,0,0,0-.6,1,2.35,2.35,0,0,1-.62.67,3.41,3.41,0,0,1-1.27-2.46Zm-.92,3.28c.12-.27.23-.54.34-.81a4.28,4.28,0,0,0,.69.82,5.31,5.31,0,0,1-1.23.27,1.06,1.06,0,0,0,.2-.28Zm-1.73-1.68a1.9,1.9,0,0,0,.32-1.12.76.76,0,0,1,.41-.07l.25.29,0,.16a5.78,5.78,0,0,1-.92,2.17,10.51,10.51,0,0,1-.09-1.43Zm-1,3a.19.19,0,0,0,.1-.06,1,1,0,0,1-.17.2.35.35,0,0,1-.18,0l0,0,.29-.14Zm-2.21-4s0,0,0-.07l.54-.22c1,.84,1.35,2.58.74,3.17l-.15,0c.49-.56.14-2.11-.79-2.68l-.36-.27s0,0,0,0ZM120,15h0a4.16,4.16,0,0,0-.22-1l.17.1.2,1.38-.1-.08a.61.61,0,0,0,0-.38Zm-.49,1.63.17.14-.27,0,.1-.18Zm-2.89-2.46,1-.08.36.22a1.89,1.89,0,0,0,.52,1.42,2.75,2.75,0,0,1-.7,1h0l-.51-.33c0-1,0-1.58-.82-2.19l.18,0ZM113.4,15.3l.06-.39c.36-.05.79-.1,1.15-.13a2.49,2.49,0,0,0,1,2.07l0,.09a3.23,3.23,0,0,1-1.68-1.15h-.05l-.42-.5Zm.51,3.14a3.8,3.8,0,0,0,.17-.67l.68.34a4.33,4.33,0,0,1-1,.66l.14-.33Zm-3.56-2.32s0,0,0,0Zm-.22,1.6a1.23,1.23,0,0,0,.24-1.6l1.25-.21.68.26c.08,0,.08.08,0,.1a2.14,2.14,0,0,1-.34,2.79,6.37,6.37,0,0,1-1.22-.43l-.63-.9Zm-.38,1.85a1.3,1.3,0,0,0,.61.4,2.88,2.88,0,0,1-1.8-.32l0-.06.68-.8.55.77Zm-2.42-2.28a1,1,0,0,0,.16-.41l1-.17.05,0,.15.4c.09,0-.08.06.37,0l0,.13a7.05,7.05,0,0,0-1.35,1.36l-.1,0-.09,0-.31-1.24.08-.12Zm-2.45.6a3.11,3.11,0,0,0,.08-1c0-.09-.15-.41-.15-.46s0,0,0-.05A2.27,2.27,0,0,1,106,19.07a3.2,3.2,0,0,1-1.27-.74l.14-.44Zm-1.24-1,.06,0v.37l-.16-.16-.07-.25Zm-.16,2.55.39-.15a2.31,2.31,0,0,1,.32.34,2.49,2.49,0,0,0,.72.38l-.55.09a2.48,2.48,0,0,1-1-.68s.08,0,.12,0Zm-.23-.13s0,0,0,.05l-.06-.05ZM99.45,17a3.44,3.44,0,0,1,1.41,0,4.37,4.37,0,0,0,.25,1.7,2.44,2.44,0,0,0-1-.06l-.74-.46a3.53,3.53,0,0,0-.22-1.05l.31-.1Zm-.3,2.7a.63.63,0,0,0,.1-.19,3.52,3.52,0,0,0,1.75.4l-.21.26-.92.19a1.25,1.25,0,0,1-1-.42l.23-.23Zm-1.87-2.27h.51a3.51,3.51,0,0,0,.36,1.25.43.43,0,0,1-.12.38,2.64,2.64,0,0,1-.75-1.64Z"/><path class="cls-1" d="M80.29,13.09c.46,1.46,2.81,1.75,4,1.45A2,2,0,0,0,85.56,14a2.92,2.92,0,0,0,1.28-.38c2.31.91,5.62.66,6.82-1.76a5.39,5.39,0,0,1,3-.15,1.75,1.75,0,0,0,1.4-.21l.7.35c1.53.86,4.11,0,5.15-1.08.08,0,.17.13.25.11h-.07l0-.08.09-.05.29-.1a2.57,2.57,0,0,0,1.41-.05s0-.09,0-.09h0c.94-.2,1.64-.06,2.31-.92a12.38,12.38,0,0,0,3.27,0s.11.09.16.08a4.73,4.73,0,0,0,2.05-.39c0-.09,0-.15.15-.18V9l.76-.55a3.35,3.35,0,0,0,2.14-.65,16.59,16.59,0,0,0,4.81-.68,1.33,1.33,0,0,0,.43-.28,1.92,1.92,0,0,0,.33.15c.78,1.81,4.56.8,5.55.21a3.53,3.53,0,0,0,3.33-1.32,3.7,3.7,0,0,0,1.2-.2,3,3,0,0,0,2,.27l.52-.11a2.64,2.64,0,0,0,1.34-1,2,2,0,0,0,.6.67l.24,0,0,.08c0,.19.43.6.69.54l.62-.13-.08-.39c-.1-.48,1.74-2.28,1.52-3.35,0-.58-.8-3.14-1.87-1.49a1.32,1.32,0,0,0-.15,1.06.29.29,0,0,0-.27.1l0-.48c-.22-2.86-2.49-1.21-2,1.34a4.62,4.62,0,0,1-.88,1.28,2.32,2.32,0,0,0,.13-2.21c.14.35-.12-.49-.08-.44-.68-.89-3.21-.78-3.66.12l0,0a3.33,3.33,0,0,0-2.54-.84.85.85,0,0,0-.72.67,2,2,0,0,0-1.89.83c-1.63-1.32-4.67-2.38-5.12.15a.93.93,0,0,0-.33.27c-1.42-1-4.06-1.4-5.14.31a1.5,1.5,0,0,0-1.53.63c-1.53-1.83-4.79-.46-4.55,1.83a3.56,3.56,0,0,0-.21.32,1.51,1.51,0,0,0-.59-.93,1.51,1.51,0,0,0-2.64.2,2.11,2.11,0,0,0-3.25,1c-1.27-.5-2-.75-3.21-.12-1.41-.49-3.25-.21-3.89,1.27A2.06,2.06,0,0,0,94.07,7a3.74,3.74,0,0,0-2-.2A4.59,4.59,0,0,0,90.81,7l0,0q-.15.33-.22.19a1.1,1.1,0,0,0-.15,1l-.21.08-.11-.53L88.88,8c-.35.07-.5.73-.49.9a3.31,3.31,0,0,0,3.31,3.19,5.89,5.89,0,0,1-3.82.35c2.89-5.37-9.62-5.36-7.59.68Zm57-10a3.16,3.16,0,0,0,.23-.31,1.59,1.59,0,0,1,.34.22c0,.4.1.6-.23.86a4.38,4.38,0,0,1-.33-.78Zm-4.84-.06,0-.34a2.5,2.5,0,0,1,1-.09v.13a2.68,2.68,0,0,1-.76,1.12l-.17-.15-.12-.66Zm-2,.84a4,4,0,0,0-.12-.73.55.55,0,0,1,.35.57L130.5,4l-.07,0s0,0,0-.07S130.43,3.91,130.43,3.89Zm-3,.76a1.37,1.37,0,0,0,0-1.35l0-.16a.74.74,0,0,1,.54,0,3.73,3.73,0,0,0,.54,1.23c-.24.29-.5.6-.76.87l-.39-.33,0-.1.11-.18Zm-4,.43a.13.13,0,0,0,0,0,1.64,1.64,0,0,0-.14-2.22A17.53,17.53,0,0,1,125.47,4l0,.49a2.79,2.79,0,0,1-2,1.13,1.55,1.55,0,0,0-.17-.27.89.89,0,0,0,0-.27S123.39,5.17,123.39,5.08Zm-5.86-1.69a2.53,2.53,0,0,1,1.71.4l.14.25a2.64,2.64,0,0,0,.14,1.1.82.82,0,0,1-.41.62l-.91-.19s0-.1,0-.11a2.51,2.51,0,0,0-.69-2.06ZM115.13,5l0-.24a1.3,1.3,0,0,0,.62,1.06l-.54-.36a1.19,1.19,0,0,1-.09-.47ZM113.76,6.4l0,.17-.14.32a.2.2,0,0,1-.13,0l.24-.51Zm-2.64-.79a1.6,1.6,0,0,1,1.4-.51A8.74,8.74,0,0,1,112,6.33a9.07,9.07,0,0,1-.87-.71Zm-.16,2,0,0-.23-.21.25.19Zm-1.88.33a.77.77,0,0,0,.07.19.2.2,0,0,1-.13,0l.06-.16Zm-1.71-1.83.11.08.12.82-.1-.09-.12-.81Zm-.6,2.32.14.13-.17.19-.07,0,.1-.34ZM103.92,7l.23-.62.48-.08.33.17a2,2,0,0,1-.26,2.45c-.68-.53-.29-1.32-.79-1.89V7Zm-2.45,1.68a7,7,0,0,0-.09-1.28,1.92,1.92,0,0,1,1.07.48,2.64,2.64,0,0,0,.34,1.37,12.36,12.36,0,0,1-1.33-.53s0,0,0,0Zm-1.07,1.74a2.39,2.39,0,0,0,.3-.34,5.08,5.08,0,0,0,.65.29,9.5,9.5,0,0,1-1.08.15l.12-.1ZM97,8a.45.45,0,0,1,.09-.54,4.17,4.17,0,0,1,1.7-.07,2.38,2.38,0,0,0,.7,1.72,1.68,1.68,0,0,1-1.25.64A3,3,0,0,1,97,8Zm-3.2.51h0a.88.88,0,0,1,.49.34,1.42,1.42,0,0,1,0,.61L94,9.34a2.2,2.2,0,0,1-.24-.8Zm-1.84-.33.18,0,.11,0v.11a1.61,1.61,0,0,0-.29-.09v0Zm-1.15,2.1a2.33,2.33,0,0,1-.94-.85l.79.11a2.45,2.45,0,0,0,.25.78l-.1,0ZM85,10.37a1.22,1.22,0,0,0,.55.06l.05,0a.69.69,0,0,1,0,.33,2.56,2.56,0,0,0-.8-.47v0l.18.06ZM83.3,11.69a1,1,0,0,0,.2-.5l.14,0a3.6,3.6,0,0,0,1.28,1.2l0,.13a3.34,3.34,0,0,1-2.12,0v-.22l.12-.23a.61.61,0,0,0,.36-.37Zm-1.71-.41c.38-.08.82-.16,1.2-.21l-.13.25c-.34.18-.41.4-.63.71l-.37-.28-.07-.48Z"/><path class="cls-1" d="M3.92,52.78C10.19,60,19.83,49.84,17.75,42.6c0-.14-.57-.68-.66-.92-.27-1.27-2.59-2.5-3.13-4-.23-1.08-4.23-3.94-5.18-4.82a1.12,1.12,0,0,0-.65-.65,3.09,3.09,0,0,0-1.56-1.88,7.79,7.79,0,0,0-1.71-4.25c-1.7-1.1-1,4.33-1,5a27.75,27.75,0,0,0-1.57,7.92C.32,40.92-.3,44.68.13,47.35a.72.72,0,0,1-.09.14,3.7,3.7,0,0,0,.61,1.87,5.55,5.55,0,0,0,1.07,1.09h0c.07,0,.16.3.17.43a15.26,15.26,0,0,0,2,1.9Zm-1.81-4a.88.88,0,0,0-.18-.15c-.89-3.07-.1-5.36,1-8.22a1,1,0,0,0,.84-1.23c.4-2.52.77-5.14,1.3-7.65a3.39,3.39,0,0,0,.9.7,3.55,3.55,0,0,0,1.2,1.65,54.06,54.06,0,0,0,5,4.89c3.83,6,5,7.32.38,13.95,0,0,0,.11,0,.11l-1.7.36s0-.11-.05-.11L8.84,53l0,0a1.84,1.84,0,0,0-.47.08A3.74,3.74,0,0,0,6.93,53c-2-1.18-3.11-2.95-4.82-4.22Z"/><path class="cls-1" d="M4.52,47.21c.11.35.56.65.62.94a1.07,1.07,0,0,1,.13.63c.15.71.85.33,1.06.1s.32-.54,0-.72c0,0,0,0,0-.05H6.27c0,.1-.2-1,0-.57a2.22,2.22,0,0,1-.31-.93.65.65,0,0,0-.22-.47,10.55,10.55,0,0,1,.71-5h0a1.16,1.16,0,0,0,.3-.81c0-.06.37-1.35.37-1.35h0c-.37-3.61-1.68-1.28-1.67,1.19-1.66,1.25-1.54,5.5-.88,7Z"/><circle class="cls-1" cx="8.65" cy="50.82" transform="translate(-10.31 2.88) rotate(-11.92)"/><path class="cls-1" d="M8.25,49.82s0,0,0,0,0,0,0,0Z"/><path class="cls-1" d="M9.7,49.63a.69.69,0,0,0-.29-.07,1.85,1.85,0,0,0-1.13.23s0,.35,0,.43.23.62.34.6a.12.12,0,0,0,.08,0c.69.33.55-.09,1-.19l.17,0q.91-.57,0-.94a.19.19,0,0,0-.2,0C9.62,49.59,9.72,49.62,9.7,49.63Z"/></g></g></svg>