<svg xmlns="http://www.w3.org/2000/svg" viewBox="0 0 134.6 93.4"><defs><style>.cls-1{fill:#fff;}</style></defs><title>type_fresh</title><g id="Layer_2" data-name="Layer 2"><g id="ELEMENTS"><path class="cls-1" d="M1.51,34.62c.11-.78-1.43-1.17-1.51-.17a1.21,1.21,0,0,0,.18.18c0,.19,0,.61.15.72a.77.77,0,0,0,1.18-.73C1.52,34.56,1.51,34.67,1.51,34.62Z"/><path class="cls-1" d="M5.07,38.34c.1-.54-.55-1.17-1-1.42,0,0-.51-.1-.55-.13-.86-.26-1.4,1-1.51,1.54l0,.09a.49.49,0,0,0,.2.53h0a1.78,1.78,0,0,1,.31.24c1.15,1,2.28.87,2.53-.86Zm-1.12.47a.39.39,0,0,1-.17.17.47.47,0,0,0-.18,0l-.28-.12h0a2.51,2.51,0,0,1,.29-1,.68.68,0,0,1,.35.94Z"/><path class="cls-1" d="M6.56,40.14c0,.45.79.89,1,.16,0-1.07-1-1.61-1-.16C6.56,40.16,6.56,40.11,6.56,40.14Z"/><path class="cls-1" d="M5,46.25c.06.12.14.34.29.37l.35.07c4.56.95-.64-8.11-1.26-2.14A2.4,2.4,0,0,0,5,46.25Zm.48-2.18.16-.1a5.68,5.68,0,0,1,.75.13s.08,0,.12,0l.05,0a2,2,0,0,1-.32,1c-.14-.27-.64-.56-.84-.77a.32.32,0,0,1,.08-.21Z"/><path class="cls-1" d="M10.7,43.63v0c-.17-.81-.4-.86-.83-.17a3,3,0,0,0-.16.52c.16.63.42.7.8.23.11-.08.14-.37.17-.52Z"/><path class="cls-1" d="M9.54,51.13c1.6-.86-.61-3.38-2.12-2.11h0a1.54,1.54,0,0,0,.06,2.58v.07c.07.12.16.28.3.31l.27.06,0-.11.11,0,0,0a3.24,3.24,0,0,0,1.33-.77Zm-.76-.72a1.07,1.07,0,0,0-.36.33l-.1,0a1.19,1.19,0,0,0-.11-.4l-.06-.06a.54.54,0,0,1,.19-.74,1.63,1.63,0,0,1,.53.28,1.23,1.23,0,0,1-.09.54Z"/><path class="cls-1" d="M11.93,45.49a.67.67,0,0,0-.29-.06c-1.08-.09-.3,1,.14,1h0c.12,0,.33-.2.51-.15.16-.2.23-.34,0-.55,0,0-.36-.28-.38-.29Z"/><path class="cls-1" d="M2,43.55a.48.48,0,0,0-.18-.32c0-.25-.39-.6-.61-.55-.36.23-1.2,1.4-.28,1.78.22.21.76.41.91-.14A1.92,1.92,0,0,0,2,43.55Z"/><path class="cls-1" d="M7.18,58.22c-.12-1-.65-1.71-1.67-1.71-5.09-1.54.65,8.71,1.73,1.9-.07,0-.08-.1-.05-.19Zm-1.46,1a1.35,1.35,0,0,1-1.3,0,1.32,1.32,0,0,1,.61-2,1.83,1.83,0,0,0,.5.19,1.75,1.75,0,0,0,.3.26,1.41,1.41,0,0,1,0,.81l.06,0-.21.65Z"/><path class="cls-1" d="M5.41,64.51a.7.7,0,0,0-.67-.67c-.68-.14-1.12,1.7-.79,2,.88.43,1.7-.06,1.46-1.36C5.41,64.47,5.42,64.56,5.41,64.51Z"/><path class="cls-1" d="M10.57,67.55c-.2-.76-.5-1.2-1.35-1.27a1.6,1.6,0,0,0-.71.46h0c-4.1,1.21,3.17,5.83,2.09.8Zm-1.17.72-.25.32h0L8.77,69H8.71a.34.34,0,0,1-.4-.31,3,3,0,0,1,.39-1.12l.37-.31.08,0,.33.21.09.24-.18.56Z"/><path class="cls-1" d="M11.47,22.08c4.12-1.88-1.81-5.33-2.41-2.43-.35,1.53.72,3.18,2.41,2.43Zm.1-1.39a1,1,0,0,1-1.35.21,1.64,1.64,0,0,1,.47-1.43c.55.35,1,.46.88,1.22Z"/><path class="cls-1" d="M19.8,9.09c0-.83-1.12-1.31-1.85-1.34-.37-.06-.74.44-.86.71-.29.29.06.55.28.51-.29.31-.68,1.13-.18,1.45a5.91,5.91,0,0,0,.62.13.31.31,0,0,0,.12.17A1.34,1.34,0,0,0,19,10.45a2.36,2.36,0,0,0,.62-1.27c.09,0,.14,0,.15-.09Zm-1.09.26c-.06.27-.37.44-.64.55L18,9.79s0-.1,0-.1a.79.79,0,0,0-.3,0c.12-.22.64-.63.69-.84.19.08.41.23.38.39l0,.13Z"/><path class="cls-1" d="M14.32,24.51s1.83-.39,2.06-1.56c.14-.69-.47-1.23-1.16-1.41-.37-.08-1.15.58-1.4.8a.61.61,0,0,1,0,.16h0c-.28.51-.45,1.67.28,1.95l.21,0v0Zm.16-1.33a.42.42,0,0,1,.11-.33.49.49,0,0,1,.27-.06h0c.19.08.41.07.6.15a1.38,1.38,0,0,1-.68.74.74.74,0,0,1-.27-.06l-.09-.13,0-.31Z"/><path class="cls-1" d="M24.77,3.12c1.91.4,2.69-1.61,1.56-2.34,0,0-.42-.22-.45-.24-.38-.1-1.83.3-1.4.92a2.14,2.14,0,0,0-.17.82l.1.18q-.1.37.37.65Zm.4-1.48,0,0c.26,0,.4-.09.66,0a.83.83,0,0,1-.38.54l-.41-.07L25,2l.12-.39Z"/><path class="cls-1" d="M21,7.48c.12.35.42.34.7.4a.58.58,0,0,0,.65-.48c0-.62-1-1.93-1.26-.73L21,7.18a.51.51,0,0,0,0,.29Z"/><path class="cls-1" d="M17.24,1.25c-1.34,2.64,3.86,3.07,2.89.67a2.18,2.18,0,0,0-.26-.57C19.64.51,18.42-.5,17.56.54a2.47,2.47,0,0,0-.32.71Z"/><path class="cls-1" d="M14.33,15.68c.07.46.84,1.19,1.22.45.2-1.16-.08-1.64-1-1a.23.23,0,0,0-.14.14.54.54,0,0,0-.06.4Z"/><path class="cls-1" d="M15.06,12.09c1.48-1.63.08-3.33-1.94-3.5s-2.23,4-.19,4.46l.17,0c.46.1,1.74-.74,2-1ZM14.57,11a2.86,2.86,0,0,1-1.23.86.24.24,0,0,0-.16-.06s-.05,0-.08,0c-.86-.07.2,0-.38-.14a1.27,1.27,0,0,1-.26-1.6l.34-.18c.19.06.9.24,1.09.08.48.17.78.51.67,1Z"/><path class="cls-1" d="M13.61,10.53a.46.46,0,0,0-.9.1c-.22.76,1.13.77.93,0l0-.1Z"/><path class="cls-1" d="M14.16,19.45a.32.32,0,0,0,.47.19c1.56.32,3.44-1.22,1.12-2.29v-.07a.4.4,0,0,0-.28-.13c-.8-.17-1.44,1-1.54,1.64a.61.61,0,0,0,.21.65Z"/><path class="cls-1" d="M4.5,24.93q-.07.16,0,.21a2.6,2.6,0,0,0,.82,1.38C6.18,31,12.17,24.28,7.4,23h0a2.42,2.42,0,0,0-2.94,1.85l.07.07Z"/><path class="cls-1" d="M10.59,26.83a.54.54,0,0,0,1,0c.52-3.81-2-.58-1,0C10.65,27,10.42,26.72,10.59,26.83Z"/><path class="cls-1" d="M15.19,27.43c.21.1,1.72-1.28-.25-.72a.54.54,0,0,0,.25.72Z"/><path class="cls-1" d="M14.8,41.19c-.11-.1-.2-.1-.21-.27l-.39-.09c-1.56-.61-2,2.68-.59,3l.41.08c1.57.33,1.52-1.71.81-2.68h0l0,0Z"/><path class="cls-1" d="M10.23,56.38a1.71,1.71,0,0,0-.58-2.84s-.08,0-.11,0,0,0,0,0a1.84,1.84,0,0,0-.45-.08,1,1,0,0,0-.48.42h0c-1.07,5.14.14-.75-.19.51-.25.48-.45,1.85.35,2.06.4.21,1.21.37,1.48-.14Zm-.62-.86a.84.84,0,0,0-.2.17l-.21-.05-.14-.3.16-.6a.45.45,0,0,0,.12-.1c.23.11.24.25.37.43a1,1,0,0,1-.1.46Z"/><path class="cls-1" d="M4.7,52.49a.54.54,0,0,0-.07-.6c-1.76,0-.55,1.27-.14.89a.44.44,0,0,0,.21-.28C4.8,52.3,4.67,52.62,4.7,52.49Z"/><path class="cls-1" d="M16.48,68.78c-.23-.64-1.25-1.26-1.81-.58-1.38,2.58,2.28,4.09,1.81.58Zm-1,1.24-.06.05A.14.14,0,0,1,15.3,70l-.19-.42,0-.38,0,0,.06-.28a.67.67,0,0,1,.45.57l-.08.54Z"/><path class="cls-1" d="M30.26,43.31c2.26,0,5.44-.18,7-2a4,4,0,0,0,1.23-3.85c-.15-.37-.33-.73-.5-1.11h0l-.88-.89,0,0a20.54,20.54,0,0,0-1.68-1.44h0c-.06-.2-.59-.52-.71-.61.11-.36-.26-.46-.52-.39-2-1.27-5.26-2.77-7.69-2.4a2,2,0,0,1-.47-1.08c.43.06.13,0,.13-.08l0-.12h0a2.16,2.16,0,0,0,0-.64c.3-2.47.77-4.92,1.07-7.38a8.37,8.37,0,0,1,1.38-4.17,5.72,5.72,0,0,0,1.3-1c.24-.07,0-.12,0-.27h0a2.73,2.73,0,0,0,2-.44A4.72,4.72,0,0,0,34,15.16a.4.4,0,0,0,.21.62,14.09,14.09,0,0,0-3.12,3c-.15.34-.79,1.12-.92,1.36C28.39,22.49,29,26.7,31.86,28c0,.07,0,.25.06.26l1.69.35c9.06,1.88,13.29-11.93,10.56-18.23l.06-.13c.06-.33,0-.5-.3-.5a9.66,9.66,0,0,0-10.32-5c-.85-.78-5,1.45-6,2-.1,0-.23,0-.25.12h0c-4.52,2.68-5.25,7.3-7.91,11.11-.12.24-.17.38,0,.44a21.51,21.51,0,0,0-1.2,11.56l0,.11a1.44,1.44,0,0,0,.07.63,4.29,4.29,0,0,0-.74-.09l0,0a.26.26,0,0,0-.31-.12l-.59-.2-.09,0c-2.22-.57-4.89-1.79-7.19-1.29-.71,0-1.36,0-2.08.09a.54.54,0,0,0-.49.34c-2.46-.94-1.61,5.1-.61,6.18-.38.35.2.45.41.38,1.39,1,2.68,2.5,4.38,2.85l1.09.23a.37.37,0,0,1-.12.2h0c0,.52.67.18.85,0l1.86.33a2.94,2.94,0,0,1,.77-.21c.15.31,1.62.42,1.86.44-.07,3.37,0,9.4-3.32,11.31-.68.54.36.66.7.42a29,29,0,0,1-1.47,3.47c-.28.14-1.19.88-.73,1.29a4.51,4.51,0,0,1-.39,1.15,12.68,12.68,0,0,0-1.25,2.51c0,.39-.5,1.6-.44,1.91h0c.57,3,4.89,6.71,7.55,3.33,4-3.34,5.93-12,7.16-16.66l.14,0c.38-1.93.77-3.85,1.22-5.76l-.16-.06.07-.32s.22.11.29.13c0,.33.39.35.62.23l.93.35a10.83,10.83,0,0,1,1.37.21,5.88,5.88,0,0,0,.65.12ZM44,18.16a2.39,2.39,0,0,1-.2.74,2,2,0,0,1,.2-.74ZM33.44,41a2.56,2.56,0,0,0-.18.62h0a.38.38,0,0,0,.24.21,12.55,12.55,0,0,1-1.59.23c.67-.44,1.28-1,1.91-1.47l-.39.4ZM37,39.91a1.15,1.15,0,0,0-.33.41,3.7,3.7,0,0,1-2.77,1.42c1-.68,2-1.31,3.13-1.93l0,.1ZM36.32,39c-.14.14.58-.43.56-.38a.51.51,0,0,0-.21-.85,2.94,2.94,0,0,0,.37-.32.89.89,0,0,0,.24.34h0a.74.74,0,0,0,.15.37,2.87,2.87,0,0,1-.18.85c-.31-.41-1.1.15-1.34.4l.4-.41Zm-.3-2.1a1.37,1.37,0,0,0,.28-.4l.19.22c-.22.12-.44.25-.65.39l.18-.2Zm-1.41-.74c.26-.14.7-.82,0-.76l.19-.18.84.73c-1.22.81-2.38,1.74-3.58,2.59l2.51-2.38Zm-1.71-2.5.13.09q-.77.51-1.53,1c.27-.16,1.2-1.08.6-1.42l.8.28Zm-1.44-.39v-.12l.55.2c-.5-.09-1.32.6-1.59.89l1.06-.83a.2.2,0,0,0,0-.13ZM22.88,39.6l-.23.06c.35-.38,1.84-1.35,1.93-1.76v0l1.49-1.11,0,0,1.43-1-4.65,3.9Zm2.32,1.54-1,.73a9,9,0,0,0,.93-.94l.11.21Zm-7.32,5a.4.4,0,0,0,.16.34l-.92.91.33-1.4c.21.11.51-.06.64-.21a.55.55,0,0,0-.2.36Zm-.45,3.18c.51-.4,1-.87,1.51-1.26q-1.45,1.27-2.81,2.62a2.17,2.17,0,0,0,.21-.52l1.09-.84ZM16.3,52c1.28-1,2.46-2.18,3.68-3.26a63.9,63.9,0,0,1-4.9,4.44l.16-.36A4.81,4.81,0,0,0,16.3,52Zm3.13-8.57c-.64.51-1.19,1.15-1.78,1.72a11.81,11.81,0,0,0,.51-3.07c0,.24.38.25.5.22,0,2,2.57-.94,4-1.76a.83.83,0,0,0,.57-.29c-1.26,1.07-2.54,2.12-3.81,3.17Zm2.39-6.27q1.33-1.16,2.73-2.24c-.92.74-1.82,1.51-2.7,2.29l0-.05Zm.48,1c2-1.42,3.92-2.88,5.95-4.23-1.9,1.53-3.8,3.07-5.71,4.59a.34.34,0,0,0-.23-.36Zm3.91.23a.35.35,0,0,0,0-.21c1.21-.85,2.37-1.77,3.54-2.67L25.91,39a.16.16,0,0,0-.09-.09,1.29,1.29,0,0,0,.38-.53Zm.12-4.13c.26-.14,1.81-1.31,1.46-1.9l.44-.42a8.32,8.32,0,0,1,1.27.47A63.77,63.77,0,0,0,24,36.18c.75-.64,1.57-1.23,2.29-1.9ZM25.89,32a.32.32,0,0,0,.11-.14l.26.08c-.41.28-.82.57-1.22.86l.85-.81Zm-.53-.8.08.11a2.28,2.28,0,0,0-.41.27l.33-.38Zm9.22-17.84c-.6.23-.95.16-1.47.55l-.17,0,2-1.36c-.39,1,1.25,0,1.34-.12-.17.15-.76.89-.89.87a.63.63,0,0,0-.43,0h0a.91.91,0,0,0-.36.05ZM36,15.94l.18,0a1,1,0,0,0,.15.38c-.22-.1-.52.11-.63.27a.63.63,0,0,1,.2-.22.35.35,0,0,0,.1-.46Zm1.55-.68c.61-.25,1.17-.66,1.77-.92l-2,1.85c-.08-.26-.32-.47-.37-.76a1.1,1.1,0,0,0,.57-.16Zm.21-2.34,2.35-2a8.43,8.43,0,0,1-2.35,2ZM34.35,23h0a40.16,40.16,0,0,1,3.48-2.84A24.79,24.79,0,0,1,34.35,23Zm1.13.21-.27.25,0,0,.29-.23Zm1.37-8.64a.67.67,0,0,0-.2.27l-.18-.27q.39-.27.8-.5a.43.43,0,0,0,.16.06l-.58.44ZM36,17.41a6.09,6.09,0,0,0,.43-.57.76.76,0,0,0,0,.23.39.39,0,0,0,0,.42l-3,2.28A30.5,30.5,0,0,0,36,17.41Zm-.38-2.26.11-.07,0,.07a.38.38,0,0,0-.16,0Zm-.58-1-.11.1a.51.51,0,0,0-.19-.05.38.38,0,0,1,.3,0Zm-3.38,5a16.14,16.14,0,0,1,3.12-2.87c-1.13,1.22-2.41,2.23-3.51,3.44l.38-.57ZM30.44,21.1v0c.29.61,1.45-.74,1.5-.82L30.1,22.38l.34-1.28Zm.33,4.64-.1-.16c.32-.13.69-.36,1-.52l-.9.68Zm.87,1.06-.11-.09.62-.41a.48.48,0,0,0-.1.7l-.42-.21Zm1.48-5.43c-1,0-2.27,2-3,2.81l-.18-1c1,.33,5.15-3.8,5.81-4.32q-1.27,1.29-2.66,2.46ZM36.83,27a9.44,9.44,0,0,1-3,.6l0,.13-1.39-.29s.95-.89,1-.92c.15.9.73.71,1.45,0-.17.5.45.71.78.48l-.23-.08h0l.25,0c-.15,0-.24-.08.45-.12h0l.46-.3c0,.15.23.41.36.46Zm6.8-11.53,0,0,0,.53a7.06,7.06,0,0,0-1,.62c.29-.31.73-.78,1-1.1Zm-.56,2.52c0,.12-.06.05-.07.27a.47.47,0,0,0-.06-.2l.17-.18a.47.47,0,0,0,0,.1Zm-.2.62.1-.15a6.51,6.51,0,0,1-.72,1.84.42.42,0,0,0-.38-.31l1-1.38Zm.89-6.38a.59.59,0,0,0-.3.17v-1l.3.87Zm-.21,1.73a2.23,2.23,0,0,1,.09.69c-.38-.29-1.33.51-1.56.75l1.47-1.44Zm-1.38-1.4c.12-.1.28-.29.38-.4v.47L40.5,14.07c.55-.52,1.14-1,1.67-1.57ZM40.81,17.3c-.26.27-.51.55-.75.84A.42.42,0,0,0,40,18l.85-.72Zm.63-5,.3-.28a3,3,0,0,1-.3.28ZM42,8.59l0,0a4.53,4.53,0,0,1,.58.85.52.52,0,0,1-.39-.18.5.5,0,0,0-.1-.24.46.46,0,0,0-.18-.34L42,8.59Zm-.69,1.29a.46.46,0,0,0,.11-.15,1.31,1.31,0,0,0,.73.49l-.48.24h0a.42.42,0,0,0-.39,0,.45.45,0,0,0-.07-.5l.1-.09ZM37.6,26.58a.41.41,0,0,0,.06-.12,17.33,17.33,0,0,1,2-1.74c.9.49,2.76-3.17,3.18-3.82-1.29,2.27-2.74,4.74-5.29,5.71v0Zm1.3-10.29c-.1.09-.34.37-.31.34a.34.34,0,0,0-.11-.19q.65-.51,1.33-1l-.9.83Zm.36-8.47c.21-.2.59-.62.79-.84l.72.48s.06.09,0,.13a1.66,1.66,0,0,1-.14.43l.11.45L38.91,9.75l.68-.62h0c3.29-2.9-1.54,0-2.23.48a25.19,25.19,0,0,1,1.91-1.79Zm-1.59-2h0l-.24.21.2-.21ZM37.14,7.7c.51-.49,1-1.05,1.43-1.57l.53.27a25.4,25.4,0,0,0-2.69,2l.73-.71Zm.34.8a4.78,4.78,0,0,1-1.44,1.13l1.44-1.13ZM33.85,7.12c.33-.38.76-1.08,1.07-1.49h0c0-.07-.15.12.08-.12a4.08,4.08,0,0,1,1.77.12L35.6,6.77c1.21-3.19-3.38,2.35-4.23,3.06C32.19,8.93,33,8,33.85,7.12Zm-1.55-.27c.19-.16.77-.92.93-1.11l.71-.12a21,21,0,0,1-3.3,2.94l1.66-1.7Zm-1.71-.31a.35.35,0,0,0,.08-.12l.33-.1c-.22.17-.43.33-.66.48l.25-.25Zm-1.44,4.6a1.32,1.32,0,0,0,.15-.59q1-.87,2-1.67L30,10.26v-.08l-.95,1,.05-.08ZM29,11.3l-.18.2s-.07,0-.1.08L29,11.3Zm-1.55,5.86a.81.81,0,0,0,.17-.55q1.06-.95,2.07-2c.44.55,4.32-3,4.65-3.21-.85.8-1.69,1.59-2.56,2.37q-.29.4,0,.6c-.28.14-.63.07-.9.19l0,0a1.68,1.68,0,0,0-.49.42,3,3,0,0,0-1.28.65,1.32,1.32,0,0,0-.69.28,7.38,7.38,0,0,0-1,1.7,7.5,7.5,0,0,0-1.21,1l1.28-1.43S27.46,17.16,27.46,17.16ZM25,31.57h0Zm.42-5.09,0-.43a.28.28,0,0,1,.07-.13h0a.34.34,0,0,0-.45-.29,14.17,14.17,0,0,0,1.06-1.38,11.69,11.69,0,0,0-.3,2.76.56.56,0,0,0-.53-.27l.07-.1s0-.1,0-.16ZM20.08,28c1.55-1.51,3-3.12,4.48-4.7-1.69,2.2-3.35,4.44-5.23,6.49a2.28,2.28,0,0,1-.06-.91l.81-.88Zm-.72-.3,0-.6c.28.21.74-.11,1.14-.63q-.57.64-1.18,1.23ZM26.9,10.45l.9-1a.26.26,0,0,0,.28,0q-.56.51-1.1,1l-.08,0ZM19.22,32.33a.34.34,0,0,0,.13.08,8.58,8.58,0,0,0-.94.78l.82-.85Zm.38-1.4-.15,0,1.84-1.74q-.68.91-1.44,1.76a.7.7,0,0,0-.25,0Zm1.62-.06c.68-.75,1.31-1.56,2-2.34a16,16,0,0,1-2.33,2.73l.37-.39Zm.95.51a.6.6,0,0,0,.08-.32l1-1.33c-.29.53-.76,1-1,1.55h0a.55.55,0,0,1-.26.36l.19-.27Zm2-6.44c-.11.1-.41.45-.34.38q1-1.24,1.93-2.56a.54.54,0,0,0,.59.37l-.11.55c-.31-1-2,1.17-2.07,1.26Zm.9-3.07c.47-.69.93-1.33,1.42-2L26,21.65a.35.35,0,0,0-.42-.05l-.48.27Zm2.74-6.83a6.62,6.62,0,0,0-1.37,1.72c-.34.26-.68.53-1,.81a16.39,16.39,0,0,1,2.38-2.53Zm.72-6-.24.22h0L28.57,9Zm-2.21.08a5.35,5.35,0,0,1,2.22-1.82,23.53,23.53,0,0,0-2.32,2l.1-.14Zm-.69,5.79-.2.21a1.6,1.6,0,0,1,.2-.21Zm-3.32-1.11a13.28,13.28,0,0,1,2.92-2.86c-1.08,1.12-2.12,2.31-3.15,3.47l.23-.61Zm-.75,1.77,0,.07-.09.08,0-.15ZM21.17,17l1.51-1.31-1.58,1.54.07-.23Zm-1.94,6.58c.23-2.1.54-4.28,2.18-5.69l-.05.16c-.4,1.22,2-1,1.82-.65-6.11,6-1,2.77,2.12-.66h0c-2,2.35-4,4.58-6.07,6.83Zm.17,2.31c0-.58-.08-1.16-.11-1.74.58.3,4.83-4.31,5.32-4.83-.61.68-5.46,4.84-5.27,6.09s2.5-1.43,2.89-1.88c-1,1-2,2-2.85,3.1,0-.26,0-.49,0-.75Zm-2.26,5.78,0,0h0l-.38.33.33-.33ZM16,31.49a.5.5,0,0,0,.11-.29l.21.05-.63.54.31-.31Zm-1.23-.42a.39.39,0,0,0,.13-.18l.44.11c-1.05.86-2.13,1.71-3.24,2.5a32.07,32.07,0,0,0,2.66-2.43Zm-1.64-.64.74.19c-1.4.94-2.78,1.92-4.16,2.89,1.19-1,2.33-2,3.42-3.09ZM12,30.15h0l.09,0-.14.08,0-.1Zm-2,.75a3,3,0,0,0,.88-1,.83.83,0,0,1,.63.07q-2,1.53-4.22,2.88c.88-.68,1.79-1.34,2.71-2ZM9.73,30l.08,0L9.64,30,9.73,30Zm-.61,0h0Zm-.87,0a6.27,6.27,0,0,0,.68,0L7.26,31l.13-.18h0l.88-.71Zm-.8,0h.13l-.45.36.32-.35ZM6.22,33.21a.55.55,0,0,0-.12.17l0-.08a.35.35,0,0,0,.05-.13,7.87,7.87,0,0,1,3.78-2.76,32.3,32.3,0,0,1-3.69,2.8Zm.27,1h0l-.08-.13A25.79,25.79,0,0,1,8.57,32.6q-1,.83-2.08,1.59Zm.55.76a1,1,0,0,1-.28-.32,47.42,47.42,0,0,0,4.9-3.57A47.77,47.77,0,0,1,7,34.95ZM8.9,36.35c-.44-.28-.89-.58-1.3-.89,2.09-1.21,4-2.71,6-4.1A37.35,37.35,0,0,0,8.87,36a.26.26,0,0,0,0,.34Zm.64.51A2,2,0,0,0,9,36.4c.44.2,4.24-3.11,4.64-3.4a25.46,25.46,0,0,1-4.07,3.86Zm3.23,1.33A10.68,10.68,0,0,1,10,37.3c1.58-1.29,3.12-2.61,4.67-3.94-1.13,1.19-2.4,2.26-3.45,3.5-.58.88,1.65-.41,1.72-.5-1.27,3,4.15-2.94,4.67-3.42h0l1-.83L12.78,38.2Zm1.66.17a.37.37,0,0,0-.07.1l-.69-.12c2.31-1.79,4.09-4.12,6.46-5.83a.38.38,0,0,0,0,.29c-1.94,1.81-3.72,3.77-5.68,5.56Zm1.8-.67q-.22.34,0,.5a3.39,3.39,0,0,0-.32.33,2.16,2.16,0,0,0-.7,0c2.23-2.29,4.64-4.33,7.08-6.4h0a.4.4,0,0,0,0,.41c-2,1.82-4.06,3.46-6.13,5.15Zm1.7,1.21h-.07v-.06l-.15,0c2.93-2.1,5.86-4.2,8.8-6.28-.91.69-8,7.09-7.55,6.89a1.54,1.54,0,0,1-.44.41c-.34.23,0,.57.27.45a.34.34,0,0,0,.08.17c0,.23-.24.48.07.64a5.29,5.29,0,0,0-.75.7,2.7,2.7,0,0,0,0-1.7c.19-.36.31-1.17-.31-1.18ZM13.75,56a1,1,0,0,0,.34-.54c1.94-1.27,3.74-2.73,5.58-4.14-2.09,1.7-4.12,3.46-6.12,5.26l.2-.58ZM13,57.87l.2-.3.08.07,0-.09c.1-.05.26,0,.25,0l0,.12a3.08,3.08,0,0,0,.95-.62c-.6.45-1.15.94-1.71,1.45l.29-.62Zm-1.3,2.34L12,60a.55.55,0,0,0,.28,0c-.24.15-.59.62-.3.89l-.5.42.25-1.1Zm1,2.1c-.23.2-.1.24-.47.48-.82.63.61.74,1.06.43l-.71.74c-.4-.52-.78-1-1.14-1.59l0-.22a.3.3,0,0,0,.28,0c.22.92,3.87-2.25,4.4-2.69l-3.38,2.87Zm5.19,1.16a3.19,3.19,0,0,1-4,1.64l.24-.22a.42.42,0,0,0,.31.14c.34.6,1.11-.2,1.28-.51.24.67,1,0,1.17-.32a.46.46,0,0,0,.47-.33,1.2,1.2,0,0,1,.56-.52l-.06.12Zm3.42-6.8a15.21,15.21,0,0,0-2,3.83h0c-.35,0-.33,0-.45.1a.56.56,0,0,0-.33-.29c.28-.18.71-.73.41-1.08.4-.24,1.9-1.59,1.16-2a5.15,5.15,0,0,0,1.23-1.44.45.45,0,0,0-.17-.61l.58-.44a11.54,11.54,0,0,1-.42,1.93ZM23.17,51c-.25.64-.53,1.28-.74,1.93l-1.26.83,1.35-1.24q.32-.62-.2-.77l.52-.46a.41.41,0,0,0,.08-.52,1.51,1.51,0,0,0,.46-.49l-.2.72Zm.29-1q-.06-.49-.42-.46l.75-.69L23.46,50Zm1.22-4.16h-.16l-.37,1.77c-.62-.27-1.94.91-2.39,1.28,0,0,3.52-2.73,2-2.67A4.3,4.3,0,0,0,25,44.73l-.31,1.12Zm.78-3.45c-.15.75-.34,1.49-.55,2.23,0-.42-.22-.53-.62-.34l-.15.14a1.7,1.7,0,0,0,.87-1l0-.16a.44.44,0,0,0-.3-.46c.31-.29.52-.61.82-.92l-.1.46ZM26,39.88A37.71,37.71,0,0,1,31,36c-1.67,1.29-3.23,2.73-5,3.91Zm1.5.47a4.22,4.22,0,0,0-.86.81h0c0-.27-.21-.31-.3-.51,2.4-1.86,4.91-3.75,7.46-5.4a62.58,62.58,0,0,1-6.27,5.11Zm-.06,1.24-.13,0,1.08-.74-.95.79Zm2.47-.22c-.35.12-.54.71-.13.86a11,11,0,0,1-1.43-.29c2-1.39,4.06-2.74,6-4.23C33,39,31.46,40.17,29.95,41.36Zm.08.87c.81-.72,1.85-1.29,2.72-2-.41.4-.84.79-1.26,1.17q-.29.47.1.63a13,13,0,0,1-1.55.15Z"/><path class="cls-1" d="M38.78,64h0c1.47-1.63,2.22-4,3-6.06,2.15-2.23,5-3.91,7.36-6.09a11.44,11.44,0,0,0,3.08-1.63c2-.74,4.28-1.1,6-2.31,1.11-1.2,1.82-2.82,1-4.21a.65.65,0,0,0-.34-.44,1,1,0,0,0-.4-.65,7.62,7.62,0,0,0-3.95-2c0,.08,0,.17-.1.16l-1-.21s-.08-.09-.13-.09l-1.79-.06v0c-.47,0-1.6-.13-1.9.4h0a.57.57,0,0,0-.27.32l0,0h0a1.55,1.55,0,0,0-1.42.53.78.78,0,0,0-.47.39l-.17.09a13.84,13.84,0,0,0,.55-2.46,2,2,0,0,0-.79-1.78c-.74-1.61-2.64-1.46-3.9-.34-2.13-.22-3.39,4.71-5.27,5.69-.46.26,0,.76.31.61C35,48.21,24.56,63,30.5,67.9a.53.53,0,0,0,.31.43.86.86,0,0,0,.45.39,2.09,2.09,0,0,0,.75.64h0c.65.16,1.09.25,1.64.34a2.15,2.15,0,0,0,1.92-.57,1.47,1.47,0,0,0,.65-.53.91.91,0,0,0,.44-.62.51.51,0,0,0,.21-.63A37.12,37.12,0,0,1,38.78,64ZM57.33,47a.89.89,0,0,0-.11.18,3.21,3.21,0,0,1-.75.34,4.13,4.13,0,0,1,.92-.57l-.05.05Zm.72-1.15,0,0,.07-.06,0,.09Zm-.54-2.47a.67.67,0,0,0,.21.2,1.13,1.13,0,0,0,.4.68.8.8,0,0,0,.28.33v0a.5.5,0,0,0-.55-.09.5.5,0,0,0-.79-.47.47.47,0,0,0-.1-.13l.55-.55Zm-3.93-1.55h0Zm-.09.37.16-.43.1,0a.84.84,0,0,0-.19.16l0,.16c-.13.62.72.67,1.06.61l-1.25.72c0-.05.13-.39.13-.44h0s0,0,0,0h0a.51.51,0,0,0,0-.66l0-.08ZM51.89,49c.23-.12,1-.65,1.18-.8a.6.6,0,0,0,.14.36,5.42,5.42,0,0,1-1.4.48l.08-.05Zm-.41.25a.61.61,0,0,1-.41.25l.41-.25Zm-.06-7.38a.64.64,0,0,0,.13-.22h.36l-1.06.73.57-.51Zm-4.34,9.76a12.36,12.36,0,0,1,2.12-1.55.52.52,0,0,0,.46.22l-.45.33c-.83.46-1.7,1-2.55,1.46l.42-.46Zm-.72-2.1-1.5,1.27a.41.41,0,0,0,0-.05l1.5-1.22ZM37.71,46a23.15,23.15,0,0,0,2-1.23L37.07,46.9l.64-.89ZM37,50.36c.27.18.69,0,.88-.22a6.73,6.73,0,0,1-1.77,1.17l.88-1Zm-2.39,1h.13a.09.09,0,0,1,0,0,3.22,3.22,0,0,1-.43.4l.28-.43Zm-1.77,3.26c.1-.18.15-.39.23-.58a1.76,1.76,0,0,0,1.25-.55v.19c.05,0,.07.06.06.09l-1.54,1,0-.1,0,0Zm-1.05,1.88a1.78,1.78,0,0,0,.9-.44l-1,.67.07-.23Zm-.45,1.09a.42.42,0,0,0,.19.18l-.33.23.14-.42Zm-.5,1.51a.46.46,0,0,0,.51,0l-.67.47.16-.48ZM30,62.61v-.07a.31.31,0,0,0,.12,0h0l-.13.08Zm.22-1.35.18-.8c1,.71,4.8-2.71,5.64-3.19-1.9,1.38-3.88,2.67-5.82,4Zm-.31,2.68h0V63.8a2.58,2.58,0,0,0,.69-.35l-.69.49Zm5.68,3.67a.59.59,0,0,0-.32.34.57.57,0,0,0-.27.27,3.91,3.91,0,0,1-.76.57v0a3,3,0,0,1-1.84-.22v0a.61.61,0,0,0-.35-.3.78.78,0,0,0-.44-.36,11.65,11.65,0,0,1-1.53-2.1l1.72-1.11c-.14.07-1.84,1.71-.46,1.5a.48.48,0,0,0,.16.42c-.1.85.2,1,.85.52a7.39,7.39,0,0,0,1.23-1l-.75.68a.48.48,0,0,0,.31.85.49.49,0,0,0,.28.21c-.24.32,0,.43.12.72.14,0,.23,0,.25-.12a1.19,1.19,0,0,0,.42,0s0,0,0,.05.07,0,.11,0h0a.25.25,0,0,1,.18,0,.32.32,0,0,0,.16-.13c.17,0,.89-.76.94-.82l0,.08Zm3.85-24.12a6.13,6.13,0,0,1,2.63-1.94l-2.63,1.94Zm.95,5.74h0a3.41,3.41,0,0,1,1-.67l-1,.67Zm1.29,7.14a2.61,2.61,0,0,0-.17.4A1.53,1.53,0,0,0,40.46,58a.41.41,0,0,0-.18-.06q0-.36-.42-.46.48-.43,1-.85c.28.12.71-.16.9-.34l0,.07Zm4-11.71h0l0,0v0l0,0Zm1-5.19a.31.31,0,0,1,0,.21l-.15,0,.17-.26Zm-.72,2.9v0h0l0,0Zm-.59,1.87a.65.65,0,0,0,.05.15.44.44,0,0,0-.19,0l.14-.1Zm-.27,4-.84.73A.48.48,0,0,0,44,49l1.1-.77Zm0-9.32c.21-.18.79-.49.69-.87l.17,0a1,1,0,0,0,.21.55c-.44-.13-1.46.63-1.76.83l.68-.56Zm-.73,2a1,1,0,0,1,.23-.2,5.81,5.81,0,0,1-1.73,1.3l1.49-1.1Zm-.9,2.12-.78.51a5.93,5.93,0,0,1,.77-.65.43.43,0,0,0,0,.13ZM42.2,46.35l.51-.33q-.4.31-.82.57l.31-.24Zm-3,14.31a1.29,1.29,0,0,0-.16-.11,1.5,1.5,0,0,0,.18-.35l.74-.74-.63,1.45a.54.54,0,0,0-.13-.25Z"/><path class="cls-1" d="M46.92,30.2l0-.09c1-1,2-5.1-.27-5.56-2.87-1.3-4.21,3.6-1.6,4.87a1.43,1.43,0,0,0,1.21.79c.15,0,.17.89.61,0Zm-.87-3h0l-.09,0h0l.08,0Zm0,1.11-.41-.11h0l.42.11Z"/><path class="cls-1" d="M51.14,33.32c.59-.21.84-1.53.24-1.84.13-1-1-.84-1.39-.4-.59.22-1.13,2.31-.23,2.5.15.05,1.18.19,1.26-.18h0s-.05,0-.07,0a.23.23,0,0,0,.19,0Z"/><path class="cls-1" d="M52.86,24.73a.2.2,0,0,1-.05-.1q.06-.28.11-.57.13,0-.06-.22h0a.49.49,0,0,1,0-.4q-.61-1.07-1.21-.11c-.15.27-1,2.44-.39,2.7.26.18.8.31,1,0,.12-.08.3-.19.33-.35a.24.24,0,0,0,0-.23s.05-.11.08-.18h0l.23-.53Z"/><path class="cls-1" d="M58.27,30.87c-1.28-1.72-3.11-1.36-3.46.84a.08.08,0,0,1,.06.07,2.06,2.06,0,0,0-.06,1.49c1.1,3.85,6.14.34,3.46-2.4Zm-.62,2.51c-.15.35-.28.39-.56.63l-.31.13-.22,0a1,1,0,0,0-.46-.29l-.41-.53a.68.68,0,0,0-.06-.36h0l-.09-.19a9.81,9.81,0,0,1,.37-1.48.47.47,0,0,0,.54-.2,3.27,3.27,0,0,1,1.14.8l.23.53c-.06.34-.12.67-.2,1Z"/><path class="cls-1" d="M60.25,37.25h0a.46.46,0,0,0,.5.35.48.48,0,0,0,.45-.27.51.51,0,0,0,.07-.15c1,.09-.35-2.35-.86-.87-.1.24-.28.73-.15.94Z"/><path class="cls-1" d="M59.23,22.47a.91.91,0,0,0-.57-.39c-1.06-.45-2,.75-2.21,1.63l.05,0s0,0,0,0c0,.2-.16.38-.16.52a1.42,1.42,0,0,0,.69,1.42l0-.06a1,1,0,0,0,.59.26c2.17.45,2.35-1.83,1.53-3.44Zm-1.44,2.64h0Z"/><path class="cls-1" d="M63.25,31c.44-.06.85-1,.93-1.28,0-.13,0-.86-.21-.92-.07-.31-.25-.28-.44-.32-.41.12-2.08,1.91-.82,2.33l.32.16c.23.08-.28.09.23,0Z"/><path class="cls-1" d="M65.92,37.53c.68,1.24,3.14.72,3.4-.53a1.85,1.85,0,0,0-.6-2.08c.06-.11,0-.22-.14-.33l-.06,0a.38.38,0,0,0-.18-.24,2.85,2.85,0,0,0-1.59-.09h0c-1.07.32-1.19,2.56-.81,3.29Zm1-2.1c0-.22.15-.28.37-.57l.4.08s0,.08,0,.08a.58.58,0,0,0,.34.79l0,.06.16.42L68,36.6s.09,0,.14.05c-.29,0-.7.46-1,.59a.7.7,0,0,1-.43-.2.6.6,0,0,0-.18-.39,5.83,5.83,0,0,1,.25-1.24Z"/><path class="cls-1" d="M50.85,15.25c2,2.89,3.92-1.46,2-1.85l-.29-.06a2.62,2.62,0,0,0-.62.35c-.17-.34-1.29-.53-1.4,0l-.11.51a1.55,1.55,0,0,0,.38,1.06Z"/><path class="cls-1" d="M45.58,70c2.11-2-.12-5.06-2-2.72-1.7,1.88,1.5,3.79,2,2.72Z"/><path class="cls-1" d="M49.09,74.66c.31-1.5-1.77-2.12-2.91-2-2.46.14-2.37,3.81-.56,5,.12.11.16.18.14.29V78c1.78.17,3.06-1.55,3.34-3.32Zm-1.35,1.11a14.65,14.65,0,0,1-1.06,1.4l-.24.2-.2,0c0-.34-.09-.25-.2-.33s-.29-.2-.41-.36a.71.71,0,0,0-.32-.63c.1-.68.22-1.36.36-2A2.31,2.31,0,0,0,46,73.6c.36,0,.75.32,1.06.34.12,0,0,.26.31-.06a2.35,2.35,0,0,1,.77.45,2.71,2.71,0,0,1-.4,1.45Z"/><path class="cls-1" d="M54.14,77.63c-.06-.24-.25-.71-.44-.81a1,1,0,0,0-.73-.2c-.08-.09-.22-.33-.33-.36l-.14,0c-.61-.13-1,1.21-1,1.59,0,.2,0,.79.29.93l0,0h0c0,.82,1,.38,1.31.29h0c.35,0,.41-.13.5-.37a3.65,3.65,0,0,0,.45-.28,1.46,1.46,0,0,0,.08-.81Z"/><path class="cls-1" d="M63.17,81.34a.53.53,0,0,0-.74-.4l.09,0c-.2.1-.29.81-.31,1s.33,1.33.72.29a2.89,2.89,0,0,0,.26-.73.21.21,0,0,1,0-.16Z"/><path class="cls-1" d="M58.62,82.85l-.15,0h0s0,0,.07-.05c.09-.76-.92-1.44-1.53-1.56,0,0,0-.17,0-.17h0c-.05,0-.11.13-.14.17a1.84,1.84,0,0,0-.24.06v0a1.17,1.17,0,0,0-.72.62c-.76,1.2-.53,2.33.87,2.72l0,0c.38,0,1.92-.64,2-1s0-.43-.14-.74Zm-1.2.35a1.42,1.42,0,0,1-.65.37.61.61,0,0,1-.4-.21l-.11-.3.05-.26c0-.06.17-.07.27-.1a1.75,1.75,0,0,0,.89.42l0,.08Z"/><path class="cls-1" d="M70.19,81c-.42-.27-.66-.16-.74.25l-.12.56c-.2,1,.71.39.89-.32h0a.34.34,0,0,0,0-.48Z"/><path class="cls-1" d="M72.56,38c.16.24,1.24.49,1.4.06l.1-.27s-.08,0-.07,0c.25-.19.39-1.4.11-1.59s-.94-.49-1.14,0A1.46,1.46,0,0,0,72.56,38Z"/><path class="cls-1" d="M78.91,35.59c-.69-.2-1.14,1.28-1.17,1.7l-.07,0a1.31,1.31,0,0,0-.08.78h0c.31,4.71,6.48-1,1.31-2.51Z"/><path class="cls-1" d="M67.22,83.16a1.93,1.93,0,0,0-1.41-1.67c-3.74-1.89.54,8.08,1.41,1.67Zm-1.31.55a.45.45,0,0,1-.23.14l-.3-.06a.8.8,0,0,1-.36-.5,1.56,1.56,0,0,1,.29-.81l.24,0a.89.89,0,0,1,.36,1.18Z"/><path class="cls-1" d="M71.63,77.33a.62.62,0,0,0-.43-.6c-.57,0-1.54.47-.88,1.16-.2.53.55.85.91.58.2-.13.37-1,.4-1.14Z"/><path class="cls-1" d="M40.74,71.52c-.44-2.2-3.48-1-4,.55a2.57,2.57,0,0,0,.25.52c.65,2.23,4.43,1.45,3.84-.67l-.11-.41Zm-1.07,1.11A1.58,1.58,0,0,1,38,73l-.13-.21a2.52,2.52,0,0,1,.32-.92.83.83,0,0,1,.55-.28h0c.06,0,.1-.15.15-.14l.23,0c0-.09,0-.12,0-.11a.9.9,0,0,1,.5,1.35Z"/><path class="cls-1" d="M39,76c-.05-.92-.49-1.11-1.25-.61-.46.58,1,2.58,1.25.61Z"/><path class="cls-1" d="M44.35,64.37A1.55,1.55,0,0,0,44,62.11q.07-.16-.14-.32c-3.14-2.46-1.51,5.65.46,2.58Zm-.81-.78,0,.07-.09,0-.21,0c-.38-.08-.43-.5-.22-.87a2.54,2.54,0,0,0,.51.31l.12.19a.58.58,0,0,1-.06.31Z"/><path class="cls-1" d="M21,69.76c.68.39,2-.83,2.32-1.3h-.05c1-1.57-1.13-2.64-2.34-2.51a2.14,2.14,0,0,0-.58,3.67s-.21,0,.12.05v0l.52.12Zm-.54-1.93a1.36,1.36,0,0,1,.91-1c1.32.43,1.28,1.11.2,1.9a1.28,1.28,0,0,0-.81-.38l-.29-.52Z"/><path class="cls-1" d="M25.53,69.8c-.17-.93-1.44-.19-1.13.58.08.38.75.66,1,.25a.54.54,0,0,0,.18-.5l-.06-.33Z"/><path class="cls-1" d="M22.47,71.87a1.74,1.74,0,0,0-1.06-.71c-1,.12-2.64,2-.77,2.52.93.27,2.81-.4,1.83-1.81ZM21.41,73l-.49-.13a.52.52,0,0,1-.2-.44l.06-.2a.8.8,0,0,0,.31-.05,1.28,1.28,0,0,1,.45.18,2.72,2.72,0,0,1-.13.64Z"/><path class="cls-1" d="M28.82,72.34c.15-2.76-4.47,2.86-.32,1.13a2.52,2.52,0,0,0,.32-1.13Z"/><path class="cls-1" d="M49.34,59.7c-.15-.43-.67-1.19-1.21-1.17-.32,0-1.42,0-1.54.42-1.85,3.68,3.46,2.87,2.75.76Zm-1.26.69a3.07,3.07,0,0,0-.43.22.6.6,0,0,1-.55-.31,2.9,2.9,0,0,1,.24-.94.86.86,0,0,1,.44-.07,1,1,0,0,0,.46.6.48.48,0,0,1-.16.51Z"/><path class="cls-1" d="M36.9.59A.54.54,0,0,0,36.41,0a6.64,6.64,0,0,0-.71.3c-.09-.13-.25-.12-.46,0s-.56.79-.43,1.09a.39.39,0,0,0,.32.37l.33.07v0A1.64,1.64,0,0,0,36.9.59ZM35.61.86l0,0h0l0,0Z"/><path class="cls-1" d="M47.3,10C48.49,10.23,51,7.72,50,6.45c-1.92-3.35-5.4,2.74-3.13,3.4l.45.13Zm-.08-.9A4.46,4.46,0,0,1,47,8l.29-1.17c.68-.1,1-.41,1.82,0a.61.61,0,0,1,.16.28A4,4,0,0,1,47.68,9l-.31.11-.15,0Z"/><polygon class="cls-1" points="47.67 21.61 47.68 21.59 47.48 21.57 47.67 21.61 47.67 21.61"/><path class="cls-1" d="M49.74,20.25a1.72,1.72,0,0,0,0-.58h0c-.55-.11-1.18-3.35-2.4-1.56-.64.93-1.4,3.09.33,3.45v0a2.14,2.14,0,0,0,2-1.35Z"/><path class="cls-1" d="M25.49,63c0-.34-.32-.77-.53-1v-.09c-.05-.11-.13-.28-.26-.31l-.08,0,0,.08a.47.47,0,0,0-.53,0C22,64.06,25,65.88,25.49,63Z"/><path class="cls-1" d="M53.71,27q-.25-.19-.59.16c-.89.48.48,1.87.93.78.16-.24.26-.71-.15-.87L53.71,27Z"/><path class="cls-1" d="M51.64,20.81a.37.37,0,0,0,.21.26c1,.46,3.37.09,1.88-1.64-.76-.85-3.25-.53-2.43.81l.35.57Zm.47-1.27c0-.06,0,.05.1-.27l.13,0c-.08.32,0,.18,0,.23a.93.93,0,0,1,.73.68l-.08.39,0,0a1.56,1.56,0,0,1-.71-.21L52,19.94l.12-.4Z"/><path class="cls-1" d="M39.77,33.49c0,.19.25.72.46.77a.55.55,0,0,0,.6-.14c.9-.8-1-1.84-1.06-.62C39.76,33.57,39.77,33.44,39.77,33.49Z"/><path class="cls-1" d="M45.69,33.4c-.12-.47-.14-1.38-.79-1.56,0,0,0,0,0,0h0l0,0a1.06,1.06,0,0,0-.92.13c-.55.28-1.8,2.27-.31,2.58.78.25,2.25,0,2.08-1.14Zm-1,.21a.31.31,0,0,1-.21.14v0l-.61-.13a.7.7,0,0,1-.08-.95v0h.07a3.56,3.56,0,0,0,.37,0,2.06,2.06,0,0,0,.32,0,1.07,1.07,0,0,1,.15.89Z"/><path class="cls-1" d="M53.73,37.37a.8.8,0,0,0-.08.43.34.34,0,0,0,.17.36c.2.26.85.65,1.11.11.2-.32.41-1.11,0-1.37-.63-.41-1.08-.27-1.23.47Z"/><path class="cls-1" d="M61.38,42.71c0,3.07,6.19-1,2.84-2.45a6.51,6.51,0,0,0-.77-.3.21.21,0,0,0-.17-.09h0a.41.41,0,0,0-.56-.13c-.44.28-1.26,1-1.38,1.49a1.93,1.93,0,0,0,0,1.48Zm.8-1.31h.09a4.57,4.57,0,0,1,.44-.65.45.45,0,0,0,.64.24l.07,0c.34,1.28.38,1.87-1.25,1.48L62,42.14l.15-.74Z"/><path class="cls-1" d="M69.45,39.86A.6.6,0,0,0,70.6,40c-.21-1.43-1.56-.95-1.15-.11C69.45,39.88,69.39,39.74,69.45,39.86Z"/><path class="cls-1" d="M65.94,29.73c-.05.16-.37.62-.36.76.35,2.63,3.25,1.57,2.49-.35-.24-.86-1.9-1.53-2.14-.42Zm.44.65a.82.82,0,0,0,.24-.1,1.06,1.06,0,0,1,.53.28c.08.32-.06.47-.22.73l-.17.1-.11,0a1.06,1.06,0,0,1-.28-1Z"/><path class="cls-1" d="M54.63,74.05s-.05,0-.08-.08V74l.09,0Z"/><path class="cls-1" d="M58.76,76.68h0Z"/><path class="cls-1" d="M78.31,61.2a12.32,12.32,0,0,0,1.58-1.73h0c1.47-1.74,2.69-5.74,2.09-7.86a6,6,0,0,0-2.2-3.94l-.42-.82c0-.08,0-.11,0-.15l0-.15a.47.47,0,0,0-.71-.51l-.76-.59c.23-.75-.11-1-.88-.74a3.66,3.66,0,0,0-1.46-.67.36.36,0,0,0-.11.17,15.67,15.67,0,0,0-1.72-.48c-2.3.18-4.85.3-6.73,1.72l-.1,0s-.75.43-.88.46a.18.18,0,0,0-.09.2,28,28,0,0,0-14,16.13,18.86,18.86,0,0,0-.84,3c-.4,1.91.57,4.26,1.38,5.93a.45.45,0,0,0,.41.67,1.5,1.5,0,0,0,.32.4c-.47.81-.09,1,.79.8l.39.41c0,.18.21.38.19.5v0s.14,0,.2-.05l.19.17h0a13.94,13.94,0,0,0,3.68,2.28c0,.08.08.3.14.33h.08a.83.83,0,0,0,.34,0c5.38,2,13.33-1.7,15.2-7.23a.24.24,0,0,0,.2-.06,2.9,2.9,0,0,0-.33-2.2.76.76,0,0,0-.28-.31c-1.34-1.62-4.1-1.37-6-.92,0,0,0,.06,0,.06l-.22.11A9.59,9.59,0,0,0,66,66s0,0,0,0a8.47,8.47,0,0,0-1.67.25,19,19,0,0,1-4,.07c-.27-.7-.68-1,0-1.72a.7.7,0,0,0,.17-.15,2.65,2.65,0,0,0,1.06-.57c.27.44.93.08,1.16-.18,2,.17,4.16.92,6.08.33a24,24,0,0,1,2.37-.4c2.58-.35,5.06-.81,7.23-2.41ZM71.4,66.93a3.84,3.84,0,0,1,1.42.58.93.93,0,0,0,.2.3.8.8,0,0,0-1-.14c-.23.1-.54.67-.91.81v0s0,0,0,0a.57.57,0,0,0-.36-.5c.18-.24.26-.7-.14-.78,0,0,0,0,0,0l.82-.15Zm-3,6.77c1.66-1.12,3-3,4.38-4.36a.52.52,0,0,0,.12-.57c.2-.14.13-.23.16-.38l0-.19c0-.11.12-.21,0-.38a1.07,1.07,0,0,1,.38.69C72.81,71,69.68,74,67.25,74.86l1.1-1.16Zm.89-6.46h0l-.44.33a.49.49,0,0,0,0-.33Zm-1.83.24a.58.58,0,0,0,.08-.19,1.44,1.44,0,0,0,.31,0l-.52.33.14-.19ZM61.55,76.2l-.29-.05.45-.44a.45.45,0,0,0,.19.48l-.35,0Zm3.88-1h.07a.48.48,0,0,0,.08.53A3.15,3.15,0,0,1,64.5,76l.85-.86.07,0Zm.65-7.92h.32l-.37.38a.44.44,0,0,0,0-.35l.09,0Zm-3,8.5c.93-.88,1.78-1.87,2.67-2.79l-2.56,3.13-.53,0,.42-.37Zm.4-7.93a.6.6,0,0,0,.12-.22,2.47,2.47,0,0,0,1.15-.14c-1,.65-1.92,1.34-2.84,2.06l1.57-1.71ZM79.34,57.59a2.3,2.3,0,0,0-.14.19.88.88,0,0,1-.19.48.52.52,0,0,0-.07-.47,2.68,2.68,0,0,0,.57-.49l-.17.28ZM80.57,54a.75.75,0,0,0,.15-.14,3.13,3.13,0,0,1-.23.86.48.48,0,0,0-.32-.41l.4-.31Zm-.77,1.63v0a1.42,1.42,0,0,0,.56-.52,9.09,9.09,0,0,0-.49,1.11.49.49,0,0,0-.34-.11.57.57,0,0,0,.27-.46ZM73.27,45.07l0-.07h.1l-.14.11v0Zm-1.06,5.06a8.22,8.22,0,0,0,1-.55.51.51,0,0,0,.63.42l-.33.26c-.28-.14-.49,0-.68.26-.14,0-.32-.29-.43-.31l-.18,0c-.28-.06.48.45-.43.09.15-.05.29-.09.44-.13Zm-4.71.37c.74.49,2.63-1.07,3.16-1.56.19.71,1.18.18,1.47-.13-.42.13-1.54.83-1.14,1.44-1.1-.42-3.16.73-4.13,1.3q0-.56-.68-.33A73.33,73.33,0,0,1,59.87,56c2.29-1.9,4.73-3.57,7-5.53a.9.9,0,0,0,.49-.15.41.41,0,0,0,.16.2ZM65.32,53l-.09.31c-3.07,2.44-6.4,4.59-9.57,6.9,3.16-2.47,6.45-4.79,9.65-7.21Zm1.91-6.1a.61.61,0,0,0,.23-.62.46.46,0,0,1,.28-.14,1.5,1.5,0,0,0,.62,0c-.37.32-.74.65-1.11,1a.38.38,0,0,0-.18-.08l.16-.15Zm-7.35,6.86c1.83-1.24,3.68-2.44,5.4-3.83.35.3,1.05-.45,1.21-.71,0,.2.08.21.19.32a.09.09,0,0,1,0,.07c-.36,1.75-7.09,4.74-8.88,5.87l2.07-1.72ZM56.63,55h0l.32-.2c0,.05.06.11.09.16h0a.41.41,0,0,0,0,.07l-.81.57.34-.6ZM53.7,60.56c.53-1,1-2,1.45-3l0,0,0,.07.54.11v0s0-.06.06-.07.91-.57,1.11-.65c0,0,0,0,0,0,.61-.31,1.18-.75,1.76-1.12-.82.64-4.08,2.64-3.75,3.92a8.72,8.72,0,0,0-1.43,1.3l.23-.58Zm-1.41,3.89.54-1.84a.62.62,0,0,0,.47.13c-.15.29-.17.75.25.8a6.5,6.5,0,0,0-1.44,1.72c.06-.26.13-.54.18-.8Zm-.27,2-.06.07a.63.63,0,0,1,0-.39.44.44,0,0,0,.23.14l-.19.18Zm.4,2,0-.11.23-.07-.19.17Zm.8-3.34,1.58-1.69h0c1.72-1.54,3.52-3,5.38-4.33h0a.47.47,0,0,0,.31.23c-2,1.68-4.28,3.31-6.11,5.07h0l-1.14.72Zm5.09.54a.8.8,0,0,0,.18-.26,1.79,1.79,0,0,0,0,.31,1.28,1.28,0,0,0-.44.23l.28-.27Zm.18-1.2.67-.55a1.63,1.63,0,0,0-.13.29,1,1,0,0,0-.35.43.29.29,0,0,0-.2-.17Zm-.23,2.48a4.83,4.83,0,0,1,.47-.29.64.64,0,0,0,.08.16q-1.28,1-2.6,1.91l2.05-1.78ZM54,69.5c-.3.26-.59.61-.88.89-.11-.29-.22-.61-.31-.91l.54-.31a.43.43,0,0,0,.24.26.85.85,0,0,0,.51,0L54,69.5Zm-.16,2a.32.32,0,0,1-.1-.11l.67-.47-.57.58Zm1,1-.07-.08.32-.23-.24.31ZM54,65.64c1.94-1.63,3.93-3.22,5.89-4.83A56.38,56.38,0,0,1,54,65.64Zm5.23,9.72-.07.07-.08,0,.41-.29-.27.26Zm-.06-2.56c-.2.15-1.53,1.26-.8,1.69a1.69,1.69,0,0,0-.34.37c-.78-.45-1.53-.94-2.28-1.47a24.72,24.72,0,0,0,3-2.19c-4.09,2.55-1.8,3.48,1.68.48l-1.27,1.12Zm2.1-5.08a1.71,1.71,0,0,0,.74,0l-5.35,4.06c1.49-1.4,3.06-2.71,4.6-4Zm-1.77-.33a1.06,1.06,0,0,0,.54.18c-1.44,1.13-2.94,2.19-4.42,3.27,1.35-1.08,2.64-2.25,3.87-3.46ZM60.4,63c-.24.14-.12.23-.51.2l.82-.83a.42.42,0,0,0,.15.35L60.4,63Zm1.4-1.92c-.23.24-.62.6-.85.83a.44.44,0,0,0-.16-.27q1-.68,1.94-1.43l-.94.87Zm.63,1.31h-.13l.32-.17-.19.17Zm1.22-3.91c-.32-.39-1,.13-1.15.39q.9-1,1.86-1.89c.17.47.73.2,1,0a.17.17,0,0,0,.1.16L63.65,58.5ZM63.93,61a25.08,25.08,0,0,1,2.57-2.21L63.93,61Zm2.39-5.56a.4.4,0,0,0,0-.18l.25.05c.09,0,.11.11.18-.21l.76.16-1.29,1.12c0-.12-.21-.52-.19-.5l.24-.31h0v.07a.24.24,0,0,0,.09-.2Zm1.44,6c-.41.39-1.08.82-1.2,1.38h0l-1.76-.26,1.8-1.33h0l.11-.09c-.25.93,1,.39,1.27.13l-.22.17Zm.71-5.25.44-.43H69l-.56.42Zm2.75-.73,0-.08.17-.08-.2.16Zm2.48-2.88a3.11,3.11,0,0,0-.32.46.93.93,0,0,0-.37.41c-.46.23-1.16.19-1.58.78h0c-.16.31-.95.53-1.27.64l-.29-.07a1.87,1.87,0,0,0,.3-.63c.29-1.38-1.69.52-1.74.57l-.27-.09s0-.05,0-.05c-.54-.1-1.07-.22-1.59-.36l.06-.05q.2-.73-.46-.61a.09.09,0,0,1,0,0c.19-.13.43-.46.31-.7,1.46-1.14,3-1.12,4.54-1.88a3.63,3.63,0,0,1,1.54.16c0,.41.39.54.75.42l.85.47a.73.73,0,0,1-.47.58Zm.07,1.87a.43.43,0,0,0-.19-.25.63.63,0,0,0,.29-.27.74.74,0,0,0,.35-.32.45.45,0,0,0,.54.18l-1,.66Zm1.4-2.38s0,0,0,0h0c0-.1.15-.13.07-.39l1.61-.84-1.66,1.29Zm2.55-2.77,1-1a.66.66,0,0,0,.29.31l-1.3.67ZM79.13,52,78,52.73c2.49-1.09,2.57-2.43.15-1.67a13.06,13.06,0,0,0,1.62-1.4l.7.91a3.16,3.16,0,0,0,.22.69,5.15,5.15,0,0,0-1.54.75Zm-.87,7.38a.54.54,0,0,0-.22-.21c.3-.13.85-.49.95-.86,0,.38-.47.87-.72,1.09Z"/><path class="cls-1" d="M97.91,73.94a7.83,7.83,0,0,0,1.78-3.4s-.12-.08-.11-.09l.28-1.33s.09,0,.11,0a14,14,0,0,0,.3-2.19,1.07,1.07,0,0,0-.29-.83,4.22,4.22,0,0,0-1-2,.66.66,0,0,0-.19-.37,4.28,4.28,0,0,0-1.06-1.23h0l0,0c.5-.75-.73-.66-1.09-.5-.4-.08-.82-.36-1.23-.48-.09-.53-.61-.5-.94-.29C93.71,61,92.66,60,92,59.93l-.43-.48a1,1,0,0,1,0-.69,4.22,4.22,0,0,1,2.61-2.12c-.19,1.1,1.18.2,1.58-.05h0c0,.23.67.45.81.43,1,1,1.31,2.39,2.33,3.34a.23.23,0,0,0,.2.27l1,.21s.11-.13.23-.12l.06,0c.34-.09.93-.39,1-.76h0a7.38,7.38,0,0,0,2.07-1.42.24.24,0,0,0,.32-.26,7.3,7.3,0,0,0-.23-4,.53.53,0,0,0-.35-.72,16.23,16.23,0,0,0-1.42-3.17c.36-.43.46-1.12-.31-1.11a3.19,3.19,0,0,0-.66.27,7,7,0,0,1-1.61-.93c.06-3.15-9.65,1.1-10.66,3h-.09a.58.58,0,0,0,0,.2l-1.9,1.84A19,19,0,0,0,82,62.21a.67.67,0,0,1-.16,0l-.13.62c-.1.5.54,1.51.83,1.85-1,1.19-.77,1.58.65,1.11A13.69,13.69,0,0,0,86.38,67l0-.1s0-.09.07-.09l1.19.25s.05.14.1.18l4,.38s0,0,0,0l.28.06c-.16.87.22,1.08,1,.59a.52.52,0,0,0,.19.37c.4,1.85-1.06,2.71-2.7,2.95-.28,0,.4.26-.23.13-3,1-11.64-1.56-13.14,1.63-.14,0-.55.25-.58.39l0,.14.09,0c-.69.47-.36,2-.09,2.65a.64.64,0,0,0,.17.49.53.53,0,0,0,.27.41c.18.56,1.7,1.18,2.06,1.25h0a4.25,4.25,0,0,0,1.46.56s0,.09,0,.1,1.05.24,1.23.24c2.47.51,5.08-.44,7.46-.64a9.47,9.47,0,0,0,3-.77.83.83,0,0,0,.59-.38,3.12,3.12,0,0,0,2-1.16.62.62,0,0,0,.55-.34,1,1,0,0,0,.63-.48.66.66,0,0,0,.4-.42.9.9,0,0,0,.38-.45,5.67,5.67,0,0,0,1-1Zm5.28-17.66c0,.45,0,.91.06,1.36h-.14a.56.56,0,0,0-.15-.45.55.55,0,0,0,0-.74l.2-.16Zm-.41-1.22.1-.1.07.13a.9.9,0,0,0-.34.11l.18-.14ZM102,53a3.09,3.09,0,0,0,.3.67,1.48,1.48,0,0,0-.37.13.56.56,0,0,0-.1-.64L102,53Zm-1-2,0,.06-.19.08L101,51Zm-1.87,7.12.41-.21-.54.44L99,58.23l.2-.15Zm-.69-1.19-.21.16,0,0,.23-.14Zm-14.92,6a.79.79,0,0,0-.24.55c0,.06,0,.11,0,.17a.43.43,0,0,0,.21.27l-.21.17-.39-.66a7,7,0,0,1,.15-.89l-.06,0v-.15h0a.93.93,0,0,0,.36,0,.75.75,0,0,0,.54.3l-.38.31Zm.86-3.07c-.3.24-.63.57-.92.82l.72-1.6,0,0c.08,0,.1-.19.28-.11,0,0,0,.09,0,.09a2.55,2.55,0,0,0,1.62-.62l-1.74,1.39Zm3.26-5.35a.36.36,0,0,0,0,.21c-.78.44-2.23,1.49-2.28,2.5l-.45.37c.15-.42.51-.73.66-1.11h0c.22-1,1.71-2.2,2.48-2.93,0,0,.06,0,.08,0a1.87,1.87,0,0,0-.55,1S87.69,54.48,87.69,54.49ZM96.84,51c.61-.52,1.16-1.12,1.75-1.67l.47.32q-1.39,1-2.81,1.89v0l.61-.53ZM95.76,53.9l-1.24,1a.73.73,0,0,0-.09-.18l1.34-.85Zm-2.52-4.25a6.45,6.45,0,0,1,.54-.64,7.62,7.62,0,0,0,1.72-.12l-.88.68q0-.48-.49-.25a19.18,19.18,0,0,1-1.63,1.23l.73-.91Zm-2.59,1.29.14-.08-.37.3.24-.22ZM86.31,66h0l0,0v0Zm1.94-10c1.85-1.51,3.89-2.73,5.65-4.36.42.36,1.77-.79,2.17-1.14-2.29,2.24-5.14,3.79-7.83,5.5Zm.5,10a1.82,1.82,0,0,0-.25.41l-.77-.1q.91-.49,1.8-1l-.78.74Zm1.36-4.85.72-.72.11.13-.84.6ZM87.54,73.69a.67.67,0,0,0,.17-.31.71.71,0,0,0,.35,0l-.92.68.4-.35Zm-2.34-.46.85.08L83.63,75c.48-.49,1.32-1.09,1.58-1.73Zm-3,1.23c.67-.59,1-1.17,1.9-1.34q-1.41,1.12-2.89,2.15c.24-.2.76-.61,1-.82Zm-1.08-1.37,0,0a3.72,3.72,0,0,0,1.26,0l-1.83,1.07.59-.61a.33.33,0,0,0,0-.47ZM80,73.46l.6-.44.19,0-.82.47,0,0Zm-1.43-.15a1,1,0,0,1,.63-.18,3.37,3.37,0,0,0-.84.61l.21-.43Zm1,2.47a6.24,6.24,0,0,0-1.19,1.37,2.27,2.27,0,0,1-.57-.65.62.62,0,0,0-.11-.39,3.32,3.32,0,0,0-.17-.86,2.37,2.37,0,0,0,1.62-.53L77.83,76c-.6.61,2-.36,2.57-1-.16.13-.76.6-.9.74Zm.67,1.38a1,1,0,0,0-.41.74,1.38,1.38,0,0,0-.55-.35c.65-.49,1.33-1,2-1.38-.25.23-.83.74-1.06,1Zm2.5-.16c-.31.32-.89,1.05-1.18,1.4a4.42,4.42,0,0,1-.93-.23l3.52-2.5L82.66,77Zm1.75.09c-.32.36-1.29.89-1.46,1.44h-.3q.9-.79,1.86-1.51l-.1.08Zm5.09.27a2.44,2.44,0,0,0-.53.54l-.89.09,1.5-1.21a.45.45,0,0,0,.2.31l-.27.26Zm1.19-3.8c-.34.3-5.59,3.81-5.07,4.91a3.42,3.42,0,0,1-1.39.09c2.38-2.07,4.83-3.94,7.36-5.83l-.9.82Zm6.54-8.62a4.85,4.85,0,0,0,.52-.46,1.54,1.54,0,0,1,.25.4,9.09,9.09,0,0,0-1.3.47l.53-.41Zm-.45-1.35,0,0-.29.16.24-.2ZM92.6,62.12a.81.81,0,0,0,.27-.18L93,62l-.8.47.44-.34Zm-.77-.87.06,0a9.23,9.23,0,0,1-.83.61l.77-.64Zm-.18,4.68a1.42,1.42,0,0,0-.55.73l-.8-.09c.9-.57,1.81-1.12,2.73-1.65-.46.32-.92.66-1.37,1ZM93,67a1.3,1.3,0,0,0-.52-.15l1.65-.73L93,67Zm2-4.19-1.71.86,1.43-1.09.45.14a.5.5,0,0,0-.17.08ZM94.26,68l-.05,0a.63.63,0,0,0-.06-.29L95.43,67l-1.16,1Zm2,.9c-.61.08-1.55,1-1.89,1.4a3.69,3.69,0,0,0,.18-1.14l.77-.49a.5.5,0,0,0,.47-.12c.42.09,1.31-.58,1.63-.82l-1.16,1.17ZM99,67.73l-.07.61a.42.42,0,0,0-.33-.16l.41-.44Zm-.6-1.28a.52.52,0,0,0-.33-.18l.53-.35c.33.34.29.62-.1.85a.52.52,0,0,0-.1-.32Zm.08,3.32a1,1,0,0,0-.23.11l.68-.72-.12.6a1,1,0,0,0-.32,0Z"/><path class="cls-1" d="M120.51,83.29c1.92-1.57,2.73-5.91,3.68-8,1.59-1.68,3.63-6.1,4.19-8.35l-.05,0L128.7,65a.09.09,0,0,0,.1-.07,3.16,3.16,0,0,0,0-2.14,1,1,0,0,0-.18-.75,3.8,3.8,0,0,0-.25-1.77,7.07,7.07,0,0,0-.71-2.08.72.72,0,0,0-.18-.5c0-.46-.07-1.92-.48-2.12,0,0-.46-.3-.51-.31-.73-.25-3.35-.85-4-.11a1.2,1.2,0,0,0-.58.34,1.87,1.87,0,0,0-.94.16,7.7,7.7,0,0,0-1.94.56l.11-.12a11.27,11.27,0,0,0,.7-1.35,33,33,0,0,0,6.07-14.52l.75-4.68h0a12.24,12.24,0,0,0-1.65-7.63.84.84,0,0,0-.27-.59,1.16,1.16,0,0,0-.41-.78c-.64-2.19-2.19-4.45-4.5-5-1.65-.34-2.68,2.52-2.57,3.67a4.47,4.47,0,0,1,.26.43c.35.53-.41,4.72-.38,5.63-.5,2.59.48,5.55,0,8.3a37.84,37.84,0,0,1-1,4.61.39.39,0,0,0-.14.46,2.74,2.74,0,0,0-.32,1c-.94,2.15-1.15,4.54-2.14,6.68l.06,0c-.14.36-.64,1.07-.76,1.36L111.32,57h0c-2.11,3-3.68,6.4-5.49,9.55,0,0,0,0-.22,0h0l.13,0a30,30,0,0,0-2.93,5.47c-.19.92-1.77,2.16-2.38,2.85l0,0a13.55,13.55,0,0,0-1.63,2.39h0a2.05,2.05,0,0,0-.32.61c-1.09,1.56-5.17,6.42-1.26,7.23l1,.21a5.05,5.05,0,0,0,3-.77v0c3.26-1.36,9.4-6.85,10-9.87h0c.56,0,4.38-6.09,5.09-7l0,0c.48.23,1.41-.42,1.75-.71a2.12,2.12,0,0,1,.38.05.91.91,0,0,0,.37.29l.06.08a.58.58,0,0,0,.25.82c-.39,2.14-1.89,3.9-3,5.73,0,0,0,0,0,0a33.5,33.5,0,0,0-4.17,6.74A6.49,6.49,0,0,0,111,84c-.19.91,1.51,2.63,2.21,2.78-.13.31-.19,0-.13.44.33,1.6,6.8-3.45,7.43-4Zm6.74-16.76-.18.32a.53.53,0,0,0-.15-.16l.39-.42-.06.26Zm-.19-3.82a1.9,1.9,0,0,0,.31-.52,1,1,0,0,0,.19.49,1.1,1.1,0,0,0,.19.75,10.09,10.09,0,0,1-.19,1.73.55.55,0,0,0-.5-.1c.28-.29.49-.85.09-1.14.23-.34.36-1-.1-1.19h0S127.06,62.71,127.06,62.71Zm.23-1.79,0,.16-.06,0a.82.82,0,0,0-.07-.34l.12.23ZM127,60.5a.61.61,0,0,0,.09-.15.82.82,0,0,0,.08.33,1.51,1.51,0,0,0-.17-.17ZM97.38,84.3a.81.81,0,0,1-.45-.2,3.19,3.19,0,0,0,.59.23l-.13,0Zm5-8.51c-.37.22-3,1.55-2.76,2.49-.35.15-.76.59-.43,1-.33.15-.6.51-.37.85a10,10,0,0,0-1.34,1.59.51.51,0,0,0-.33.57c-.15.12-.08.21-.11.33l-.06.29,0,0-.22.27a.52.52,0,0,0,0,.56l-.07-.06c0-1.94,1.51-3.33,2.44-5a17.35,17.35,0,0,0,1.34-2.11c.58.41,1.88-.64,2.11-.91h0l-.15.09Zm.67-1.86c-.46.33-.84.69-1.33,1l1.41-1.68h.29a.49.49,0,0,0,.1.39l-.46.31Zm2.27-3.62c-.19.11-.4.29-.58.42a2.44,2.44,0,0,0,.59-.92.48.48,0,0,0,.23.35l-.24.15Zm7.93,12.59a9.5,9.5,0,0,0-1,.84,1,1,0,0,0-.09-.19l.5-2.11,0-.09h0s0,.05,0,0a.7.7,0,0,0,.08.37c-.28.43-.09,1.1.49,1.08l-.05,0Zm.42-2.53a4.26,4.26,0,0,0-.58.53,1.15,1.15,0,0,0,.22-.33h0a3.85,3.85,0,0,1,.82-1.51,1,1,0,0,1-.11.74.54.54,0,0,0,.05.32l-.4.25Zm1-2.6a.48.48,0,0,1,.13-.25l-.13.25ZM126.6,59.06l0,.05h0a.3.3,0,0,1,0-.06S126.6,59.07,126.6,59.06ZM121.8,74.55l2.26-1.84a1.37,1.37,0,0,0-.3,1.09,2.72,2.72,0,0,1-.42.69l-.06,0,0-.1c-.38-.57-1-.11-1.45.15Zm1.81-17.71c.19-.15.54-.39.6-.66a1.53,1.53,0,0,1,.74.08c-.47-.1-2,1.21-2.49,1.5l1.15-.91ZM119,57.6l.25-.07-1.22.73a.41.41,0,0,0,0-.07,4.79,4.79,0,0,0,1-.59Zm.69-5.16a5.87,5.87,0,0,0-.7,1l-3.77,1.85c1.47-1.16,3.1-2.1,4.63-3.18l-.16.34ZM110.85,63l-1,.65a23.45,23.45,0,0,1,4.72-3.23l.12.06q-2,1.21-3.86,2.52Zm1.07,1.21-1,.64q.48-.34,1-.64Zm3-5a24.86,24.86,0,0,0-2.83,1.51,45.27,45.27,0,0,1,4.13-2.57.71.71,0,0,0,.07.26l-1.37.8Zm2.28-16.07a.39.39,0,0,0,.21.1l-.32.16,0-.3h0s0,0,.06,0Zm.14-.74.13-.62a27.75,27.75,0,0,1,2.93-1.55q-1.57,1-3.06,2.16Zm.3-1.74.1-.65c.89-.42,1.8-.83,2.71-1.21l-2.81,1.86Zm3.28-4.72-2.85,1.92a2.58,2.58,0,0,0,.05-.55,39.86,39.86,0,0,1,3.82-2.12c-.16.12-.84.65-1,.75Zm-3,2.82h0Zm-1.58,7.35a2.93,2.93,0,0,1,.11-.4l3.44-1.61-3.7,2.31.15-.3ZM116,48.27c1.69-.82,3.4-1.6,5-2.51-1.8,1.37-3.89,2.28-5.67,3.68l.3-1.14a.37.37,0,0,0,.32,0Zm.52,8.36-.15.06,1.1-.72a2,2,0,0,1-1,.66Zm3.69-5.31-.06.11a.45.45,0,0,0-.3-.34c.38-.28.75-.58,1.1-.89l-.74,1.11Zm.21-1.76-.38.25,1.47-1.19-1.09.94Zm1.42-1.07a.44.44,0,0,0-.28.09.71.71,0,0,1,.32-.21l0,.12Zm.55-1.55c-.12.24-.18.53-.28.79-.51-.51-2,.7-2.19.95.87-.61,1.71-1.23,2.54-1.89l-.07.15Zm.62-1.77c-.13.4-.19.8-.34,1.19-.27-1-4.86,2.49-5.71,2.87A33.28,33.28,0,0,0,123,45.16Zm.45-1.38c-1.29,0-2.23,1.16-3.39,1.63,1.11-.65,3-1.72,3.78-2.81l-.38,1.19Zm.47-1.59,0,.16a.49.49,0,0,0,0-.31l.1-.1-.05.26Zm.51-1.93-.08.37a3.77,3.77,0,0,0-1.78,1.14l1.85-1.51Zm.06-.68a.43.43,0,0,0-.26-.09l.31-.26-.06.35Zm.53-6a13.32,13.32,0,0,1-.37,5.07c-.51-.43-4.51,2.86-5.47,3.34a24.19,24.19,0,0,0,5.34-4.24q.11-.74-.54-.44a12.73,12.73,0,0,1-1.79,1.22,12.16,12.16,0,0,0,2.23-2,.36.36,0,0,0,.11-.68c-1-.49-3,1.74-3.9,2.14a18.5,18.5,0,0,0,4.09-3.24h0c.27-1.29-3,1.57-3.09,1.61A29.63,29.63,0,0,0,125,33.56Zm-.14-1c-.91.62-1.86,1.24-2.79,1.84.52-.27,2.59-1.4,2.79-2.22v.38Zm-.35-1a.9.9,0,0,0,.22-.45,1.67,1.67,0,0,1,.12.91q-.1-.33-.55-.18l-1.11.84q.69-.53,1.32-1.12ZM124,29.78a.37.37,0,0,0,.14-.29,6.22,6.22,0,0,0,.43,1c-.7-.34-2.38.82-2.84,1.16A14.89,14.89,0,0,0,124,29.78Zm-.37-.84a.43.43,0,0,0,.13-.18.75.75,0,0,1,.29.49.38.38,0,0,0-.47-.08l-1.26.74,1.32-1ZM122.5,26.3a.52.52,0,0,0,.09-.12,3,3,0,0,0,.64,1.35.84.84,0,0,0,.24.58,5.22,5.22,0,0,0-2.51,1c2.86-1.36,1.91-3.4-.6-1.17.71-.55,1.42-1.12,2.14-1.67Zm-.55-.58a.72.72,0,0,0,.18-.41,1.61,1.61,0,0,0,.24.38.82.82,0,0,0-.56.14l.14-.12Zm-.51-1.44.38.63c-.6-.08,1,.79-.53.06a2.4,2.4,0,0,0-.83.32l1-1Zm-.69-.71h0Zm-1.34-.41a.39.39,0,0,1,.49,0l-.9.67.41-.68Zm-1.11,1.51,0-.07a.39.39,0,0,0,.42,0l-.43.42a.32.32,0,0,1,0-.32Zm-.58,2.5a1.62,1.62,0,0,1,.07-.83,6.33,6.33,0,0,0,1.92-1.3,10.67,10.67,0,0,0-2,2.13Zm0,.89.07-.5a.35.35,0,0,0,.56,0l.09-.1a9.14,9.14,0,0,0,1.6-1c-.58.57-1.71,1.22-2.12,1.93l-.1,0a.19.19,0,0,1-.08.05l0-.35Zm0,1.48c0-.32.08-.64.05-1,.19.21.3.35.62.32l-.67.66v0ZM118,30.7a1.23,1.23,0,0,0-.26.41v-.5a17.56,17.56,0,0,0,1.75-1.23A11.21,11.21,0,0,0,118,30.7Zm-.19,1.06c.51.27,2.74-1.48,3.18-1.75a8.39,8.39,0,0,1-2.14,1.41.08.08,0,0,0,0,.07,2.39,2.39,0,0,0-.63,1c-.3.88,1.09.18,1.22.06-3.09,3.13,1.84.28,3.26-.44-1.26,1-5.17,2.37-3.95,3.7a3.11,3.11,0,0,0-.55.41c-.16-1.46-.29-2.95-.42-4.42Zm-3.34,20.75h0l-.07,0,0,0Zm-.35.69a.41.41,0,0,0,.24.26l-.63.43.38-.69Zm-.94,2c.5-.09.73.09,1.22-.35a10.66,10.66,0,0,0-1.66,1.38l.44-1Zm-1,2.38,0-.11a.62.62,0,0,0,.57.21l-.23.17h0s0,0,0,0l-.66.61a2.74,2.74,0,0,1-.53.41l.82-1.31Zm-2.4,4.06.5-.84,1-.53a8.69,8.69,0,0,0-1.53,1.38Zm-.59,1.14a4.8,4.8,0,0,0,.4-.6.44.44,0,0,0,.28.5l-1,.77.32-.66Zm-4,17.62c-.47.32-1,.67-1.42,1l0,0q1-.73,1.93-1.56l-.49.58Zm2-2.41c-.27.29-.57.69-.82,1a.57.57,0,0,0-.16-.4l1.08-.69-.1.1Zm1.45-1.47-.67.62a2.11,2.11,0,0,1,0-.39h0l.73-.32,0,.08Zm1.87-2.44c-.65,1.35-3.6,2.15-4.92,2.72a47.8,47.8,0,0,0,5-2.91l-.1.19Zm-.78-5.35c-.46.24-.92.55-1.38.8,1.45-.92,2.95-1.74,4.44-2.59a.62.62,0,0,0,0,.18c-1,.51-2,1-3,1.6Zm1.78,3.69-.18.3-.14-.14.34-.23,0,.06Zm2.73-4.07c-.71.76-1.28,1.83-1.92,2.67a.6.6,0,0,0-.39-.15l.32-.23a.47.47,0,0,0,.06-.73l-.07,0h0s.28,0-.05-.12a.46.46,0,0,0-.16-.06s0,0,0,0l0,0a21,21,0,0,1,2.31-1.38l-.07.07Zm1-6.84v0c0-.08.19-.07.14-.21s3.15-1.81,3.23-2.25a22,22,0,0,1,2.72-1.43q-1.19.93-2.44,1.78l-.13,0-3.53,2.18Zm1.93.7a.49.49,0,0,0-.14-.29l4.35-2.36c-1.4.89-2.8,1.78-4.2,2.66h0S117.09,62.18,117.09,62.18Zm2.81,1.94a18.48,18.48,0,0,0-2.68,1.7,30,30,0,0,1,3.22-2l-.54.35ZM117.71,74a5.49,5.49,0,0,0-1.1,1.05c.45-.61.88-1.27,1.27-1.92a.67.67,0,0,0,.33.27h.06a7.81,7.81,0,0,1-.56.59Zm1-2.22.08-.14.05,0-.14.09Zm1.94-10a39.41,39.41,0,0,0-3.79,2.56.26.26,0,0,0-.08-.09c.55-.16,1.68-.8,1.49-1.5,1.8-1.14,3.67-2.18,5.51-3.26-1,.79-2.08,1.54-3.14,2.29Zm-.79,8.16a3.16,3.16,0,0,0,.13-.52.62.62,0,0,0,.23.23l-.36.29Zm.8-1.71a1.65,1.65,0,0,0-.5.43,1.61,1.61,0,0,0,.06-.7q1.65-.9,3.23-1.92l-2.79,2.19Zm0,12.69c-.12.21-.15.46-.27.67a.59.59,0,0,0-.27-.26c.16-.12.38-.32.54-.42Zm.52-1.23a.9.9,0,0,0-.1.33h0a.58.58,0,0,0-.33-.34l.66-.45a1.32,1.32,0,0,0-.22.46Z"/><path class="cls-1" d="M82,41.77a.47.47,0,0,0-.43.25c-.45.34-.4.67.12.94.46.84,2.15,1.4,1.75-.4-.25-.69-.77-.64-1.45-.79Zm.43,1,.06,0,0,.12,0,0v-.06l0-.06Z"/><path class="cls-1" d="M89,38.2a2.61,2.61,0,0,0-1.81-1.13.86.86,0,0,1,0-.12l-.2,0c-.2,0-.39.15-.52.12l-.18,0s0-.07-.12-.05c-1.11.27-2.06,4.33-1,5C87.5,43.39,89.94,40.4,89,38.2Zm-1,2.48a6.72,6.72,0,0,1-1.41,1,2.79,2.79,0,0,1-1-.22,5.14,5.14,0,0,1,.71-3.83c.09.24.35.52.62.3.19.16.81.56,1.05.42a1.35,1.35,0,0,1,.47.71A3,3,0,0,1,88,40.67Z"/><path class="cls-1" d="M76.09,83.63c2.1-2,.23-4.93-2.18-3.9-1.34.46-1.16,3.68.13,4a1.92,1.92,0,0,0,2-.08Zm-.57-1.15a.92.92,0,0,1-.39.33l-.68-.16a2.63,2.63,0,0,1-.3-.51c.12-.09.3-.35.28-.46a.55.55,0,0,0-.07-.3,1.17,1.17,0,0,0,.14-.41,2.27,2.27,0,0,0,.25-.18,2.24,2.24,0,0,1,1,.53,3,3,0,0,1-.26,1.16Z"/><path class="cls-1" d="M79.64,81.58c-2.43.59.12,1.61.18,1.47a1.22,1.22,0,0,0,.22-.78.63.63,0,0,0-.4-.69Z"/><path class="cls-1" d="M77.31,86.39c-.31-1.85-1.59-.58-2.08-.16-.83,1.89,1.68,2.18,2.08.16Z"/><path class="cls-1" d="M85.46,83.5a1.47,1.47,0,0,0-1-1.48c-3.92-1-2.59,5.78.44,3.2.41-.12.06-.29.09-.41h0s.52-.14.54-.24a1.09,1.09,0,0,0-.11-1.07Zm-.54.79c0,.19-.7.34-.92.63a1,1,0,0,1-.56,0c-.57-1-.72-2.3.74-2a.79.79,0,0,1,.35.7,1.16,1.16,0,0,0,.43.55l0,.15Z"/><path class="cls-1" d="M90.68,82h0c-.1,0-1.69.14-1.11,1.11.13.27.54.66.88.43a.52.52,0,0,0,.45-.39c.19-.32.36-1-.21-1.15Z"/><path class="cls-1" d="M88,85c.14.46.78.83,1,.12-.15-1.19-1.29-1.16-1-.12Z"/><path class="cls-1" d="M92.12,87.37a3.81,3.81,0,0,0-.55.05h0q-.45.07-.12.39a1.59,1.59,0,0,0,.7.06q.49-.26,0-.5Z"/><path class="cls-1" d="M89.78,43.46a.58.58,0,0,0-.28,0c-.74.18-.5,1.58.26,1.3s1-1.6,0-1.33C89.69,43.45,90,43.39,89.78,43.46Z"/><path class="cls-1" d="M92.35,41.13c2,7.42,4.58-5.81.63-1.71a2,2,0,0,0-.63,1.71Zm1-.66c1,.27,1.87,0,.67,1.3l-.48-.08a1.32,1.32,0,0,1-.2-1.21Z"/><path class="cls-1" d="M97.23,38.78c.41,1.84,3.33,2.46,2.65.43.17-.25.3-.9.1-1.12-.92-1.14-3-1.51-2.7.62h0s0,0,0,.07Zm1.1-.72.06,0,0,0-.1,0v0Z"/><path class="cls-1" d="M100.67,44.52c.66,3.9,5.39.18,2.18-1.71a1.5,1.5,0,0,0-.53-.69l-.22,0c-.73-.15-1.55,1.9-1.43,2.44Zm1-1.08.1-.1,0,0v.07a.33.33,0,0,0,.57.28,1.11,1.11,0,0,1,.82.84h-.07v0l.08,0a1.54,1.54,0,0,1-1.08,1.05,1.62,1.62,0,0,1-.42-2.26Z"/><path class="cls-1" d="M107.65,44.73a.17.17,0,0,0-.14-.19c-.47-.23-1.26-.13-1,.74a2.91,2.91,0,0,1,.09.31c.06.32.65.45.75,0,.06-.24.13-.5.18-.74a.16.16,0,0,0,.12-.13Z"/><path class="cls-1" d="M109.33,50.35c.32-.37.63-1.2.22-1.62l0,0c.81-3.45-5,1.17-1.65,1.87.07-.15.11.09.23.11s.07,0,.11,0h0l0,0a1,1,0,0,0,1.09-.35Z"/><path class="cls-1" d="M107.57,54.29a.68.68,0,0,0,.88-.64.33.33,0,0,1,0-.22.62.62,0,0,0-.56-.68c-.81-.18-1.22.15-1.07,1a1.35,1.35,0,0,0,.53.6h0l.23,0S107.52,54.29,107.57,54.29Z"/><path class="cls-1" d="M107.48,54.41s0-.08-.06-.08h0v.07l.09,0Z"/><path class="cls-1" d="M105.92,58.39a.54.54,0,0,0-.58-.1c-1.05.32.38,2,.61,1,.29-.28.35-.52,0-.81l0,0Z"/><path class="cls-1" d="M112.15,42.31c.56-3.67-3.41,3.26-.55.89a.56.56,0,0,0,.45-.46,3.25,3.25,0,0,1,.06-.4s0,0,0,0Z"/><path class="cls-1" d="M112.7,37c-.23-.57-1.94-2.08-2.35-.61h-.1c-.09.43-1.17,1.56,0,2l.08,0c1.06.58,2.71.27,2.41-1.43Zm-1.24.55a.6.6,0,0,0-.19.32l0,.05-.11.09-.25,0a.6.6,0,0,0-.35-.27l-.12-.24v-.1a.3.3,0,0,0,.31.06c.12,0,.39-.24.52-.4h0a.27.27,0,0,1,.22.06.53.53,0,0,0,0,.16l-.14.33Z"/><path class="cls-1" d="M110.62,32c5.85,1.21-.12-6.3-.65-4-1.67.69-1.25,3.56.65,4Zm-.48-1.32a1.72,1.72,0,0,1-.32-1.82l0,0a2.51,2.51,0,0,1,.95.24c.14.14.47.38.64.2a1.68,1.68,0,0,1,.73.77,1,1,0,0,1-.21.59,2.52,2.52,0,0,1-.85.58,1,1,0,0,1-1-.51Z"/><path class="cls-1" d="M111,30.8c.21.11.67-.58.6-.33,0-1-1-1.67-1.12-.35a.4.4,0,0,0,.12.46.38.38,0,0,0,.4.23Z"/><path class="cls-1" d="M107.1,35.58c.24,0,.61.13.78-.13s.79-1.64,0-1.8l-.09,0c-.4-.08-.63.66-.59.94a.81.81,0,0,0-.4.35.43.43,0,0,0,.26.66Z"/><path class="cls-1" d="M113.52,23.88c-.18,0-.7.18-.73.36l-.15.72c-.14.69,1.6,1.66,1.92.7.26-.65.18-2.19-1-1.78Z"/><path class="cls-1" d="M115.54,19.92c-.44-.09-.69.37-.69.71s.63.7.88.31c0,0-.05-.06,0-.08a2.09,2.09,0,0,1,.05-.33q.43-.13-.2-.61Z"/><path class="cls-1" d="M109.91,21.14c.73.5,2.67.35,2.13-1.1-.17-.39-1.28-1.54-1.63-.61a.83.83,0,0,0-.59.22,1.37,1.37,0,0,0,.1,1.49Zm.44-1.09a.18.18,0,0,1,.16,0,.36.36,0,0,0,.45.07.28.28,0,0,1,.21.17.77.77,0,0,1-.35.57l-.2,0-.14-.05h0a.46.46,0,0,0-.17-.44.49.49,0,0,1,0-.31Z"/><path class="cls-1" d="M120,18.87c-.27,1.31,1.74,1.22,2,.15.44-1.33,0-2.08-1.31-1.94-.52.23-.69,1.3-.69,1.79Zm.82-.61a.36.36,0,0,0,.51-.17,1,1,0,0,1-.37,1h0l-.17-.25c0-.2,0-.4.08-.59Z"/><path class="cls-1" d="M125.43,21.49c.33-.47-.7-1.55-.9-.56a5.15,5.15,0,0,1-.18.61.43.43,0,1,0,.85.14v-.07a.25.25,0,0,0,.22-.12Z"/><path class="cls-1" d="M131.46,25a1.06,1.06,0,0,0-.39-.55,2.8,2.8,0,0,0-1.7-.91s0,0,0,0L129,23.4c-2.73-.57-3.26,3.4-.85,3.9a6.9,6.9,0,0,1,1,.2s0,.05,0,.05l.55,0h0A2.27,2.27,0,0,0,131,27c.51-.21.54-1.53.5-2Zm-.91,1.42a.4.4,0,0,0-.11.13,2.07,2.07,0,0,1-3.24-1.33l.11-.49a1.37,1.37,0,0,1,1.09-.67.3.3,0,0,0,.39.2,5.16,5.16,0,0,0,.66.15l.15,0a2,2,0,0,1,1.13.73,3.13,3.13,0,0,1-.19,1.24Z"/><path class="cls-1" d="M129.26,25.12c0-.12-.11-.44-.23-.47H129c-.84-.17-.36,2.15.1,1.45a.74.74,0,0,0,.27-.5l.14-.12c.12-.25.06-.37-.21-.35C129.26,25.1,129.34,25.08,129.26,25.12Z"/><path class="cls-1" d="M130.77,30.25a.3.3,0,0,0-.12-.15s0-.07,0-.07a.12.12,0,0,0-.09-.09.8.8,0,0,0-.31.09c-.17-.11-.7-.21-.77.08l-.06.28c0,.15.36.32.46.35a.77.77,0,0,0,.26.09.41.41,0,0,0,.5-.09c.11.06.35-.09.17-.23l0,0a.19.19,0,0,0,0-.23Z"/><path class="cls-1" d="M131.28,34.73c-.24-.25-.88-.58-1.22-.35l-.14.1c-.85-.4-1.48.49-1.42,1.24,0,0,.14,0-.19,0h0l.19.26.07,0c-.29.64.28,1.26.72,1.69a1.32,1.32,0,0,0,1.11,0c1-.36,2.2-2.08.87-3Zm-1.87.1a.44.44,0,0,0-.23.19l0-.08a.45.45,0,0,1,.28-.16l-.08.05Zm1.24,1.93-.05.13-.31.13h-.07a.38.38,0,0,0-.11-.1.38.38,0,0,0-.11-.17,1.45,1.45,0,0,1,.27-1.12l.14,0a.86.86,0,0,1,.41.15,2.37,2.37,0,0,1-.17,1Z"/><path class="cls-1" d="M131.73,33.17a.21.21,0,0,0,.15.23h.05a.41.41,0,0,0,.53-.13l.11-.37.32-.12c.1-.1.08-.17-.06-.19l-.24.08q-.16-.35-.52-.13c-.09,0-.22.13-.24.23s-.07.26-.09.38Z"/><path class="cls-1" d="M127.16,41.13c.27,1,1.91,0,1.24-.78-.59-.38-1.52-.26-1.24.78Z"/><path class="cls-1" d="M123.28,51.43c-.41,1.61,1.64,1,2-.41a.59.59,0,0,0-.38-.71l-.16-.08c0,.06-.09.17-.11.16l-.14,0a.53.53,0,0,0-.66.29c-.11.13-.46.41-.49.49h0l-.07.29Z"/><path class="cls-1" d="M125.81,48.76a1.33,1.33,0,0,0,.4.84c2.48,1.71,3.63-2,.93-2.69-.08,0-.2,0-.31-.06-.93,0-1.17,1.25-1,1.91Zm1.2-.58a.26.26,0,0,0,.34.11.48.48,0,0,1,.26.35l-.08.28a.23.23,0,0,1-.28.15.58.58,0,0,0-.24-.56.57.57,0,0,0-.07-.21l.08-.12Z"/><path class="cls-1" d="M128,44.8a.56.56,0,0,0,.83.35.53.53,0,0,0,.36-.42l.05-.35q-.11-1.07-1-.38c-.08.15-.29.62-.23.8S128,44.69,128,44.8Z"/><path class="cls-1" d="M130.11,43.29a1.67,1.67,0,0,0,1.09.39.52.52,0,0,0,.77-.16,1.13,1.13,0,0,0,.47-.62l0,0c.14-.28.4-1,.18-1.29-.24-.45-1.1-1.29-1.61-.69a1.27,1.27,0,0,0-1.17,1.29s0,0,0,.06l0,0a.15.15,0,0,1-.06.09.93.93,0,0,0,.31.92Zm.66-1.44.07-.08.09,0a.56.56,0,0,0,.45.23l.13.16c0,.29-.2.37-.35.59a1,1,0,0,1-.48-.09l-.08-.1a3,3,0,0,1,.16-.69Z"/><path class="cls-1" d="M128.49,53.52c.3.36,1.23.06,1.34-.33,0-.8-1-2.13-1.26-.88l0,0-.08.41v0a.46.46,0,0,0,0,.77C128.56,53.6,128.31,53.38,128.49,53.52Z"/><path class="cls-1" d="M132.53,49.43a1.35,1.35,0,0,0-1.43-1.15.35.35,0,0,0-.38-.2h-.06a.38.38,0,0,0-.45.15c-.41.54-.91,2.15.13,2.45s2.23,0,2.18-1.25Zm-1.09.26a.83.83,0,0,1-.84.1l0-.05a.79.79,0,0,1,.08-.63c.12.32.65.34.88.36l-.07.22Z"/><path class="cls-1" d="M131.47,56.83c-.7-.81-1.35-.46-1.68.66a.38.38,0,0,0,.27.46c.67.21,1.66-.12,1.41-1.12Z"/><path class="cls-1" d="M134.46,36.25c-.17-.56-1-1.46-1.62-.88l-.17.15a1.47,1.47,0,0,0-.56,1.71c.74,1,3.1.8,2.34-1Zm-1.32.94-.17,0-.1,0h0a.58.58,0,0,0-.11-.34,1.12,1.12,0,0,1,.17-.65l.08,0a.41.41,0,0,0,.38.17l.1.23,0,.29-.29.35Z"/><path class="cls-1" d="M127.54,20.13a.61.61,0,0,0-.81,0,.52.52,0,0,0-.55.22c-.15.19-.34.68.1.8.25.16,1,.45,1.23,0,.29-.22.55-.77,0-1Z"/><path class="cls-1" d="M107.91,85.3c-.44-1.79-2.94-1-3.21.43-.92,2.17,3.8,3.26,3.21-.43Zm-1,1.18a1.11,1.11,0,0,0-.24.33.92.92,0,0,1-.57.27l-.29-.09c-.33-.28-.14-.18-.32-.47v-.16a.39.39,0,0,0,.19-.31s0,0,0,0h0c.19-.2.34-.46.52-.67a.83.83,0,0,1,.92.6l-.16.55Z"/><path class="cls-1" d="M109.44,87.55a.37.37,0,0,0,0,0c-.18-1-.91.2-.93.36a.44.44,0,1,0,.87.15,1.4,1.4,0,0,0,.06-.46Z"/><path class="cls-1" d="M102.31,87.73c-.38-1-2-2.19-2.87-.81-.33.47-.72,1.85.08,2.2a4.55,4.55,0,0,1,.68.19v0c.66.07,2.36-.36,2.11-1.54Zm-1,.35a3.2,3.2,0,0,0-.5.43,1,1,0,0,1-.75,0,.43.43,0,0,1-.32-.27l.05-.4c.14,0,.44-.29.57-.44a1.11,1.11,0,0,1,.64-.08.67.67,0,0,1,.32.73Z"/><path class="cls-1" d="M106.54,89c-.36-.63-1.07.1-1.15.5l-.05.25c-.21,1,2,.58,1.32-.61l-.11-.14Z"/><path class="cls-1" d="M116.86,91.76A2,2,0,0,0,115,89.5s-.06.1-.08.1a.21.21,0,0,1-.2,0l0-.1a.37.37,0,0,0-.33-.14,2.34,2.34,0,0,0-1.95,2.38h0c.35,1.05,3.87,2.75,4.32.57a.77.77,0,0,0,0-.57Zm-1.2-.48a1.93,1.93,0,0,1-.31.83,1.06,1.06,0,0,0-.43.19h-.08a3.2,3.2,0,0,1-.9-.45,1.62,1.62,0,0,1,.53-1.14.83.83,0,0,1,1.23.37l0,.17Z"/><path class="cls-1" d="M118.41,89a.54.54,0,0,0-.38-.6c-1.6.83.18,1.46.25,1.11,0-.17.08-.34.12-.51Z"/><path class="cls-1" d="M122.63,87.13a1.79,1.79,0,0,0-2.67-.95c-2.62,2.55,3.36,4.26,2.67.95Zm-1.26.8a1.41,1.41,0,0,1-.51.23l-.31-.08a1.05,1.05,0,0,1-.11-1.29,4.51,4.51,0,0,1,1.12.56,1.13,1.13,0,0,1-.2.58Z"/><path class="cls-1" d="M124.09,82.6v-.08c.25-.65-.78-.33-.86.07l0,.24h-.06a.44.44,0,0,0,.64.54c.35-.18.32-.49.31-.78Z"/><path class="cls-1" d="M128.51,77.85a2.49,2.49,0,0,0-1.18-1.69c-.1,0-.18,0-.22,0h0v0a1.61,1.61,0,0,0-2.28,1.44c-.52,1.48,3.29,3.49,3.68.28Zm-1.55.71a1.16,1.16,0,0,1-.5-.12,1,1,0,0,0-.32-.41h0a.61.61,0,0,1-.19-.34l.09-.24a3,3,0,0,1,.61-.32.91.91,0,0,1,.71,1,1.3,1.3,0,0,0-.08.28l.09,0-.38.14Z"/><path class="cls-1" d="M129.14,73.69a.46.46,0,0,0-.76-.24.47.47,0,0,0-.13.57.44.44,0,0,0,.89,0,1.33,1.33,0,0,0,0-.35Z"/><path class="cls-1" d="M131.92,68.5a.86.86,0,0,0-.13-.68,1.54,1.54,0,0,0-.52-.82q.22-.32-.23-.49c-2-.14-2.93,3-1,3.21.39.21,1.28.24,1.52-.24a2.91,2.91,0,0,0,.3-1Zm-1.44.12a.67.67,0,0,1-.28.08l-.11-.2a1.62,1.62,0,0,1,.4-.78,1.56,1.56,0,0,1,.25.28.63.63,0,0,0,.15.37.63.63,0,0,1,0,.23.41.41,0,0,0-.37,0Z"/><path class="cls-1" d="M131.66,63.28a.36.36,0,0,0-.49-.15c-.34.22-.79,1.36.05,1,.26,0,.51-.72.43-.87Z"/><path class="cls-1" d="M92.69,84.92l-.08,0c-.14-.39-.78-.81-1.05-.31-1.36,2.49,2.29,1,1.14.35Z"/><path class="cls-1" d="M88.94,87.65c-.1-4.09-4.65,2.33-1.76,1.5,1,.65,1.71-.67,1.76-1.5Zm-1.19.85s0,0,0,0l0,0a.65.65,0,0,1-.45-.24,2.63,2.63,0,0,1,.24-.74.29.29,0,0,0,.19-.14.53.53,0,0,1,.32.38,2.11,2.11,0,0,1-.26.68Z"/><path class="cls-1" d="M95,87.78l-.09,0c-.18,0-.33,0-.41.14-.45.31.11.72.4.53s.86-.49.1-.65Z"/><path class="cls-1" d="M100.66,36.32a1.56,1.56,0,0,0,1.75.28.17.17,0,0,1,.07-.08.58.58,0,0,0,.39-.06h0c.48-.12.51-1,.41-1.42a.47.47,0,0,0-.22-.62,1.26,1.26,0,0,0-.54-.14c-1.18-.61-2.77.92-1.85,2Z"/><path class="cls-1" d="M105.36,40.35c0-.18.22-.93.12-1.09a.66.66,0,0,0-.66-.47c-.38-.08-1.92,0-1.2,1.42a.83.83,0,0,0,.42.58c.08,0,.75.19.84-.08h0a.8.8,0,0,0,.47-.35Zm-.75,0a.28.28,0,0,0-.09.08.77.77,0,0,1-.38-.05l-.15-.3.22-.95.14-.13c0,.19.37.32.51.35l.13.2-.08.64-.31.16Z"/><path class="cls-1" d="M104,40.83c.09,0,.12,0,.07,0l0,0h0v0Z"/><path class="cls-1" d="M91.92,37.84c1.79.37,1-1.56,1.13-2.11h.06a1.43,1.43,0,0,0-.59-.8c-.16,0-.35-.16-.46-.15H92s-.77,0-.64-.06a3.29,3.29,0,0,0-.62.24.53.53,0,0,0-.23.43c-.26.75-.16,2.09.81,2.34.28.06-.25,0,0,0a1.39,1.39,0,0,1,.58.1Zm0-.95a.65.65,0,0,1-.69-.52,2.44,2.44,0,0,1,.16-.86l.08,0A.74.74,0,0,0,92,36a1.64,1.64,0,0,1,.32.72.31.31,0,0,0-.07.1c-.13.11-.09,0-.31.12Z"/></g></g></svg>