<svg xmlns="http://www.w3.org/2000/svg" viewBox="0 0 114.22 50.08"><defs><style>.cls-1{fill:#fff;}</style></defs><title>type_healty</title><g id="Layer_2" data-name="Layer 2"><g id="ELEMENTS"><path class="cls-1" d="M45.32,30a1.77,1.77,0,0,0-1.38-.6.92.92,0,0,0-.87.61v0c-.2.1-.59.13-.5.44l.12.21c0,.18-.12.66,0,.81a2,2,0,0,0,2.65,0c0-.57.86-.89,0-1.51C45.28,29.93,45.61,30.18,45.32,30Z"/><path class="cls-1" d="M76.76,17.23,73.22,17a1.08,1.08,0,0,0,.39-.77h0c.17-.92,1.06-5.61.15-6a.74.74,0,0,0-.8,0,1.38,1.38,0,0,0-.24.19l-.05,0c-.45-.79-2.51-.48-3.38-.88a.47.47,0,0,0-.6,0c-.84,1.48-.8,4.28-.88,6h0c-.65.05-1.2-.35-1.73-.38-.55-.2-1.64-.24-1.9.45a.18.18,0,0,0-.1-.07s0,0,0,0h-.31c-.27,0-1.61,5.46-1.27,5.85a.45.45,0,0,0,.12.09.63.63,0,0,0,.21.86c.57.47,2.73.73,3.3.82l0,.22h0l-.18,1.59h0c-.16,1.88-.54,3.87-.74,5.67s-.69,3.77-.79,5.64l.06,0c-.1.94,1.36,1.21,2,1.09,0,.68,9.42,3.69,9-1.36l-.12,0c-.23-.77.15-1.44.19-2l.06-1c0-.46,0-1.18-.53-1.46a14.06,14.06,0,0,0-2.85-.7c.66-1.93.49-4.95.74-7,1.14.23-.23,0,.19,0,.79.07,2.59-.2,2.57-1.28.41,0,.9-3.16.94-3.38h0l.15-.66s.05,0,.05,0c.2-.22.69-1.26,0-1.3Z"/><path class="cls-1" d="M71.92,36.91l-.74,0,0,0,1,0-.24,0Z"/><path class="cls-1" d="M76,18.34a9.79,9.79,0,0,0-.78,2.76q0,.33,0,.66a.36.36,0,0,0-.17,0v0a1.09,1.09,0,0,0-.52-.13s0,0,0,0a2.15,2.15,0,0,0-.81.24c-1.44-.43-2.81-.85-2.81,1.12,0,1.48-.33,2.91-.41,4.39l.1,0a25.82,25.82,0,0,1-.33,3.6c-.21.73,3.3,1,3.8,1.11-.52,1-.36,2.77-.42,4-1.19,0-2.38,0-3.57-.07-1.3-.77-3-.64-4.53-.6.46-3.46,1-6.86,1.32-10.34.6-3.84.34-4-3.49-4.29A20.64,20.64,0,0,0,64.06,16l.14-.12c.11.28,3.32.73,3.84.77,0,0,0,0,0,0h.15a.49.49,0,0,0,.48-.38c.24-1.88.59-3.82.67-5.73A11.85,11.85,0,0,0,72,11l.24.18a6.6,6.6,0,0,1-.07,1h0a4.5,4.5,0,0,0-.16,1s0,0,0,0c-.26,1.36-1.12,4.67,1.08,4.63,1,.11,2,.15,3,.21a.58.58,0,0,0-.06.22Z"/><path class="cls-1" d="M114.15,23.79c.19-.6,0-1.49-.87-1.2-.38-1.22-5.25-2.71-5.34-2-.3,2.63-.07,6.16-1.22,8.63l.06,0c-.09.26.57-.26-.06.33l-.39-.11a.87.87,0,0,0-.38-.27h0c0-.19-1-.22-1-.22,1.16-2.74-.51-6.17.84-8.87.25-.73,0-1.06-.74-1a2.28,2.28,0,0,0-.71.32c0-.06,0-.09,0-.08s0-.26-.1-.26l-.1,0v0l-.09,0H104v0a2,2,0,0,0-.41-.11,25.07,25.07,0,0,0-2.54-.33v0a.48.48,0,0,0-.61.15l-.07.09a.23.23,0,0,0-.24,0l-.1.12c-1.48,2-2.49,17.32-1.71,17.62a1,1,0,0,0-.05.88c.48,1.33,5.7,2.41,7.13,2.49a7.06,7.06,0,0,0,1.92,0,15.22,15.22,0,0,0-.16,1.65s0,0-.07,0l-2.27-.13s0-.05-.06-.06l-1.56-.17c-1.69-.09-3.37,0-5.08-.2-1.65-.55-1.41,4.83-.31,5.57-.92,1.85,4.7,2.52,5.71,2.67,0,0,0,0,0,0,1.45.32,4.5.83,5.93.3,2.17.12,2.08-4,2.28-5.59.47-3.8,1.37-7.61,1.58-11.43a11.39,11.39,0,0,1,.29-1.89l-.11-.14a38.52,38.52,0,0,0,.36-6.08,1.65,1.65,0,0,0,.26-.93Zm-1.92,3.1c-.11.5-.21,1-.29,1.49a.11.11,0,0,1,.09.07c-.1,1.06-.28,2-.39,3l-.1,1.08h0c-1.09,4.88-1.51,10-2.16,15-3.56-.19-8,.17-11.19-1.61a26.46,26.46,0,0,0,.1-3.72c1.17.15,9.69.79,9.73,0s.11-1.48.22-2.21a1,1,0,0,0,.8-1,1.09,1.09,0,0,0-.45-.93c.06-.36-8.26-1.64-9.84-2.09l0-.55h.07a83.66,83.66,0,0,1,1.42-15.91.29.29,0,0,0,.12-.09c.39.62,2.24.45,2.9.52,0,0,0,.06,0,.08a52.22,52.22,0,0,1-.76,6.11l-.12,0c-.08.91-.21,1.8-.35,2.71q-.28.26,0,.75c.8.39,2.8-.15,3.19.35a.53.53,0,0,0,.31.16,3.71,3.71,0,0,0,1,.5c.87.43,1.29-.32,1.17-1.4h.06s.09-.06.09-.09a5.83,5.83,0,0,1,.06-.92h0c.13-2.26.63-4.61.89-6.87.82.26,1.66.49,2.47.8a1.37,1.37,0,0,0,1,.47,15.88,15.88,0,0,1-.11,4.17Z"/><path class="cls-1" d="M96.29,37.5a13,13,0,0,1-.15-5.25c.25-1.41,1-7.84-.3-8.73-1.91-1.3-5.74-1.42-8-2.15.54-2.68.25-5.64.43-8.37.07-1.15.57-3.35-.21-4.27V8.51A.55.55,0,0,0,87.65,8,29.29,29.29,0,0,0,81,7.44c-.37-.4-1.26.07-.93.71-1.2,1.57-.5,7.74-.69,9.61C79,21.4,78.72,25,78.35,28.67l0,0-.14,2.47c0,.8-.46,5.42.27,5.46h.12c1.12.06,3.55,2.08,4.95,2.54,2.69.89,1.9-3.14,1.64-4.81-.23-1.48.32-3.17.53-4.63,1.3.21,2.82.23,4,.41-.11,1.09-.16,2.18-.19,3.27l.06,0,.05,1.42s0,0,0,.07h0a.12.12,0,0,0,0,0c0,.84-.07,1.69,0,2.54h-.06c0,.11,0,.3,0,.4.65.19.25,1.71,1.77,1.18a17.9,17.9,0,0,0,3.3-.13c.78,0,1.89-.52,1.7-1.47Zm-4-.54a3.38,3.38,0,0,0-1.59.3,25,25,0,0,0,0-4.84h0c.28-5,.26-4.5-5.07-5.13A1.06,1.06,0,0,0,84.44,27h-.05l-.11-.13c-.74-.83-.93,4.7-1,5.3a28.93,28.93,0,0,0,0,4.36c-.48,0-.84-.45-1.15-.46a24,24,0,0,0-3.18-.45A33.18,33.18,0,0,0,79,32.11h0c0-1.12.06-2.23.12-3.35h0c.66-6.77,1-13.52,1.41-20.3,1.86.55,4.21.15,6.18.45a.61.61,0,0,0,.08.58s-.08.05-.08.09c-.37,4-.51,8-.94,11.94-.06,1,.85,1.54,1.59.89a29.24,29.24,0,0,0,6.8,1.71c-.45,1.46-.11,3.6-.13,5.13,0,0,0,0,0,0,0,2.52-.19,5-.07,7.49l-1.72.2Z"/><path class="cls-1" d="M62.17,22s0-.07,0-.11c.32-5-.51-10.43.38-15.3l-.06,0a3.19,3.19,0,0,0,0-.61.75.75,0,0,0-.62-.68.63.63,0,0,0-.68.21c-.66-.19-2.34-1.15-3-.53a.15.15,0,0,0-.15,0c-2,1.82-1.61,9.56-1.94,12-.76,5.84-.78,12-1.82,17.74C53.51,36.13,61,38.39,61.11,36a2.23,2.23,0,0,0,.32-1.63c0-.09.24-.19.24-.25l0-.6c.2-3.65.54-7.7.47-11.45ZM60,26.45c.44,1.09-.06,0-.07.33s-.21.65-.22.9h0a2.31,2.31,0,0,1-.1.71s.06.13.06.14l-.18,3.24a.61.61,0,0,1-.06.12,2.78,2.78,0,0,0,.11.82,3.28,3.28,0,0,1,.1,1.09c0,.08-.28.19-.29.25l0,.71h0c-1.38-.16-2.76-.48-4.11-.64.67-9.53,1.67-19.13,3-28.57a9.81,9.81,0,0,0,2.27.73h0l.42.1c-.12,2.44-.27,4.87-.4,7.32l-.35,6.23a4.22,4.22,0,0,1-.1.73c-.61,1.8.29,3.94,0,5.78Z"/><path class="cls-1" d="M53.2,36.52A7,7,0,0,0,53.3,35c-.32-.92.36-3-.84-3.27a1.08,1.08,0,0,0-.89.13,15.21,15.21,0,0,1-.07-3.67s0,0,0,0c0-1.26,1-5.21.46-6.13-.64-1.49-9.21-2.25-10.48-2.3,0,0,0-.05,0-.05a1.13,1.13,0,0,0-.78-.11.49.49,0,0,1-.31.27c-.1-.24-.68-.42-.85-.17s0,.29,0,.49l-.13,2.39s-.34,0-.34,0l-.07,1.21c0,.09.22.52.23.72-.15.37.26.44.44.45h0l0,.09c-.36,1.41,3.8,2,4.64,2.29-1-.1-5.46-1.38-4.7,1.16l.06,0c0,1.81-.29,3.67-.38,5.32h0c0,.77-1,1,0,1.52a1,1,0,0,0,.64,1.43c.89.22,1.92,0,2.84.19a33.28,33.28,0,0,0,3.45.11s0,0,.06,0c1.25,0,6.84,1.4,7-.62Zm-2.11-1.33a10.83,10.83,0,0,0-3-.17V35L45,34.85c-1.73-.1-3.3.25-5-.14,0,0,0-.07-.08-.1a6.87,6.87,0,0,0,.51-2.14.06.06,0,0,0,0,0l.06-1.09a31.41,31.41,0,0,0,0-3.28,47.31,47.31,0,0,1,4.92.42.7.7,0,0,0,.1-.12.17.17,0,0,1,.12.05.41.41,0,0,0,.3-.15,4.58,4.58,0,0,0,.33-2.37c0-.84-3.17-1-3.63-.94a3.41,3.41,0,0,0-1.63-.63v0a1.69,1.69,0,0,0-.78.16,2.34,2.34,0,0,0-.33-.16c0-.18,0-.37,0-.55h0l.2-3.59s0,0,0-.06h.22a.29.29,0,0,0,.42.2,3,3,0,0,0,1.27.24h0a5.54,5.54,0,0,0,2.31.39s0,0,.06,0c2,.21,4.19,1.14,6.19,1.61v.06c-.81,1.53-.82,3.71-.85,5.43,0,0,0,0,0,.06l0,.81s-.06,0-.08.05c0,.36,0,.73,0,1.09h0a.94.94,0,0,0,.12.36c0,.5-.13,1-.18,1.45l0,0a1.1,1.1,0,0,0,1.53,1l.08,0a5.2,5.2,0,0,0-.1.94,3.66,3.66,0,0,0,.2,1.35Z"/><path class="cls-1" d="M38.83,26.48a26.16,26.16,0,0,0-.06-4.88l0,0c0-.31.07-.63.08-1,0,0,0-.08-.26-.13a1.32,1.32,0,0,0,.05-.68q-.42-.71-1-.29c-.14-.22-.49-.58-.79-.56V19a6.7,6.7,0,0,1-3.15-.28l0,0c-2.23-.06-4.28-.84-6.52-.88h0A1.53,1.53,0,0,0,26,17.7c.05-.14,0,.19,0,.14-.71.61,2,1.16,2.17,1.14s0,0,0,0c1,.08,2,.52,3,.61.11,0,.85.14,1,.12a15.06,15.06,0,0,1,3,.28s0-.08,0-.08l.73,0a3.18,3.18,0,0,0,.66,0c.61,1.32.19,3.31.11,4.78a8.56,8.56,0,0,0,.13,2.55l0,0a5.76,5.76,0,0,0,0,.87l-1.22-.1s-.35-.28-.36-.28a21.63,21.63,0,0,0-4.65-.53c-.33-.37-.82-.51-.86.1-.27.49-.67,1.48-.08,1.94h0a.48.48,0,0,0,.45.45v-.08a1.35,1.35,0,0,0,.68-.08,5.58,5.58,0,0,0,2.71.62A6.06,6.06,0,0,0,35.4,31h0s0,0,0,0l.65.06.08.11-.22,3.91c-3.59-.46-6.9-.12-10.31-.48l0,0-.38-.06a19.53,19.53,0,0,1,0-2.77l.09,0c-.06-1.66,0-3.32.13-5h0l.46-8.26,0,0v0a.89.89,0,0,0,.09-.28c.11-.46-.56-.1-.6.17a3.38,3.38,0,0,1,.05,1.2s-.24,0-.24,0L25,22.46s0,0,0,0l0,1s0,0,0,0l-.17,3.14h0l-.16,3.59,0,0a15.5,15.5,0,0,1,0,2.44l0,0c0,.43-.3,2,.05,2.33a.84.84,0,0,0-.32.78,1.67,1.67,0,0,0,1.57,1.43l0,0h0a4.3,4.3,0,0,0,1,.08c2.57.14,5.22-.26,7.82-.11a6.45,6.45,0,0,0,.64-.12,1.07,1.07,0,0,0,1-1,.87.87,0,0,0,1-.26,4.67,4.67,0,0,0,.69-3.94s-.09,0-.09,0c.09-.7.39-2.19-.16-2.69a4,4,0,0,1,.68-.54,4,4,0,0,0,.37-2.09l0-.08Z"/><path class="cls-1" d="M22.13,30.92c-.31-2.92.12-6.44.18-9.37h0c.07-1.24.14-2.5.21-3.73l-.05-.05C23,16.44,14,16,12.55,16a4.84,4.84,0,0,0,.33-1.25h0a10.14,10.14,0,0,0,.09-1.6c0-.48.06-1,.06-1.48h0A15.36,15.36,0,0,0,13,8.77l0,0c0-.43.57-8.11-1.51-7C9.55.37,6.47.58,4.27.26Q4.13-.18,3.63.12A.89.89,0,0,0,3.3.58.3.3,0,0,0,3.1.9h0A1,1,0,0,0,3,1.3H3C2.87,3.85,2.33,6.4,2.31,9c0,0,0,0,0,0,0,1-.07,2.09-.13,3.13l0,0c-.16.86-.29,1.71-.39,2.58h0c0,.15-.12.5-.13.63a118.78,118.78,0,0,0-.78,13c0,1.16-1.47,7.11-.63,8.09A.92.92,0,0,0,1,37a19.62,19.62,0,0,0,4.29.21,15.39,15.39,0,0,0,1.89.07c2.45.14,2.31-1.1,2.11-3.19a34,34,0,0,1,.22-5.22c1.32-.15,3.09,0,4.32-.6-.18,1.94-1.06,5.07-.39,7a.88.88,0,0,0-.33.8c.14,1.53,7.72.87,8.27-.82a1,1,0,0,0,0-.74c.88-.6.86-2.75.77-3.59Zm-2,1.86a8.13,8.13,0,0,0-.23,1c-1.89.29-3.74.36-5.58.67a40.25,40.25,0,0,1,.71-7.66c.27-.66-8.87-1.73-7,1.14-1.07,1.73-1,5.28-.79,7.18-.68,0-1.32-.3-2-.34l-1.1-.06c0,.13,0,.09-.06.12-1,0-2,.14-3.05.19h0L.92,35c.48-4,.45-8.07.71-12.13S3.24,13.61,2.85,9.46C2.61,7,3.24,4.46,3.4,2h.07l0-.45h0l0-.16h0V1.09s0,0,.07.06c1.1,1,5.58.81,7,1.27-.14,1.42-.66,14.46-.14,14.49,1.4.1,2.88.7,4.17.77,2.1.12,3.92-.41,6.1-.07a7.5,7.5,0,0,1-.12,2.52s-.13,0-.13,0l0,.57c-.22,3.91.12,8-.21,12Z"/></g></g></svg>