<?xml version="1.0" encoding="utf-8"?>
<!-- Generator: Adobe Illustrator 21.0.1, SVG Export Plug-In . SVG Version: 6.00 Build 0)  -->
<svg version="1.1" id="Layer_1" xmlns="http://www.w3.org/2000/svg" xmlns:xlink="http://www.w3.org/1999/xlink" x="0px" y="0px"
	 viewBox="0 0 533 477" style="enable-background:new 0 0 533 477;" xml:space="preserve">
<style type="text/css">
	.st0{enable-background:new    ;}
	.st1{fill:#FFFFFF;}
</style>
<title>watermelon-type</title>
<g id="Layer_2">
	<g id="ELEMENTS">
		<g class="st0">
			<path class="st1" d="M107.7,323.5c-4.4,0.8-11.1,1.7-15.4,2.4c-0.7,0.1-1.3,0.4-1.9,0.5c-1.2,1.9-0.4,3.7,0.2,5.5
				c2.1,5,2.6,10.4,3.7,15.6c0.8,4,1.7,7.9,2.3,11.8c0.4,3.6-0.1,2.7,0.3,6.1c0.4,3.9,1.6,9.4,2.4,11.4c1.5-0.2,3.1-0.2,4.7-0.7
				c2.2-0.7,6-1.1,8.2-1.6c2.6-0.7,5-0.1,5.8,2.3c0.1,0.5,0.9,1.4-1.6,2.6c-3.4,1.9-8.4,3-12,4.2c-1.4,0.4-2.7,0.8-4.2,1.1
				c-0.6,3.6,1.6,13.6,1.9,16.8c0.4,3.4,0.9,6.7,1.4,9.9c0.3,3.3,1,6.5,1.6,10.1c1,0,5.4-0.3,6.2-0.8c1.6-0.7,4.7-1.1,6.2-1.6
				c2.6-0.7,4.8-0.1,7,0.9c1.3,0.6,2.3,2.1,2.2,3.2c-0.3,1.1-0.9,1.6-1.9,1.8c-2.7,0.8-19.9,3.9-23,5.4c-2.5,1.2-5.5,1.3-8.4,0.6
				c-1.1-0.3-1.7-0.4-2.4-1.3c-1.1-1.5-1.5-3.3-1.8-4.9c-1.8-13-4.4-30.8-6.3-43.8c-1.3-8.1-1.3-11.8-2.7-19.9
				c-1.3-8.5-2.9-16.9-4.4-25.3c-0.5-2.3-0.9-4.7-1.4-6.9c-0.2-1.1-0.4-2.3-0.3-3.3c-0.1-2.5,0.9-3.8,3.5-4.5
				c2.6-0.7,5.1-1.5,7.7-1.9c5.5-1,13.3-2.2,18.8-3.2c2.1-0.3,4,0.2,6.1,0.7c1.5,0.3,2.3,1.6,2.8,3.1
				C112,322.5,109.8,323,107.7,323.5z"/>
			<path class="st1" d="M124.5,313.6c3.5-0.2,5.9-0.7,7.9,2.4c2,3,2.8,6.4,4,9.7c1.6,5.1,3.1,10.3,4.7,15.4
				c2.9,8.9,8.3,23.4,11.1,32.2c3,8.7,6.5,19.6,9.5,28.3c0.2,0.3,0.6,0.6,0.6,0.9c1,0,1.1-0.7,1.1-1.2c0.8-7.8,1.1-17.8,1.2-25.7
				c0-3.3,0.5-6.7,0.4-10.1c0-8.7-0.2-17.3-0.2-25.9c0-5.2,0.3-10.2,0.3-15.4c0-1.3,0.3-2.4,1-3.5c0.8-1.3,2.9-1.8,4.2-1
				c1.1,0.5,1.4,1.3,1.4,2.5c-0.1,2.8,0,5.7,0.1,8.5c-0.1,10.2-0.2,20.3-0.3,30.5c0.1,2.5-0.2,4.9-0.4,7.2
				c-0.4,11.5-0.5,25.6-1.1,37.1c-0.1,2.4-0.6,4.8-0.9,7.1c-0.6,3.9-2.9,5.9-6.7,6.5c-1,0.2-1.8,0.3-2.6,0.4
				c-4.9,0.8-8.1-0.9-10.5-5.2c-1.2-2.2-2.2-4.3-3-6.5c-2.8-7.4-6.2-17.2-8.6-24.6c-3.3-9.5-6.1-19.2-9.6-28.7
				c-3.2-9-7.5-23.8-10.6-32.8c-0.6-1.9-1.4-3.6-1.6-5.9C117,312.7,121.8,313.6,124.5,313.6z"/>
			<path class="st1" d="M213.1,307.2c-4.4,0.8-11.1,1.7-15.4,2.4c-0.7,0.1-1.3,0.4-1.9,0.5c-1.2,1.9-0.4,3.7,0.2,5.5
				c2.1,5,2.6,10.4,3.7,15.6c0.8,4,1.7,7.9,2.3,11.8c0.4,3.6-0.1,2.7,0.3,6.1c0.4,3.9,1.6,9.4,2.4,11.4c1.5-0.2,3.1-0.2,4.7-0.7
				c2.2-0.7,6-1.1,8.2-1.6c2.6-0.7,5-0.1,5.8,2.3c0.1,0.5,0.9,1.4-1.6,2.6c-3.4,1.9-8.4,3-12,4.2c-1.4,0.4-2.7,0.8-4.2,1.1
				c-0.6,3.6,1.6,13.6,1.9,16.8c0.4,3.4,0.9,6.7,1.4,9.9c0.3,3.3,1,6.5,1.6,10.1c1,0,5.4-0.3,6.2-0.8c1.6-0.7,4.7-1.1,6.2-1.6
				c2.6-0.7,4.8-0.1,7,0.9c1.3,0.6,2.3,2.1,2.2,3.2c-0.3,1.1-0.9,1.6-1.9,1.8c-2.7,0.8-19.9,3.9-23,5.4c-2.5,1.2-5.5,1.3-8.4,0.6
				c-1.1-0.3-1.7-0.4-2.4-1.3c-1.1-1.5-1.5-3.3-1.8-4.9c-1.8-13-4.4-30.8-6.3-43.8c-1.3-8.1-1.3-11.8-2.7-19.9
				c-1.3-8.5-2.9-16.9-4.4-25.3c-0.5-2.3-0.9-4.7-1.4-6.9c-0.2-1.1-0.4-2.3-0.3-3.3c-0.1-2.5,0.9-3.8,3.5-4.5
				c2.6-0.7,5.1-1.5,7.7-1.9c5.5-1,13.3-2.2,18.8-3.2c2.1-0.3,4,0.2,6.1,0.7c1.5,0.3,2.3,1.6,2.8,3.1
				C217.4,306.2,215.2,306.7,213.1,307.2z"/>
			<path class="st1" d="M232.8,294.5c6.9-0.6,15.3,3.1,22.3,7.4c3.5,2.1,7.9,5.6,10.1,7.4c5.9,4.9,7.8,9.6,9.9,16.9
				c0.3,1.1,3,15.2,0.9,23.2c-2.1,7.7-9.2,13.4-15.1,18.5c1.6,1.9,2.9,3.9,4.9,5.6c2.7,2.4,13.3,14.8,16.2,18.8
				c1.2,1.5,2.3,2.8,3.3,4.3c0.5,0.8,0,2.3-0.5,3.2c-1.6,2.7-4.3,3.7-6.7,1.9c-1.5-1.1-2.7-2.6-3.6-3.9c-3.1-5.2-7-9.7-10.5-14.4
				c-3.3-4.3-7.4-6.9-11.4-10.4c-0.1,0.7,0.1,1.7,0.2,2.5c1.3,8.1,2.4,14.6,3.7,22.6c0.2,1.3,0.6,2.7,0.6,4.1
				c0.4,2.3-0.8,4.3-3.2,5.2c-1,0.3-1.9,0.6-2.9,0.8c-3.2,0.7-5.9-0.7-7.4-3.7c-0.6-1.4-1.1-2.8-1.3-4.3
				c-2.4-13.4-4.9-25.2-6.8-38.9c-1.8-13.7-3.7-23.7-5.9-37.4c-0.9-4.5-2.1-9-2.9-13.5c-0.7-4.4-1-6.7-1.8-11.5
				C224.3,295.8,230.8,294.6,232.8,294.5z M241.5,307.1c1.3,5.5,4.3,22.5,5,27.9c1,7.5,2,12,3.3,19.5c0.5,3.4,1.2,7,2,10.7
				c2.6-0.7,4.5-2.4,6.4-4.1c2.4-1.9,5.3-3.6,6.7-6.5c0.8-1.5,2.3-2.4,3.5-8.7c0.9-4.8,0.7-6.3,0-11c-1.1-6.2-0.6-2.9-2.2-9
				c-1.2-5.8-4.8-9.4-9.1-13.7c-0.8-0.7-1.7-1.2-2.6-1.9c-5.1-3.7-13.5-7.4-13.3-6.1C241.3,305.7,241.2,306.2,241.5,307.1z"/>
			<path class="st1" d="M330.6,290.7c-0.5,2.4-0.8,4.8-1.2,7.2c-1.8,7.9-2.8,16.6-5.1,24.4c-1.8,5.8-2.9,14.9-4.1,19.8
				c-0.8,3.1-0.4,0.9,0.1,6.3c0.4,3.4,0.6,7.1,1.1,10.6c0.8,6,1.1,4.8,2.2,10.8c1.1,6.8,1.9,11.4,3.1,18.2c0.2,1,0.3,2.1,0.3,3.1
				c0,3.2-1.6,4.7-4.9,4.9c-0.5,0.1-1,0-1.5,0.1c-5.7,0-8.1-1.9-9.2-7.1c-0.3-0.6-0.4-1.4-0.4-2.3c-0.8-7.2-2.2-12.1-3.3-19.5
				c-1.3-7.6-2.9-21.7-3.4-23.1c-0.3-1.1-7.1-11.4-9.5-16.5c-3.7-7.8-7.6-13.3-11.4-21c-1.5-3.1-3.7-5.9-5.2-9
				c-0.3-0.8-0.6-1.7-0.7-2.6c-0.2-1.1-0.2-2.3,1.1-2.8c1.1-0.7,2.2-1.2,3.6-0.4c2.7,1.4,3.7,3.6,5.4,6c1.1,1.5,2,3,2.7,4.7
				c3.4,6.8,7.7,13.5,10.8,20.5c1.3,3,2.4,6.1,5.2,8.9c0.6-1.6,1.2-3,1.6-4.4c1.8-5.8,4.3-29,5.7-35.3c0.7-2.9,1.4-5.9,3-8.5
				c2-3.1,4.1-4,8-3.1c0.4,0.1,0.7,0.2,0.9,0.4C331.7,284.2,332.3,284.5,330.6,290.7z"/>
			<path class="st1" d="M398.9,351.9c0,5.3-0.4,10.5-0.7,15.8c-0.3,3.5-0.7,7.1-1.3,10.7c-0.5,2.9-1.9,5.1-5.2,6.1
				c-3.2,1.8-4.7,2.1-7.4,2.8c-4.9,1.4-5.8,2.1-9.9,1.9c-0.2,0-0.4-0.1-0.7-0.1c-9.5-0.9-15.6-6.2-20.4-14.5
				c-5.2-9-8.7-18.6-10.5-28.9c-2.1-12.3-3.3-24.6-3.4-37.1c0-2.2-0.2-4.3-0.1-6.3c0.2-7,2-13.1,7.9-17.5c2.2-1.8,4.2-4,6.4-5.8
				c4.9-4.1,11-5.5,17.2-3.8c4.9,1.4,9,3.3,12.4,6.9c1.4,1.8,2.9,3.7,3.7,5.9c3.1,9.5,7.2,18.9,9.1,30.1
				C399.1,328.4,399,340.3,398.9,351.9z M389.4,319.3c-1.6-6.1-3.1-12.3-5-18.2c-1.4-4.6-4.1-9-5.9-13.4c-0.8-1.9-2-3.2-4-3.5
				c-1.4-0.3-2.8-0.7-4.2-1c-2.6-0.4-5.4,0.5-6.6,2.7c-3,5.3-5.8,10.9-5.3,17.1c0.4,7.8,0.1,15.5,0.9,23.2c0.9,8.9,1.7,17.7,4,26.2
				c2.1,8,5.1,15.7,9.8,22.5c0.8,1,1.5,2.1,2.3,3c2.2,2.5,4.8,3.9,8.3,2.9c3.3-1,5.6-3.7,6.3-6.6c0.4-2.9,0.9-6,1-8.8
				c0.3-5.7,0.2-11.4,0.5-17.1C391.7,338.4,391.7,328.7,389.4,319.3z"/>
			<path class="st1" d="M470.5,368.2c0.2,1.5-0.3,2.5-1.7,3.1c-0.5,0.2-0.8,0.3-1.3,0.5c-4.7,2.9-6.5,1.3-8.9-2.8
				c-0.6-0.9-1-2-1.5-3.1c-2.8-6.4-5.5-13-8.5-19.3c-6.1-12.5-12.5-25-18.9-37.4c-2.6-5.1-5.4-10-8.2-15.1c-0.2-0.3-0.4-0.6-0.6-0.9
				c-1,0.3-0.8,1-0.8,1.5c0.7,3.7,1.5,7.6,2.2,11.3c0.4,1.8,0.7,3.7,1,5.5c1.5,8.8,2.9,17.4,4.5,26.1c0.9,5.9,2.2,11.8,3.2,17.6
				c0.7,4.7,1.4,9.3,2,14c0.2,1.3,0.3,2.8-0.5,4.2c-0.9,3.6-0.7,4.9-7.3,5.6c-3.5-0.1-7.4,1.5-8.5-5.7c-0.6-3.9-1.3-8.1-2-12.2
				c-1.7-10.1-3.7-19.9-5.5-30c-0.5-2.3-0.9-4.5-1.2-6.8c-1.4-8.3-3-16.5-4.5-24.6c-1.1-6.2-2-12.2-3-18.3c-0.2-1.5-0.4-2.8-0.7-4.2
				c0-2.3,1-4.2,2.7-5.2c3.2-2.2,6.7-2.7,10.4-0.6c1.7,1.1,3.4,2.6,5,4.1c2.5,2.3,4.9,4.6,6.2,7.7c0.3,0.6,0.5,1.1,0.9,1.5
				c2.7,3.7,5,7.9,7.2,11.9c4.4,8.3,9,16.4,13.4,24.6c2.5,4.4,4.9,9.1,7.1,13.6c0.7,1.2,0.7,1.2,1.4,2.6c0.3,0.6,0.9,1.4,1.9,2.9
				c-0.4-1.4-0.6-2.7-0.8-4.2c-1.6-7.9-3.1-15.8-4.5-23.8c-1-4.5-1.8-9.2-2.5-13.9c-1-5.2-1.6-10.4-2.6-15.6
				c-0.4-2.6-0.8-5.2-1.5-7.8c-1-4.3,0.1-5.8,4.5-6.2c0.7-0.1,1.3,0,2.3-0.2c0.5,1.1,1.5,1.9,1.6,2.9c2,7.4,3.7,14.6,4.6,21.9
				c0.5,4.6,1.5,8.9,2.1,13.5c0.4,3.9,4.6,25.3,5.4,31c1.2,6.8,1.9,13.7,4.1,20.3C470.2,361.4,470.2,364.9,470.5,368.2z"/>
			<path class="st1" d="M500.7,262.8c-4.4,0.8-11.1,1.7-15.4,2.4c-0.7,0.1-1.3,0.4-1.9,0.5c-1.2,1.9-0.4,3.7,0.2,5.5
				c2.1,5,2.6,10.4,3.7,15.6c0.8,4,1.7,7.9,2.3,11.8c0.4,3.6-0.1,2.7,0.3,6.1c0.4,3.9,1.6,9.4,2.4,11.4c1.5-0.2,3.1-0.2,4.7-0.7
				c2.2-0.7,6-1.1,8.2-1.6c2.6-0.7,5-0.1,5.8,2.3c0.1,0.5,0.9,1.4-1.6,2.6c-3.4,1.9-8.4,3-12,4.2c-1.4,0.4-2.7,0.8-4.2,1.1
				c-0.6,3.6,1.6,13.6,1.9,16.8c0.4,3.4,0.9,6.7,1.4,9.9c0.3,3.3,1,6.5,1.6,10.1c1,0,5.4-0.3,6.2-0.8c1.5-0.7,4.7-1.1,6.2-1.6
				c2.6-0.7,4.8-0.1,7,0.9c1.3,0.6,2.3,2.1,2.2,3.2c-0.3,1.1-0.9,1.6-1.9,1.8c-2.7,0.8-19.9,3.9-23,5.4c-2.5,1.2-5.5,1.3-8.4,0.6
				c-1.1-0.3-1.7-0.4-2.4-1.3c-1.1-1.5-1.5-3.3-1.8-4.9c-1.8-13-4.4-30.8-6.3-43.8c-1.3-8.1-1.3-11.8-2.7-19.9
				c-1.3-8.5-2.9-16.9-4.4-25.3c-0.5-2.3-0.9-4.7-1.4-6.9c-0.2-1.1-0.4-2.3-0.3-3.3c-0.1-2.5,0.9-3.8,3.5-4.5
				c2.6-0.7,5.1-1.5,7.7-1.9c5.5-1,13.3-2.2,18.8-3.2c2.1-0.3,4,0.2,6.1,0.7c1.5,0.3,2.3,1.6,2.8,3.1
				C505,261.8,502.8,262.3,500.7,262.8z"/>
		</g>
		<g class="st0">
			<path class="st1" d="M43.2,156.6c-0.1,2.8-0.2,5.8-0.4,8.6c-0.1,1.6-0.1,3.2-0.1,5c0,3,0.1,6-1.2,8.8c-0.3,0.6-0.3,1.4-0.4,2.1
				c-0.4,2.6-4.4,5.8-7,5.4c-1.7-0.3-3.3-1.2-4.6-2.4c-1.8-1.8-2.9-3.9-3.9-6.3c-1-2.6-1.8-5.2-2.7-7.8c-1.8-5.7-3.4-11.5-5.4-17.2
				c-2.3-7.1-3.8-14.3-5.7-21.5c-2.3-8.6-3.6-17.3-7.1-25.6c-0.3-0.9-0.5-1.9-0.6-2.8c-1.1-4.1,5.4-4.3,9.2-3.6
				c1.8,0.4,3.1,1.5,3.7,3.4c2.6,7.9,5.9,15.5,7.5,23.6c0.7,4.2,2.1,8.1,3.2,12.2c0.9,3.1,1.6,6.2,2.4,9.4c0.7,2.6,1.5,5.1,2.1,7.5
				c1.1,4.4,2.1,8.6,3.3,13c0.3,0.9,0.6,1.8,1.1,3.2c0.9-2.6,0.9-4.7,0.7-6.7c-0.7-9.5-0.4-18.9-0.3-28.3c0-2.1,0.5-4.4,0.6-6.4
				c0.1-1.2,0.6-2.1,1.2-2.9c1.1-1.7,2.7-2.1,4.3-1.4c1.3,0.4,2.8,1.4,3.7,2.6c2.9,4.5,5.8,8.9,8,13.9c1.6,4,3.5,7.8,5.4,11.8
				c0,0.3,0.5,0.3,0.6,0.6c0.7-0.4,0.5-1,0.5-1.6c-0.7-6.3-1.2-12.6-1.8-19c-0.1-2.1-0.2-4.4-0.3-6.5c-0.3-8.7-0.6-17.4-0.9-26.1
				c0.1-1.1,0.1-2.3,0.4-3.3c0.3-1.1,1.1-2.2,2.2-2.5c1.3-0.4,3,0,3,1.2c0.1,4.7,0.3,9.3,0.5,14c0.4,7,0.3,14.1,0.6,21.2
				c0.2,4.1,0.9,8.3,1.3,12.5c0.4,3.9,1,7.9,1.4,11.8c0,1.1,0.2,2.1,0.1,3.2c-0.2,4.2,0.5,8.4,0.8,12.6c0.1,1.3,0.2,2.8,0.2,4.3
				c-0.1,2.3-2.1,4.4-4.2,4.6c-0.9,0.2-1.9-0.2-2.5-1.1c-1.4-1.9-2.9-3.8-3.8-5.9c-3.1-6.6-6.1-13-9.7-19.2c-1.5-2.7-2.7-5.6-4-8.4
				c-0.4-0.6-0.7-1.1-1.1-1.7c-0.3,0-0.4,0.2-0.5,0.2C43.3,148.7,43.3,152.7,43.2,156.6z"/>
			<path class="st1" d="M89.4,148.1c0,0-0.6,4.3-0.7,5.9c-0.5,5-1,9-1.5,14c-0.1,1.1-0.7,2.3-1.2,3.3c-0.6,1.2-1.3,1.6-2.6,1.4
				c-1.4-0.4-2.3-1.2-2.5-2.7c0-0.9-0.1-1.9-0.1-2.8c0.3-3.9,0.7-7.8,1-11.5c0.7-9.4,1.5-18.7,2.1-28.1c0.8-9.1,1.7-18.2,2.4-27.3
				c0.3-3.8,0.3-7.7,1-11.5c0.5-2.6,2.9-4.9,5.5-4.7c1.5,0,3,0.4,4.3,1c1.3,0.7,2.5,1.9,3,3.4c0.4,1.4,0.9,2.8,1.3,4.2
				c1.9,7.3,3.7,14.8,5.8,22c1.2,4.5,2.9,8.9,4.3,13.5c1.1,3.6,2.3,7.1,3.3,10.7c1.8,6.8,3.8,13.7,5.7,20.6c0.5,1.5,1.2,3.1,1.7,4.7
				c0.5,1.1,0.8,2.3,0.9,3.5c0.4,2.5-1,4.5-3.3,5.1c-4.2,1-8.4-1.4-10.1-5.9c-1.3-3.8-2.9-7.7-4.2-11.5c-1-2.9-1.8-5.8-2.7-8.6
				c-0.3-0.8-0.5-1.5-1-2.5C97.4,145.5,93.5,146.7,89.4,148.1z M100.6,135.1c-0.9-2.8-1.6-5.6-2.5-8.4c-1.5-4.8-2.3-9.5-3.3-14.6
				c0-0.3-1.9-7.4-2.3-7.9c-0.8,1.3-0.9,9.4-1.1,10.6c-0.5,5.7-1,11.5-1.5,17.3c-0.1,2.6-0.2,5.1-0.3,7.6c0,0.7-0.1,1.1,0,2.4
				c3.4-1.1,7.9-2.4,11.5-3.7C100.9,136.9,100.7,136,100.6,135.1z"/>
			<path class="st1" d="M148.2,79.6c-0.8,0.8-1.8,1.4-2.9,1.6c-1.8,0.4-3.8,0.8-5.5,1.2c-1.2,0.2-0.6,0.2-2.5,0.8
				c0.6,2.2,1.5,5.1,2,7.7c1,5.6,2.3,11.2,3.6,16.8c0.6,2.4,1,4.9,1.4,7.4c1.4,7.9,2.7,15.9,4.2,23.7c0.9,4.3,2.1,8.5,3,12.6
				c0.8,3.3,1.4,6.6,1.8,9.9c0.6,3.3-2.1,6.3-5.5,6.2c-2-0.1-4-0.7-5.7-1.8c-1.1-0.8-1.9-1.7-2.1-3.1c-0.4-1.4-0.8-2.9-1-4.4
				c-1.2-5.4-2.4-10.7-3.6-16.1c-1.1-5.6-2.2-11.1-3.2-16.9c-1.9-10.9-3.5-22-5.4-33.1c-0.1-1.6-0.8-4.8-1.1-5.6
				c-1.8,0.2-3.8,0.6-5.3,1.2c-1.4,0.4-2.7,0.6-4.1,0c-1.3-0.4-2.1-1.5-2.1-2.9c0.1-1.2,0.6-2.2,1.8-2.6c1.9-0.7,3.9-1.5,5.8-1.9
				c4.7-0.9,9.2-1.8,13.9-2.8c2.1-0.5,4.1-1.1,6.3-1.6c1.2-0.2,2.5-0.3,3.8-0.5c0.5,0,1.2,0.2,1.8,0.5
				C149,76.4,149.4,78.4,148.2,79.6z"/>
			<path class="st1" d="M180.2,75.7c-3.5,0.7-8.8,1.5-12.4,2.1c-0.5,0.1-1,0.3-1.5,0.4c-0.9,1.5-0.3,3,0.2,4.4
				c1.8,4,2.2,8.3,3.2,12.4c0.7,3.2,1.5,6.3,2,9.4c0.4,2.9,0,2.1,0.3,4.9c0.4,3.1,1.4,7.5,2.1,9.1c1.2-0.2,2.5-0.2,3.8-0.6
				c1.8-0.6,4.8-1,6.6-1.4c2-0.6,4-0.1,4.7,1.7c0.1,0.4,0.7,1.1-1.2,2.1c-2.7,1.5-6.7,2.5-9.6,3.5c-1.1,0.3-2.2,0.6-3.3,1
				c-0.4,2.9,1.5,10.9,1.8,13.5c0.3,2.8,0.8,5.4,1.2,8c0.3,2.6,0.9,5.2,1.4,8.1c0.8,0,4.4-0.3,5-0.7c1.2-0.6,3.7-0.9,5-1.4
				c2-0.6,3.9-0.1,5.6,0.6c1,0.5,1.9,1.7,1.8,2.5c-0.3,0.8-0.7,1.3-1.5,1.5c-2.2,0.6-15.9,3.4-18.4,4.6c-2,1-4.4,1.2-6.7,0.6
				c-0.8-0.3-1.4-0.3-1.9-1c-0.9-1.2-1.2-2.6-1.5-3.9c-1.7-10.4-4-24.6-5.6-35.1c-1.1-6.5-1.2-9.4-2.5-15.9
				c-1.2-6.8-2.6-13.5-3.9-20.2c-0.4-1.8-0.8-3.8-1.2-5.5c-0.2-0.9-0.3-1.8-0.3-2.6c-0.1-2,0.7-3.1,2.7-3.7c2-0.6,4.1-1.2,6.2-1.6
				c4.4-0.9,10.6-2,15-2.9c1.7-0.3,3.2,0.1,4.9,0.5c1.2,0.2,1.8,1.3,2.3,2.4C183.7,74.9,181.9,75.3,180.2,75.7z"/>
			<path class="st1" d="M195.9,65.3c5.5-0.5,12.3,2.3,18,5.6c2.8,1.7,6.4,4.4,8.2,5.8c4.8,3.9,6.4,7.6,8.2,13.5
				c0.3,0.9,2.6,12.1,1,18.6c-1.6,6.2-7.2,10.9-11.9,15c1.3,1.5,2.4,3.1,4,4.4c2.2,1.9,10.8,11.7,13.3,14.9c1,1.2,1.9,2.2,2.7,3.4
				c0.4,0.6,0.1,1.9-0.4,2.6c-1.2,2.2-3.4,3-5.4,1.6c-1.2-0.9-2.2-2-2.9-3.1c-2.6-4.1-5.7-7.7-8.6-11.4c-2.7-3.4-6-5.4-9.3-8.2
				c0,0.5,0.1,1.3,0.2,2c1.1,6.5,2.1,11.7,3.2,18.1c0.2,1,0.5,2.2,0.6,3.3c0.3,1.8-0.6,3.5-2.5,4.2c-0.8,0.3-1.5,0.5-2.3,0.7
				c-2.6,0.6-4.8-0.5-6-2.9c-0.5-1.1-0.9-2.3-1.1-3.4c-2.1-10.8-4.3-20.2-6-31.1c-1.6-11-3.3-19-5.3-29.9c-0.8-3.6-1.8-7.2-2.5-10.8
				c-0.6-3.5-0.9-5.3-1.6-9.2C189.1,66.4,194.3,65.4,195.9,65.3z M203.1,75.3c1.1,4.4,3.8,18,4.4,22.3c0.9,6,1.8,9.6,2.9,15.6
				c0.5,2.7,1.1,5.6,1.7,8.5c2-0.6,3.5-1.9,5-3.4c1.9-1.5,4.2-3,5.2-5.3c0.6-1.2,1.8-1.9,2.7-7c0.7-3.9,0.5-5-0.2-8.8
				c-1-4.9-0.5-2.3-1.9-7.2c-1.1-4.6-4-7.5-7.5-10.9c-0.6-0.6-1.4-1-2.1-1.5c-4.1-2.9-10.9-5.8-10.7-4.7
				C202.9,74.1,202.8,74.5,203.1,75.3z"/>
			<path class="st1" d="M243.8,59.6c1.7,0.4,2,1.7,3.2,3.7c1.3,1.9,1.6,2.5,3,4.7c1.5,1.9,3.2,6.3,4,8.6c0.4,1.3,0.9,2.3,1.5,3.4
				c2.1,3.9,4.4,7.7,6.4,11.6c1.4,3,2.8,6.1,4.1,9.1c0.9,2,1.6,4.1,2.5,6.1c0.2,0.2,0.5,0.5,0.7,0.7c0.8-0.1,0.7-0.7,0.8-1.1
				c1-8.9,2-17.9,3.2-26.8c0.5-3.3,1-6.7,1.6-10.1c0.7-3.2,1.3-6.3,2-9.3c0.6-2.1,1-4.1,3-5.2c2.6,0.1,5.3,0.2,6.2,2.7
				c2.5,3.7,2.4,5.6,3.5,8.9c1.8,5,2.6,11.7,3.6,17.1c2.2,11,4.4,21.9,6.6,32.9c1.4,6.5,2.6,12.8,4,19.1c0.2,0.9,0.2,1.7-0.2,2.5
				c-0.5,0.9-5.7,2.8-7.7,2c-3.6-1.7-4.5-4.9-5.2-8.4c-1.1-5.7-2.4-11.4-3.3-17c-2.5-12.8-4.8-25.7-7.3-38.5
				c-0.2-0.9-0.7-2.4-0.8-3.1c-0.3,0.3-0.7,1.6-0.8,1.9c-0.5,3.6-1.1,6.9-1.6,10.3c-0.6,5.9-1.2,11.7-1.9,17.6
				c-0.5,4.6-1.4,9.2-2.1,13.6c-0.3,0.3-0.5,0.5-0.7,0.5c-3.6,1.1-4.1,1.8-6.4-2.8c-3.2-6.3-5.8-12.7-8.8-19.1
				c-0.9-2.1-2.1-4.2-3.1-6.2c0-0.3-0.4-0.2-0.7-0.4c0.3,3.2,0.5,6.2,1,9.2c2,11.6,4.6,25.9,6.7,37.6c0.3,2,0.6,4.1,0.9,6.1
				c0.2,1.4-0.1,2.7-1.1,3.7c-0.5,0.5-1.2,0.9-1.8,1c-1.2,0.2-2.4,0-3.6,0.2c-1.7,0.2-3-0.5-4-2c-1.5-2.3-2.6-4.5-3.1-7.4
				c-1.3-7.7-3.2-17.9-4.6-25.5c-0.2-1-0.3-2-0.5-3c-0.6-3.8-1.3-7.5-1.9-11.2c-0.7-4.7-1.3-9.3-2.1-14c-1-5.2-2.2-10.3-3.3-15.5
				c-0.1-0.5-0.1-1.2-0.3-1.8c-0.7-2.7,0-4.8,3.2-6.3C240.1,59.6,241.9,59.1,243.8,59.6z"/>
			<path class="st1" d="M330.1,128.2c1.3-0.5,2.7-0.9,3.9-1.3c2-0.6,3.5-0.1,4.5,1.5c1,1,0.9,2.7-0.2,3.5c-0.6,0.4-1.1,0.7-1.7,1
				c-4.5,1.7-9.1,3.4-13.9,4c-1.3,0.2-2.8,0.3-4.1,0.3c-2.3,0-3.9-1.1-4.7-3.3c-0.7-1.9-1.3-3.9-1.7-6c-1.1-6.6-2.2-13.4-3.3-20.1
				c-0.9-5.3-2.1-10.5-3-15.8c-0.5-2.7-0.9-5.5-1.4-8.1c-1.4-9.9-4.5-21.3-6.5-31c-0.2-1-0.4-2.1-0.5-3c-0.4-2.1,4.2-2.3,6.2-2.3
				s3.4,0.5,4.9,1.8c1,1,1.9,2.6,2.3,3.9c1.1,4.1,2.5,9.9,3.5,14c0.7,2.7,1.5,5.5,2.1,8.3c1.2,6.4,2.3,12.9,3.6,19.3
				c0.8,4.8,1.9,9.7,2.8,14.5c1,5.6,1.7,11.5,2.5,17.1c0.1,0.8,0.4,1.4,0.7,2.7C327.7,128.9,328.9,128.6,330.1,128.2z"/>
			<path class="st1" d="M384.3,99.8c0.1,4.3-0.2,8.5-0.4,12.7c-0.2,2.8-0.5,5.7-0.9,8.6c-0.4,2.3-1.4,4.1-4.1,5
				c-2.6,1.5-3.7,1.7-5.9,2.4c-3.9,1.2-4.7,1.7-7.9,1.6c-0.1,0-0.3-0.1-0.5,0c-7.6-0.6-12.6-4.8-16.5-11.4c-4.3-7.2-7.2-14.8-8.8-23
				c-1.8-9.9-3-19.7-3.2-29.7c0-1.7-0.2-3.4-0.2-5.1c0.1-5.6,1.4-10.6,6.1-14.2c1.8-1.5,3.3-3.2,5.1-4.8c3.8-3.3,8.7-4.6,13.8-3.3
				c3.9,1.1,7.3,2.5,10,5.4c1.2,1.4,2.4,2.9,3.1,4.7c2.6,7.6,6.1,15,7.7,24C384.2,80.9,384.2,90.4,384.3,99.8z M376.2,73.7
				c-1.4-4.9-2.6-9.9-4.2-14.5c-1.2-3.7-3.4-7.2-4.9-10.7c-0.7-1.5-1.6-2.5-3.3-2.8c-1.1-0.2-2.2-0.6-3.3-0.8
				c-2.1-0.3-4.3,0.5-5.2,2.2c-2.3,4.3-4.5,8.8-4.1,13.8c0.4,6.2,0.3,12.4,1,18.6c0.8,7.1,1.6,14.2,3.6,20.9
				c1.8,6.4,4.3,12.5,8.2,17.9c0.7,0.8,1.2,1.7,1.9,2.4c1.8,2,3.9,3.1,6.7,2.2c2.7-0.9,4.4-3,5-5.4c0.3-2.3,0.6-4.8,0.7-7.1
				c0.2-4.6,0-9.1,0.2-13.7C378.3,89,378.2,81.2,376.2,73.7z"/>
			<path class="st1" d="M442,111.8c0.2,1.2-0.2,2-1.3,2.5c-0.4,0.2-0.6,0.2-1,0.4c-3.7,2.4-5.2,1.2-7.2-2.1
				c-0.5-0.7-0.8-1.6-1.2-2.5c-2.3-5.1-4.6-10.3-7.1-15.4c-5.1-10-10.4-19.9-15.7-29.7c-2.2-4-4.4-7.9-6.7-12
				c-0.2-0.2-0.4-0.5-0.5-0.7c-0.8,0.3-0.7,0.8-0.6,1.2c0.6,3,1.3,6.1,2,9c0.4,1.4,0.6,3,0.9,4.4c1.3,7,2.5,13.9,4,20.9
				c0.8,4.7,1.9,9.5,2.8,14.1c0.6,3.8,1.3,7.4,1.8,11.2c0.2,1,0.2,2.2-0.4,3.4c-0.7,2.9-0.5,4-5.8,4.6c-2.8-0.1-5.9,1.3-6.9-4.4
				c-0.5-3.1-1.1-6.5-1.8-9.7c-1.5-8-3.3-15.9-4.8-24c-0.4-1.8-0.8-3.6-1.1-5.4c-1.3-6.6-2.7-13.2-3.9-19.7c-1-4.9-1.8-9.7-2.7-14.7
				c-0.2-1.2-0.4-2.2-0.6-3.4c-0.1-1.9,0.8-3.3,2.1-4.2c2.5-1.8,5.4-2.3,8.3-0.6c1.3,0.8,2.8,2.1,4,3.2c2,1.8,4,3.6,5.1,6.1
				c0.2,0.5,0.4,0.9,0.7,1.2c2.2,3,4.2,6.3,5.9,9.4c3.7,6.6,7.5,13,11.1,19.5c2.1,3.5,4,7.2,5.9,10.8c0.6,1,0.6,1,1.2,2.1
				c0.2,0.5,0.7,1.1,1.6,2.3c-0.3-1.1-0.5-2.2-0.7-3.4c-1.4-6.3-2.7-12.7-3.9-19c-0.9-3.6-1.5-7.4-2.2-11.1
				c-0.8-4.1-1.4-8.3-2.3-12.5c-0.4-2.1-0.7-4.2-1.3-6.2c-0.9-3.5,0-4.7,3.6-5c0.5-0.1,1.1,0,1.8-0.2c0.4,0.9,1.2,1.5,1.3,2.3
				c1.7,5.9,3.2,11.6,3.9,17.5c0.5,3.7,1.4,7.1,1.9,10.8c0.4,3.1,4,20.2,4.8,24.8c1.1,5.4,1.7,10.9,3.6,16.3
				C441.6,106.4,441.6,109.2,442,111.8z"/>
		</g>
		<g class="st0">
			<path class="st1" d="M96.3,258.6c-0.1,2.8-0.2,5.8-0.4,8.6c-0.1,1.6-0.1,3.2-0.1,5c0,3,0.1,6-1.2,8.8c-0.3,0.6-0.3,1.4-0.4,2.1
				c-0.4,2.6-4.4,5.8-7,5.4c-1.7-0.3-3.3-1.2-4.6-2.4c-1.8-1.8-2.9-3.9-3.9-6.3c-1-2.6-1.8-5.2-2.7-7.8c-1.8-5.7-3.4-11.5-5.4-17.2
				c-2.3-7.1-3.8-14.3-5.7-21.5c-2.3-8.6-3.6-17.3-7.1-25.6c-0.3-0.9-0.5-1.9-0.6-2.8c-1.1-4.1,5.4-4.3,9.2-3.6
				c1.8,0.4,3.1,1.5,3.7,3.4c2.6,7.9,5.9,15.5,7.5,23.6c0.7,4.2,2.1,8.1,3.2,12.2c0.9,3.1,1.6,6.2,2.4,9.4c0.7,2.6,1.5,5.1,2.1,7.5
				c1.1,4.4,2.1,8.6,3.3,13c0.3,0.9,0.6,1.8,1.1,3.2c0.9-2.6,0.9-4.7,0.7-6.7c-0.7-9.5-0.4-18.9-0.3-28.3c0-2.1,0.5-4.4,0.6-6.4
				c0.1-1.2,0.6-2.1,1.2-2.9c1.1-1.7,2.7-2.1,4.3-1.4c1.3,0.4,2.8,1.4,3.7,2.6c2.9,4.5,5.8,8.9,8,13.9c1.6,4,3.5,7.8,5.4,11.8
				c0,0.3,0.5,0.3,0.6,0.6c0.7-0.4,0.5-1,0.5-1.6c-0.7-6.3-1.2-12.6-1.8-19c-0.1-2.1-0.2-4.4-0.3-6.5c-0.3-8.7-0.6-17.4-0.9-26.1
				c0.1-1.1,0.1-2.3,0.4-3.3c0.3-1.1,1.1-2.2,2.2-2.5c1.3-0.4,3,0,3,1.2c0.1,4.7,0.3,9.3,0.5,14c0.4,7,0.3,14.1,0.6,21.2
				c0.2,4.1,0.9,8.3,1.3,12.5c0.4,3.9,1,7.9,1.4,11.8c0,1.1,0.2,2.1,0.1,3.2c-0.2,4.2,0.5,8.4,0.8,12.6c0.1,1.3,0.2,2.8,0.2,4.3
				c-0.1,2.3-2.1,4.4-4.2,4.6c-0.9,0.2-1.9-0.2-2.5-1.1c-1.4-1.9-2.9-3.8-3.8-5.9c-3.1-6.6-6.1-13-9.7-19.2c-1.5-2.7-2.7-5.6-4-8.4
				c-0.4-0.6-0.7-1.1-1.1-1.7c-0.3,0-0.4,0.2-0.5,0.2C96.4,250.6,96.4,254.7,96.3,258.6z"/>
			<path class="st1" d="M142.5,250.1c0,0-0.6,4.3-0.7,5.9c-0.5,5-1,9-1.5,14c-0.1,1.1-0.7,2.3-1.2,3.3c-0.6,1.2-1.3,1.6-2.6,1.4
				c-1.4-0.4-2.3-1.2-2.5-2.7c0-0.9-0.1-1.9-0.1-2.8c0.3-3.9,0.7-7.8,1-11.5c0.7-9.4,1.5-18.7,2.1-28.1c0.8-9.1,1.7-18.2,2.4-27.3
				c0.3-3.8,0.3-7.7,1-11.5c0.5-2.6,2.9-4.9,5.5-4.7c1.5,0,3,0.4,4.3,1c1.3,0.7,2.5,1.9,3,3.4c0.4,1.4,0.9,2.8,1.3,4.2
				c1.9,7.3,3.7,14.8,5.8,22c1.2,4.5,2.9,8.9,4.3,13.5c1.1,3.6,2.3,7.1,3.3,10.7c1.8,6.8,3.8,13.7,5.7,20.6c0.5,1.5,1.2,3.1,1.7,4.7
				c0.5,1.1,0.8,2.3,0.9,3.5c0.4,2.5-1,4.5-3.3,5.1c-4.2,1-8.4-1.4-10.1-5.9c-1.3-3.8-2.9-7.7-4.2-11.5c-1-2.9-1.8-5.9-2.7-8.6
				c-0.3-0.8-0.5-1.5-1-2.5C150.5,247.5,146.5,248.7,142.5,250.1z M153.7,237.1c-0.9-2.8-1.6-5.6-2.5-8.4c-1.5-4.8-2.3-9.5-3.3-14.6
				c0-0.3-1.9-7.4-2.3-7.9c-0.8,1.3-0.9,9.4-1.1,10.6c-0.5,5.7-1,11.5-1.5,17.3c-0.1,2.6-0.2,5.1-0.3,7.6c0,0.7-0.1,1.1,0,2.4
				c3.4-1.1,7.9-2.4,11.5-3.7C154,238.9,153.8,238,153.7,237.1z"/>
			<path class="st1" d="M201.3,181.6c-0.8,0.8-1.8,1.4-2.9,1.6c-1.8,0.4-3.8,0.8-5.5,1.2c-1.2,0.2-0.6,0.2-2.5,0.8
				c0.6,2.2,1.5,5.1,2,7.7c1,5.6,2.3,11.2,3.6,16.8c0.6,2.4,1,4.9,1.4,7.4c1.4,7.9,2.7,15.9,4.2,23.7c0.9,4.3,2.1,8.5,3,12.6
				c0.8,3.3,1.4,6.6,1.8,9.9c0.6,3.3-2.1,6.3-5.5,6.2c-2-0.1-4-0.7-5.7-1.8c-1.1-0.8-1.9-1.7-2.1-3.1c-0.4-1.4-0.8-2.9-1-4.4
				c-1.2-5.4-2.4-10.7-3.6-16.1c-1.1-5.6-2.2-11.1-3.2-16.9c-1.9-10.9-3.5-22-5.4-33.1c-0.1-1.6-0.8-4.8-1.1-5.6
				c-1.8,0.2-3.8,0.6-5.3,1.2c-1.4,0.4-2.7,0.6-4.1,0c-1.3-0.4-2.1-1.5-2.1-2.9c0.1-1.2,0.6-2.2,1.8-2.6c1.9-0.7,3.9-1.5,5.8-1.9
				c4.7-0.9,9.2-1.8,13.9-2.8c2.1-0.5,4.1-1.1,6.3-1.6c1.2-0.2,2.5-0.3,3.8-0.5c0.5,0,1.2,0.2,1.8,0.5
				C202.1,178.4,202.4,180.3,201.3,181.6z"/>
			<path class="st1" d="M233.3,177.7c-3.5,0.7-8.8,1.5-12.4,2.1c-0.5,0.1-1,0.3-1.5,0.4c-0.9,1.5-0.3,3,0.2,4.4
				c1.8,4,2.2,8.3,3.2,12.4c0.7,3.2,1.5,6.3,2,9.4c0.4,2.9,0,2.1,0.3,4.9c0.4,3.1,1.4,7.5,2.1,9.1c1.2-0.2,2.5-0.2,3.8-0.6
				c1.8-0.6,4.8-1,6.6-1.4c2-0.6,4-0.1,4.7,1.7c0.1,0.4,0.7,1.1-1.2,2.1c-2.7,1.5-6.7,2.5-9.6,3.5c-1.1,0.3-2.2,0.6-3.3,1
				c-0.4,2.9,1.5,10.9,1.8,13.5c0.3,2.8,0.8,5.4,1.2,8c0.3,2.6,0.9,5.2,1.4,8.1c0.8,0,4.4-0.3,5-0.7c1.2-0.6,3.7-0.9,5-1.4
				c2-0.6,3.9-0.1,5.6,0.6c1,0.5,1.9,1.7,1.8,2.5c-0.3,0.8-0.7,1.3-1.5,1.5c-2.2,0.6-15.9,3.4-18.4,4.6c-2,1-4.4,1.2-6.7,0.6
				c-0.8-0.3-1.4-0.3-1.9-1c-0.9-1.2-1.2-2.6-1.5-3.9c-1.7-10.4-4-24.6-5.6-35.1c-1.1-6.5-1.2-9.4-2.5-15.9
				c-1.2-6.8-2.6-13.5-3.9-20.2c-0.4-1.8-0.8-3.8-1.2-5.5c-0.2-0.9-0.3-1.8-0.3-2.6c-0.1-2,0.7-3.1,2.7-3.7c2-0.6,4.1-1.2,6.2-1.6
				c4.4-0.9,10.6-2,15-2.9c1.7-0.3,3.2,0.1,4.9,0.5c1.2,0.2,1.8,1.3,2.3,2.4C236.8,176.8,235,177.3,233.3,177.7z"/>
			<path class="st1" d="M248.9,167.3c5.5-0.5,12.3,2.3,18,5.6c2.8,1.7,6.4,4.4,8.2,5.8c4.8,3.9,6.4,7.6,8.2,13.5
				c0.3,0.9,2.6,12.1,1,18.6c-1.6,6.2-7.2,10.9-11.9,15c1.3,1.5,2.4,3.1,4,4.4c2.2,1.9,10.8,11.7,13.3,14.9c1,1.2,1.9,2.2,2.7,3.4
				c0.4,0.6,0.1,1.9-0.4,2.6c-1.2,2.2-3.4,3-5.4,1.6c-1.2-0.9-2.2-2-2.9-3.1c-2.6-4.1-5.7-7.7-8.6-11.4c-2.7-3.4-6-5.4-9.3-8.2
				c0,0.5,0.1,1.3,0.2,2c1.1,6.5,2.1,11.7,3.2,18.1c0.2,1,0.5,2.2,0.6,3.3c0.3,1.8-0.6,3.5-2.5,4.2c-0.8,0.3-1.5,0.5-2.3,0.7
				c-2.6,0.6-4.8-0.5-6-2.9c-0.5-1.1-0.9-2.3-1.1-3.4c-2.1-10.8-4.3-20.2-6-31.1c-1.6-11-3.3-19-5.3-29.9c-0.8-3.6-1.8-7.2-2.5-10.8
				c-0.6-3.5-0.9-5.3-1.6-9.2C242.2,168.4,247.4,167.4,248.9,167.3z M256.1,177.3c1.1,4.4,3.8,18,4.4,22.3c0.9,6,1.8,9.6,2.9,15.6
				c0.5,2.7,1.1,5.6,1.7,8.5c2-0.6,3.5-1.9,5-3.4c1.9-1.5,4.2-3,5.2-5.3c0.6-1.2,1.8-1.9,2.7-7c0.7-3.9,0.5-5-0.2-8.8
				c-1-4.9-0.5-2.3-1.9-7.2c-1.1-4.6-4-7.5-7.5-10.9c-0.6-0.6-1.4-1-2.1-1.5c-4.1-2.9-10.9-5.8-10.7-4.7
				C255.9,176.1,255.9,176.5,256.1,177.3z"/>
			<path class="st1" d="M349.1,156.2c-0.8,0.9-1.7,1.6-3,2c-5.4,1.6-10.6,3.2-15.8,4.7c-0.1,0.2-0.3,0.3-1,0.7
				c0.1,0.7,0.1,1.3,0.2,2c2.7,12,5.1,20.3,7.2,32.4c0,0.3,0,0.5,0.3,0.9c1.8-0.6,4-1,5.8-1.4c3.3-0.8,8.1-2.2,8.8-1
				c0.5,0.8,1.3,3,0.6,3.6c-1.5,1.5-0.6,0.9-5.6,2.3c-1.5,0.1-6,1.4-6.9,1.9c-1.3,0.5-1.8,0.4-1.4,2.8c0.6,3.4,1.8,10.4,2.2,13.8
				c1.1,6.4,2.1,12.9,2.9,19.3c0.5,2.7-0.9,4.7-3.6,5.4c-0.7,0.1-1.4,0.4-2.2,0.4c-2.4,0.3-4.3-0.7-5.2-2.9
				c-0.5-1.4-0.9-2.7-1.1-4.1c-1.6-9.5-3.9-22.8-5.5-32.3c-1.6-9.1-2.5-14.4-4.2-23.4c-1-5.6-2.3-11-3.5-16.4
				c-0.2-1.3-0.4-2.6-0.6-3.8c-0.1-0.8-0.3-1.6-0.3-2.4c0.1-3.2,1.4-4.9,4.7-4.4c4.4,0.5,8.2-0.6,12.2-2.1c2-0.6,4.2-1,6.3-1.6
				c2.5-0.8,5-0.5,7.4,0.2C349.5,153.3,350.1,154.9,349.1,156.2z"/>
			<path class="st1" d="M406.6,207c0.1,4.3-0.2,8.5-0.4,12.7c-0.2,2.8-0.5,5.7-0.9,8.6c-0.4,2.3-1.4,4.1-4.1,5
				c-2.6,1.5-3.7,1.7-5.9,2.4c-3.9,1.2-4.7,1.7-7.9,1.6c-0.1,0-0.3-0.1-0.5,0c-7.6-0.6-12.6-4.8-16.5-11.4c-4.3-7.2-7.2-14.8-8.8-23
				c-1.8-9.9-3-19.7-3.2-29.7c0-1.7-0.2-3.4-0.2-5.1c0.1-5.6,1.4-10.6,6.1-14.2c1.8-1.5,3.3-3.2,5.1-4.8c3.8-3.3,8.7-4.6,13.8-3.3
				c3.9,1.1,7.3,2.5,10,5.4c1.2,1.4,2.4,2.9,3.1,4.7c2.6,7.6,6.1,15,7.7,24C406.4,188.2,406.4,197.7,406.6,207z M398.5,181
				c-1.4-4.9-2.6-9.9-4.2-14.5c-1.2-3.7-3.4-7.2-4.9-10.7c-0.7-1.5-1.6-2.5-3.3-2.8c-1.1-0.2-2.2-0.6-3.3-0.8
				c-2.1-0.3-4.3,0.5-5.2,2.2c-2.3,4.3-4.5,8.8-4.1,13.8c0.4,6.2,0.3,12.4,1,18.6c0.8,7.1,1.6,14.2,3.6,20.9
				c1.8,6.4,4.3,12.5,8.2,17.9c0.7,0.8,1.2,1.7,1.9,2.4c1.8,2,3.9,3.1,6.7,2.2c2.7-0.9,4.4-3,5-5.4c0.3-2.3,0.6-4.8,0.7-7.1
				c0.2-4.6,0-9.1,0.2-13.7C400.6,196.3,400.4,188.5,398.5,181z"/>
			<path class="st1" d="M412.1,139.3c5.5-0.5,12.3,2.3,18,5.6c2.8,1.7,6.4,4.4,8.2,5.8c4.8,3.9,6.4,7.6,8.2,13.5
				c0.3,0.9,2.6,12.1,1,18.6c-1.6,6.2-7.2,10.9-11.9,15c1.3,1.5,2.4,3.1,4,4.4c2.2,1.9,10.8,11.7,13.3,14.9c1,1.2,1.9,2.2,2.7,3.4
				c0.4,0.6,0.1,1.9-0.4,2.6c-1.2,2.2-3.4,3-5.4,1.6c-1.2-0.9-2.2-2-2.9-3.1c-2.6-4.1-5.7-7.7-8.6-11.4c-2.7-3.4-6-5.4-9.3-8.2
				c0,0.5,0.1,1.3,0.2,2c1.1,6.5,2.1,11.7,3.2,18.1c0.2,1,0.5,2.2,0.6,3.3c0.3,1.8-0.6,3.5-2.5,4.2c-0.8,0.3-1.5,0.5-2.3,0.7
				c-2.6,0.6-4.8-0.5-6-2.9c-0.5-1.1-0.9-2.3-1.1-3.4c-2.1-10.8-4.3-20.2-6-31.1c-1.6-11-3.3-19-5.3-29.9c-0.8-3.6-1.8-7.2-2.5-10.8
				c-0.6-3.5-0.9-5.3-1.6-9.2C405.3,140.4,410.5,139.4,412.1,139.3z M419.3,149.3c1.2,4.4,3.8,18,4.4,22.3c0.9,6,1.8,9.6,2.9,15.6
				c0.5,2.7,1.1,5.6,1.7,8.5c2-0.6,3.5-1.9,5-3.4c1.9-1.5,4.2-3,5.2-5.3c0.6-1.2,1.8-1.9,2.7-7c0.7-3.9,0.5-5-0.2-8.8
				c-1-4.9-0.5-2.3-1.9-7.2c-1.1-4.6-4-7.5-7.5-10.9c-0.6-0.6-1.4-1-2.1-1.5c-4.1-2.9-10.9-5.8-10.7-4.7
				C419.1,148.1,419,148.5,419.3,149.3z"/>
		</g>
	</g>
</g>
</svg>
