<?xml version="1.0" encoding="utf-8"?>
<!-- Generator: Adobe Illustrator 19.0.0, SVG Export Plug-In . SVG Version: 6.00 Build 0)  -->
<svg version="1.1" id="Layer_1" xmlns="http://www.w3.org/2000/svg" xmlns:xlink="http://www.w3.org/1999/xlink" x="0px" y="0px"
	 viewBox="0 0 534.151 402.294" style="enable-background:new 0 0 534.151 402.294;" xml:space="preserve">
<style type="text/css">
	.st0{fill:#FFFFFF;}
</style>
<g>
	<path class="st0" d="M122.07,294.443c-4.365,0.842-11.057,1.709-15.448,2.387c-0.65,0.101-1.276,0.364-1.926,0.465
		c-1.212,1.853-0.423,3.727,0.179,5.466c2.105,5.002,2.609,10.419,3.738,15.572c0.791,4.039,1.719,7.892,2.322,11.794
		c0.39,3.604-0.086,2.678,0.279,6.117c0.441,3.929,1.62,9.406,2.434,11.444c1.463-0.227,3.14-0.152,4.715-0.729
		c2.226-0.677,5.991-1.092,8.243-1.606c2.552-0.728,4.979-0.104,5.844,2.261c0.075,0.488,0.877,1.363-1.599,2.577
		c-3.376,1.854-8.367,2.958-12.006,4.187c-1.438,0.389-2.714,0.752-4.152,1.142c-0.611,3.591,1.598,13.571,1.938,16.85
		c0.365,3.438,0.867,6.69,1.37,9.942c0.34,3.278,1.005,6.504,1.558,10.082c1.001,0.013,5.441-0.341,6.204-0.791
		c1.551-0.741,4.665-1.054,6.241-1.632c2.551-0.727,4.816-0.077,6.968,0.922c1.264,0.637,2.328,2.138,2.154,3.163
		c-0.337,1.051-0.912,1.639-1.888,1.79c-2.714,0.753-19.875,3.903-22.976,5.382c-2.476,1.215-5.453,1.343-8.393,0.631
		c-1.051-0.337-1.727-0.399-2.365-1.3c-1.064-1.5-1.503-3.264-1.754-4.889c-1.848-13.034-4.424-30.784-6.271-43.817
		c-1.256-8.13-1.321-11.783-2.74-19.889c-1.307-8.455-2.938-16.859-4.407-25.29c-0.514-2.252-0.891-4.69-1.406-6.941
		c-0.176-1.139-0.352-2.277-0.34-3.278c-0.052-2.488,0.911-3.803,3.462-4.53c2.552-0.727,5.103-1.453,7.705-1.855
		c5.503-1.018,13.308-2.224,18.812-3.24c2.114-0.326,4.028,0.21,6.105,0.721c1.539,0.262,2.253,1.649,2.804,3.063
		C126.41,293.439,124.159,293.955,122.07,294.443z"/>
	<path class="st0" d="M138.85,284.525c3.465-0.202,5.879-0.742,7.87,2.446c1.966,3.026,2.819,6.39,3.997,9.705
		c1.617,5.077,3.097,10.343,4.714,15.421c2.87,8.88,8.271,23.361,11.142,32.241c3.008,8.692,6.531,19.637,9.539,28.327
		c0.213,0.301,0.588,0.575,0.639,0.9c1.001,0.013,1.063-0.663,1.15-1.177c0.796-7.78,1.077-17.813,1.197-25.657
		c-0.015-3.327,0.458-6.73,0.444-10.058c-0.006-8.656-0.174-17.288-0.18-25.945c0.034-5.165,0.256-10.194,0.29-15.36
		c-0.038-1.326,0.299-2.377,0.961-3.479c0.8-1.289,2.889-1.779,4.178-0.979c1.076,0.5,1.365,1.288,1.378,2.451
		c-0.061,2.839,0.041,5.653,0.143,8.469c-0.093,10.17-0.187,20.34-0.28,30.51c0.052,2.49-0.247,4.866-0.383,7.218
		c-0.38,11.548-0.546,25.558-1.089,37.13c-0.136,2.351-0.597,4.753-0.896,7.131c-0.56,3.915-2.911,5.944-6.651,6.521
		c-0.976,0.151-1.789,0.277-2.602,0.402c-4.878,0.754-8.132-0.908-10.461-5.21c-1.165-2.151-2.167-4.326-3.006-6.527
		c-2.807-7.392-6.154-17.196-8.635-24.639c-3.296-9.48-6.13-19.197-9.588-28.651c-3.221-8.993-7.509-23.813-10.567-32.831
		c-0.627-1.902-1.391-3.614-1.58-5.916C131.394,283.679,136.198,284.603,138.85,284.525z"/>
	<path class="st0" d="M227.437,278.162c-4.365,0.842-11.057,1.708-15.448,2.387c-0.65,0.101-1.276,0.364-1.926,0.465
		c-1.212,1.852-0.423,3.727,0.179,5.466c2.105,5.002,2.609,10.418,3.738,15.572c0.791,4.039,1.719,7.892,2.322,11.794
		c0.39,3.603-0.086,2.678,0.279,6.117c0.44,3.928,1.62,9.406,2.434,11.444c1.463-0.227,3.14-0.152,4.716-0.729
		c2.226-0.678,5.991-1.092,8.243-1.607c2.551-0.727,4.979-0.103,5.844,2.261c0.075,0.488,0.876,1.363-1.6,2.578
		c-3.376,1.854-8.367,2.958-12.006,4.187c-1.438,0.389-2.714,0.752-4.152,1.141c-0.611,3.592,1.598,13.572,1.938,16.85
		c0.365,3.439,0.867,6.691,1.37,9.943c0.34,3.278,1.005,6.504,1.558,10.082c1.001,0.013,5.442-0.341,6.204-0.792
		c1.551-0.74,4.665-1.054,6.241-1.631c2.551-0.728,4.816-0.077,6.968,0.922c1.264,0.637,2.328,2.137,2.154,3.163
		c-0.337,1.051-0.912,1.639-1.888,1.789c-2.714,0.754-19.875,3.904-22.976,5.383c-2.476,1.215-5.453,1.342-8.393,0.631
		c-1.051-0.337-1.727-0.399-2.365-1.3c-1.064-1.5-1.503-3.264-1.754-4.889c-1.848-13.034-4.424-30.784-6.271-43.818
		c-1.256-8.13-1.321-11.782-2.74-19.888c-1.307-8.455-2.938-16.86-4.407-25.29c-0.514-2.252-0.891-4.69-1.406-6.941
		c-0.176-1.139-0.352-2.277-0.34-3.278c-0.052-2.489,0.911-3.804,3.462-4.53s5.103-1.454,7.705-1.855
		c5.503-1.018,13.308-2.224,18.812-3.24c2.114-0.326,4.028,0.21,6.105,0.721c1.539,0.262,2.253,1.649,2.804,3.063
		C231.777,277.158,229.526,277.673,227.437,278.162z"/>
	<path class="st0" d="M247.117,265.464c6.905-0.566,15.301,3.13,22.284,7.38c3.491,2.123,7.86,5.611,10.137,7.423
		c5.92,4.913,7.812,9.614,9.944,16.944c0.338,1.112,3.012,15.184,0.916,23.166c-2.146,7.657-9.248,13.416-15.124,18.486
		c1.627,1.914,2.93,3.876,4.857,5.576c2.704,2.413,13.27,14.766,16.225,18.804c1.227,1.476,2.266,2.813,3.33,4.313
		c0.451,0.763,0.027,2.326-0.498,3.239c-1.574,2.741-4.263,3.657-6.704,1.869c-1.502-1.1-2.729-2.575-3.605-3.938
		c-3.131-5.177-6.999-9.74-10.542-14.353c-3.33-4.314-7.385-6.852-11.428-10.388c-0.062,0.674,0.089,1.649,0.214,2.463
		c1.256,8.13,2.424,14.609,3.655,22.578c0.201,1.301,0.59,2.738,0.628,4.064c0.352,2.276-0.835,4.291-3.199,5.156
		c-0.951,0.313-1.901,0.627-2.877,0.777c-3.227,0.665-5.943-0.746-7.396-3.686c-0.551-1.413-1.103-2.826-1.329-4.289
		c-2.411-13.446-4.895-25.217-6.844-38.9c-1.785-13.709-3.668-23.74-5.942-37.375c-0.866-4.527-2.057-9.005-2.924-13.533
		c-0.678-4.39-1.03-6.667-1.784-11.544C238.662,266.771,245.141,265.604,247.117,265.464z M255.895,278.093
		c1.342,5.453,4.306,22.478,4.972,27.867c0.993,7.505,2.022,12.009,3.34,19.463c0.528,3.416,1.243,6.967,1.984,10.682
		c2.551-0.727,4.464-2.354,6.352-4.145c2.376-1.865,5.264-3.644,6.651-6.521c0.775-1.452,2.3-2.354,3.484-8.697
		c0.923-4.803,0.696-6.268-0.032-10.982c-1.117-6.153-0.615-2.901-2.22-8.981c-1.23-5.802-4.785-9.415-9.116-13.741
		c-0.776-0.712-1.69-1.236-2.628-1.925c-5.069-3.712-13.465-7.408-13.264-6.107C255.668,276.63,255.581,277.143,255.895,278.093z"/>
	<path class="st0" d="M344.924,261.672c-0.461,2.402-0.76,4.78-1.221,7.182c-1.771,7.933-2.766,16.576-5.05,24.421
		c-1.773,5.769-2.855,14.926-4.103,19.781c-0.849,3.127-0.362,0.888,0.142,6.304c0.365,3.44,0.593,7.067,1.145,10.645
		c0.767,6.042,1.079,4.828,2.171,10.819c1.055,6.83,1.922,11.358,3.14,18.163c0.151,0.975,0.327,2.113,0.315,3.114
		c-0.01,3.165-1.598,4.742-4.901,4.919c-0.488,0.075-1.001-0.012-1.489,0.063c-5.654,0.042-8.12-1.909-9.249-7.062
		c-0.263-0.626-0.389-1.439-0.352-2.276c-0.78-7.205-2.21-12.146-3.34-19.463c-1.344-7.617-2.854-21.702-3.405-23.115
		c-0.338-1.112-7.088-11.391-9.543-16.506c-3.696-7.754-7.552-13.317-11.41-21.046c-1.478-3.101-3.744-5.915-5.222-9.016
		c-0.288-0.788-0.602-1.739-0.727-2.552c-0.176-1.138-0.189-2.302,1.062-2.828c1.063-0.663,2.151-1.164,3.602-0.39
		c2.715,1.411,3.718,3.588,5.421,5.989c1.064,1.499,1.966,3.024,2.73,4.739c3.382,6.803,7.74,13.454,10.822,20.47
		c1.29,2.964,2.443,6.116,5.197,8.854c0.587-1.589,1.199-3.016,1.648-4.417c1.773-5.768,4.347-28.974,5.693-35.343
		c0.711-2.94,1.422-5.881,3.022-8.457c2.012-3.143,4.05-3.957,8.016-3.072c0.35,0.113,0.701,0.225,0.889,0.363
		C346.083,255.167,346.622,255.417,344.924,261.672z"/>
	<path class="st0" d="M413.314,322.861c-0.009,5.328-0.368,10.545-0.728,15.761c-0.285,3.542-0.733,7.106-1.344,10.698
		c-0.548,2.914-1.873,5.117-5.212,6.133c-3.214,1.828-4.677,2.054-7.391,2.807c-4.94,1.429-5.841,2.068-9.869,1.857
		c-0.163,0.025-0.35-0.111-0.676-0.062c-9.458-0.869-15.616-6.244-20.387-14.498c-5.222-9.016-8.706-18.634-10.452-28.852
		c-2.072-12.333-3.306-24.629-3.402-37.101c-0.001-2.165-0.165-4.303-0.142-6.305c0.246-7.03,1.968-13.123,7.944-17.545
		c2.213-1.839,4.213-3.979,6.426-5.82c4.864-4.081,10.967-5.523,17.223-3.826c4.88,1.41,8.997,3.271,12.389,6.91
		c1.44,1.774,2.905,3.713,3.744,5.914c3.134,9.505,7.243,18.859,9.139,30.054C413.511,299.356,413.344,311.202,413.314,322.861z
		 M403.773,290.205c-1.605-6.079-3.073-12.346-4.978-18.21c-1.379-4.615-4.059-9.03-5.901-13.405
		c-0.789-1.877-1.991-3.189-4.043-3.538c-1.376-0.287-2.778-0.736-4.154-1.023c-2.565-0.437-5.416,0.504-6.578,2.682
		c-3.011,5.294-5.81,10.887-5.343,17.141c0.368,7.769,0.06,15.474,0.916,23.168c0.869,8.855,1.738,17.711,4.045,26.179
		c2.069,8.005,5.089,15.696,9.797,22.461c0.826,1.037,1.49,2.1,2.291,2.975c2.216,2.489,4.769,3.926,8.271,2.885
		c3.339-1.016,5.589-3.694,6.3-6.634c0.386-2.89,0.909-5.968,0.97-8.808c0.284-5.705,0.243-11.358,0.526-17.064
		C406.062,309.33,406.068,299.674,403.773,290.205z"/>
	<path class="st0" d="M484.915,339.101c0.226,1.464-0.273,2.54-1.687,3.092c-0.463,0.237-0.788,0.287-1.251,0.525
		c-4.714,2.894-6.454,1.331-8.921-2.783c-0.638-0.899-0.977-2.013-1.478-3.102c-2.819-6.391-5.5-12.969-8.482-19.334
		c-6.1-12.543-12.526-25.035-18.927-37.365c-2.618-5.09-5.373-9.992-8.154-15.057c-0.213-0.3-0.426-0.6-0.639-0.9
		c-0.95,0.314-0.85,0.965-0.775,1.452c0.74,3.715,1.506,7.593,2.247,11.308c0.439,1.763,0.74,3.715,1.017,5.503
		c1.519,8.755,2.851,17.373,4.533,26.104c0.905,5.854,2.16,11.819,3.227,17.647c0.729,4.716,1.432,9.27,1.998,14.01
		c0.201,1.302,0.265,2.79-0.51,4.241c-0.936,3.641-0.735,4.942-7.289,5.622c-3.515-0.124-7.43,1.481-8.535-5.673
		c-0.603-3.903-1.256-8.132-2.047-12.172c-1.72-10.057-3.741-19.899-5.461-29.956c-0.514-2.251-0.866-4.527-1.218-6.805
		c-1.444-8.268-3.051-16.51-4.469-24.614c-1.117-6.155-2.047-12.172-3.002-18.351c-0.226-1.463-0.427-2.764-0.653-4.228
		c-0.026-2.326,1.023-4.153,2.686-5.243c3.164-2.152,6.741-2.705,10.395-0.607c1.665,1.075,3.404,2.637,4.956,4.062
		c2.516,2.275,4.869,4.575,6.185,7.701c0.263,0.626,0.501,1.089,0.902,1.525c2.742,3.739,5.047,7.879,7.163,11.88
		c4.446,8.303,9.03,16.42,13.451,24.561c2.517,4.438,4.897,9.064,7.089,13.555c0.689,1.226,0.689,1.226,1.403,2.612
		c0.263,0.626,0.877,1.364,1.941,2.865c-0.389-1.439-0.59-2.74-0.816-4.203c-1.556-7.918-3.113-15.834-4.506-23.777
		c-1.029-4.503-1.758-9.219-2.486-13.934c-0.967-5.179-1.608-10.407-2.575-15.586c-0.402-2.602-0.804-5.203-1.531-7.755
		c-1.004-4.34,0.096-5.841,4.537-6.195c0.651-0.101,1.326-0.038,2.302-0.188c0.501,1.088,1.465,1.938,1.616,2.914
		c1.969,7.354,3.75,14.57,4.555,21.938c0.541,4.579,1.545,8.919,2.085,13.496c0.441,3.929,4.57,25.267,5.45,30.958
		c1.218,6.805,1.948,13.684,4.142,20.338C484.535,332.333,484.575,335.824,484.915,339.101z"/>
	<path class="st0" d="M515.078,233.715c-4.365,0.842-11.057,1.709-15.448,2.387c-0.65,0.101-1.276,0.364-1.926,0.465
		c-1.212,1.853-0.423,3.727,0.179,5.466c2.105,5.002,2.609,10.419,3.738,15.572c0.791,4.039,1.719,7.892,2.322,11.794
		c0.39,3.604-0.086,2.678,0.279,6.117c0.441,3.929,1.62,9.406,2.434,11.444c1.464-0.227,3.14-0.152,4.716-0.729
		c2.226-0.677,5.991-1.092,8.243-1.606c2.551-0.728,4.979-0.104,5.844,2.261c0.075,0.488,0.877,1.363-1.599,2.577
		c-3.376,1.854-8.367,2.958-12.006,4.187c-1.438,0.389-2.714,0.752-4.152,1.142c-0.611,3.591,1.598,13.571,1.938,16.85
		c0.365,3.438,0.867,6.69,1.37,9.942c0.34,3.278,1.005,6.504,1.558,10.082c1.001,0.013,5.441-0.341,6.204-0.791
		c1.551-0.741,4.665-1.054,6.241-1.632c2.551-0.727,4.816-0.077,6.968,0.922c1.264,0.637,2.328,2.138,2.154,3.163
		c-0.337,1.051-0.912,1.639-1.888,1.79c-2.714,0.753-19.875,3.903-22.976,5.382c-2.476,1.215-5.453,1.343-8.393,0.631
		c-1.051-0.337-1.727-0.399-2.365-1.3c-1.064-1.5-1.503-3.264-1.755-4.889c-1.848-13.034-4.424-30.784-6.271-43.817
		c-1.256-8.13-1.321-11.783-2.74-19.889c-1.307-8.455-2.938-16.859-4.408-25.29c-0.514-2.252-0.891-4.69-1.406-6.941
		c-0.176-1.139-0.352-2.277-0.34-3.278c-0.052-2.488,0.911-3.803,3.462-4.53c2.552-0.727,5.103-1.453,7.705-1.855
		c5.503-1.018,13.308-2.224,18.812-3.24c2.114-0.326,4.028,0.21,6.105,0.721c1.539,0.262,2.253,1.649,2.804,3.063
		C519.418,232.711,517.166,233.227,515.078,233.715z"/>
</g>
<g>
	<path class="st0" d="M39.021,130.844c-0.046,2.809-0.199,5.77-0.375,8.601c-0.119,1.621-0.108,3.22-0.075,4.948
		c-0.024,2.938,0.104,5.983-1.152,8.735c-0.299,0.585-0.293,1.384-0.44,2.076c-0.35,2.596-4.325,5.819-6.943,5.34
		c-1.644-0.249-3.27-1.167-4.553-2.412c-1.784-1.824-2.942-3.89-3.887-6.261c-0.99-2.629-1.827-5.15-2.687-7.803
		c-1.788-5.691-3.446-11.406-5.363-17.075c-2.293-7.07-3.81-14.276-5.715-21.414c-2.282-8.54-3.657-17.238-7.082-25.446
		c-0.287-0.884-0.466-1.92-0.624-2.826c-1.107-4.075,5.394-4.27,9.115-3.582c1.795,0.355,3.056,1.471,3.652,3.368
		c2.558,7.825,5.87,15.386,7.544,23.498c0.719,4.144,2.062,8.045,3.169,12.12c0.928,3.041,1.596,6.125,2.417,9.317
		c0.708,2.545,1.546,5.067,2.102,7.505c1.152,4.335,2.152,8.562,3.304,12.896c0.287,0.884,0.573,1.768,1.079,3.147
		c0.891-2.556,0.92-4.694,0.712-6.658c-0.711-9.48-0.47-18.857-0.359-28.213c0.029-2.139,0.447-4.345,0.628-6.378
		c0.057-1.21,0.569-2.099,1.234-2.881c1.048-1.648,2.708-2.07,4.29-1.411c1.278,0.445,2.774,1.386,3.647,2.568
		c2.902,4.431,5.805,8.862,7.998,13.817c1.625,3.985,3.486,7.797,5.37,11.738c0.045,0.259,0.456,0.321,0.63,0.558
		c0.732-0.394,0.49-1.019,0.53-1.559c-0.69-6.282-1.25-12.587-1.81-18.892c-0.1-2.117-0.223-4.363-0.324-6.479
		c-0.295-8.618-0.612-17.365-0.906-25.983c0.079-1.082,0.136-2.292,0.367-3.265c0.338-1.126,1.087-2.189,2.23-2.521
		c1.272-0.354,2.938,0.024,3.011,1.212c0.139,4.645,0.277,9.287,0.546,13.909c0.414,6.997,0.309,14.083,0.593,21.103
		c0.178,4.104,0.897,8.248,1.357,12.436c0.415,3.93,0.959,7.837,1.374,11.765c0.05,1.059,0.23,2.095,0.151,3.176
		c-0.21,4.17,0.509,8.313,0.839,12.524c0.095,1.317,0.213,2.764,0.201,4.232c-0.136,2.292-2.045,4.356-4.139,4.587
		c-0.906,0.157-1.903-0.204-2.448-1.043c-1.395-1.893-2.92-3.762-3.819-5.872c-3.133-6.525-6.113-12.943-9.719-19.121
		c-1.53-2.668-2.694-5.533-3.987-8.377c-0.371-0.603-0.72-1.075-1.091-1.678c-0.259,0.045-0.366,0.197-0.495,0.22
		C39.12,122.957,39.147,126.954,39.021,130.844z"/>
	<path class="st0" d="M85.022,122.331c0,0-0.598,4.237-0.717,5.858c-0.464,5.016-0.978,8.973-1.441,13.988
		c-0.079,1.08-0.677,2.251-1.167,3.27c-0.597,1.17-1.329,1.563-2.562,1.378c-1.407-0.423-2.341-1.194-2.459-2.641
		c-0.028-0.929-0.056-1.858-0.083-2.787c0.255-3.911,0.662-7.717,0.939-11.499c0.651-9.316,1.432-18.653,2.083-27.97
		c0.826-9.079,1.651-18.159,2.348-27.215c0.277-3.782,0.273-7.649,0.939-11.5c0.479-2.617,2.884-4.901,5.456-4.681
		c1.469,0.012,3.006,0.412,4.306,0.986c1.323,0.704,2.453,1.842,2.982,3.352c0.377,1.401,0.883,2.78,1.259,4.182
		c1.928,7.269,3.748,14.688,5.805,21.934c1.175,4.465,2.867,8.839,4.323,13.388c1.147,3.536,2.293,7.07,3.311,10.629
		c1.838,6.75,3.828,13.606,5.688,20.486c0.528,1.508,1.209,3.125,1.737,4.633c0.461,1.12,0.793,2.263,0.865,3.451
		c0.427,2.46-0.964,4.436-3.25,5.099c-4.228,1-8.37-1.349-10.085-5.853c-1.321-3.772-2.924-7.629-4.245-11.401
		c-1.035-2.888-1.81-5.82-2.693-8.602c-0.264-0.754-0.529-1.51-0.967-2.5C92.977,119.75,89.053,120.964,85.022,122.331z
		 M96.106,109.338c-0.882-2.781-1.636-5.585-2.518-8.366c-1.501-4.807-2.309-9.469-3.315-14.496
		c-0.045-0.259-1.95-7.396-2.299-7.869c-0.834,1.345-0.91,9.359-1.097,10.592c-0.481,5.686-0.939,11.5-1.42,17.186
		c-0.091,2.55-0.182,5.1-0.296,7.52c-0.017,0.67-0.079,1.081,0.016,2.398c3.406-1.124,7.848-2.429,11.49-3.728
		C96.42,111.15,96.263,110.244,96.106,109.338z"/>
	<path class="st0" d="M143.461,54.044c-0.794,0.804-1.763,1.372-2.928,1.574c-1.79,0.444-3.732,0.781-5.522,1.225
		c-1.165,0.202-0.625,0.242-2.522,0.838c0.641,2.155,1.546,5.066,1.995,7.656c0.966,5.567,2.343,11.197,3.567,16.72
		c0.556,2.437,0.983,4.897,1.41,7.357c1.37,7.897,2.74,15.795,4.217,23.542c0.871,4.25,2.13,8.433,2.978,12.554
		c0.843,3.321,1.405,6.559,1.837,9.817c0.562,3.237-2.119,6.236-5.468,6.15c-2.01-0.052-3.979-0.644-5.651-1.82
		c-1.064-0.75-1.891-1.673-2.138-3.097c-0.377-1.402-0.776-2.933-1.023-4.358c-1.202-5.392-2.382-10.655-3.584-16.049
		c-1.095-5.545-2.191-11.09-3.179-16.787c-1.887-10.876-3.537-21.926-5.446-32.932c-0.14-1.576-0.831-4.791-1.095-5.545
		c-1.835,0.185-3.755,0.651-5.264,1.18c-1.402,0.377-2.696,0.602-4.126,0.049c-1.278-0.445-2.127-1.498-2.093-2.838
		c0.057-1.21,0.547-2.229,1.819-2.583c1.875-0.726,3.879-1.473,5.799-1.939c4.639-0.938,9.148-1.854,13.787-2.791
		c2.049-0.489,4.076-1.107,6.254-1.619c1.165-0.202,2.482-0.297,3.777-0.521c0.54,0.039,1.233,0.187,1.818,0.484
		C144.239,50.841,144.576,52.782,143.461,54.044z"/>
	<path class="st0" d="M175.321,50.116c-3.473,0.736-8.804,1.527-12.3,2.134c-0.518,0.09-1.013,0.31-1.531,0.399
		c-0.941,1.497-0.283,2.982,0.223,4.362c1.755,3.963,2.237,8.281,3.214,12.38c0.691,3.214,1.489,6.277,2.028,9.384
		c0.365,2.87-0.029,2.139,0.313,4.881c0.409,3.129,1.432,7.487,2.113,9.103c1.165-0.202,2.505-0.168,3.755-0.651
		c1.768-0.573,4.768-0.961,6.558-1.404c2.027-0.618,3.974-0.156,4.699,1.719c0.067,0.389,0.72,1.075-1.239,2.082
		c-2.669,1.53-6.638,2.485-9.526,3.52c-1.143,0.332-2.156,0.641-3.299,0.973c-0.435,2.877,1.476,10.813,1.795,13.426
		c0.342,2.742,0.792,5.331,1.241,7.921c0.32,2.611,0.898,5.179,1.392,8.027c0.799-0.005,4.34-0.353,4.943-0.724
		c1.227-0.613,3.71-0.911,4.96-1.395c2.027-0.618,3.845-0.133,5.578,0.633c1.019,0.49,1.891,1.672,1.766,2.494
		c-0.254,0.845-0.704,1.323-1.481,1.458c-2.156,0.641-15.813,3.41-18.268,4.636c-1.959,1.007-4.335,1.152-6.693,0.628
		c-0.844-0.254-1.385-0.293-1.908-1.003c-0.872-1.183-1.249-2.585-1.473-3.879c-1.667-10.381-3.986-24.517-5.654-34.897
		c-1.123-6.474-1.229-9.389-2.481-15.84c-1.168-6.732-2.595-13.421-3.892-20.131c-0.444-1.791-0.781-3.732-1.225-5.522
		c-0.157-0.906-0.314-1.812-0.32-2.612c-0.078-1.987,0.671-3.051,2.698-3.669c2.027-0.618,4.053-1.236,6.125-1.596
		c4.38-0.894,10.594-1.972,14.974-2.864c1.683-0.292,3.22,0.108,4.886,0.485c1.233,0.187,1.823,1.284,2.284,2.404
		C178.772,49.251,176.981,49.695,175.321,50.116z"/>
	<path class="st0" d="M190.848,39.688c5.505-0.556,12.264,2.272,17.903,5.562c2.819,1.645,6.359,4.365,8.205,5.78
		c4.8,3.835,6.38,7.562,8.19,13.383c0.287,0.884,2.629,12.081,1.073,18.486c-1.601,6.146-7.187,10.849-11.805,14.983
		c1.328,1.504,2.397,3.053,3.961,4.382c2.194,1.886,10.814,11.596,13.233,14.777c1.001,1.159,1.851,2.212,2.723,3.395
		c0.371,0.603,0.055,1.858-0.35,2.596c-1.217,2.211-3.351,2.981-5.326,1.591c-1.216-0.857-2.217-2.019-2.937-3.094
		c-2.576-4.088-5.733-7.674-8.63-11.307c-2.723-3.395-5.998-5.361-9.279-8.126c-0.04,0.541,0.095,1.317,0.208,1.965
		c1.123,6.474,2.151,11.63,3.251,17.975c0.18,1.035,0.511,2.178,0.562,3.236c0.314,1.813-0.604,3.439-2.479,4.165
		c-0.754,0.264-1.509,0.528-2.286,0.663c-2.567,0.578-4.756-0.509-5.96-2.834c-0.461-1.121-0.922-2.241-1.124-3.406
		c-2.123-10.701-4.281-20.062-6.038-30.962c-1.628-10.921-3.279-18.903-5.295-29.757c-0.758-3.603-1.776-7.161-2.534-10.764
		c-0.606-3.495-0.921-5.308-1.595-9.192C184.116,40.855,189.272,39.827,190.848,39.688z M198.043,49.642
		c1.152,4.335,3.769,17.885,4.381,22.181c0.904,5.979,1.791,9.558,2.954,15.491c0.472,2.72,1.095,5.545,1.741,8.501
		c2.027-0.618,3.53-1.945,5.011-3.403c1.87-1.524,4.15-2.987,5.215-5.306c0.597-1.171,1.802-1.914,2.654-6.996
		c0.666-3.85,0.464-5.014-0.188-8.77c-0.983-4.898-0.534-2.309-1.905-7.139c-1.067-4.616-3.959-7.448-7.482-10.839
		c-0.63-0.558-1.367-0.963-2.127-1.498c-4.102-2.89-10.861-5.718-10.682-4.683C197.841,48.477,197.779,48.888,198.043,49.642z"/>
	<path class="st0" d="M238.532,33.949c1.666,0.378,2.02,1.65,3.179,3.717c1.266,1.914,1.637,2.517,2.948,4.689
		c1.525,1.87,3.217,6.245,4.01,8.508c0.354,1.272,0.922,2.24,1.513,3.338c2.143,3.896,4.393,7.642,6.406,11.56
		c1.445,2.95,2.784,6.052,4.1,9.025c0.877,1.981,1.647,4.115,2.525,6.097c0.174,0.236,0.478,0.451,0.653,0.688
		c0.777-0.135,0.687-0.653,0.749-1.063c1-8.843,1.978-17.815,3.107-26.68c0.497-3.288,0.971-6.704,1.597-10.014
		c0.649-3.18,1.32-6.231,1.991-9.281c0.569-2.1,1.032-4.047,2.969-5.184c2.55,0.091,5.229,0.16,6.196,2.66
		c2.509,3.698,2.435,5.579,3.537,8.855c1.805,5.021,2.562,11.692,3.612,16.979c2.168,10.961,4.443,21.769,6.611,32.729
		c1.382,6.429,2.612,12.751,3.971,19.05c0.157,0.906,0.163,1.707-0.243,2.443c-0.512,0.89-5.641,2.846-7.656,1.995
		c-3.619-1.64-4.439-4.831-5.175-8.306c-1.118-5.674-2.365-11.325-3.331-16.893c-2.483-12.773-4.836-25.569-7.318-38.342
		c-0.157-0.907-0.686-2.416-0.798-3.063c-0.344,0.326-0.659,1.581-0.744,1.862c-0.452,3.547-1.078,6.856-1.552,10.273
		c-0.588,5.837-1.176,11.674-1.893,17.533c-0.531,4.626-1.343,9.169-2.049,13.56c-0.344,0.326-0.45,0.479-0.709,0.523
		c-3.536,1.146-4.093,1.776-6.349-2.768c-3.217-6.244-5.787-12.6-8.767-19.018c-0.9-2.112-2.059-4.179-3.065-6.138
		c-0.045-0.259-0.433-0.191-0.737-0.405c0.28,3.152,0.538,6.176,1.054,9.153c1.999,11.523,4.599,25.743,6.75,37.373
		c0.337,1.942,0.567,4.037,0.926,6.108c0.247,1.424-0.069,2.679-1.099,3.658c-0.451,0.479-1.182,0.872-1.83,0.984
		c-1.165,0.202-2.398,0.016-3.563,0.218c-1.705,0.163-3.028-0.542-3.945-1.983c-1.463-2.28-2.644-4.477-3.138-7.324
		c-1.325-7.639-3.229-17.846-4.661-25.332c-0.18-1.036-0.337-1.942-0.517-2.978c-0.651-3.756-1.303-7.511-1.932-11.136
		c-0.679-4.684-1.336-9.238-2.144-13.898c-1.028-5.156-2.185-10.291-3.343-15.425c-0.09-0.519-0.073-1.188-0.314-1.812
		c-0.731-2.675-0.032-4.797,3.177-6.286C234.924,33.909,236.714,33.465,238.532,33.949z"/>
	<path class="st0" d="M319.68,25.074c-3.473,0.736-8.804,1.527-12.3,2.134c-0.518,0.09-1.013,0.31-1.531,0.399
		c-0.941,1.497-0.283,2.982,0.223,4.362c1.755,3.963,2.237,8.281,3.215,12.38c0.691,3.214,1.489,6.277,2.028,9.384
		c0.365,2.87-0.029,2.139,0.313,4.881c0.41,3.129,1.432,7.487,2.113,9.103c1.165-0.202,2.505-0.168,3.755-0.651
		c1.768-0.573,4.768-0.961,6.558-1.404c2.027-0.618,3.974-0.156,4.699,1.719c0.067,0.389,0.72,1.075-1.239,2.082
		c-2.669,1.53-6.637,2.485-9.526,3.52c-1.143,0.332-2.156,0.641-3.299,0.973c-0.435,2.877,1.476,10.813,1.796,13.426
		c0.342,2.742,0.791,5.331,1.241,7.921c0.32,2.611,0.898,5.179,1.392,8.027c0.799-0.005,4.34-0.353,4.943-0.724
		c1.227-0.613,3.71-0.911,4.96-1.395c2.027-0.618,3.845-0.133,5.578,0.633c1.019,0.49,1.891,1.672,1.766,2.494
		c-0.254,0.845-0.704,1.323-1.481,1.458c-2.156,0.641-15.813,3.41-18.268,4.636c-1.959,1.007-4.335,1.152-6.693,0.628
		c-0.844-0.254-1.384-0.293-1.908-1.003c-0.872-1.183-1.249-2.585-1.473-3.879c-1.667-10.381-3.986-24.517-5.654-34.897
		c-1.123-6.474-1.229-9.389-2.481-15.84c-1.168-6.732-2.595-13.421-3.892-20.131c-0.444-1.791-0.781-3.732-1.225-5.522
		c-0.157-0.906-0.314-1.812-0.32-2.612c-0.078-1.987,0.671-3.051,2.698-3.669s4.053-1.236,6.125-1.596
		c4.38-0.894,10.595-1.972,14.974-2.864c1.683-0.292,3.22,0.108,4.886,0.485c1.233,0.187,1.823,1.284,2.284,2.404
		C323.131,24.209,321.341,24.653,319.68,25.074z"/>
	<path class="st0" d="M361.41,95.725c1.25-0.483,2.651-0.86,3.901-1.344c2.027-0.618,3.456-0.066,4.525,1.482
		c0.979,1.03,0.86,2.651-0.193,3.501c-0.602,0.371-1.075,0.72-1.7,0.962c-4.504,1.715-9.008,3.43-13.843,4.002
		c-1.295,0.225-2.741,0.342-4.081,0.308c-2.268-0.007-3.917-1.054-4.71-3.317c-0.725-1.875-1.344-3.901-1.703-5.974
		c-1.146-6.604-2.184-13.358-3.329-19.961c-0.921-5.309-2.078-10.443-2.999-15.751c-0.472-2.72-0.943-5.438-1.393-8.028
		c-1.448-9.885-4.483-21.229-6.556-30.872c-0.18-1.035-0.359-2.071-0.517-2.978c-0.359-2.071,4.133-2.317,6.142-2.266
		c2.01,0.052,3.417,0.475,4.851,1.825c0.979,1.03,1.918,2.603,2.272,3.874c1.107,4.075,2.506,9.835,3.484,13.934
		c0.73,2.673,1.484,5.478,2.107,8.303c1.23,6.322,2.353,12.796,3.606,19.247c0.831,4.791,1.943,9.666,2.775,14.457
		c0.966,5.567,1.718,11.439,2.554,17.028c0.135,0.777,0.377,1.402,0.731,2.675C358.995,96.41,360.138,96.078,361.41,95.725z"/>
	<path class="st0" d="M415.295,67.305c0.071,4.256-0.139,8.427-0.349,12.598c-0.176,2.831-0.481,5.686-0.915,8.562
		c-0.395,2.335-1.42,4.114-4.072,4.975c-2.539,1.507-3.705,1.709-5.861,2.35c-3.924,1.215-4.633,1.737-7.853,1.629
		c-0.13,0.022-0.281-0.084-0.54-0.039c-7.565-0.555-12.562-4.756-16.494-11.276c-4.303-7.122-7.227-14.751-8.771-22.886
		c-1.836-9.817-3.003-19.618-3.263-29.576c-0.033-1.728-0.195-3.433-0.206-5.031c0.092-5.618,1.378-10.509,6.085-14.126
		c1.74-1.503,3.305-3.242,5.045-4.744c3.823-3.33,8.676-4.572,13.697-3.31c3.917,1.055,7.232,2.479,9.995,5.335
		c1.176,1.396,2.374,2.922,3.077,4.668c2.642,7.544,6.062,14.953,7.741,23.865C415.106,48.532,415.147,57.994,415.295,67.305z
		 M407.194,41.369c-1.371-4.83-2.636-9.812-4.244-14.469c-1.169-3.664-3.375-7.15-4.91-10.617c-0.658-1.487-1.637-2.518-3.28-2.766
		c-1.103-0.209-2.229-0.547-3.332-0.756c-2.054-0.311-4.318,0.482-5.213,2.238c-2.327,4.271-4.479,8.778-4.014,13.767
		c0.408,6.197,0.276,12.355,1.073,18.485c0.825,7.06,1.649,14.118,3.616,20.846c1.771,6.361,4.295,12.459,8.155,17.791
		c0.675,0.816,1.221,1.655,1.873,2.343c1.806,1.954,3.866,3.063,6.647,2.181c2.652-0.859,4.409-3.031,4.933-5.391
		c0.266-2.312,0.638-4.778,0.645-7.047c0.143-4.559,0.026-9.073,0.169-13.634C409.304,56.607,409.167,48.896,407.194,41.369z"/>
	<path class="st0" d="M472.709,79.218c0.202,1.165-0.181,2.032-1.302,2.493c-0.366,0.197-0.625,0.242-0.991,0.438
		c-3.722,2.38-5.134,1.157-7.165-2.092c-0.523-0.709-0.81-1.593-1.226-2.454c-2.345-5.062-4.583-10.275-7.058-15.314
		c-5.056-9.925-10.371-19.807-15.664-29.559c-2.165-4.024-4.438-7.898-6.733-11.902c-0.174-0.236-0.349-0.473-0.523-0.709
		c-0.755,0.264-0.665,0.781-0.597,1.17c0.646,2.956,1.315,6.041,1.961,8.996c0.377,1.402,0.646,2.955,0.893,4.38
		c1.342,6.969,2.533,13.832,4.004,20.778c0.809,4.66,1.899,9.406,2.837,14.046c0.651,3.755,1.28,7.38,1.802,11.157
		c0.18,1.035,0.252,2.223-0.345,3.394c-0.693,2.922-0.514,3.957-5.738,4.597c-2.809-0.046-5.911,1.292-6.899-4.404
		c-0.539-3.108-1.123-6.475-1.814-9.689c-1.522-8.005-3.281-15.835-4.802-23.84c-0.444-1.791-0.758-3.603-1.073-5.415
		c-1.275-6.581-2.679-13.14-3.932-19.591c-0.983-4.897-1.814-9.688-2.667-14.608c-0.202-1.165-0.382-2.201-0.584-3.366
		c-0.056-1.858,0.756-3.333,2.068-4.227c2.494-1.767,5.343-2.261,8.292-0.639c1.345,0.834,2.757,2.057,4.018,3.171
		c2.042,1.779,3.955,3.581,5.052,6.06c0.219,0.495,0.416,0.86,0.743,1.204c2.245,2.945,4.146,6.216,5.895,9.381
		c3.673,6.564,7.453,12.978,11.103,19.413c2.075,3.508,4.044,7.167,5.861,10.721c0.568,0.968,0.568,0.968,1.159,2.065
		c0.219,0.495,0.72,1.075,1.592,2.259c-0.332-1.144-0.511-2.18-0.714-3.345c-1.359-6.299-2.719-12.599-3.949-18.921
		c-0.888-3.58-1.539-7.335-2.19-11.09c-0.848-4.12-1.438-8.286-2.286-12.407c-0.359-2.071-0.719-4.143-1.337-6.17
		c-0.865-3.45-0.009-4.666,3.531-5.013c0.518-0.09,1.058-0.051,1.835-0.186c0.416,0.861,1.198,1.525,1.333,2.303
		c1.681,5.844,3.209,11.58,3.961,17.451c0.499,3.647,1.365,7.099,1.864,10.746c0.41,3.13,4.022,20.109,4.808,24.64
		c1.073,5.416,1.757,10.899,3.607,16.18C472.306,73.819,472.389,76.605,472.709,79.218z"/>
	<path class="st0" d="M110.41,229.088c-0.046,2.809-0.199,5.77-0.375,8.601c-0.119,1.621-0.108,3.221-0.075,4.948
		c-0.024,2.938,0.104,5.983-1.152,8.735c-0.299,0.585-0.293,1.384-0.44,2.076c-0.35,2.596-4.325,5.819-6.943,5.34
		c-1.644-0.249-3.27-1.167-4.553-2.411c-1.784-1.825-2.942-3.891-3.887-6.261c-0.99-2.63-1.827-5.151-2.687-7.804
		c-1.788-5.691-3.446-11.406-5.363-17.075c-2.293-7.07-3.81-14.276-5.715-21.414c-2.282-8.54-3.657-17.238-7.082-25.446
		c-0.287-0.884-0.466-1.919-0.624-2.826c-1.107-4.075,5.394-4.27,9.115-3.582c1.796,0.355,3.056,1.471,3.652,3.368
		c2.558,7.825,5.87,15.386,7.544,23.499c0.719,4.143,2.062,8.044,3.17,12.12c0.927,3.04,1.596,6.125,2.416,9.316
		c0.708,2.545,1.546,5.067,2.102,7.505c1.152,4.335,2.152,8.562,3.304,12.896c0.287,0.884,0.573,1.769,1.079,3.147
		c0.891-2.556,0.92-4.694,0.712-6.658c-0.711-9.48-0.47-18.857-0.359-28.213c0.029-2.139,0.447-4.345,0.627-6.377
		c0.057-1.211,0.57-2.1,1.234-2.882c1.048-1.648,2.708-2.07,4.29-1.411c1.278,0.445,2.775,1.386,3.647,2.569
		c2.903,4.431,5.805,8.862,7.998,13.817c1.625,3.985,3.487,7.797,5.371,11.738c0.045,0.259,0.456,0.321,0.63,0.558
		c0.732-0.394,0.49-1.019,0.53-1.559c-0.69-6.282-1.25-12.587-1.81-18.892c-0.1-2.117-0.223-4.363-0.324-6.479
		c-0.295-8.618-0.612-17.365-0.906-25.983c0.079-1.082,0.136-2.292,0.367-3.265c0.338-1.126,1.087-2.189,2.23-2.521
		c1.272-0.354,2.938,0.024,3.011,1.212c0.139,4.645,0.277,9.288,0.546,13.909c0.414,6.997,0.309,14.083,0.593,21.104
		c0.178,4.104,0.897,8.247,1.357,12.435c0.415,3.93,0.959,7.837,1.374,11.765c0.05,1.06,0.23,2.095,0.151,3.176
		c-0.21,4.17,0.509,8.313,0.839,12.524c0.095,1.317,0.213,2.764,0.201,4.232c-0.136,2.292-2.045,4.356-4.139,4.587
		c-0.906,0.157-1.903-0.204-2.448-1.043c-1.395-1.893-2.92-3.762-3.819-5.872c-3.133-6.525-6.113-12.944-9.719-19.121
		c-1.53-2.669-2.694-5.534-3.987-8.378c-0.371-0.603-0.72-1.075-1.091-1.678c-0.259,0.045-0.366,0.197-0.495,0.22
		C110.509,221.202,110.536,225.198,110.41,229.088z"/>
	<path class="st0" d="M156.412,220.575c0,0-0.599,4.237-0.717,5.859c-0.464,5.015-0.978,8.972-1.441,13.987
		c-0.079,1.08-0.676,2.251-1.167,3.27c-0.597,1.17-1.329,1.563-2.562,1.378c-1.407-0.423-2.341-1.194-2.459-2.641
		c-0.028-0.929-0.056-1.857-0.083-2.787c0.255-3.911,0.662-7.717,0.939-11.499c0.651-9.316,1.432-18.653,2.083-27.97
		c0.826-9.079,1.651-18.158,2.348-27.215c0.277-3.782,0.274-7.649,0.939-11.5c0.479-2.617,2.884-4.901,5.456-4.681
		c1.469,0.012,3.006,0.412,4.306,0.986c1.323,0.704,2.453,1.843,2.982,3.352c0.376,1.401,0.882,2.78,1.259,4.182
		c1.928,7.269,3.748,14.688,5.805,21.934c1.175,4.465,2.867,8.839,4.323,13.388c1.147,3.536,2.293,7.07,3.311,10.629
		c1.838,6.75,3.827,13.606,5.688,20.486c0.528,1.508,1.209,3.125,1.737,4.633c0.461,1.12,0.793,2.263,0.865,3.452
		c0.427,2.459-0.964,4.435-3.25,5.098c-4.228,1-8.37-1.349-10.085-5.853c-1.321-3.772-2.924-7.629-4.245-11.401
		c-1.035-2.888-1.81-5.82-2.693-8.602c-0.264-0.754-0.528-1.509-0.967-2.5C164.366,217.994,160.443,219.209,156.412,220.575z
		 M167.495,207.582c-0.883-2.781-1.636-5.585-2.518-8.365c-1.501-4.808-2.309-9.47-3.315-14.497
		c-0.045-0.259-1.95-7.396-2.299-7.869c-0.834,1.345-0.91,9.359-1.097,10.593c-0.481,5.685-0.939,11.499-1.42,17.185
		c-0.091,2.551-0.182,5.1-0.296,7.52c-0.017,0.67-0.079,1.082,0.016,2.398c3.406-1.124,7.848-2.428,11.49-3.728
		C167.809,209.395,167.652,208.488,167.495,207.582z"/>
	<path class="st0" d="M214.85,152.288c-0.794,0.804-1.763,1.372-2.928,1.574c-1.79,0.444-3.732,0.781-5.523,1.225
		c-1.165,0.202-0.625,0.242-2.522,0.838c0.641,2.155,1.546,5.066,1.995,7.656c0.966,5.567,2.342,11.197,3.567,16.72
		c0.556,2.437,0.983,4.897,1.41,7.357c1.37,7.897,2.74,15.796,4.217,23.542c0.871,4.25,2.13,8.433,2.978,12.554
		c0.843,3.321,1.405,6.559,1.837,9.817c0.562,3.237-2.119,6.236-5.468,6.15c-2.01-0.052-3.979-0.644-5.651-1.82
		c-1.064-0.749-1.891-1.673-2.138-3.097c-0.377-1.402-0.776-2.933-1.023-4.357c-1.202-5.393-2.382-10.656-3.584-16.05
		c-1.095-5.545-2.191-11.09-3.179-16.787c-1.887-10.875-3.537-21.926-5.446-32.932c-0.14-1.576-0.831-4.791-1.095-5.545
		c-1.835,0.185-3.755,0.651-5.264,1.18c-1.402,0.377-2.697,0.602-4.126,0.049c-1.278-0.445-2.127-1.498-2.093-2.837
		c0.057-1.211,0.547-2.229,1.819-2.584c1.875-0.726,3.879-1.473,5.799-1.939c4.639-0.938,9.148-1.854,13.787-2.791
		c2.049-0.489,4.076-1.107,6.254-1.619c1.165-0.202,2.483-0.297,3.777-0.521c0.54,0.039,1.233,0.187,1.818,0.484
		C215.628,149.085,215.965,151.027,214.85,152.288z"/>
	<path class="st0" d="M246.71,148.36c-3.473,0.736-8.804,1.527-12.3,2.134c-0.518,0.09-1.013,0.31-1.531,0.399
		c-0.941,1.497-0.283,2.982,0.223,4.362c1.754,3.963,2.237,8.281,3.215,12.38c0.691,3.214,1.489,6.277,2.028,9.384
		c0.365,2.871-0.029,2.139,0.313,4.881c0.41,3.129,1.432,7.487,2.113,9.103c1.165-0.202,2.505-0.168,3.755-0.651
		c1.768-0.573,4.768-0.961,6.558-1.404c2.027-0.618,3.974-0.156,4.699,1.719c0.068,0.389,0.72,1.075-1.239,2.082
		c-2.669,1.53-6.637,2.485-9.526,3.52c-1.143,0.332-2.156,0.641-3.299,0.973c-0.435,2.877,1.476,10.813,1.796,13.426
		c0.342,2.742,0.791,5.331,1.241,7.921c0.32,2.611,0.898,5.18,1.393,8.027c0.799-0.005,4.34-0.353,4.943-0.724
		c1.227-0.613,3.71-0.911,4.96-1.395c2.027-0.618,3.845-0.133,5.578,0.633c1.019,0.49,1.891,1.672,1.766,2.495
		c-0.254,0.844-0.704,1.322-1.481,1.457c-2.156,0.641-15.813,3.41-18.268,4.636c-1.959,1.007-4.335,1.152-6.693,0.628
		c-0.844-0.254-1.385-0.293-1.908-1.003c-0.872-1.182-1.248-2.585-1.473-3.879c-1.667-10.381-3.986-24.517-5.654-34.896
		c-1.123-6.474-1.229-9.39-2.481-15.841c-1.168-6.732-2.595-13.421-3.892-20.131c-0.444-1.79-0.781-3.732-1.225-5.522
		c-0.157-0.906-0.314-1.812-0.32-2.611c-0.078-1.988,0.671-3.052,2.698-3.67s4.053-1.236,6.125-1.596
		c4.38-0.894,10.594-1.972,14.974-2.864c1.683-0.292,3.22,0.108,4.885,0.485c1.233,0.187,1.823,1.284,2.284,2.405
		C250.161,147.495,248.371,147.939,246.71,148.36z"/>
	<path class="st0" d="M262.237,137.933c5.505-0.556,12.265,2.272,17.903,5.562c2.819,1.645,6.359,4.365,8.205,5.779
		c4.8,3.835,6.38,7.562,8.19,13.383c0.287,0.885,2.629,12.081,1.073,18.486c-1.601,6.146-7.187,10.85-11.805,14.984
		c1.328,1.505,2.397,3.053,3.961,4.382c2.194,1.886,10.814,11.595,13.233,14.776c1.001,1.159,1.851,2.212,2.723,3.395
		c0.371,0.603,0.056,1.858-0.35,2.596c-1.217,2.211-3.35,2.981-5.326,1.591c-1.216-0.856-2.217-2.018-2.937-3.093
		c-2.576-4.087-5.733-7.674-8.63-11.307c-2.723-3.395-5.998-5.361-9.279-8.126c-0.04,0.541,0.095,1.317,0.208,1.965
		c1.123,6.474,2.151,11.63,3.251,17.975c0.18,1.035,0.511,2.178,0.561,3.237c0.315,1.812-0.604,3.438-2.478,4.164
		c-0.755,0.264-1.509,0.528-2.286,0.663c-2.567,0.578-4.756-0.509-5.96-2.833c-0.461-1.122-0.922-2.242-1.125-3.407
		c-2.123-10.701-4.281-20.062-6.038-30.962c-1.628-10.921-3.279-18.903-5.295-29.757c-0.758-3.603-1.776-7.161-2.534-10.763
		c-0.606-3.496-0.921-5.309-1.595-9.193C255.505,139.101,260.661,138.072,262.237,137.933z M269.433,147.887
		c1.152,4.335,3.769,17.885,4.381,22.181c0.904,5.979,1.791,9.559,2.954,15.491c0.472,2.72,1.095,5.545,1.741,8.501
		c2.027-0.618,3.53-1.945,5.011-3.403c1.87-1.524,4.15-2.987,5.215-5.306c0.597-1.17,1.802-1.913,2.654-6.996
		c0.666-3.85,0.464-5.015-0.188-8.771c-0.983-4.896-0.534-2.308-1.905-7.138c-1.068-4.615-3.96-7.448-7.482-10.839
		c-0.63-0.558-1.367-0.963-2.127-1.498c-4.102-2.889-10.861-5.718-10.682-4.683C269.23,146.722,269.168,147.133,269.433,147.887z"/>
	<path class="st0" d="M361.927,126.774c-0.772,0.934-1.718,1.631-2.99,1.985c-5.326,1.591-10.522,3.158-15.718,4.727
		c-0.107,0.152-0.344,0.326-0.946,0.697c0.112,0.647,0.095,1.318,0.207,1.966c2.736,11.929,5.103,20.188,7.191,32.229
		c0.045,0.259-0.04,0.54,0.287,0.884c1.768-0.573,3.969-0.955,5.759-1.399c3.321-0.843,8.022-2.191,8.765-0.986
		c0.546,0.839,1.316,2.972,0.629,3.625c-1.481,1.457-0.642,0.912-5.602,2.306c-1.447,0.117-6.018,1.444-6.879,1.86
		c-1.25,0.483-1.79,0.443-1.386,2.773c0.584,3.367,1.797,10.358,2.251,13.747c1.101,6.345,2.094,12.841,2.936,19.229
		c0.472,2.72-0.919,4.694-3.593,5.426c-0.647,0.112-1.402,0.376-2.201,0.382c-2.353,0.274-4.261-0.729-5.161-2.839
		c-0.506-1.38-0.86-2.652-1.107-4.076c-1.64-9.452-3.931-22.659-5.57-32.11c-1.572-9.063-2.493-14.371-4.172-23.283
		c-0.966-5.567-2.298-10.938-3.5-16.33c-0.225-1.296-0.449-2.591-0.651-3.756c-0.135-0.776-0.269-1.553-0.275-2.353
		c0.108-3.22,1.415-4.913,4.702-4.417c4.345,0.446,8.162-0.616,12.171-2.111c2.027-0.618,4.228-1,6.254-1.618
		c2.522-0.838,4.987-0.466,7.368,0.188C362.361,123.897,362.89,125.406,361.927,126.774z"/>
	<path class="st0" d="M419.227,177.251c0.071,4.255-0.139,8.426-0.349,12.597c-0.176,2.831-0.481,5.686-0.916,8.562
		c-0.395,2.336-1.42,4.114-4.072,4.975c-2.539,1.507-3.705,1.709-5.861,2.35c-3.924,1.215-4.633,1.737-7.853,1.629
		c-0.13,0.022-0.281-0.084-0.54-0.039c-7.565-0.555-12.562-4.756-16.494-11.276c-4.303-7.122-7.227-14.751-8.771-22.886
		c-1.836-9.816-3.003-19.618-3.263-29.575c-0.033-1.729-0.195-3.434-0.206-5.032c0.092-5.618,1.378-10.509,6.085-14.126
		c1.74-1.502,3.305-3.242,5.045-4.744c3.823-3.33,8.676-4.572,13.697-3.31c3.917,1.055,7.232,2.48,9.995,5.335
		c1.176,1.396,2.374,2.923,3.077,4.668c2.642,7.545,6.062,14.954,7.741,23.866C419.039,158.479,419.08,167.941,419.227,177.251z
		 M411.127,151.314c-1.371-4.83-2.636-9.812-4.244-14.469c-1.169-3.664-3.374-7.15-4.909-10.617
		c-0.658-1.487-1.637-2.518-3.281-2.766c-1.103-0.209-2.229-0.547-3.332-0.756c-2.054-0.311-4.318,0.482-5.213,2.238
		c-2.327,4.271-4.479,8.778-4.014,13.767c0.408,6.197,0.276,12.355,1.073,18.485c0.824,7.06,1.649,14.118,3.616,20.846
		c1.77,6.361,4.295,12.459,8.154,17.791c0.675,0.816,1.221,1.656,1.873,2.343c1.806,1.954,3.866,3.063,6.647,2.181
		c2.652-0.859,4.409-3.031,4.933-5.39c0.266-2.313,0.638-4.779,0.645-7.048c0.143-4.559,0.026-9.073,0.169-13.634
		C413.237,166.553,413.1,158.841,411.127,151.314z"/>
	<path class="st0" d="M424.591,109.769c5.505-0.556,12.264,2.272,17.903,5.562c2.819,1.645,6.359,4.365,8.205,5.779
		c4.8,3.835,6.38,7.562,8.19,13.383c0.287,0.885,2.629,12.081,1.073,18.486c-1.601,6.146-7.187,10.85-11.805,14.984
		c1.328,1.505,2.397,3.053,3.961,4.382c2.194,1.886,10.814,11.595,13.233,14.776c1.001,1.159,1.851,2.212,2.723,3.395
		c0.371,0.603,0.056,1.858-0.35,2.596c-1.217,2.211-3.35,2.981-5.326,1.591c-1.216-0.856-2.217-2.018-2.937-3.093
		c-2.576-4.087-5.733-7.674-8.63-11.307c-2.723-3.395-5.998-5.361-9.279-8.126c-0.04,0.541,0.095,1.317,0.208,1.965
		c1.123,6.474,2.151,11.63,3.251,17.975c0.18,1.035,0.511,2.178,0.561,3.237c0.315,1.812-0.604,3.438-2.478,4.164
		c-0.755,0.264-1.509,0.528-2.286,0.663c-2.567,0.578-4.756-0.509-5.96-2.833c-0.461-1.122-0.922-2.242-1.125-3.407
		c-2.123-10.701-4.281-20.062-6.038-30.962c-1.628-10.921-3.279-18.903-5.295-29.757c-0.758-3.603-1.776-7.161-2.534-10.763
		c-0.606-3.496-0.921-5.309-1.595-9.193C417.858,110.937,423.015,109.908,424.591,109.769z M431.786,119.723
		c1.152,4.335,3.769,17.885,4.381,22.181c0.904,5.979,1.792,9.559,2.954,15.491c0.472,2.72,1.095,5.545,1.741,8.501
		c2.027-0.618,3.53-1.945,5.011-3.403c1.869-1.524,4.15-2.987,5.215-5.306c0.597-1.17,1.802-1.913,2.654-6.996
		c0.666-3.85,0.464-5.015-0.188-8.771c-0.983-4.896-0.534-2.308-1.905-7.138c-1.068-4.615-3.96-7.448-7.482-10.839
		c-0.63-0.558-1.367-0.963-2.127-1.498c-4.102-2.889-10.861-5.718-10.682-4.683C431.584,118.558,431.522,118.969,431.786,119.723z"
		/>
</g>
</svg>
