<svg xmlns="http://www.w3.org/2000/svg" xmlns:xlink="http://www.w3.org/1999/xlink" viewBox="0 0 160.14 160.89"><defs><style>.cls-1{fill:none;}.cls-2{clip-path:url(#clip-path);}.cls-3{fill:#fff;}</style><clipPath id="clip-path"><rect class="cls-1" width="160.14" height="160.89"/></clipPath></defs><title>frown</title><g id="Layer_2" data-name="Layer 2"><g id="ELEMENTS"><g class="cls-2"><path class="cls-3" d="M44,85.87a47.9,47.9,0,0,1,35.54-15,50.48,50.48,0,0,1,32.71,11.56q18.35,14.79,18.35,40.2c0,2.12-.12,4.17-.31,6.18-7.4-18.54-27.47-31.87-51.13-31.87-22.27,0-41.38,11.79-49.73,28.64,0-.92-.12-1.81-.12-2.75q0-22,14.68-37M23.53,137.36q23.53,23.54,56.23,23.54a79.38,79.38,0,0,0,40.3-10.78A79.46,79.46,0,0,0,160.14,80.5q0-32.8-23-56.65T79.55,0Q46.43,0,23.22,23.22T0,80q0,33.84,23.53,57.38"/></g></g></g></svg>