<svg xmlns="http://www.w3.org/2000/svg" viewBox="0 0 145.18 185.08"><defs><style>.cls-1{isolation:isolate;}.cls-2{mix-blend-mode:screen;}.cls-3{fill:#ccc;}.cls-3,.cls-5{stroke:#333;stroke-miterlimit:10;stroke-width:2.18px;}.cls-4{fill:#333;}.cls-5{fill:none;}</style></defs><title>pack</title><g class="cls-1"><g id="Layer_2" data-name="Layer 2"><g id="ELEMENTS"><g class="cls-2"><path class="cls-3" d="M27.43,174.11c1.25,1.49,2.21,2.52,2.21,2.52A5.53,5.53,0,0,0,31,179.1a11.29,11.29,0,0,0,6.81,3.63C48.07,184.22,72,184,72,184s24,.25,34.18-1.24A11.29,11.29,0,0,0,113,179.1a5.53,5.53,0,0,0,1.41-2.47s1.36-1.46,2.94-3.41c-6.12,2.35-19,5.06-46,5.06C71.4,178.28,39.29,179,27.43,174.11Z"/><path class="cls-3" d="M13,148s-6.63-.57-8.57,2.28a65.73,65.73,0,0,0-1.3-12.38c-5.41-19.64,1.4-31.1,1.4-31.1a13.83,13.83,0,0,1,11.7-7.83,7.46,7.46,0,0,1,1.12,0C17.09,99.66,9.33,119.3,13,148Z"/><path class="cls-3" d="M32.55,139.59,32,170.81c-4.22,1.35-9.86,1.71-13.21,1.79v-.23A126.64,126.64,0,0,1,13,148c-3.72-28.66,4-48.29,4.35-49A7.57,7.57,0,0,1,23,102.1C26.4,106.88,32,118,32.55,139.59Z"/><path class="cls-3" d="M18.74,172.37v.23h0c-1.73,0-2.85,0-2.85,0C.52,170.34,3.82,156.2,3.82,156.2a25.41,25.41,0,0,0,.66-6C6.42,147.39,13,148,13,148A126.64,126.64,0,0,0,18.74,172.37Z"/><path class="cls-3" d="M131.79,148s6.64-.48,8.54,2.39A65.73,65.73,0,0,1,141.8,138c5.68-19.57-1-31.12-1-31.12a13.83,13.83,0,0,0-11.6-8,7.46,7.46,0,0,0-1.12,0C128.4,99.67,135.9,119.4,131.79,148Z"/><path class="cls-3" d="M112.4,139.37l.17,31.23c4.2,1.41,9.83,1.84,13.18,2v-.23a126.64,126.64,0,0,0,6-24.33c4.11-28.61-3.39-48.34-3.68-49.1a7.57,7.57,0,0,0-5.68,3.12C119,106.75,113.25,117.79,112.4,139.37Z"/><path class="cls-3" d="M125.76,172.34v.23h0c1.73.07,2.85.06,2.85.06,15.41-2.07,12.31-16.25,12.31-16.25a25.41,25.41,0,0,1-.58-6c-1.9-2.87-8.54-2.39-8.54-2.39A126.64,126.64,0,0,1,125.76,172.34Z"/><path class="cls-3" d="M28.69,33.86s22-8.18,20.5-15.43c0,0-1.3-6.06-6.76-4.57,0,0-10.19,2-15.56,8.47C26.88,22.33,24.35,25.3,28.69,33.86Z"/><path class="cls-4" d="M28.63,33.94a20,20,0,0,1-1.48-3.2,14.38,14.38,0,0,1-.9-6.86,5.51,5.51,0,0,1,2-3.41,35.64,35.64,0,0,1,6.25-4.08,24.83,24.83,0,0,1,9.85-2.85,3.78,3.78,0,0,1,3,1.26,9.57,9.57,0,0,1,2,3.82l-.23.06A9.34,9.34,0,0,0,47.18,15a3.55,3.55,0,0,0-2.85-1.18c-7.3.41-13.59,4.94-16,6.87a5.28,5.28,0,0,0-1.88,3.27,14.14,14.14,0,0,0,.89,6.74,19.74,19.74,0,0,0,1.46,3.16Z"/><path class="cls-3" d="M114.8,33.86s-22-8.18-20.5-15.43c0,0,1.41-6,6.76-4.57,0,0,10.19,2,15.56,8.47C116.61,22.33,119.13,25.3,114.8,33.86Z"/><path class="cls-4" d="M114.86,33.94l-.2-.12a19.74,19.74,0,0,0,1.46-3.16,14.14,14.14,0,0,0,.89-6.74,5.28,5.28,0,0,0-1.88-3.27c-2.36-1.93-8.65-6.47-16-6.87A3.55,3.55,0,0,0,96.31,15a9.34,9.34,0,0,0-1.93,3.72l-.23-.06a9.57,9.57,0,0,1,2-3.82,3.78,3.78,0,0,1,3-1.26A24.83,24.83,0,0,1,109,16.4a35.64,35.64,0,0,1,6.25,4.08,5.51,5.51,0,0,1,2,3.41,14.38,14.38,0,0,1-.9,6.86A20,20,0,0,1,114.86,33.94Z"/><path class="cls-3" d="M57.86,14.72s-1.23-3.66-.94-4.43c0,0,2.71-7.86,5.29-8.77,0,0,.2,6.85,3,11.5A5.53,5.53,0,0,1,57.86,14.72Z"/><path class="cls-3" d="M82.34,14.72s1.23-3.66.94-4.43c0,0-2.71-7.86-5.29-8.77,0,0-.2,6.85-3,11.5A5.53,5.53,0,0,0,82.34,14.72Z"/><path class="cls-3" d="M126,83.42s2.33-17.36-2.56-23c0,0-.73-22.75-13-32,0,0-17.23-15.9-38.45-15.9s-38.45,15.9-38.45,15.9c-12.23,9.29-13,32-13,32-4.89,5.63-2.56,23-2.56,23-1.34,10.76.61,35.71.61,35.71-2.45,41.09,3.3,46.09,3.3,46.09.31,2.38,3.3,6.32,5.45,8.9,11.87,4.93,44,4.17,44,4.17,27,0,39.86-2.7,46-5.06,2-2.53,4.45-5.89,4.72-8,0,0,5.75-5,3.3-46.09C125.41,119.12,127.35,94.18,126,83.42Z"/><path class="cls-3" d="M123.06,85.12s2.2-17.05-2.42-22.58c0,0-.69-22.34-12.25-31.46,0,0-16.28-15.61-36.35-15.61S35.69,31.08,35.69,31.08C24.13,40.2,23.43,62.54,23.43,62.54,18.81,68.06,21,85.12,21,85.12c-1.27,10.57.57,35.07.57,35.07-2.31,40.35,3.12,45.27,3.12,45.27.29,2.33,3.12,6.21,5.16,8.74,11.22,4.85,41.57,4.09,41.57,4.09,25.49,0,37.68-2.66,43.47-5,1.93-2.48,4.2-5.78,4.46-7.86,0,0,5.44-4.91,3.12-45.27C122.49,120.18,124.33,95.69,123.06,85.12Z"/><path class="cls-3" d="M76.72,9.13c-.87,0-6.6-.26-6.6-.26-1.29,0-6.6.26-6.6.26s-1.44-6.21-1.3-7.61H78S77.57,9.09,76.72,9.13Z"/><path class="cls-4" d="M57.75,14.77a12,12,0,0,1-.94-4.48v0s.74-2,1.76-4.09c1.37-2.81,2.59-4.4,3.61-4.75h7.94v.24H62.24c-2.25.8-5,8.28-5.2,8.68A11.77,11.77,0,0,0,58,14.68Z"/><path class="cls-4" d="M65.1,13.08a22.58,22.58,0,0,1-2.53-7.47,33.88,33.88,0,0,1-.47-4.09h.24a33.64,33.64,0,0,0,.47,4.06A22.34,22.34,0,0,0,65.3,13Z"/><path class="cls-4" d="M82.87,13.82l-.22-.07a9.75,9.75,0,0,0,.55-3.43C83,9.92,80.25,2.44,78,1.64H70.12V1.4h7.94c1,.34,2.23,1.94,3.61,4.75,1,2.07,1.75,4.07,1.76,4.09v0A10,10,0,0,1,82.87,13.82Z"/><path class="cls-4" d="M75.46,12.68l-.2-.12A19.86,19.86,0,0,0,77.58,5.4a28.7,28.7,0,0,0,.32-3.88h.24a28.94,28.94,0,0,1-.32,3.91A20.09,20.09,0,0,1,75.46,12.68Z"/><path class="cls-4" d="M76.88,9.24,70.55,9c-.28,0-.57,0-.85,0l-6.17.24V9l6.17-.24c.29,0,.58,0,.87,0L76.89,9Z"/><path class="cls-5" d="M72,12.49c21.22,0,38.45,15.9,38.45,15.9,12.23,9.29,13,32,13,32,4.89,5.63,2.56,23,2.56,23,1.34,10.76-.61,35.71-.61,35.71,2.45,41.09-3.3,46.09-3.3,46.09-.49,3.75-7.66,11.42-7.66,11.42A5.53,5.53,0,0,1,113,179.1a11.28,11.28,0,0,1-6.81,3.63C96,184.22,72,184,72,184s-24,.25-34.18-1.24A11.28,11.28,0,0,1,31,179.1a5.53,5.53,0,0,1-1.41-2.47S22.46,169,22,165.21c0,0-5.75-5-3.3-46.09,0,0-1.95-24.95-.61-35.71,0,0-2.33-17.36,2.56-23,0,0,.73-22.75,13-32C33.59,28.39,50.81,12.49,72,12.49Z"/><path class="cls-3" d="M97.78,62.33a21.84,21.84,0,0,0,0,2.7,5.23,5.23,0,0,1-.06,1.1c-.56,3.4-4.58,3.75-4.58,3.75-3.44,1.21-22.59.54-22.59.54s-4.6.19-9.43.19h-.16c-4.19,0-8.5-.16-10.09-.72,0,0-3.88-.34-4.55-3.59A5.1,5.1,0,0,1,46.21,65a21.71,21.71,0,0,0,0-2.7c-.24-3.08-.71-10.16-.77-16.45.92.12,2,.23,3.23.37,10,1.15,29.26,2.51,46.05.17l.25,0,1.67-.25,1.49-.25C98.06,52.06,98,59.94,97.78,62.33Z"/><path class="cls-3" d="M94.72,58.76c-.06.84-.9,3.84-.87,4.68.18,4.14-3.33,4.21-3.33,4.21-2.09.78-10.74.91-15.86.34a32.2,32.2,0,0,0-7.58.05c-4.47.56-11.6.36-13.63-.39,0,0-3.24-.51-3.06-4.65,0-.84-1.18-3.71-1.25-4.55-.21-2.85-.5-7.47-.51-12.38,6.13.84,28.78,3.51,46.25.1C94.88,51.05,94.88,56.62,94.72,58.76Z"/><path class="cls-3" d="M96.66,49l0-.42,0-1.09,0-.74,0-.52v-.11l-.06-1.44a.32.32,0,0,0-.25-.32l-.21,0-.23,0a.29.29,0,0,0-.3.22l-.58,1.72h0v0l0,.14,0,.1-.18.52-.54,1.6a1.64,1.64,0,0,0-.05.23v0a1.89,1.89,0,0,0,0,.32v.3h0l0,.11v0l.06.13,0,0a1,1,0,0,0,.15.2l0,0a1.12,1.12,0,0,0,.3.2h.15l.06,0,.28.06C96.71,50.62,96.66,49,96.66,49ZM96,48.84a.76.76,0,0,1-.81.7.63.63,0,0,1-.35-.17.85.85,0,0,1-.23-.73.89.89,0,0,1,.23-.49.66.66,0,0,1,.57-.21A.77.77,0,0,1,96,48.84Z"/><path class="cls-4" d="M95.44,50.53l-.3,0a1.38,1.38,0,0,1-1-.6A1.73,1.73,0,0,1,94,48.61l1.38-4.12a.42.42,0,0,1,.38-.3h0l.43.06a.43.43,0,0,1,.35.43L96.78,49a1.77,1.77,0,0,1-.41,1.17A1.23,1.23,0,0,1,95.44,50.53Zm.31-6.11a.19.19,0,0,0-.15.14l-1.38,4.12a1.51,1.51,0,0,0,.09,1.11,1.16,1.16,0,0,0,.87.49,1.12,1.12,0,0,0,1-.26,1.54,1.54,0,0,0,.35-1l-.19-4.32a.21.21,0,0,0-.15-.21l-.43-.06Z"/><path class="cls-3" d="M45.58,45.89c0-1.14,0-2.29,0-3.43s.09-2.43.17-3.62a12.34,12.34,0,0,0,.1-2.24c-.56-4.84,4.59-9.17,27.53-7.1,22.64-.62,26.26,3.63,24.64,7.1a58.09,58.09,0,0,0-.16,6c0,1.08,0,2.24,0,3.44C78.13,49.73,52.52,46.81,45.58,45.89Z"/><path class="cls-3" d="M48.64,46.15c0-1,0-2,0-3s.08-2.1.15-3.14a10.48,10.48,0,0,0,.09-1.94c-.5-4.2,4.06-7.94,24.34-6.16,20-.54,23.22,3.15,21.78,6.16a49.34,49.34,0,0,0-.14,5.16c0,.93,0,1.94,0,3C77.42,49.48,54.77,46.95,48.64,46.15Z"/><path class="cls-4" d="M74.69,44.87h-.15v-.34h.4v.34Zm-.56,0h-.4v-.34h.4Zm1.22,0v-.34h.4v.34Zm-2,0h-.41v-.34h.4Zm2.83,0v-.34h.4v.34Zm-3.65,0h-.41v-.34h.4Zm4.46,0v-.34h.4v.34Zm-5.27,0H71.3v-.34h.4Zm6.08,0v-.34h.4v.34Zm-6.89,0h-.41v-.34h.4Zm7.7,0v-.34H79v.34Zm-8.51,0h-.41v-.34h.4Zm9.32,0v-.34h.4v.34Zm-10.13,0h-.41v-.34h.4Zm10.94,0v-.34h.4v.34Zm-11.75,0h-.41v-.34h.4Zm12.56,0v-.34l.4,0v.34Zm-13.37,0h-.41v-.34h.4Zm14.18,0v-.34l.4,0,0,.34Zm-15,0-.41,0v-.34l.4,0Zm15.81,0,0-.34.4,0,0,.34ZM66,44.68l-.41,0,0-.34.4,0Zm-.81,0-.41,0,0-.34.4,0Zm18.24,0,0-.34.4,0,0,.34Zm-19,0-.41,0,0-.34.4,0Zm19.86,0,0-.34.4,0,0,.34Zm-20.67,0-.41,0,0-.34.4,0Zm21.48,0,0-.34.4,0,0,.34Zm-22.29,0-.4,0,0-.34.4,0Zm23.1,0,0-.34.4,0,0,.34ZM62,44.47l-.4,0,0-.34.4,0Zm24.72,0,0-.34.4,0,0,.34Zm-25.53,0-.4,0,0-.34.4,0Zm-.81-.05-.4,0L60,44l.4,0Zm27.15,0,0-.34.4,0,0,.34Zm-28,0-.4,0,0-.34.4,0Zm28.77,0,0-.34.4,0,0,.34Zm-29.57,0-.4,0,0-.34.4,0Zm30.38,0,0-.34.4,0,0,.34Zm-31.19,0-.4,0,0-.34.4,0Zm-.81-.06-.4,0,0-.34.4,0Zm32.81,0,0-.34.4,0,0,.34Zm-33.62-.06-.4,0,0-.34.4,0Zm34.43,0,0-.34.4,0,0,.34ZM55.5,44l-.4,0,0-.34.4,0Zm36-.06,0-.34.4-.05,0,.33Zm-36.85,0-.4,0,0-.34.4,0Zm-.81-.08-.4,0,0-.34.4,0Zm38.47,0,0-.33.4-.05,0,.33Zm-39.27-.06-.4,0,0-.34.4,0Zm40.08,0,0-.33.4-.06,0,.33Zm-40.89,0-.4,0,0-.34.4,0Zm-.81-.08-.4,0,0-.34.4,0Zm42.5,0-.05-.33.4-.06.05.33Zm-43.31-.09-.4,0,0-.34.4,0Zm44.11,0-.05-.33.4-.07.06.33Zm-44.92,0-.4,0,0-.34.4,0Zm45.72-.09L95.52,43l.4-.07.06.33ZM49,43.32l-.4,0,0-.34.4,0Zm-.81-.1-.4,0,0-.34.4,0Zm48.14,0-.06-.33h0l.36-.07.06.33-.36.07Zm-48.94-.06-.27,0-.13,0,0-.33.13,0,.27,0ZM97.17,43l-.06-.33.4-.08.07.33ZM46.63,43l-.4-.05,0-.33.4.05Zm-.8-.11-.4-.06,0-.33.4.06Zm52.15,0-.07-.33.1,0,.07.33Z"/><path class="cls-4" d="M74.68,48a228.71,228.71,0,0,1-27.56-1.79L45.43,46l0-.23,1.69.23a228.5,228.5,0,0,0,27.53,1.79A123.25,123.25,0,0,0,96.35,46L98,45.72l0,.23-1.67.33A123.51,123.51,0,0,1,74.68,48Z"/><path class="cls-4" d="M61.27,70.71h-.33c-5.35,0-8.75-.25-10.11-.72a6.84,6.84,0,0,1-2-.58,4.35,4.35,0,0,1-2.59-3.09A5.24,5.24,0,0,1,46.09,65a21.46,21.46,0,0,0,0-2.68c-.26-3.33-.7-9.85-.76-16v-.15q0-.15,0-.3c0-1.09,0-2.15,0-3.15,0-1.4.08-2.69.16-3.82,0-.2,0-.41.06-.61a7.18,7.18,0,0,0,0-1.56,4.69,4.69,0,0,1,1.65-4.29v0h0A12.38,12.38,0,0,1,52.63,30a47.59,47.59,0,0,1,10.21-.91c3.11,0,6.67.17,10.6.52,1.49,0,2.94-.06,4.31-.06a75.36,75.36,0,0,1,13.32,1,14.83,14.83,0,0,1,6.3,2.33h0l0,0a2.94,2.94,0,0,1,1,3.86c-.12.28-.16,4.55-.18,6,0,.91,0,1.94,0,3.14l0,2.2c0,5.95-.09,12.1-.26,14.3a21.57,21.57,0,0,0,0,2.68,5.38,5.38,0,0,1-.06,1.12,4.32,4.32,0,0,1-2.57,3.24,6.84,6.84,0,0,1-2.1.61c-1.39.48-5.36.72-11.79.72-5.4,0-10.65-.18-10.83-.19S65.91,70.71,61.27,70.71ZM47.4,32.57h0a4.47,4.47,0,0,0-1.58,4.09,7.36,7.36,0,0,1,0,1.61c0,.2,0,.4-.05.6-.08,1.13-.13,2.41-.16,3.81,0,1,0,2,0,3.14q0,.15,0,.3v.15c.06,6.19.51,12.7.76,16a21.68,21.68,0,0,1,0,2.71,5,5,0,0,0,.09,1.24,4.07,4.07,0,0,0,2.46,2.93,6.66,6.66,0,0,0,2,.57h0c1.31.46,4.78.71,10.05.71h.33c4.7,0,9.21-.18,9.25-.19h0c.05,0,5.36.19,10.83.19,6.33,0,10.39-.25,11.72-.72h0a6.68,6.68,0,0,0,2-.59,4,4,0,0,0,2.43-3.06A5.14,5.14,0,0,0,97.63,65a21.79,21.79,0,0,1,0-2.71c.17-2.19.22-8.61.26-14.28l0-2.2c0-1.21,0-2.23,0-3.14.05-4.78.12-5.88.2-6.05a2.7,2.7,0,0,0-.89-3.55l0,0c-1.22-1-3.32-1.77-6.23-2.31a75.12,75.12,0,0,0-13.28-1c-1.37,0-2.81,0-4.31.06h0c-3.92-.34-7.49-.52-10.59-.52C55,29.35,49.85,30.43,47.4,32.57Z"/><path class="cls-3" d="M118.58,115.43l-.12,0c-.17,12.05-.87,24.34-1.24,30.22a54.21,54.21,0,0,0-.05,5.47,12.69,12.69,0,0,1-.14,2.48c-1.06,6.66-7.55,7.35-7.55,7.35-5.71,2.45-37.45,1.09-37.45,1.09S45.13,163.42,39.42,161c0,0-5.95-.64-7.39-6.54a12,12,0,0,1-.3-3.3,54.12,54.12,0,0,0-.05-5.47c-.37-5.82-1.05-17.91-1.23-29.85h-.12c0-1.17,0-2.76,0-4.51h.06c1.48.17,3.27.37,5.31.58h0c2.47.25,5.31.52,8.45.79l1.14.1c15.58,1.27,37.94,2.32,58.26.39l1.14-.11c2.87-.29,5.69-.64,8.45-1.06h0q2.7-.41,5.31-.92h.05C118.57,112.76,118.57,114.29,118.58,115.43Z"/><path class="cls-3" d="M113.15,116.07c-.15,10.84-1.51,21.27-1.84,26.55-.1,1.64-1,2.85-.9,4.5.3,8.09-5.16,9.89-5.16,9.89-3.19,1.4-15.73.66-24.45-.06a96.84,96.84,0,0,0-17.17.11c-7.23.69-17,1.29-20,0,0,0-5.6-.9-5.3-9,.06-1.64-1.45-4-1.56-5.65-.32-5.25-.88-15.3-1-26.06,0-1.78,0-3.56,0-5.31,10.19,1.22,50,5.39,77.48-.34C113.19,112.43,113.18,114.25,113.15,116.07Z"/><path class="cls-4" d="M90,162.56c-9,0-17.69-.37-18-.38s-7.63.38-15.35.38c-9.19,0-15-.49-17.3-1.47A9.63,9.63,0,0,1,36.21,160a8.68,8.68,0,0,1-2.51-2,8.52,8.52,0,0,1-1.79-3.56,12.15,12.15,0,0,1-.3-3.33,53.62,53.62,0,0,0-.05-5.46c-.38-6.08-1.05-18-1.23-29.85v-.05c0-1.53,0-3,0-4.46q0-.54,0-1.07c0-4.63.1-8.71.3-12.13.09-1.54.13-3.1.17-4.43a4.71,4.71,0,0,1,.48-1.8h0A12.85,12.85,0,0,1,35.63,87a34.54,34.54,0,0,1,10.74-4.81h0l.08,0A91.55,91.55,0,0,1,69.37,79.4h2c1.76,0,3.6,0,5.45.09s3.67-.09,5.41-.09h.08c10.31,0,18.59,1.08,24.61,3.19l.09,0A24.18,24.18,0,0,1,113.63,86a12.61,12.61,0,0,1,3.31,3.61h0a8.48,8.48,0,0,1,1.21,4.06c0,1.33.08,2.89.17,4.43.19,3.28.29,7.15.29,11.52,0,.45,0,.93,0,1.44,0,1.35,0,2.77,0,4.21v.17c-.17,11.95-.85,24.07-1.24,30.22a53.7,53.7,0,0,0-.05,5.46,12.87,12.87,0,0,1-.14,2.5,8.88,8.88,0,0,1-1.65,4,8.52,8.52,0,0,1-2.58,2.25,9.68,9.68,0,0,1-3.4,1.19C107.22,162.06,100.65,162.56,90,162.56Zm-18-.61h0c.09,0,8.89.38,17.95.38,10.5,0,17.23-.5,19.45-1.45h0a9.57,9.57,0,0,0,3.34-1.17,8.26,8.26,0,0,0,4.11-6.09,12.64,12.64,0,0,0,.13-2.46,53.93,53.93,0,0,1,.05-5.48c.39-6.16,1.07-18.27,1.24-30.21v-.17c0-1.44,0-2.85,0-4.21,0-.51,0-1,0-1.44,0-4.36-.11-8.24-.29-11.51-.09-1.54-.13-3.11-.17-4.44a8.24,8.24,0,0,0-1.18-4h0c-1.69-2.88-5-5.19-9.75-6.89l-.09,0c-6-2.1-14.25-3.17-24.53-3.18h-.09c-1.74,0-3.55,0-5.4.09h0c-1.86-.06-3.69-.09-5.45-.09h-2a91.32,91.32,0,0,0-22.81,2.78l-.08,0h0a34.31,34.31,0,0,0-10.67,4.77A12.62,12.62,0,0,0,31.45,92h0a4.48,4.48,0,0,0-.46,1.7c0,1.33-.08,2.9-.17,4.44-.2,3.42-.3,7.49-.29,12.12q0,.53,0,1.07c0,1.43,0,2.93,0,4.46v.05c.18,11.81.85,23.77,1.23,29.84a53.85,53.85,0,0,1,.05,5.48,11.91,11.91,0,0,0,.3,3.27,8.2,8.2,0,0,0,4.17,5.4,9.51,9.51,0,0,0,3.12,1h0A24.91,24.91,0,0,0,46.41,162c2.76.2,6.21.3,10.28.3,7.8,0,15.27-.37,15.34-.38Z"/><path class="cls-3" d="M117.19,119.12l-.14-3.18v-.34l0-.8a.32.32,0,0,0-.25-.32l-.21,0-.23,0a.29.29,0,0,0-.3.22l-.43,1.27,0,.11h0l-.58,1.71-.35,1a1.28,1.28,0,0,0,1.06,1.75C117.24,120.72,117.19,119.12,117.19,119.12Zm-.62-.18a.71.71,0,1,1-.58-.9A.76.76,0,0,1,116.57,118.94Z"/><path class="cls-4" d="M116,120.64l-.3,0a1.38,1.38,0,0,1-1-.6,1.73,1.73,0,0,1-.11-1.31l1.38-4.12a.42.42,0,0,1,.38-.3h0l.43.06a.43.43,0,0,1,.35.43l.19,4.32a1.77,1.77,0,0,1-.41,1.17A1.23,1.23,0,0,1,116,120.64Zm.31-6.11a.19.19,0,0,0-.15.14l-1.38,4.12a1.51,1.51,0,0,0,.09,1.11,1.16,1.16,0,0,0,.87.49,1.12,1.12,0,0,0,1-.26,1.54,1.54,0,0,0,.35-1l-.19-4.32a.21.21,0,0,0-.15-.21l-.43-.06Z"/><path class="cls-3" d="M118.4,115.43l-.12,0-1.42.28h0l-1.48.27h0l-2.41.41q-1.69.27-3.43.51h0q-2.49.34-5,.61l-1.08.11c-3.37.33-6.8.58-10.25.76h0a359.29,359.29,0,0,1-41.66-.62h0c-2.23-.15-4.36-.31-6.36-.48L44,117.21c-2.9-.25-5.51-.49-7.75-.72h0l-.7-.07c-2.16-.22-3.95-.43-5.3-.59h-.12c0-1.17,0-2.76,0-4.51,0-4.57.12-10.3.27-12.92.08-1.5.13-3,.17-4.51a4.87,4.87,0,0,1,.55-1.95h0c1.36-2.78,5.47-6.86,15.06-9.58l.13,0c5.77-1.62,13.51-2.75,23.8-2.82h0q3.11,0,6.54.09,2.48-.08,4.76-.09h0c11.85-.05,19.87,1.29,25.3,3.21l.09,0c5.63,2,8.44,4.64,9.81,6.94h0a8.62,8.62,0,0,1,1.28,4.2c0,1.5.08,3,.17,4.51.14,2.55.23,8.2.27,12.68C118.39,112.76,118.4,114.29,118.4,115.43Z"/><path class="cls-3" d="M36,100.38c.07-1.33.11-2.66.15-4,.08-3.31,7.18-13.8,40.46-12.68,33.28-1.12,36.13,9.38,36.21,12.68,0,1.33.07,2.67.15,4,.17,3.12.25,12.35.26,16-30.13,4.59-67.29,1.07-77.48-.15C35.72,112.47,35.79,103.6,36,100.38Z"/><path class="cls-4" d="M118.34,109.84l-.08-.33.2,0,.08.33Z"/><path class="cls-4" d="M78.41,113.45H78v-.34h.41Zm.41,0v-.34h.41v.34Zm-1.22,0h-.41v-.34h.41Zm2,0v-.34H80v.34Zm-2.84,0h-.41v-.34h.41Zm3.65,0v-.34h.41v.34Zm-4.47,0h-.41v-.34H76Zm5.28,0v-.34h.41v.34Zm-6.09,0h-.41v-.34h.41Zm6.9,0v-.34h.41v.34Zm-7.72,0h-.41v-.34h.41Zm8.53,0v-.34h.41v.34Zm-9.34,0h-.41v-.34h.41Zm10.15,0v-.34h.41v.34Zm-11,0h-.41v-.34h.41Zm11.78,0v-.34h.41v.34Zm-12.59,0h-.41V113h.41Zm13.4,0V113h.41v.34Zm-14.21,0H70.7V113h.41Zm15,0V113h.41v.34Zm-15.84,0h-.41V113h.41Zm16.65,0V113h.41v.34Zm-17.46,0h-.41V113h.41Zm18.27,0V113h.41v.34Zm-19.08,0h-.41V113h.41Zm-.81,0h-.41v-.34h.41Zm20.71,0v-.34H89v.34Zm-21.52,0h-.41v-.34h.41Zm22.33,0v-.34l.41,0v.34Zm-23.14,0h-.41v-.34h.41Zm24,0v-.34l.4,0v.34Zm-24.76,0-.41,0v-.34l.41,0Zm25.57,0,0-.34.4,0,0,.34Zm-26.38,0-.41,0v-.34l.41,0Zm27.2,0,0-.34.4,0,0,.34Zm-28,0-.41,0v-.34l.41,0Zm28.82,0,0-.34.4,0,0,.34ZM63,113.1l-.41,0,0-.34.41,0Zm-.81,0-.41,0,0-.34.41,0Zm31.25,0,0-.34.4,0,0,.34Zm-32.06,0L61,113l0-.34.41,0Zm32.87,0,0-.34.4,0,0,.34Zm-33.68,0-.41,0,0-.34.4,0ZM95,113l0-.34.4,0,0,.34Zm-35.3,0-.41,0,0-.34.4,0Zm36.11,0,0-.34.4,0,0,.34Zm-36.92,0-.41,0,0-.34.4,0Zm-.81,0-.41,0,0-.34.4,0Zm38.54,0,0-.34.4,0,0,.34Zm-39.35,0-.41,0,0-.34.4,0Zm40.16,0,0-.34.4,0,0,.34Zm-41,0-.41,0,0-.34.4,0Zm41.77,0,0-.34.4,0,0,.34Zm-42.58,0-.41,0,0-.34.4,0Zm-.81-.05-.41,0,0-.34.4,0Zm44.2,0,0-.34.4,0,0,.34Zm-45-.05-.41,0,0-.34.4,0Zm45.82,0,0-.34.4,0,0,.34Zm-46.63,0-.4,0,0-.34.4,0Zm47.44,0,0-.34.4,0,0,.34Zm-48.25,0-.4,0,0-.34.4,0Zm49.05-.06,0-.34.4,0,0,.34Zm-49.86,0-.4,0,0-.34.4,0Zm-.81-.06-.4,0,0-.34.4,0Zm51.48,0,0-.34.4,0,0,.34Zm-52.29,0-.4,0,0-.34.4,0Zm53.09,0,0-.34.4,0,0,.34Zm-53.9,0-.4,0,0-.34.4,0Zm-.81-.06-.4,0,0-.34.4,0Zm55.51,0,0-.34.4,0,0,.34Zm-56.32-.06-.4,0,0-.34.4,0Zm57.13,0,0-.34.4,0,0,.34Zm-57.94,0-.4,0,0-.34.4,0Zm58.74-.06,0-.34.4,0,0,.34ZM46,112l-.4,0,0-.34.4,0Zm-.81-.07-.4,0,0-.34.4,0Zm61.16,0,0-.34.4-.05,0,.33Zm-62,0-.4,0,0-.34.4,0Zm62.78-.06,0-.33.4-.05,0,.33Zm-63.59,0-.4,0,0-.34.4,0Zm-.81-.07-.4,0,0-.34.4,0Zm65.2,0,0-.33.4-.06,0,.33Zm-66,0-.4,0,0-.34.4,0Zm66.81-.06,0-.33.4-.06,0,.33Zm-67.62,0-.4,0,0-.34.4,0Zm-.81-.08-.4,0,0-.34.4,0Zm69.23,0,0-.33.4-.06.05.33Zm-70-.05-.4,0,0-.34.4,0Zm70.84-.07-.05-.33.4-.06.05.33Zm-71.65,0-.4,0,0-.34.4,0Zm-.81-.08-.4,0,0-.34.4,0Zm73.26,0-.05-.33.4-.07.05.33Zm-74.07-.05-.4,0,0-.34.4,0ZM112,111.1l-.06-.33.4-.07.06.33Zm-75.68,0-.4,0,0-.34.4,0Zm-.81-.09-.4,0,0-.34.4,0Zm77.28,0-.06-.33.4-.07.06.33Zm-78.09,0-.4,0,0-.34.4,0Zm-.81-.09-.4,0,0-.34.4,0Zm79.7,0-.06-.33.4-.07.06.33Zm-80.51-.09h0l-.39,0,0-.34.39,0h0Zm81.3-.06-.06-.33.4-.08.06.33Zm-82.11,0-.4,0,0-.34.4,0Zm-.81-.1-.4-.05,0-.34.4.05Zm83.71,0-.07-.33.4-.08.07.33Zm.8-.16-.07-.33.4-.08.07.33Zm.8-.17-.07-.33.4-.08.07.33Zm.79-.17-.07-.33.4-.09.07.33Z"/><path class="cls-4" d="M30.63,110.43l-.2,0,0-.33.2,0Z"/><path class="cls-4" d="M78.9,119.07c-5.46,0-11.19-.14-17.15-.43-17.57-.85-31.19-2.68-31.32-2.7l0-.33c.14,0,13.74,1.85,31.3,2.7,16.2.78,39.18.87,56.66-3.19l.08.33a155.65,155.65,0,0,1-28.07,3.39C86.75,119,82.9,119.07,78.9,119.07Z"/><path class="cls-3" d="M113.14,154.2a3.32,3.32,0,0,1-2.94,3.65l-4.13.45a2.78,2.78,0,0,1-3-2,2.2,2.2,0,0,1-.08-.75l.06-1c0-.29,0-.59,0-.88,0-1.25.6-2.34,1.76-2.34a14,14,0,0,0,1.5-.07l2.91-.31a6.13,6.13,0,0,0,1-.19,2.21,2.21,0,0,1,2.72,2.08Z"/><path class="cls-4" d="M105.93,158.19h0a2.71,2.71,0,0,1-.42,0l0-.23a2.47,2.47,0,0,0,.39,0Zm.42,0,0-.24.41,0,0,.24Zm.82-.09,0-.24.41,0,0,.24Zm-2.08,0a2.71,2.71,0,0,1-.39-.17l.11-.21a2.48,2.48,0,0,0,.36.15ZM108,158l0-.24.41,0,0,.24Zm.82-.09,0-.24.41,0,0,.24Zm.82-.09,0-.24.41,0,0,.24Zm.83-.11-.05-.23.38-.11.08.22Zm-6.11,0a2.73,2.73,0,0,1-.32-.28l.17-.17a2.5,2.5,0,0,0,.3.26Zm6.91-.26-.11-.21a3,3,0,0,0,.33-.21l.14.19A3.2,3.2,0,0,1,111.23,157.4Zm-7.51-.35a2.7,2.7,0,0,1-.22-.37l.21-.11a2.47,2.47,0,0,0,.2.33Zm8.2-.15-.16-.17a3,3,0,0,0,.27-.29l.18.15A3.24,3.24,0,0,1,111.92,156.91Zm-8.58-.62v0a2.07,2.07,0,0,1-.07-.38l.24,0a1.83,1.83,0,0,0,.06.33v0Zm9.11,0-.2-.12a3,3,0,0,0,.19-.35l.22.1A3.23,3.23,0,0,1,112.46,156.25Zm.35-.77-.23-.07a3,3,0,0,0,.09-.38l.23,0A3.19,3.19,0,0,1,112.81,155.48Zm-9.32,0h-.24l0-.41h.24Zm9.45-.81h-.24v-.07a3,3,0,0,0,0-.32h0l.24,0h0a3.27,3.27,0,0,1,0,.35S112.94,154.61,112.94,154.64Zm-9.4,0h-.24v-.05c0-.11,0-.23,0-.35h.24c0,.13,0,.25,0,.36Zm9.1-.81,0-.41.24,0,0,.41Zm-9.32,0v-.13c0-.1,0-.2,0-.3l.24,0c0,.09,0,.18,0,.27v.12Zm.31-.79-.23-.05a2.63,2.63,0,0,1,.13-.41l.22.09A2.39,2.39,0,0,0,103.63,153Zm8.92,0v0a2.49,2.49,0,0,0-.07-.37l.23-.06a2.73,2.73,0,0,1,.07.4v0Zm-8.63-.7-.2-.13a1.78,1.78,0,0,1,.29-.33l.16.18A1.55,1.55,0,0,0,103.93,152.31Zm8.43-.05a2.26,2.26,0,0,0-.19-.34l.2-.13a2.49,2.49,0,0,1,.21.38Zm-7.87-.44-.1-.21a1.55,1.55,0,0,1,.42-.13l0,.23A1.32,1.32,0,0,0,104.49,151.81Zm.75-.13v-.24h.41v.24Zm.83,0,0-.24.4,0,0,.24Zm5.86,0a1.93,1.93,0,0,0-.3-.25l.13-.2a2.17,2.17,0,0,1,.33.28Zm-5,0,0-.24.41,0,0,.24Zm.82-.09,0-.24.41,0,0,.24Zm.82-.09,0-.24.41,0,0,.24Zm.82-.09,0-.23.4-.06,0,.23Zm2-.12a1.7,1.7,0,0,0-.37-.1l0-.23a1.94,1.94,0,0,1,.42.11Zm-1.13,0-.06-.23h0a2.12,2.12,0,0,1,.42-.07l0,.24a1.89,1.89,0,0,0-.37.07Z"/><path class="cls-4" d="M105.9,153.12h-.08l-.07-.9h.09l0,.32a.21.21,0,0,1,.06-.07l.08,0a.19.19,0,0,1,.12,0,.26.26,0,0,1,.09.11.5.5,0,0,1,0,.18.41.41,0,0,1,0,.26.2.2,0,0,1-.16.1l-.09,0a.2.2,0,0,1-.07-.07Zm0-.33a.47.47,0,0,0,0,.15.17.17,0,0,0,.06.07l.08,0a.12.12,0,0,0,.09-.07.44.44,0,0,0,0-.38.12.12,0,0,0-.2,0A.32.32,0,0,0,105.87,152.79Z"/><path class="cls-4" d="M106.34,152.89l.09,0a.16.16,0,0,0,.05.1.15.15,0,0,0,.19,0,.1.1,0,0,0,0-.08.07.07,0,0,0,0-.06l-.1,0-.15,0a.16.16,0,0,1-.06-.06.19.19,0,0,1,0-.09.18.18,0,0,1,0-.14.2.2,0,0,1,.14-.06h.11a.17.17,0,0,1,.07.05.25.25,0,0,1,0,.1l-.09,0a.11.11,0,0,0-.13-.1.14.14,0,0,0-.09,0,.07.07,0,0,0,0,.06.07.07,0,0,0,0,.05l.1,0,.15,0,.06.05a.19.19,0,0,1,0,.09.2.2,0,0,1,0,.16.22.22,0,0,1-.16.07A.21.21,0,0,1,106.34,152.89Z"/><path class="cls-4" d="M107.25,153v-.08a.19.19,0,0,1-.06.08l-.08,0a.2.2,0,0,1-.17-.08.41.41,0,0,1-.09-.25.52.52,0,0,1,0-.19.26.26,0,0,1,.07-.12.19.19,0,0,1,.11,0l.09,0a.19.19,0,0,1,.07.06l0-.32h.09l.07.9Zm-.32-.3a.33.33,0,0,0,.06.19.13.13,0,0,0,.11.05.12.12,0,0,0,.1-.07.31.31,0,0,0,0-.18.37.37,0,0,0-.06-.2.13.13,0,0,0-.11-.05.12.12,0,0,0-.09.07A.35.35,0,0,0,106.94,152.71Z"/><path class="cls-4" d="M108.12,152.94v-.08a.19.19,0,0,1-.06.08l-.08,0a.2.2,0,0,1-.17-.08.41.41,0,0,1-.09-.25.52.52,0,0,1,0-.19.26.26,0,0,1,.07-.12.19.19,0,0,1,.11,0l.09,0a.19.19,0,0,1,.07.06l0-.32h.09l.07.9Zm-.32-.3a.33.33,0,0,0,.06.19.13.13,0,0,0,.11.05.12.12,0,0,0,.1-.07.31.31,0,0,0,0-.18.37.37,0,0,0-.06-.2.13.13,0,0,0-.11-.05.12.12,0,0,0-.09.07A.35.35,0,0,0,107.8,152.64Z"/><path class="cls-4" d="M108.7,152.68h.09a.29.29,0,0,1-.07.17.22.22,0,0,1-.15.07.23.23,0,0,1-.19-.07.39.39,0,0,1-.09-.24.41.41,0,0,1,0-.26.22.22,0,0,1,.17-.1.21.21,0,0,1,.18.07.4.4,0,0,1,.09.25v0l-.4,0a.28.28,0,0,0,.06.16.14.14,0,0,0,.12,0Q108.67,152.82,108.7,152.68Zm-.31-.15.3,0a.25.25,0,0,0,0-.12.13.13,0,0,0-.22,0A.22.22,0,0,0,108.38,152.52Z"/><path class="cls-4" d="M108.92,152.87l-.05-.66H109v.09a.21.21,0,0,1,.07-.09.18.18,0,0,1,.1,0h.08l.06,0a.18.18,0,0,1,0,.07.6.6,0,0,1,0,.13l0,.4h-.09l0-.4a.33.33,0,0,0,0-.1.11.11,0,0,0,0,0h-.06a.13.13,0,0,0-.1.06.28.28,0,0,0,0,.17l0,.36Z"/><path class="cls-4" d="M109.44,152v-.13h.09V152Zm.06.78-.05-.66h.09l.05.66Z"/><path class="cls-4" d="M109.73,152.81l-.05-.66h.08v.09a.21.21,0,0,1,.06-.08.17.17,0,0,1,.09,0,.16.16,0,0,1,.1,0,.16.16,0,0,1,.06.08.25.25,0,0,1,.07-.09.16.16,0,0,1,.09,0,.15.15,0,0,1,.13,0,.26.26,0,0,1,.06.16l0,.45h-.09l0-.41a.34.34,0,0,0,0-.1l0,0h-.05a.12.12,0,0,0-.09.05.24.24,0,0,0,0,.15l0,.38h-.09l0-.43a.2.2,0,0,0,0-.11.08.08,0,0,0-.07,0,.12.12,0,0,0-.09.06.34.34,0,0,0,0,.19l0,.34Z"/><path class="cls-4" d="M105.73,157.27h.09a.12.12,0,0,0,0,.07.13.13,0,0,0,.09,0,.13.13,0,0,0,.13-.13.82.82,0,0,0,0-.15.21.21,0,0,1-.06.07l-.08,0a.2.2,0,0,1-.17-.07.4.4,0,0,1-.1-.24.49.49,0,0,1,0-.19.26.26,0,0,1,.07-.12.2.2,0,0,1,.11,0H106l.08.06v-.08h.08l.06.57a.67.67,0,0,1,0,.22.21.21,0,0,1-.07.11.24.24,0,0,1-.13.05.22.22,0,0,1-.17,0A.21.21,0,0,1,105.73,157.27Zm0-.4a.33.33,0,0,0,.06.18.13.13,0,0,0,.11,0,.13.13,0,0,0,.1-.07.41.41,0,0,0,0-.37.13.13,0,0,0-.11,0,.12.12,0,0,0-.09.07A.31.31,0,0,0,105.76,156.87Z"/><path class="cls-4" d="M106.25,156.84a.4.4,0,0,1,0-.26.23.23,0,0,1,.36,0,.38.38,0,0,1,.1.24.41.41,0,0,1,0,.27.23.23,0,0,1-.36,0A.39.39,0,0,1,106.25,156.84Zm.09,0a.32.32,0,0,0,.06.18.14.14,0,0,0,.12.05.13.13,0,0,0,.1-.07.32.32,0,0,0,0-.19.32.32,0,0,0-.06-.18.14.14,0,0,0-.12-.05.13.13,0,0,0-.1.07A.32.32,0,0,0,106.34,156.83Z"/><path class="cls-4" d="M106.83,156.78a.4.4,0,0,1,0-.26.23.23,0,0,1,.36,0,.38.38,0,0,1,.1.24.41.41,0,0,1,0,.27.23.23,0,0,1-.36,0A.39.39,0,0,1,106.83,156.78Zm.09,0a.32.32,0,0,0,.06.18.14.14,0,0,0,.12.05.13.13,0,0,0,.1-.07.32.32,0,0,0,0-.19.32.32,0,0,0-.06-.18.14.14,0,0,0-.12-.05.13.13,0,0,0-.1.07A.32.32,0,0,0,106.92,156.77Z"/><path class="cls-4" d="M107.81,157v-.08a.19.19,0,0,1-.06.08l-.08,0a.2.2,0,0,1-.17-.07.41.41,0,0,1-.09-.25.52.52,0,0,1,0-.19.26.26,0,0,1,.07-.12.19.19,0,0,1,.11,0l.09,0,.07.06,0-.32h.09l.09.9Zm-.32-.3a.33.33,0,0,0,.06.18.13.13,0,0,0,.11.05.12.12,0,0,0,.09-.07.31.31,0,0,0,0-.18.37.37,0,0,0-.06-.2.13.13,0,0,0-.11-.05.12.12,0,0,0-.09.07A.35.35,0,0,0,107.5,156.72Z"/><path class="cls-4" d="M108.7,157.18l0-.32a.17.17,0,0,1-.05.07l-.08,0a.21.21,0,0,1-.18-.08.42.42,0,0,1-.1-.25.45.45,0,0,1,0-.25.19.19,0,0,1,.16-.11l.09,0a.21.21,0,0,1,.07.07v-.09h.08l.09.91Zm-.34-.55a.33.33,0,0,0,.06.19.13.13,0,0,0,.11.05.12.12,0,0,0,.09-.07.31.31,0,0,0,0-.18.36.36,0,0,0-.06-.2.13.13,0,0,0-.11-.06.12.12,0,0,0-.09.07A.35.35,0,0,0,108.36,156.63Z"/><path class="cls-4" d="M109.26,156.88v-.1a.24.24,0,0,1-.07.09.17.17,0,0,1-.09,0,.17.17,0,0,1-.11,0,.16.16,0,0,1-.07-.08.54.54,0,0,1,0-.14l0-.41h.09l0,.36a.58.58,0,0,0,0,.13.1.1,0,0,0,0,.05h.06a.13.13,0,0,0,.1-.06.29.29,0,0,0,0-.17l0-.35h.09l.06.65Z"/><path class="cls-4" d="M109.82,156.74l-.09.08-.1,0a.18.18,0,0,1-.14,0,.19.19,0,0,1-.06-.13.21.21,0,0,1,0-.1.18.18,0,0,1,.06-.07l.12,0,.16-.05v0a.14.14,0,0,0,0-.09.13.13,0,0,0-.11,0,.15.15,0,0,0-.09,0,.17.17,0,0,0,0,.1h-.09a.25.25,0,0,1,.06-.16.26.26,0,0,1,.16-.06.24.24,0,0,1,.14,0,.14.14,0,0,1,.07.07.56.56,0,0,1,0,.14v.15a1.89,1.89,0,0,0,0,.2.29.29,0,0,0,0,.08h-.09A.28.28,0,0,1,109.82,156.74Zm0-.25-.14.06-.08,0,0,0a.11.11,0,0,0,0,.05.1.1,0,0,0,0,.07.11.11,0,0,0,.08,0l.09,0a.16.16,0,0,0,.05-.07.3.3,0,0,0,0-.12Z"/><path class="cls-4" d="M110.05,156.8l-.09-.9h.09l.09.9Z"/><path class="cls-4" d="M110.21,156v-.13h.09V156Zm.08.78-.06-.65h.09l.06.65Z"/><path class="cls-4" d="M110.71,156.63l0,.1-.07,0h-.08a.1.1,0,0,1,0,0,.5.5,0,0,1,0-.13l0-.38h-.07v-.09h.07l0-.16.08-.08,0,.23h.09v.09h-.09l0,.38a.18.18,0,0,0,0,.07,0,0,0,0,0,0,0Z"/><path class="cls-4" d="M110.83,157l0-.1h.05l0,0,0,0,0-.11-.27-.64h.1l.15.37.05.15q0-.08,0-.15l.08-.39h.09l-.14.69a1.18,1.18,0,0,1,0,.18.16.16,0,0,1,0,.07l-.06,0Z"/><path class="cls-4" d="M108.12,155.73a1.2,1.2,0,1,1,1.15-1.26A1.21,1.21,0,0,1,108.12,155.73Zm-.1-2.31a1.11,1.11,0,1,0,1.16,1.06A1.11,1.11,0,0,0,108,153.42Z"/></g></g></g></g></svg>